<svg width="400" height="400" viewBox="0 0 400 400" fill="none" xmlns="http://www.w3.org/2000/svg">
<rect width="400" height="400" fill="white"/>
<g clip-path="url(#clip0_3410_2513)">
<path d="M281.599 126.809C296.704 135.06 313.799 149.568 312.016 168.908C309.944 186.834 293.205 199.347 278.249 206.886C234.575 227.725 173.243 228.362 128.151 210.155C112.913 203.824 95.8102 192.941 89.4017 176.588C84.4938 163.148 90.4712 149.146 100.519 139.827C121.535 120.768 148.322 114.23 175.887 110.456C205.808 106.832 237.295 110.034 264.081 119.204C270.067 121.414 275.97 123.83 281.599 126.809ZM331.117 246.717V290H321.691V277.553H300.186V290H290.76V256.061C290.76 250.061 293.189 246.709 300.186 246.709H331.117V246.717Z" fill="black"/>
<path d="M321.69 254.662H303.99C301.014 254.836 300.193 255.573 300.193 259.181V269.104H321.699L321.69 254.662Z" fill="white"/>
<path d="M281.333 256.061V279.481C281.333 286.938 277.138 290 271.907 290H242.178V246.718H271.907C279.941 246.709 281.333 251.799 281.333 256.061Z" fill="black"/>
<path d="M271.799 258.66C271.799 256.293 270.356 254.654 267.819 254.654H251.611V281.708H267.819C271.517 281.517 271.799 279.308 271.799 277.553V258.66Z" fill="white"/>
<path d="M50.0293 246.709H59.4555V263.766H80.5464V246.709H89.9726V289.992H80.5464V272.323H59.4555V289.992H50.0293V246.709ZM106.131 246.709L117.945 264.395L129.617 246.709H141.067L122.653 274.375V289.992H113.227V274.375L94.6816 246.709H106.131ZM193.976 246.709H224.352C228.68 246.709 232.875 247.313 232.75 256.061V290H223.324V259.173C223.324 255.44 222.876 254.654 219.95 254.654H203.402V290H193.976V246.709ZM340.543 246.718H349.969V290H340.543V246.718ZM145.775 289.992H176.152C182.195 289.992 184.674 288.245 184.55 279.548V246.709H175.124V277.603C175.124 281.31 174.676 281.757 171.741 281.757H155.193V246.709H145.767L145.775 289.992Z" fill="black"/>
<path d="M223.401 179.295C225.117 188.108 220.482 195.432 216.636 202.55C212.358 209.162 205.311 214.847 196.83 214.003C178.246 213.747 159.788 210.923 141.98 205.612C141.161 205.4 140.449 204.893 139.982 204.188C139.626 203.195 140.131 202.268 140.844 201.631C156.588 188.903 175.324 183.002 193.845 176.812C200.751 174.817 208.096 172.682 215.856 173.684C219.056 174.106 222.265 176.307 223.401 179.295ZM288.298 141.607C297.127 148.856 305.111 158.746 302.4 170.688C297.981 188.323 278.747 197.717 263.435 203.683C255.103 206.456 246.697 209.303 237.577 210.155C237.005 210.089 236.077 210.23 235.936 209.377L236.151 208.384C249.109 193.802 258.942 177.449 267.564 160.881C271.551 153.416 275.257 145.736 278.673 138.197C279.096 137.714 279.635 137.347 280.24 137.129C283.456 137.411 285.736 139.894 288.298 141.607ZM163.991 122.829L163.701 123.896C144.965 145.157 132.645 169.835 120.964 194.365C118.684 196.5 116.471 193.653 114.406 192.734C104.01 185.907 94.6087 174.884 97.3197 161.8C101.664 144.735 119.256 135.623 133.938 129.441C142.754 126.044 151.897 123.565 161.222 122.043C162.209 122.051 163.494 121.91 163.991 122.829ZM256.952 126.247C258.021 126.809 259.306 127.025 259.945 128.092C260.517 129.3 259.373 130.087 258.734 130.865C243.986 142.385 227.106 148.782 209.862 154.401C201.099 156.528 192.262 160.376 182.504 158.241C181.327 157.941 180.223 157.408 179.256 156.675C178.289 155.941 177.479 155.022 176.875 153.971C174.454 147.284 177.729 140.316 180.58 134.489C184.361 127.165 191.051 118.558 200.312 118.418C220.267 118.285 239.078 121.265 256.952 126.247Z" fill="white"/>
</g>
<defs>
<clipPath id="clip0_3410_2513">
<rect width="300" height="181" fill="white" transform="translate(50 109)"/>
</clipPath>
</defs>
</svg>
