<?xml version="1.0" encoding="UTF-8"?>
<svg id="Layer_1" xmlns="http://www.w3.org/2000/svg" xmlns:xlink="http://www.w3.org/1999/xlink" version="1.1" viewBox="0 0 113 83">
  <!-- Generator: Adobe Illustrator 29.8.1, SVG Export Plug-In . SVG Version: 2.1.1 Build 2)  -->
  <defs>
    <style>
      .st0 {
        fill: none;
      }

      .st1 {
        mask: url(#mask);
      }

      .st2 {
        fill: #f3d500;
      }

      .st3 {
        fill: #e31318;
      }

      .st4 {
        fill: #12110c;
        fill-rule: evenodd;
      }

      .st5 {
        fill: #1d1d1b;
      }

      .st6 {
        mask: url(#mask-2);
      }

      .st7 {
        mask: url(#mask-3);
      }

      .st8 {
        mask: url(#mask-4);
      }

      .st9 {
        mask: url(#mask-5);
      }

      .st10 {
        mask: url(#mask-7);
      }

      .st11 {
        mask: url(#mask-6);
      }

      .st12 {
        mask: url(#mask-1);
      }

      .st13 {
        mask: url(#mask-9);
      }

      .st14 {
        mask: url(#mask-8);
      }

      .st15 {
        fill: #fff;
      }

      .st16 {
        mask: url(#mask-50);
      }

      .st17 {
        mask: url(#mask-54);
      }

      .st18 {
        mask: url(#mask-51);
      }

      .st19 {
        mask: url(#mask-53);
      }

      .st20 {
        mask: url(#mask-52);
      }

      .st21 {
        mask: url(#mask-55);
      }

      .st22 {
        mask: url(#mask-60);
      }

      .st23 {
        mask: url(#mask-64);
      }

      .st24 {
        mask: url(#mask-62);
      }

      .st25 {
        mask: url(#mask-61);
      }

      .st26 {
        mask: url(#mask-65);
      }

      .st27 {
        mask: url(#mask-56);
      }

      .st28 {
        mask: url(#mask-41);
      }

      .st29 {
        mask: url(#mask-59);
      }

      .st30 {
        mask: url(#mask-31);
      }

      .st31 {
        mask: url(#mask-35);
      }

      .st32 {
        mask: url(#mask-30);
      }

      .st33 {
        mask: url(#mask-34);
      }

      .st34 {
        mask: url(#mask-33);
      }

      .st35 {
        mask: url(#mask-57);
      }

      .st36 {
        mask: url(#mask-44);
      }

      .st37 {
        mask: url(#mask-43);
      }

      .st38 {
        mask: url(#mask-40);
      }

      .st39 {
        mask: url(#mask-46);
      }

      .st40 {
        mask: url(#mask-45);
      }

      .st41 {
        mask: url(#mask-42);
      }

      .st42 {
        mask: url(#mask-58);
      }

      .st43 {
        mask: url(#mask-32);
      }

      .st44 {
        mask: url(#mask-10);
      }

      .st45 {
        mask: url(#mask-14);
      }

      .st46 {
        mask: url(#mask-18);
      }

      .st47 {
        mask: url(#mask-11);
      }

      .st48 {
        mask: url(#mask-16);
      }

      .st49 {
        mask: url(#mask-13);
      }

      .st50 {
        mask: url(#mask-19);
      }

      .st51 {
        mask: url(#mask-12);
      }

      .st52 {
        mask: url(#mask-17);
      }

      .st53 {
        mask: url(#mask-15);
      }

      .st54 {
        mask: url(#mask-22);
      }

      .st55 {
        mask: url(#mask-21);
      }

      .st56 {
        mask: url(#mask-20);
      }

      .st57 {
        mask: url(#mask-36);
      }

      .st58 {
        mask: url(#mask-25);
      }

      .st59 {
        mask: url(#mask-24);
      }

      .st60 {
        mask: url(#mask-23);
      }

      .st61 {
        mask: url(#mask-39);
      }

      .st62 {
        mask: url(#mask-38);
      }

      .st63 {
        mask: url(#mask-37);
      }

      .st64 {
        mask: url(#mask-49);
      }

      .st65 {
        mask: url(#mask-63);
      }

      .st66 {
        mask: url(#mask-48);
      }

      .st67 {
        mask: url(#mask-47);
      }

      .st68 {
        mask: url(#mask-28);
      }

      .st69 {
        mask: url(#mask-29);
      }

      .st70 {
        mask: url(#mask-26);
      }

      .st71 {
        mask: url(#mask-27);
      }

      .st72 {
        fill: #161612;
      }

      .st73 {
        clip-path: url(#clippath);
      }
    </style>
    <clipPath id="clippath">
      <rect class="st0" y="-36" width="112.12" height="158.56"/>
    </clipPath>
    <mask id="mask" x="0" y="-36" width="112.12" height="158.56" maskUnits="userSpaceOnUse">
      <g id="mask0_3311_39745">
        <path class="st15" d="M0-36h112.12V122.56H0V-36Z"/>
      </g>
    </mask>
    <mask id="mask-1" x="0" y="-36" width="112.12" height="158.56" maskUnits="userSpaceOnUse">
      <g id="mask1_3311_39745">
        <path class="st15" d="M0-36h112.12V122.56H0V-36Z"/>
      </g>
    </mask>
    <mask id="mask-2" x="0" y="-36" width="112.12" height="158.56" maskUnits="userSpaceOnUse">
      <g id="mask2_3311_39745">
        <path class="st15" d="M0-36h112.12V122.56H0V-36Z"/>
      </g>
    </mask>
    <mask id="mask-3" x="0" y="-36" width="112.12" height="158.56" maskUnits="userSpaceOnUse">
      <g id="mask3_3311_39745">
        <path class="st15" d="M0-36h112.12V122.56H0V-36Z"/>
      </g>
    </mask>
    <mask id="mask-4" x="0" y="-36" width="112.12" height="158.56" maskUnits="userSpaceOnUse">
      <g id="mask4_3311_39745">
        <path class="st15" d="M0-36h112.12V122.56H0V-36Z"/>
      </g>
    </mask>
    <mask id="mask-5" x="0" y="-36" width="112.12" height="158.56" maskUnits="userSpaceOnUse">
      <g id="mask5_3311_39745">
        <path class="st15" d="M0-36h112.12V122.56H0V-36Z"/>
      </g>
    </mask>
    <mask id="mask-6" x="0" y="-36" width="112.12" height="158.56" maskUnits="userSpaceOnUse">
      <g id="mask6_3311_39745">
        <path class="st15" d="M0-36h112.12V122.56H0V-36Z"/>
      </g>
    </mask>
    <mask id="mask-7" x="0" y="-36" width="112.12" height="158.56" maskUnits="userSpaceOnUse">
      <g id="mask7_3311_39745">
        <path class="st15" d="M0-36h112.12V122.56H0V-36Z"/>
      </g>
    </mask>
    <mask id="mask-8" x="0" y="-36" width="112.12" height="158.56" maskUnits="userSpaceOnUse">
      <g id="mask8_3311_39745">
        <path class="st15" d="M0-36h112.12V122.56H0V-36Z"/>
      </g>
    </mask>
    <mask id="mask-9" x="0" y="-36" width="112.12" height="158.56" maskUnits="userSpaceOnUse">
      <g id="mask9_3311_39745">
        <path class="st15" d="M0-36h112.12V122.56H0V-36Z"/>
      </g>
    </mask>
    <mask id="mask-10" x="0" y="-36" width="112.12" height="158.56" maskUnits="userSpaceOnUse">
      <g id="mask10_3311_39745">
        <path class="st15" d="M0-36h112.12V122.56H0V-36Z"/>
      </g>
    </mask>
    <mask id="mask-11" x="0" y="-36" width="112.12" height="158.56" maskUnits="userSpaceOnUse">
      <g id="mask11_3311_39745">
        <path class="st15" d="M0-36h112.12V122.56H0V-36Z"/>
      </g>
    </mask>
    <mask id="mask-12" x="0" y="-36" width="112.12" height="158.56" maskUnits="userSpaceOnUse">
      <g id="mask12_3311_39745">
        <path class="st15" d="M0-36h112.12V122.56H0V-36Z"/>
      </g>
    </mask>
    <mask id="mask-13" x="0" y="-36" width="112.12" height="158.56" maskUnits="userSpaceOnUse">
      <g id="mask13_3311_39745">
        <path class="st15" d="M0-36h112.12V122.56H0V-36Z"/>
      </g>
    </mask>
    <mask id="mask-14" x="0" y="-36" width="112.12" height="158.56" maskUnits="userSpaceOnUse">
      <g id="mask14_3311_39745">
        <path class="st15" d="M0-36h112.12V122.56H0V-36Z"/>
      </g>
    </mask>
    <mask id="mask-15" x="0" y="-36" width="112.12" height="158.56" maskUnits="userSpaceOnUse">
      <g id="mask15_3311_39745">
        <path class="st15" d="M0-36h112.12V122.56H0V-36Z"/>
      </g>
    </mask>
    <mask id="mask-16" x="0" y="-36" width="112.12" height="158.56" maskUnits="userSpaceOnUse">
      <g id="mask16_3311_39745">
        <path class="st15" d="M0-36h112.12V122.56H0V-36Z"/>
      </g>
    </mask>
    <mask id="mask-17" x="0" y="-36" width="112.12" height="158.56" maskUnits="userSpaceOnUse">
      <g id="mask17_3311_39745">
        <path class="st15" d="M0-36h112.12V122.56H0V-36Z"/>
      </g>
    </mask>
    <mask id="mask-18" x="0" y="-36" width="112.12" height="158.56" maskUnits="userSpaceOnUse">
      <g id="mask18_3311_39745">
        <path class="st15" d="M0-36h112.12V122.56H0V-36Z"/>
      </g>
    </mask>
    <mask id="mask-19" x="0" y="-36" width="112.12" height="158.56" maskUnits="userSpaceOnUse">
      <g id="mask19_3311_39745">
        <path class="st15" d="M0-36h112.12V122.56H0V-36Z"/>
      </g>
    </mask>
    <mask id="mask-20" x="0" y="-36" width="112.12" height="158.56" maskUnits="userSpaceOnUse">
      <g id="mask20_3311_39745">
        <path class="st15" d="M0-36h112.12V122.56H0V-36Z"/>
      </g>
    </mask>
    <mask id="mask-21" x="0" y="-36" width="112.12" height="158.56" maskUnits="userSpaceOnUse">
      <g id="mask21_3311_39745">
        <path class="st15" d="M0-36h112.12V122.56H0V-36Z"/>
      </g>
    </mask>
    <mask id="mask-22" x="0" y="-36" width="112.12" height="158.56" maskUnits="userSpaceOnUse">
      <g id="mask22_3311_39745">
        <path class="st15" d="M0-36h112.12V122.56H0V-36Z"/>
      </g>
    </mask>
    <mask id="mask-23" x="0" y="-36" width="112.12" height="158.56" maskUnits="userSpaceOnUse">
      <g id="mask23_3311_39745">
        <path class="st15" d="M0-36h112.12V122.56H0V-36Z"/>
      </g>
    </mask>
    <mask id="mask-24" x="0" y="-36" width="112.12" height="158.56" maskUnits="userSpaceOnUse">
      <g id="mask24_3311_39745">
        <path class="st15" d="M0-36h112.12V122.56H0V-36Z"/>
      </g>
    </mask>
    <mask id="mask-25" x="0" y="-36" width="112.12" height="158.56" maskUnits="userSpaceOnUse">
      <g id="mask25_3311_39745">
        <path class="st15" d="M0-36h112.12V122.56H0V-36Z"/>
      </g>
    </mask>
    <mask id="mask-26" x="0" y="-36" width="112.12" height="158.56" maskUnits="userSpaceOnUse">
      <g id="mask26_3311_39745">
        <path class="st15" d="M0-36h112.12V122.56H0V-36Z"/>
      </g>
    </mask>
    <mask id="mask-27" x="0" y="-36" width="112.12" height="158.56" maskUnits="userSpaceOnUse">
      <g id="mask27_3311_39745">
        <path class="st15" d="M0-36h112.12V122.56H0V-36Z"/>
      </g>
    </mask>
    <mask id="mask-28" x="0" y="-36" width="112.12" height="158.56" maskUnits="userSpaceOnUse">
      <g id="mask28_3311_39745">
        <path class="st15" d="M0-36h112.12V122.56H0V-36Z"/>
      </g>
    </mask>
    <mask id="mask-29" x="0" y="-36" width="112.12" height="158.56" maskUnits="userSpaceOnUse">
      <g id="mask29_3311_39745">
        <path class="st15" d="M0-36h112.12V122.56H0V-36Z"/>
      </g>
    </mask>
    <mask id="mask-30" x="0" y="-36" width="112.12" height="158.56" maskUnits="userSpaceOnUse">
      <g id="mask30_3311_39745">
        <path class="st15" d="M0-36h112.12V122.56H0V-36Z"/>
      </g>
    </mask>
    <mask id="mask-31" x="0" y="-36" width="112.12" height="158.56" maskUnits="userSpaceOnUse">
      <g id="mask31_3311_39745">
        <path class="st15" d="M0-36h112.12V122.56H0V-36Z"/>
      </g>
    </mask>
    <mask id="mask-32" x="0" y="-36" width="112.12" height="158.56" maskUnits="userSpaceOnUse">
      <g id="mask32_3311_39745">
        <path class="st15" d="M0-36h112.12V122.56H0V-36Z"/>
      </g>
    </mask>
    <mask id="mask-33" x="0" y="-36" width="112.12" height="158.56" maskUnits="userSpaceOnUse">
      <g id="mask33_3311_39745">
        <path class="st15" d="M0-36h112.12V122.56H0V-36Z"/>
      </g>
    </mask>
    <mask id="mask-34" x="0" y="-36" width="112.12" height="158.56" maskUnits="userSpaceOnUse">
      <g id="mask34_3311_39745">
        <path class="st15" d="M0-36h112.12V122.56H0V-36Z"/>
      </g>
    </mask>
    <mask id="mask-35" x="0" y="-36" width="112.12" height="158.56" maskUnits="userSpaceOnUse">
      <g id="mask35_3311_39745">
        <path class="st15" d="M0-36h112.12V122.56H0V-36Z"/>
      </g>
    </mask>
    <mask id="mask-36" x="0" y="-36" width="112.12" height="158.56" maskUnits="userSpaceOnUse">
      <g id="mask36_3311_39745">
        <path class="st15" d="M0-36h112.12V122.56H0V-36Z"/>
      </g>
    </mask>
    <mask id="mask-37" x="0" y="-36" width="112.12" height="158.56" maskUnits="userSpaceOnUse">
      <g id="mask37_3311_39745">
        <path class="st15" d="M0-36h112.12V122.56H0V-36Z"/>
      </g>
    </mask>
    <mask id="mask-38" x="0" y="-36" width="112.12" height="158.56" maskUnits="userSpaceOnUse">
      <g id="mask38_3311_39745">
        <path class="st15" d="M0-36h112.12V122.56H0V-36Z"/>
      </g>
    </mask>
    <mask id="mask-39" x="0" y="-36" width="112.12" height="158.56" maskUnits="userSpaceOnUse">
      <g id="mask39_3311_39745">
        <path class="st15" d="M0-36h112.12V122.56H0V-36Z"/>
      </g>
    </mask>
    <mask id="mask-40" x="0" y="-36" width="112.12" height="158.56" maskUnits="userSpaceOnUse">
      <g id="mask40_3311_39745">
        <path class="st15" d="M0-36h112.12V122.56H0V-36Z"/>
      </g>
    </mask>
    <mask id="mask-41" x="0" y="-36" width="112.12" height="158.56" maskUnits="userSpaceOnUse">
      <g id="mask41_3311_39745">
        <path class="st15" d="M0-36h112.12V122.56H0V-36Z"/>
      </g>
    </mask>
    <mask id="mask-42" x="0" y="-36" width="112.12" height="158.56" maskUnits="userSpaceOnUse">
      <g id="mask42_3311_39745">
        <path class="st15" d="M0-36h112.12V122.56H0V-36Z"/>
      </g>
    </mask>
    <mask id="mask-43" x="0" y="-36" width="112.12" height="158.56" maskUnits="userSpaceOnUse">
      <g id="mask43_3311_39745">
        <path class="st15" d="M0-36h112.12V122.56H0V-36Z"/>
      </g>
    </mask>
    <mask id="mask-44" x="0" y="-36" width="112.12" height="158.56" maskUnits="userSpaceOnUse">
      <g id="mask44_3311_39745">
        <path class="st15" d="M0-36h112.12V122.56H0V-36Z"/>
      </g>
    </mask>
    <mask id="mask-45" x="0" y="-36" width="112.12" height="158.56" maskUnits="userSpaceOnUse">
      <g id="mask45_3311_39745">
        <path class="st15" d="M0-36h112.12V122.56H0V-36Z"/>
      </g>
    </mask>
    <mask id="mask-46" x="0" y="-36" width="112.12" height="158.56" maskUnits="userSpaceOnUse">
      <g id="mask46_3311_39745">
        <path class="st15" d="M0-36h112.12V122.56H0V-36Z"/>
      </g>
    </mask>
    <mask id="mask-47" x="0" y="-36" width="112.12" height="158.56" maskUnits="userSpaceOnUse">
      <g id="mask47_3311_39745">
        <path class="st15" d="M0-36h112.12V122.56H0V-36Z"/>
      </g>
    </mask>
    <mask id="mask-48" x="0" y="-36" width="112.12" height="158.56" maskUnits="userSpaceOnUse">
      <g id="mask48_3311_39745">
        <path class="st15" d="M0-36h112.12V122.56H0V-36Z"/>
      </g>
    </mask>
    <mask id="mask-49" x="0" y="-36" width="112.12" height="158.56" maskUnits="userSpaceOnUse">
      <g id="mask49_3311_39745">
        <path class="st15" d="M0-36h112.12V122.56H0V-36Z"/>
      </g>
    </mask>
    <mask id="mask-50" x="0" y="-36" width="112.12" height="158.56" maskUnits="userSpaceOnUse">
      <g id="mask50_3311_39745">
        <path class="st15" d="M0-36h112.12V122.56H0V-36Z"/>
      </g>
    </mask>
    <mask id="mask-51" x="0" y="-36" width="112.12" height="158.56" maskUnits="userSpaceOnUse">
      <g id="mask51_3311_39745">
        <path class="st15" d="M0-36h112.12V122.56H0V-36Z"/>
      </g>
    </mask>
    <mask id="mask-52" x="0" y="-36" width="112.12" height="158.56" maskUnits="userSpaceOnUse">
      <g id="mask52_3311_39745">
        <path class="st15" d="M0-36h112.12V122.56H0V-36Z"/>
      </g>
    </mask>
    <mask id="mask-53" x="0" y="-36" width="112.12" height="158.56" maskUnits="userSpaceOnUse">
      <g id="mask53_3311_39745">
        <path class="st15" d="M0-36h112.12V122.56H0V-36Z"/>
      </g>
    </mask>
    <mask id="mask-54" x="0" y="-36" width="112.12" height="158.56" maskUnits="userSpaceOnUse">
      <g id="mask54_3311_39745">
        <path class="st15" d="M0-36h112.12V122.56H0V-36Z"/>
      </g>
    </mask>
    <mask id="mask-55" x="0" y="-36" width="112.12" height="158.56" maskUnits="userSpaceOnUse">
      <g id="mask55_3311_39745">
        <path class="st15" d="M0-36h112.12V122.56H0V-36Z"/>
      </g>
    </mask>
    <mask id="mask-56" x="0" y="-36" width="112.12" height="158.56" maskUnits="userSpaceOnUse">
      <g id="mask56_3311_39745">
        <path class="st15" d="M0-36h112.12V122.56H0V-36Z"/>
      </g>
    </mask>
    <mask id="mask-57" x="0" y="-36" width="112.12" height="158.56" maskUnits="userSpaceOnUse">
      <g id="mask57_3311_39745">
        <path class="st15" d="M0-36h112.12V122.56H0V-36Z"/>
      </g>
    </mask>
    <mask id="mask-58" x="0" y="-36" width="112.12" height="158.56" maskUnits="userSpaceOnUse">
      <g id="mask58_3311_39745">
        <path class="st15" d="M0-36h112.12V122.56H0V-36Z"/>
      </g>
    </mask>
    <mask id="mask-59" x="0" y="-36" width="112.12" height="158.56" maskUnits="userSpaceOnUse">
      <g id="mask59_3311_39745">
        <path class="st15" d="M0-36h112.12V122.56H0V-36Z"/>
      </g>
    </mask>
    <mask id="mask-60" x="0" y="-36" width="112.12" height="158.56" maskUnits="userSpaceOnUse">
      <g id="mask60_3311_39745">
        <path class="st15" d="M0-36h112.12V122.56H0V-36Z"/>
      </g>
    </mask>
    <mask id="mask-61" x="0" y="-36" width="112.12" height="158.56" maskUnits="userSpaceOnUse">
      <g id="mask61_3311_39745">
        <path class="st15" d="M0-36h112.12V122.56H0V-36Z"/>
      </g>
    </mask>
    <mask id="mask-62" x="0" y="-36" width="112.12" height="158.56" maskUnits="userSpaceOnUse">
      <g id="mask62_3311_39745">
        <path class="st15" d="M0-36h112.12V122.56H0V-36Z"/>
      </g>
    </mask>
    <mask id="mask-63" x="0" y="-36" width="112.12" height="158.56" maskUnits="userSpaceOnUse">
      <g id="mask63_3311_39745">
        <path class="st15" d="M0-36h112.12V122.56H0V-36Z"/>
      </g>
    </mask>
    <mask id="mask-64" x="0" y="-36" width="112.12" height="158.56" maskUnits="userSpaceOnUse">
      <g id="mask64_3311_39745">
        <path class="st15" d="M0-36h112.12V122.56H0V-36Z"/>
      </g>
    </mask>
    <mask id="mask-65" x="0" y="-36" width="112.12" height="158.56" maskUnits="userSpaceOnUse">
      <g id="mask65_3311_39745">
        <path class="st15" d="M0-36h112.12V122.56H0V-36Z"/>
      </g>
    </mask>
  </defs>
  <g class="st73">
    <g>
      <g class="st1">
        <path class="st5" d="M49.25,23.94h.73c.22,0,.4-.02.53-.06.13-.04.23-.1.31-.18.11-.11.19-.25.25-.43.06-.18.09-.4.09-.66,0-.36-.06-.63-.18-.82-.12-.19-.26-.32-.43-.38-.12-.05-.32-.07-.58-.07h-.72v2.6ZM48.79,24.34v-3.41h1.17c.26,0,.47.02.61.05.2.04.36.13.5.24.18.15.31.35.4.58.09.24.13.51.13.81,0,.26-.03.49-.09.69-.06.2-.14.37-.23.5-.09.13-.2.23-.31.31-.11.08-.25.13-.41.17-.16.04-.34.06-.55.06h-1.23Z"/>
      </g>
      <g class="st12">
        <path class="st5" d="M52.54,22.87h1.38c-.02-.21-.07-.36-.16-.47-.13-.16-.31-.24-.52-.24-.19,0-.35.06-.48.19-.13.13-.2.3-.22.52ZM53.92,23.55l.43.05c-.07.25-.19.45-.38.59-.18.14-.42.21-.71.21-.36,0-.65-.11-.86-.33-.21-.22-.32-.53-.32-.93s.11-.74.32-.97c.21-.23.49-.34.83-.34s.6.11.81.34c.21.22.31.54.31.95,0,.02,0,.06,0,.11h-1.84c.02.27.09.48.23.62.14.14.31.22.52.22.15,0,.28-.04.39-.12.11-.08.19-.21.26-.39Z"/>
      </g>
      <g class="st6">
        <path class="st5" d="M56.51,24.34v-.36c-.19.28-.45.42-.78.42-.15,0-.28-.03-.41-.08-.13-.06-.22-.12-.28-.21-.06-.08-.1-.19-.13-.31-.02-.08-.03-.21-.03-.39v-1.53h.42v1.37c0,.22,0,.37.03.44.03.11.08.2.17.26.09.06.19.09.32.09s.24-.03.35-.1c.11-.06.19-.15.23-.26.05-.11.07-.27.07-.48v-1.32h.42v2.47h-.37Z"/>
      </g>
      <g class="st7">
        <path class="st5" d="M58.45,23.97l.06.37c-.12.03-.22.04-.32.04-.15,0-.27-.02-.35-.07-.08-.05-.14-.11-.18-.19-.03-.08-.05-.24-.05-.49v-1.42h-.31v-.32h.31v-.61l.42-.25v.86h.42v.32h-.42v1.44c0,.12,0,.2.02.23.02.03.04.06.07.08.03.02.08.03.14.03.05,0,.11,0,.18-.02Z"/>
      </g>
      <g class="st8">
        <path class="st5" d="M58.74,23.61l.41-.07c.02.17.09.29.19.38.11.09.26.13.45.13s.33-.04.43-.12c.09-.08.14-.17.14-.28,0-.09-.04-.17-.12-.22-.06-.04-.2-.08-.43-.14-.31-.08-.52-.14-.64-.2-.12-.06-.21-.13-.27-.23-.06-.1-.09-.21-.09-.33,0-.11.02-.21.07-.31.05-.09.12-.17.21-.23.06-.05.15-.09.27-.12.11-.03.23-.05.36-.05.19,0,.36.03.51.08.15.06.25.13.32.23.07.1.12.22.14.38l-.41.06c-.02-.13-.07-.23-.16-.3-.09-.07-.21-.11-.38-.11-.19,0-.33.03-.41.1-.08.06-.12.14-.12.22,0,.05.02.1.05.15.03.04.09.08.16.11.04.02.17.05.37.11.3.08.5.14.62.19.12.05.21.12.28.22.07.1.1.22.1.36s-.04.27-.12.39c-.08.12-.2.22-.35.29-.15.07-.33.1-.52.1-.32,0-.56-.07-.73-.2-.17-.13-.28-.33-.32-.59Z"/>
      </g>
      <g class="st9">
        <path class="st5" d="M62.91,23.44l.41.05c-.05.28-.16.51-.35.67-.19.16-.41.24-.68.24-.34,0-.61-.11-.81-.33-.2-.22-.31-.54-.31-.95,0-.27.04-.5.13-.7.09-.2.22-.35.4-.45.18-.1.38-.15.59-.15.27,0,.49.07.66.2.17.14.28.33.33.58l-.41.06c-.04-.17-.11-.29-.21-.37-.1-.08-.22-.13-.36-.13-.21,0-.38.08-.51.23-.13.15-.2.39-.2.72s.06.57.19.72c.13.15.29.23.5.23.16,0,.3-.05.41-.15.11-.1.18-.26.21-.47Z"/>
      </g>
      <g class="st11">
        <path class="st5" d="M63.74,24.34v-3.41h.42v1.22c.19-.23.44-.34.74-.34.18,0,.34.04.48.11.14.07.23.17.29.3.06.13.09.31.09.55v1.57h-.42v-1.57c0-.21-.05-.36-.14-.46-.09-.1-.22-.14-.38-.14-.12,0-.24.03-.35.1-.11.06-.19.15-.23.26-.05.11-.07.26-.07.46v1.35h-.42Z"/>
      </g>
      <g class="st10">
        <path class="st5" d="M66.73,22.87h1.38c-.02-.21-.07-.36-.16-.47-.13-.16-.31-.24-.52-.24-.19,0-.35.06-.49.19-.13.13-.2.3-.22.52ZM68.1,23.55l.43.05c-.07.25-.19.45-.38.59-.18.14-.42.21-.71.21-.36,0-.65-.11-.86-.33-.21-.22-.32-.53-.32-.93s.11-.74.32-.97c.21-.23.49-.34.83-.34s.6.11.81.34c.21.22.31.54.31.95,0,.02,0,.06,0,.11h-1.84c.02.27.09.48.23.62.14.14.31.22.52.22.15,0,.28-.04.39-.12.11-.08.19-.21.26-.39Z"/>
      </g>
      <g class="st14">
        <path class="st5" d="M70.87,23.94h.85c.15,0,.25,0,.31-.02.1-.02.19-.05.26-.09.07-.04.13-.11.17-.19.05-.08.07-.18.07-.29,0-.13-.03-.24-.1-.33-.07-.09-.16-.16-.27-.2-.12-.04-.28-.06-.5-.06h-.79v1.17ZM70.87,22.37h.74c.2,0,.34-.01.43-.04.11-.03.2-.09.26-.17.06-.08.09-.18.09-.3,0-.11-.03-.21-.08-.3-.05-.09-.13-.14-.23-.18-.1-.03-.27-.05-.52-.05h-.68v1.03ZM70.42,24.34v-3.41h1.28c.26,0,.47.03.63.1.16.07.28.18.37.32.09.14.13.29.13.45,0,.15-.04.28-.12.41-.08.13-.2.23-.36.31.21.06.37.16.48.31.11.15.17.32.17.52,0,.16-.03.31-.1.45-.07.14-.15.24-.25.32-.1.08-.22.13-.37.17-.15.04-.33.06-.55.06h-1.3Z"/>
      </g>
      <g class="st13">
        <path class="st5" d="M73.87,23.11c0,.32.07.55.21.71.14.16.31.24.52.24s.38-.08.52-.24c.14-.16.21-.4.21-.72,0-.31-.07-.54-.21-.69-.14-.16-.31-.24-.52-.24s-.38.08-.52.23c-.14.16-.21.39-.21.71ZM73.44,23.11c0-.46.13-.8.38-1.02.21-.18.47-.27.78-.27.34,0,.62.11.83.33.22.22.32.53.32.92,0,.32-.05.57-.14.75-.1.18-.23.32-.42.42-.18.1-.38.15-.6.15-.35,0-.62-.11-.84-.33-.21-.22-.32-.54-.32-.96Z"/>
      </g>
      <g class="st44">
        <path class="st5" d="M77.15,23.97l.06.37c-.12.03-.22.04-.32.04-.15,0-.27-.02-.35-.07-.08-.05-.14-.11-.18-.19-.04-.08-.05-.24-.05-.49v-1.42h-.31v-.32h.31v-.61l.42-.25v.86h.42v.32h-.42v1.44c0,.12,0,.2.02.23.01.03.04.06.07.08.03.02.08.03.14.03.05,0,.11,0,.18-.02Z"/>
      </g>
      <g class="st47">
        <path class="st5" d="M77.43,23.61l.41-.07c.02.17.09.29.19.38.11.09.25.13.44.13s.33-.04.43-.12c.09-.08.14-.17.14-.28,0-.09-.04-.17-.12-.22-.06-.04-.2-.08-.43-.14-.31-.08-.52-.14-.64-.2-.12-.06-.21-.13-.27-.23-.06-.1-.09-.21-.09-.33,0-.11.03-.21.08-.31.05-.09.12-.17.21-.23.07-.05.15-.09.27-.12.11-.03.23-.05.36-.05.19,0,.36.03.51.08.15.06.25.13.32.23.07.1.12.22.14.38l-.41.06c-.02-.13-.07-.23-.16-.3-.09-.07-.22-.11-.38-.11-.19,0-.33.03-.41.1-.08.06-.12.14-.12.22,0,.05.02.1.05.15.03.04.09.08.16.11.04.02.16.05.37.11.3.08.5.14.62.19.12.05.21.12.28.22.07.1.1.22.1.36s-.04.27-.12.39c-.08.12-.2.22-.35.29-.15.07-.33.1-.52.1-.32,0-.57-.07-.73-.2-.17-.13-.28-.33-.32-.59Z"/>
      </g>
      <g class="st51">
        <path class="st5" d="M81.61,23.44l.41.05c-.04.28-.16.51-.35.67-.18.16-.41.24-.68.24-.34,0-.61-.11-.82-.33-.2-.22-.31-.54-.31-.95,0-.27.04-.5.13-.7.09-.2.22-.35.4-.45.18-.1.38-.15.59-.15.27,0,.49.07.66.2.17.14.28.33.33.58l-.41.06c-.04-.17-.11-.29-.21-.37-.1-.08-.22-.13-.36-.13-.21,0-.38.08-.51.23-.13.15-.2.39-.2.72s.06.57.19.72c.13.15.29.23.5.23.16,0,.3-.05.41-.15.11-.1.18-.26.21-.47Z"/>
      </g>
      <g class="st49">
        <path class="st5" d="M82.44,24.34v-3.41h.42v1.22c.2-.23.44-.34.74-.34.18,0,.34.04.48.11.13.07.23.17.29.3.06.13.09.31.09.55v1.57h-.42v-1.57c0-.21-.05-.36-.14-.46-.09-.1-.22-.14-.38-.14-.12,0-.24.03-.35.1-.11.06-.19.15-.23.26-.05.11-.07.26-.07.46v1.35h-.42Z"/>
      </g>
      <g class="st45">
        <path class="st5" d="M86.67,23.11c-.15.06-.38.11-.68.16-.17.02-.29.05-.37.08-.07.03-.13.08-.17.14-.04.06-.06.13-.06.2,0,.11.04.2.13.28.08.07.21.11.37.11s.3-.04.43-.11c.13-.07.22-.17.28-.29.05-.09.07-.23.07-.42v-.15ZM86.71,24.04c-.16.13-.3.22-.45.28-.14.05-.3.08-.46.08-.27,0-.48-.07-.62-.2-.15-.13-.22-.3-.22-.51,0-.12.03-.23.08-.33.06-.1.13-.18.22-.24.09-.06.19-.11.3-.14.08-.02.21-.04.37-.06.34-.04.59-.09.75-.14,0-.06,0-.09,0-.11,0-.17-.04-.29-.12-.36-.11-.09-.27-.14-.48-.14-.2,0-.34.03-.44.1-.09.07-.16.19-.21.37l-.41-.06c.04-.18.1-.32.18-.42.09-.11.21-.19.37-.25.16-.06.35-.09.56-.09s.38.03.51.07c.13.05.23.11.29.19.06.08.1.17.13.28.01.07.02.2.02.39v.56c0,.39,0,.64.03.74.02.1.05.2.11.3h-.44c-.04-.09-.07-.19-.08-.3Z"/>
      </g>
      <g class="st53">
        <path class="st5" d="M87.84,24.34v-2.14h-.37v-.32h.37v-.26c0-.17.01-.29.04-.37.04-.11.11-.2.21-.26.1-.07.24-.1.43-.1.12,0,.25.01.39.04l-.06.36c-.09-.02-.17-.02-.25-.02-.13,0-.22.03-.27.08-.05.05-.08.16-.08.3v.23h.48v.32h-.48v2.14h-.42Z"/>
      </g>
      <g class="st48">
        <path class="st5" d="M90.14,23.97l.06.37c-.12.03-.22.04-.32.04-.15,0-.27-.02-.35-.07-.08-.05-.14-.11-.18-.19-.03-.08-.05-.24-.05-.49v-1.42h-.31v-.32h.31v-.61l.42-.25v.86h.42v.32h-.42v1.44c0,.12,0,.2.02.23.01.03.04.06.07.08.03.02.08.03.14.03.05,0,.11,0,.18-.02Z"/>
      </g>
      <g class="st52">
        <path class="st5" d="M49.23,28.92h.85c.15,0,.25,0,.31-.02.1-.02.19-.05.26-.09.07-.04.13-.11.17-.19.05-.08.07-.18.07-.29,0-.13-.03-.24-.1-.33-.07-.09-.16-.16-.27-.2-.12-.04-.28-.06-.5-.06h-.79v1.17ZM49.23,27.35h.74c.2,0,.34-.01.43-.04.11-.03.2-.09.26-.17.06-.08.09-.18.09-.3s-.03-.21-.08-.3c-.05-.09-.13-.14-.23-.18-.1-.03-.27-.05-.52-.05h-.68v1.03ZM48.78,29.33v-3.41h1.28c.26,0,.47.03.63.1.16.07.28.17.37.32.09.14.13.29.13.45,0,.15-.04.28-.12.41-.08.13-.2.23-.36.31.21.06.36.16.48.31.11.15.17.32.17.52,0,.16-.03.31-.1.44-.07.14-.15.24-.25.32-.1.08-.22.13-.37.17-.15.04-.33.06-.55.06h-1.3Z"/>
      </g>
      <g class="st46">
        <path class="st5" d="M53.56,29.33v-.36c-.19.28-.45.42-.78.42-.15,0-.28-.03-.41-.08-.13-.06-.22-.13-.28-.21-.06-.08-.1-.19-.13-.31-.02-.08-.03-.21-.03-.39v-1.53h.42v1.37c0,.22,0,.37.03.44.03.11.08.2.17.26.09.06.19.09.32.09s.24-.03.35-.1c.11-.06.19-.15.23-.26.05-.11.07-.27.07-.48v-1.32h.42v2.47h-.37Z"/>
      </g>
      <g class="st50">
        <path class="st5" d="M54.92,27.85h1.38c-.02-.21-.07-.36-.16-.47-.13-.16-.31-.24-.52-.24-.19,0-.35.06-.48.19-.13.13-.2.3-.22.52ZM56.3,28.53l.43.05c-.07.25-.19.45-.38.59-.18.14-.42.21-.71.21-.36,0-.65-.11-.86-.33-.21-.22-.32-.53-.32-.94s.11-.74.32-.97c.21-.23.49-.34.83-.34s.6.11.81.34c.21.22.31.54.31.95,0,.02,0,.06,0,.11h-1.84c.02.27.09.48.23.62.14.14.31.22.52.22.15,0,.28-.04.39-.12.11-.08.19-.21.26-.39Z"/>
      </g>
      <g class="st56">
        <path class="st5" d="M57.27,29.33v-2.47h.38v.35c.18-.27.44-.41.79-.41.15,0,.29.03.41.08.12.05.22.12.28.21.06.09.11.19.13.31.02.08.02.21.02.41v1.52h-.42v-1.5c0-.17-.02-.3-.05-.38-.03-.08-.09-.15-.17-.2-.08-.05-.18-.08-.29-.08-.18,0-.33.06-.46.17-.13.11-.19.33-.19.64v1.35h-.42Z"/>
      </g>
      <g class="st55">
        <path class="st5" d="M60.21,28.09c0,.32.07.55.21.71.14.16.31.24.52.24s.38-.08.52-.24c.14-.16.21-.4.21-.72,0-.31-.07-.54-.21-.69-.14-.16-.31-.24-.52-.24s-.38.08-.52.23c-.14.16-.21.39-.21.71ZM59.79,28.09c0-.46.13-.8.38-1.02.21-.18.47-.27.78-.27.34,0,.62.11.83.33.22.22.32.53.32.92,0,.32-.05.57-.14.75-.1.18-.23.32-.42.42-.18.1-.38.15-.6.15-.35,0-.63-.11-.84-.33-.21-.22-.32-.54-.32-.96Z"/>
      </g>
      <g class="st54">
        <path class="st5" d="M62.45,28.59l.41-.07c.02.17.09.29.19.38.11.09.25.13.44.13s.33-.04.43-.12c.09-.08.14-.17.14-.28,0-.1-.04-.17-.12-.22-.06-.04-.2-.08-.43-.14-.31-.08-.52-.14-.64-.2-.12-.06-.21-.13-.27-.23-.06-.1-.09-.21-.09-.33,0-.11.03-.21.08-.31.05-.09.12-.17.21-.23.07-.05.15-.09.27-.12.11-.03.23-.05.36-.05.19,0,.36.03.51.08.15.06.25.13.32.23.07.1.12.22.14.38l-.41.06c-.02-.13-.07-.23-.16-.3-.09-.07-.22-.11-.38-.11-.19,0-.33.03-.41.1-.08.06-.12.14-.12.22,0,.05.02.1.05.15.03.04.09.08.16.11.04.02.17.05.37.11.3.08.5.14.62.19.12.05.21.12.28.22.07.1.1.22.1.36s-.04.27-.12.39c-.08.12-.2.22-.35.29-.15.07-.33.1-.52.1-.32,0-.57-.07-.73-.2-.17-.13-.28-.33-.32-.59Z"/>
      </g>
      <g class="st60">
        <path class="st5" d="M66.98,27.93h1.16l-.36-.94c-.11-.29-.19-.52-.24-.71-.04.22-.1.44-.18.65l-.37,1ZM66,29.33l1.31-3.41h.49l1.39,3.41h-.51l-.4-1.03h-1.43l-.37,1.03h-.48Z"/>
      </g>
      <g class="st59">
        <path class="st5" d="M69.59,26.86h.42v2.47h-.42v-2.47ZM69.59,25.92h.42v.48h-.42v-.48Z"/>
      </g>
      <g class="st58">
        <path class="st5" d="M70.65,29.33v-2.47h.38v.37c.1-.17.18-.29.27-.35.08-.06.17-.08.27-.08.14,0,.28.04.43.14l-.14.39c-.1-.06-.2-.09-.31-.09-.09,0-.17.03-.25.08-.07.05-.13.13-.16.23-.05.15-.07.31-.07.49v1.29h-.42Z"/>
      </g>
      <g class="st70">
        <path class="st5" d="M72.57,27.85h1.38c-.02-.21-.07-.36-.16-.47-.13-.16-.31-.24-.52-.24-.19,0-.35.06-.48.19-.13.13-.2.3-.22.52ZM73.94,28.53l.43.05c-.07.25-.19.45-.38.59-.18.14-.42.21-.71.21-.36,0-.65-.11-.86-.33-.21-.22-.32-.53-.32-.94s.11-.74.32-.97c.21-.23.49-.34.83-.34s.6.11.81.34c.21.22.31.54.31.95,0,.02,0,.06,0,.11h-1.84c.02.27.09.48.23.62.14.14.31.22.52.22.15,0,.29-.04.39-.12.11-.08.19-.21.26-.39Z"/>
      </g>
      <g class="st71">
        <path class="st5" d="M74.77,28.59l.41-.07c.02.17.09.29.19.38.11.09.25.13.44.13s.33-.04.43-.12c.09-.08.14-.17.14-.28,0-.1-.04-.17-.12-.22-.06-.04-.2-.08-.43-.14-.31-.08-.52-.14-.64-.2-.12-.06-.21-.13-.27-.23-.06-.1-.09-.21-.09-.33,0-.11.03-.21.08-.31.05-.09.12-.17.21-.23.07-.05.15-.09.27-.12.11-.03.23-.05.36-.05.19,0,.36.03.51.08.15.06.26.13.32.23.07.1.12.22.14.38l-.41.06c-.02-.13-.07-.23-.16-.3-.09-.07-.22-.11-.38-.11-.19,0-.33.03-.41.1-.08.06-.12.14-.12.22,0,.05.02.1.05.15.03.04.09.08.16.11.04.02.17.05.37.11.3.08.5.14.62.19.12.05.21.12.28.22.07.1.1.22.1.36s-.04.27-.12.39c-.08.12-.2.22-.35.29-.15.07-.33.1-.52.1-.32,0-.57-.07-.73-.2-.17-.13-.28-.33-.32-.59Z"/>
      </g>
      <g class="st68">
        <path class="st5" d="M48.8,40.49v-3.41h2.46v.4h-2.01v1.04h1.89v.4h-1.89v1.16h2.09v.4h-2.54Z"/>
      </g>
      <g class="st69">
        <path class="st5" d="M51.88,40.49v-2.47h.37v.35c.08-.12.18-.22.31-.29.13-.07.27-.11.44-.11.18,0,.33.04.45.11.12.08.2.18.25.32.2-.29.45-.43.76-.43.24,0,.43.07.56.2.13.14.2.34.2.63v1.69h-.42v-1.56c0-.17-.01-.29-.04-.36-.03-.07-.08-.13-.15-.18-.07-.04-.16-.07-.25-.07-.17,0-.32.06-.43.17-.12.12-.17.3-.17.55v1.43h-.42v-1.6c0-.19-.03-.32-.1-.42-.07-.09-.18-.14-.33-.14-.12,0-.23.03-.33.09-.1.06-.17.15-.22.27-.05.12-.07.29-.07.52v1.28h-.42Z"/>
      </g>
      <g class="st32">
        <path class="st5" d="M56.24,39.24c0,.3.04.51.12.64.13.22.31.32.53.32.18,0,.34-.08.47-.24.13-.16.2-.4.2-.71s-.06-.56-.19-.71c-.13-.15-.28-.23-.46-.23s-.34.08-.47.24c-.13.16-.2.39-.2.69ZM56.25,40.49h-.39v-3.41h.42v1.22c.18-.22.4-.33.68-.33.15,0,.3.03.43.09.14.06.25.15.33.26.09.11.16.24.21.4.05.16.07.32.07.5,0,.42-.11.75-.31.98-.21.23-.46.35-.75.35s-.52-.12-.69-.36v.31Z"/>
      </g>
      <g class="st30">
        <path class="st5" d="M60.09,39.25c-.15.06-.38.11-.68.16-.17.02-.29.05-.36.08-.07.03-.13.08-.16.14-.04.06-.06.13-.06.2,0,.11.04.2.13.28.08.07.21.11.37.11s.3-.04.43-.11c.13-.07.22-.17.28-.29.04-.09.07-.23.07-.42v-.15ZM60.13,40.19c-.16.13-.3.23-.45.28-.14.05-.3.08-.46.08-.27,0-.48-.07-.63-.2-.15-.13-.22-.3-.22-.51,0-.12.03-.23.08-.33.06-.1.13-.18.22-.24.09-.06.19-.11.3-.14.08-.02.21-.04.37-.06.34-.04.59-.09.75-.14,0-.06,0-.09,0-.11,0-.17-.04-.29-.12-.36-.11-.09-.27-.14-.48-.14-.2,0-.34.03-.44.1-.09.07-.16.19-.21.37l-.41-.06c.04-.18.1-.32.18-.42.08-.11.21-.19.37-.25.16-.06.35-.09.56-.09s.38.03.51.07c.13.05.23.11.29.19.06.08.11.17.13.28.01.07.02.2.02.39v.56c0,.39,0,.63.03.74.02.1.05.2.11.3h-.44c-.04-.09-.07-.19-.08-.31Z"/>
      </g>
      <g class="st43">
        <path class="st5" d="M61.17,37.09h.42v.49h-.42v-.49ZM60.64,41.45l.08-.36c.08.02.15.03.2.03.09,0,.15-.03.19-.08.04-.06.06-.2.06-.42v-2.59h.42v2.6c0,.3-.04.51-.12.63-.1.16-.27.23-.5.23-.11,0-.22-.02-.33-.04Z"/>
      </g>
      <g class="st34">
        <path class="st5" d="M63.82,39.25c-.15.06-.38.11-.68.16-.17.02-.29.05-.36.08-.07.03-.13.08-.17.14-.04.06-.06.13-.06.2,0,.11.04.2.13.28.08.07.21.11.37.11s.3-.04.43-.11c.13-.07.22-.17.28-.29.04-.09.07-.23.07-.42v-.15ZM63.86,40.19c-.15.13-.3.23-.45.28-.14.05-.3.08-.46.08-.27,0-.48-.07-.63-.2-.15-.13-.22-.3-.22-.51,0-.12.03-.23.08-.33.05-.1.13-.18.22-.24.09-.06.19-.11.3-.14.08-.02.21-.04.37-.06.34-.04.59-.09.75-.14,0-.06,0-.09,0-.11,0-.17-.04-.29-.12-.36-.11-.09-.27-.14-.48-.14-.2,0-.34.03-.44.1-.09.07-.16.19-.21.37l-.41-.06c.04-.18.1-.32.18-.42.08-.11.21-.19.37-.25.16-.06.35-.09.56-.09s.38.03.51.07c.13.05.23.11.29.19.06.08.11.17.13.28.01.07.02.2.02.39v.56c0,.39,0,.63.03.74.02.1.05.2.11.3h-.44c-.04-.09-.07-.19-.08-.31Z"/>
      </g>
      <g class="st33">
        <path class="st5" d="M65.18,39.26c0,.32.07.55.2.71.13.16.29.23.47.23s.34-.07.47-.22c.13-.15.19-.38.19-.68,0-.34-.07-.59-.19-.74-.13-.16-.29-.24-.48-.24s-.34.08-.47.23c-.13.15-.19.39-.19.72ZM66.5,40.49v-.31c-.16.24-.39.37-.69.37-.2,0-.38-.05-.54-.16-.17-.11-.29-.26-.38-.45-.09-.19-.14-.42-.14-.67s.04-.47.12-.67c.08-.2.21-.35.37-.46.16-.11.35-.16.55-.16.15,0,.28.03.4.09.12.06.21.14.28.25v-1.22h.42v3.41h-.39Z"/>
      </g>
      <g class="st31">
        <path class="st5" d="M69.13,39.25c-.15.06-.38.11-.68.16-.17.02-.29.05-.36.08-.07.03-.13.08-.16.14-.04.06-.06.13-.06.2,0,.11.04.2.13.28.08.07.21.11.37.11s.3-.04.43-.11c.13-.07.22-.17.28-.29.05-.09.07-.23.07-.42v-.15ZM69.17,40.19c-.16.13-.3.23-.45.28-.14.05-.3.08-.46.08-.27,0-.48-.07-.63-.2-.14-.13-.22-.3-.22-.51,0-.12.03-.23.08-.33.05-.1.13-.18.22-.24.09-.06.19-.11.3-.14.08-.02.21-.04.37-.06.34-.04.59-.09.75-.14,0-.06,0-.09,0-.11,0-.17-.04-.29-.12-.36-.11-.09-.27-.14-.48-.14-.2,0-.34.03-.44.1-.09.07-.16.19-.21.37l-.41-.06c.04-.18.1-.32.18-.42.09-.11.21-.19.37-.25.16-.06.35-.09.56-.09s.38.03.51.07c.13.05.23.11.29.19.06.08.11.17.13.28.01.07.02.2.02.39v.56c0,.39,0,.63.03.74.02.1.05.2.11.3h-.44c-.04-.09-.07-.19-.08-.31Z"/>
      </g>
      <g class="st57">
        <path class="st5" d="M71.81,39.26c0,.32.07.55.2.71.13.16.29.23.47.23s.34-.07.47-.22c.13-.15.19-.38.19-.68,0-.34-.07-.59-.2-.74-.13-.16-.29-.24-.48-.24s-.34.08-.47.23c-.12.15-.19.39-.19.72ZM73.13,40.49v-.31c-.16.24-.39.37-.69.37-.2,0-.38-.05-.54-.16-.17-.11-.29-.26-.38-.45-.09-.19-.14-.42-.14-.67s.04-.47.12-.67c.08-.2.21-.35.37-.46.16-.11.35-.16.55-.16.15,0,.28.03.4.09.12.06.21.14.28.25v-1.22h.42v3.41h-.39Z"/>
      </g>
      <g class="st63">
        <path class="st5" d="M74.5,39.02h1.38c-.02-.21-.07-.36-.16-.47-.13-.16-.31-.24-.52-.24-.19,0-.35.06-.48.19-.13.13-.2.3-.22.52ZM75.88,39.7l.43.05c-.07.25-.19.45-.38.59-.18.14-.42.21-.71.21-.36,0-.65-.11-.86-.33-.21-.22-.32-.53-.32-.94s.11-.74.32-.97c.21-.23.49-.34.83-.34s.6.11.81.34c.21.22.31.54.31.95,0,.02,0,.06,0,.11h-1.84c.02.27.09.48.23.62.14.14.31.22.52.22.15,0,.28-.04.39-.12.11-.08.19-.21.26-.39Z"/>
      </g>
      <g class="st62">
        <path class="st5" d="M78.82,39.09h1.16l-.36-.94c-.11-.29-.19-.52-.24-.71-.04.22-.11.44-.18.65l-.37,1ZM77.84,40.49l1.31-3.41h.49l1.39,3.41h-.51l-.4-1.03h-1.42l-.37,1.03h-.48Z"/>
      </g>
      <g class="st61">
        <path class="st5" d="M81.42,37.09h.42v3.41h-.42v-3.41Z"/>
      </g>
      <g class="st38">
        <path class="st5" d="M82.82,39.02h1.38c-.02-.21-.07-.36-.16-.47-.13-.16-.31-.24-.52-.24-.19,0-.35.06-.49.19-.13.13-.2.3-.22.52ZM84.2,39.7l.43.05c-.07.25-.19.45-.38.59-.18.14-.42.21-.71.21-.36,0-.65-.11-.86-.33-.21-.22-.32-.53-.32-.94s.11-.74.32-.97c.21-.23.49-.34.83-.34s.6.11.81.34c.21.22.31.54.31.95,0,.02,0,.06,0,.11h-1.84c.02.27.09.48.23.62.14.14.31.22.52.22.15,0,.28-.04.39-.12.11-.08.19-.21.26-.39Z"/>
      </g>
      <g class="st28">
        <path class="st5" d="M85.17,40.49v-2.47h.37v.35c.08-.12.18-.22.31-.29.13-.07.27-.11.44-.11.18,0,.33.04.45.11.12.08.2.18.25.32.2-.29.45-.43.76-.43.24,0,.43.07.56.2.13.14.2.34.2.63v1.69h-.42v-1.56c0-.17-.01-.29-.04-.36-.03-.07-.08-.13-.15-.18-.07-.04-.16-.07-.25-.07-.17,0-.32.06-.43.17-.11.12-.17.3-.17.55v1.43h-.42v-1.6c0-.19-.03-.32-.1-.42-.07-.09-.18-.14-.34-.14-.12,0-.23.03-.33.09-.1.06-.17.15-.22.27-.04.12-.07.29-.07.52v1.28h-.42Z"/>
      </g>
      <g class="st41">
        <path class="st5" d="M90.74,39.25c-.15.06-.38.11-.68.16-.17.02-.29.05-.36.08-.07.03-.13.08-.16.14-.04.06-.06.13-.06.2,0,.11.04.2.13.28.08.07.21.11.37.11s.3-.04.43-.11c.13-.07.22-.17.28-.29.05-.09.07-.23.07-.42v-.15ZM90.77,40.19c-.16.13-.3.23-.45.28-.14.05-.3.08-.46.08-.27,0-.48-.07-.62-.2-.14-.13-.22-.3-.22-.51,0-.12.03-.23.08-.33.05-.1.13-.18.22-.24.09-.06.19-.11.3-.14.08-.02.21-.04.37-.06.34-.04.59-.09.75-.14,0-.06,0-.09,0-.11,0-.17-.04-.29-.12-.36-.11-.09-.27-.14-.48-.14-.2,0-.34.03-.44.1-.09.07-.16.19-.21.37l-.41-.06c.04-.18.1-.32.18-.42.09-.11.21-.19.37-.25.16-.06.35-.09.56-.09s.38.03.51.07c.13.05.23.11.29.19.06.08.11.17.13.28.01.07.02.2.02.39v.56c0,.39,0,.63.03.74.02.1.05.2.11.3h-.44c-.04-.09-.07-.19-.08-.31Z"/>
      </g>
      <g class="st37">
        <path class="st5" d="M91.82,40.49v-2.47h.38v.35c.18-.27.44-.41.79-.41.15,0,.29.03.41.08.13.05.22.12.28.21.06.09.11.19.13.31.02.08.02.21.02.41v1.52h-.42v-1.5c0-.17-.02-.3-.05-.38-.03-.08-.09-.15-.17-.2-.08-.05-.18-.08-.29-.08-.18,0-.33.06-.46.17-.13.11-.19.33-.19.64v1.35h-.42Z"/>
      </g>
      <g class="st36">
        <path class="st5" d="M94.47,38.03h.42v2.47h-.42v-2.47ZM94.47,37.09h.42v.48h-.42v-.48Z"/>
      </g>
      <g class="st40">
        <path class="st5" d="M97.12,39.25c-.15.06-.38.11-.68.16-.17.02-.29.05-.36.08-.07.03-.13.08-.17.14-.04.06-.06.13-.06.2,0,.11.04.2.13.28.08.07.21.11.37.11s.3-.04.43-.11c.13-.07.22-.17.28-.29.05-.09.07-.23.07-.42v-.15ZM97.15,40.19c-.15.13-.3.23-.45.28-.14.05-.3.08-.46.08-.27,0-.48-.07-.63-.2-.15-.13-.22-.3-.22-.51,0-.12.03-.23.08-.33.05-.1.13-.18.22-.24.09-.06.19-.11.3-.14.08-.02.21-.04.37-.06.34-.04.59-.09.75-.14,0-.06,0-.09,0-.11,0-.17-.04-.29-.12-.36-.11-.09-.27-.14-.48-.14-.2,0-.34.03-.44.1-.09.07-.16.19-.21.37l-.41-.06c.04-.18.1-.32.18-.42.08-.11.21-.19.37-.25.16-.06.35-.09.56-.09s.38.03.51.07c.13.05.23.11.29.19.06.08.11.17.13.28.01.07.02.2.02.39v.56c0,.39,0,.63.03.74.02.1.05.2.11.3h-.44c-.04-.09-.07-.19-.08-.31Z"/>
      </g>
      <g class="st39">
        <path class="st5" d="M49.23,45.5h.85c.15,0,.25,0,.31-.02.1-.02.19-.05.26-.09.07-.04.13-.11.17-.19.05-.08.07-.18.07-.29,0-.13-.03-.24-.1-.33-.07-.09-.16-.16-.27-.2-.12-.04-.28-.06-.5-.06h-.79v1.17ZM49.23,43.93h.74c.2,0,.34-.01.43-.04.11-.03.2-.09.26-.17.06-.08.09-.18.09-.3,0-.11-.03-.21-.08-.3-.05-.09-.13-.14-.23-.18-.1-.03-.27-.05-.52-.05h-.68v1.03ZM48.78,45.91v-3.41h1.28c.26,0,.47.04.63.1.16.07.28.18.37.32.09.14.13.29.13.45,0,.15-.04.28-.12.41-.08.13-.2.23-.36.31.21.06.36.16.48.31.11.15.17.32.17.52,0,.16-.03.31-.1.45-.07.14-.15.24-.25.32-.1.07-.22.13-.37.17-.15.04-.33.06-.55.06h-1.3Z"/>
      </g>
      <g class="st67">
        <path class="st5" d="M53.56,45.91v-.36c-.19.28-.45.42-.78.42-.15,0-.28-.03-.41-.08-.13-.06-.22-.13-.28-.21-.06-.08-.1-.19-.13-.31-.02-.08-.03-.21-.03-.39v-1.53h.42v1.37c0,.22,0,.37.03.44.03.11.08.2.17.26.09.06.19.09.32.09s.24-.03.35-.1c.11-.06.19-.15.23-.26.05-.11.07-.27.07-.48v-1.32h.42v2.47h-.37Z"/>
      </g>
      <g class="st66">
        <path class="st5" d="M54.92,44.43h1.38c-.02-.21-.07-.36-.16-.47-.13-.16-.31-.24-.52-.24-.19,0-.35.06-.48.19-.13.13-.2.3-.22.52ZM56.3,45.11l.43.05c-.07.25-.19.45-.38.59-.18.14-.42.21-.71.21-.36,0-.65-.11-.86-.33-.21-.22-.32-.53-.32-.94s.11-.74.32-.97c.21-.23.49-.34.83-.34s.6.11.81.34c.21.22.31.54.31.95,0,.02,0,.06,0,.11h-1.84c.02.27.09.48.23.62.14.14.31.22.52.22.15,0,.28-.04.39-.12.11-.08.19-.21.26-.39Z"/>
      </g>
      <g class="st64">
        <path class="st5" d="M57.27,45.91v-2.47h.38v.35c.18-.27.44-.41.79-.41.15,0,.29.03.41.08.12.05.22.12.28.21.06.09.11.19.13.31.02.08.02.21.02.41v1.52h-.42v-1.5c0-.17-.02-.3-.05-.38-.03-.08-.09-.15-.17-.2-.08-.05-.18-.08-.29-.08-.18,0-.33.06-.46.17-.13.11-.19.33-.19.64v1.35h-.42Z"/>
      </g>
      <g class="st16">
        <path class="st5" d="M60.21,44.67c0,.32.07.55.21.71.14.16.31.24.52.24s.38-.08.52-.24c.14-.16.21-.4.21-.72,0-.3-.07-.54-.21-.69-.14-.16-.31-.24-.52-.24s-.38.08-.52.24c-.14.16-.21.39-.21.71ZM59.79,44.67c0-.46.13-.8.38-1.02.21-.18.47-.27.78-.27.34,0,.62.11.83.33.22.22.32.53.32.92,0,.32-.05.57-.14.75-.1.18-.23.32-.42.42-.18.1-.38.15-.6.15-.35,0-.63-.11-.84-.33-.21-.22-.32-.54-.32-.96Z"/>
      </g>
      <g class="st18">
        <path class="st5" d="M62.45,45.17l.41-.07c.02.16.09.29.19.38.11.09.25.13.44.13s.33-.04.43-.12c.09-.08.14-.17.14-.27,0-.09-.04-.17-.12-.22-.06-.04-.2-.08-.43-.14-.31-.08-.52-.14-.64-.2-.12-.06-.21-.14-.27-.24-.06-.1-.09-.21-.09-.33,0-.11.03-.21.08-.31.05-.09.12-.17.21-.23.07-.05.15-.09.27-.12.11-.03.23-.05.36-.05.19,0,.36.03.51.08.15.06.25.13.32.23.07.1.12.22.14.38l-.41.06c-.02-.13-.07-.23-.16-.3-.09-.07-.22-.11-.38-.11-.19,0-.33.03-.41.1-.08.06-.12.14-.12.22,0,.05.02.1.05.15.03.05.09.08.16.11.04.02.17.05.37.11.3.08.5.14.62.19.12.05.21.12.28.22.07.1.1.21.1.36s-.04.27-.12.39c-.08.12-.2.22-.35.29-.15.07-.33.1-.52.1-.32,0-.57-.07-.73-.2-.17-.13-.28-.33-.32-.59Z"/>
      </g>
      <g class="st20">
        <path class="st5" d="M66.98,44.51h1.16l-.36-.94c-.11-.29-.19-.52-.24-.71-.04.22-.1.44-.18.65l-.37,1ZM66,45.91l1.31-3.41h.49l1.39,3.41h-.51l-.4-1.03h-1.43l-.37,1.03h-.48Z"/>
      </g>
      <g class="st19">
        <path class="st5" d="M69.59,43.44h.42v2.47h-.42v-2.47ZM69.59,42.5h.42v.48h-.42v-.48Z"/>
      </g>
      <g class="st17">
        <path class="st5" d="M70.65,45.91v-2.47h.38v.37c.1-.17.18-.29.27-.35.08-.06.17-.08.27-.08.14,0,.28.05.43.13l-.14.39c-.1-.06-.2-.09-.31-.09-.09,0-.17.03-.25.08-.07.05-.13.13-.16.23-.05.15-.07.31-.07.49v1.29h-.42Z"/>
      </g>
      <g class="st21">
        <path class="st5" d="M72.57,44.43h1.38c-.02-.21-.07-.36-.16-.47-.13-.16-.31-.24-.52-.24-.19,0-.35.06-.48.19-.13.13-.2.3-.22.52ZM73.94,45.11l.43.05c-.07.25-.19.45-.38.59-.18.14-.42.21-.71.21-.36,0-.65-.11-.86-.33-.21-.22-.32-.53-.32-.94s.11-.74.32-.97c.21-.23.49-.34.83-.34s.6.11.81.34c.21.22.31.54.31.95,0,.02,0,.06,0,.11h-1.84c.02.27.09.48.23.62.14.14.31.22.52.22.15,0,.29-.04.39-.12.11-.08.19-.21.26-.39Z"/>
      </g>
      <g class="st27">
        <path class="st5" d="M74.77,45.17l.41-.07c.02.16.09.29.19.38.11.09.25.13.44.13s.33-.04.43-.12c.09-.08.14-.17.14-.27,0-.09-.04-.17-.12-.22-.06-.04-.2-.08-.43-.14-.31-.08-.52-.14-.64-.2-.12-.06-.21-.14-.27-.24-.06-.1-.09-.21-.09-.33,0-.11.03-.21.08-.31.05-.09.12-.17.21-.23.07-.05.15-.09.27-.12.11-.03.23-.05.36-.05.19,0,.36.03.51.08.15.06.26.13.32.23.07.1.12.22.14.38l-.41.06c-.02-.13-.07-.23-.16-.3-.09-.07-.22-.11-.38-.11-.19,0-.33.03-.41.1-.08.06-.12.14-.12.22,0,.05.02.1.05.15.03.05.09.08.16.11.04.02.17.05.37.11.3.08.5.14.62.19.12.05.21.12.28.22.07.1.1.21.1.36s-.04.27-.12.39c-.08.12-.2.22-.35.29-.15.07-.33.1-.52.1-.32,0-.57-.07-.73-.2-.17-.13-.28-.33-.32-.59Z"/>
      </g>
      <g class="st35">
        <path class="st2" d="M41.48,52.26h-3.01v16.4h3.01v-16.4Z"/>
      </g>
      <g class="st42">
        <path class="st3" d="M41.48,35.39h-3.01v16.86h3.01v-16.86Z"/>
      </g>
      <g class="st29">
        <path class="st72" d="M41.48,18.91h-3.01v16.48h3.01v-16.48Z"/>
      </g>
      <g class="st22">
        <path class="st5" d="M23.51,19.72s.13.08.2.08c.18,0,.23-.36.24-.57-.01-.26-.47-.72-.67-.89-.09-.02-.41-.09-.72-.09-.23,0-.52.04-.62.21-.08.14-.04.37.12.66.14-.07.41-.19.68-.16.37.03.72.44.77.76ZM23.71,20c-.18,0-.34-.14-.36-.16-.02-.02-.03-.04-.03-.07,0-.21-.29-.59-.59-.61-.32-.02-.64.18-.65.18-.02.02-.05.02-.08.01-.03,0-.05-.02-.06-.04-.24-.41-.3-.72-.17-.94.12-.21.38-.31.79-.31s.78.1.79.1c.01,0,.03.01.04.02.07.06.73.64.75,1.05-.03.51-.18.77-.44.77Z"/>
      </g>
      <g class="st25">
        <path class="st15" d="M21.84,31.54l-.88,1.41,1.31-.09s.32.48-.2.94c0,0-.1-.32-.4-.32s-.93.05-.93.05v1.35s.17.28.34.28-.71.35-.88-.11c-.17-.46,0-1.17,0-1.17,0,0-.81.86-.65,1.41,0,0-.8-.47-.49-1.01.31-.54.89-.86.89-.86,0,0-1.32-.04-1.26.43,0,0-.47-.91,0-1,.46-.09,1.46-.02,1.46-.02l1.08-1.6.66-.34-.04.65Z"/>
      </g>
      <g class="st24">
        <path class="st5" d="M20.18,33.77s.03,0,.05.01c.04.02.06.07.05.11,0,0-.16.68,0,1.11.04.11.15.17.33.17.08,0,.16-.01.23-.03-.1-.08-.18-.2-.2-.23,0-.02-.01-.03-.01-.05v-1.35c0-.05.04-.1.09-.1.03,0,.64-.05.94-.05.23,0,.36.14.43.25.26-.29.17-.56.12-.67l-1.24.09s-.07-.02-.09-.05c-.02-.03-.02-.07,0-.1l.87-1.39.03-.45-.49.25-1.06,1.58s-.05.05-.09.04c0,0-.39-.03-.79-.03-.28,0-.5.01-.65.04-.05,0-.08.03-.1.07-.06.12,0,.36.08.57.23-.24.84-.28,1.18-.28.05,0,.09,0,.09,0,.04,0,.08.03.09.08.01.04,0,.09-.05.11,0,0-.56.32-.85.83-.17.3.09.59.29.75.03-.57.66-1.24.69-1.27.02-.02.04-.03.07-.03ZM19.54,35.38s-.03,0-.05-.01c-.31-.18-.81-.65-.53-1.14.18-.31.45-.56.65-.71-.34.02-.68.08-.8.21-.03.03-.04.06-.03.1,0,.05-.02.09-.07.11-.05.01-.1,0-.12-.05-.03-.07-.32-.65-.18-.96.05-.1.13-.16.24-.18.16-.03.39-.05.69-.05.31,0,.62.02.75.03l1.05-1.55s.02-.02.04-.03l.66-.34s.07-.01.1,0c.03.02.05.05.04.09l-.04.65s0,.03-.01.05l-.78,1.25,1.11-.08s.07.01.09.04c0,0,.37.55-.22,1.07-.03.02-.06.03-.09.02-.03,0-.06-.03-.07-.06,0-.01-.09-.25-.31-.25s-.65.03-.83.04v1.23c.06.09.17.21.24.21.05,0,.12.05.12.11,0,.17-.45.22-.57.22-.26,0-.44-.11-.52-.3-.1-.27-.09-.61-.06-.86-.23.31-.49.74-.4,1.04.01.04,0,.08-.03.11-.02.01-.04.02-.06.02Z"/>
      </g>
      <g class="st65">
        <path class="st15" d="M25.72,31.54l.88,1.41-1.31-.09s-.32.48.2.94c0,0,.1-.32.4-.32s.93.05.93.05v1.35s-.17.28-.34.28.71.35.88-.11c.17-.46,0-1.17,0-1.17,0,0,.81.86.65,1.41,0,0,.8-.47.49-1.01-.31-.54-.89-.86-.89-.86,0,0,1.32-.04,1.26.43,0,0,.47-.91,0-1-.46-.09-1.46-.02-1.46-.02l-1.08-1.6-.66-.34.04.65Z"/>
      </g>
      <g class="st23">
        <path class="st5" d="M26.73,35.15c.07.02.15.03.23.03.18,0,.29-.06.33-.17.16-.43,0-1.11,0-1.11,0-.04,0-.09.05-.11.04-.02.09-.01.12.02.03.03.66.7.69,1.27.19-.16.46-.45.29-.75-.29-.51-.85-.82-.85-.83-.04-.02-.06-.07-.05-.11.01-.04.05-.07.09-.08,0,0,.03,0,.09,0,.35,0,.95.04,1.18.28.08-.21.14-.45.08-.57-.02-.04-.05-.06-.1-.07-.15-.03-.36-.04-.65-.04-.4,0-.79.03-.79.03-.04,0-.07-.01-.09-.04l-1.06-1.58-.49-.25.03.45.87,1.39s.02.07,0,.1c-.02.03-.05.05-.09.05l-1.24-.09c-.05.11-.14.38.12.67.07-.11.2-.25.43-.25.3,0,.91.04.94.05.05,0,.09.05.09.1v1.35s0,.04-.02.05c-.02.03-.09.14-.2.23ZM28.02,35.38s-.04,0-.06-.02c-.03-.03-.05-.07-.03-.11.09-.29-.17-.73-.4-1.04.03.25.04.59-.06.86-.07.19-.25.3-.51.3-.12,0-.57-.05-.57-.22,0-.03.02-.05.04-.07.02-.02.05-.03.08-.03.07,0,.18-.11.24-.21v-1.23c-.19-.01-.61-.04-.83-.04s-.31.25-.31.25c0,.03-.04.06-.07.07-.03,0-.07,0-.09-.02-.58-.51-.22-1.06-.22-1.07.02-.03.05-.05.09-.04l1.11.08-.78-1.25s-.01-.03-.01-.05l-.04-.65s.01-.07.04-.09c.03-.02.07-.02.1,0l.66.34s.03.02.04.03l1.05,1.55c.12,0,.43-.03.75-.03.3,0,.53.02.69.05.11.02.2.09.24.18.15.31-.14.89-.18.96-.02.04-.07.06-.12.05-.04-.01-.07-.06-.07-.11,0-.04,0-.07-.03-.1-.11-.13-.46-.19-.8-.21.2.15.47.4.65.71.28.49-.22.96-.53,1.14-.01,0-.03.01-.05.01Z"/>
      </g>
      <g class="st26">
        <path class="st4" d="M29.22,22.33c-.42,1.49-2.19,2.59-3.33,2.44v-.83c1.02-.13,1.95-.46,2.59-1.31.64-.84.61-1.6-.1-2.76.72.37,1.11,1.52.84,2.46ZM24.16,19.21c-.22-.32-.21-.79-.11-.84.09-.05.22.05.22.05-.14.23-.02.42.08.4.09-.01.15-.32.15-.32,0,0,.15.08.21.21.05.13-.32.82-.54.5ZM18.55,22.86c-.49-1.05-.25-2.37.7-3.14-.7.92-.83,2.03-.12,2.97.64.86,1.56,1.19,2.63,1.31.01.28.02.55.03.81-1,.25-2.68-.77-3.23-1.95ZM30.16,23.6c.05-.02.11-.04.16-.07.82,1.1,1.11,2.55,3.05,2.3-1.63-1.41-3.19-4.44-3.19-4.44-.14-.96-.57-1.41-.9-1.8-.17-.2.43-.09.31-.33-.18-.04-.74.02-1.07-.06-.34-.08-.62-.3-.96-.39-.4-.11-.98-.05-1.07.43-.08.48.35.53.74.6.15.03.32-.01.47.02.12.02.34.23.42.31.67.74.66,1.82-.15,2.39-.52.37-1.16.75-1.82.73-.69-.02-.47-.25-.63-.37-.71-.53-.37-2.06.04-2.68.41-.61-.21-1.72-.21-1.72.2-.02.37-.51.37-.51-.35.31-1.91-.06-2.21,0-.31.06-.18.25-.18.25,0,0,.7.6.72.98-.06,1.07-.64.53-.64.53-.43.14-1.54-.1-1.54-.1.2.45,1.37.59,1.48.59s-.02.35-.02.35l-1.23-.33c-.14.37,1.15.88,1.05.92-.1.04-.9,1.25-.9,1.25-.46.84-.4,1.01-1.31.71-.35-.11-.7-.28-.99-.5l-.23-.13c-.8-.58-.82-1.65-.15-2.39.08-.09.3-.29.42-.31.15-.03.32.01.47-.02.39-.07.82-.12.74-.6-.09-.48-.67-.54-1.07-.43-.34.09-.62.31-.96.39-.32.08-.89.02-1.07.06-.13.24.48.12.31.33-.34.4-.92.86-1.07,1.82l-1.4,2.37-1.69,2.12c.44-.02.95.03,1.21-.21.87-.61,1.28-1.57,1.93-2.28.23.27.45,0-1.08,2.43-.51.8-1.12,1.56-1.68,2.32.77.1,1.47-.11,1.97-.8.24-.33.46-.7.69-1.05.34-.52.66-1.02,1-1.54.11.07.22.14.32.21-1.09,1.67-1.95,3.48-3.45,4.94.96.1,1.53-.1,2.05-.75.23-.29.43-.61.63-.93.54-.85,1.08-1.71,1.62-2.59.29.32.3.33-1.34,2.9-.62.96-1.3,1.88-1.95,2.79,1.05.21,1.72-.4,2.25-1.25.71-1.13,1.41-2.27,2.13-3.4.1-.15.28-.25.42-.37.06.06.12.12.18.17-1.38,1.98-2.39,4.23-4.13,5.99.99.16,1.66-.14,2.21-.98.84-1.28,1.62-2.6,2.44-3.89.19-.3.38-.52.64-.9.29.96.19,1.9-.24,2.59-.43.68-1.18,1.19-1.66,1.84.18.03.57-.01.76.02h.13c.13-.13.19-.07.36-.18-.04.2.27-.08.19.09l-.02.49c.16.13.43.35.54.43.19-.51.2-1.11.37-1.57.07.02.21-.07.29-.05.01,1.76.49,4.18-1.39,5.06.59.51.8.46,1.32-.24.24.25.49.5.74.76.24-.26.48-.52.72-.77.54.74,1.02.84,1.47.24-1.43-.51-1.68-3.14-1.27-5.09.2.56.44.68.56,1.57.13-.11.24-.22.39-.34l.13-.2c-.08-.14.04-.22.03-.4.16.09.28-.09.39.04l.19.06c.31-.04.55.01.82-.02-1.21-1.21-2.33-2.5-1.93-4.33.31.34.77.96,1.01,1.33.8,1.26,1.58,2.54,2.41,3.78.47.71,1.03.84,1.93.66-1.77-1.78-2.6-3.88-3.89-5.95.23.03.41.13.51.28.76,1.19,1.5,2.4,2.27,3.59.61.94,1.14,1.08,2.05.82-1.51-1.44-2.18-3.18-3.32-4.86-.09-.13-.06-.33-.09-.5.07-.02.14-.03.2-.04.15.23.3.45.45.68.57.9,1.11,1.81,1.71,2.69.49.72,1.07.88,2.04.74-1.46-1.31-2.1-2.88-3.1-4.42-.09-.14-.1-.34-.14-.52.07-.02.14-.05.21-.08.14.21.28.41.42.61.45.69.87,1.41,1.37,2.06.49.65,1.21.69,1.83.54-.88-1.32-1.87-2.55-2.77-3.93-.1-.16-.08-.39-.12-.59Z"/>
      </g>
    </g>
  </g>
</svg>