<?xml version="1.0" encoding="UTF-8"?>
<svg id="Layer_1" xmlns="http://www.w3.org/2000/svg" xmlns:xlink="http://www.w3.org/1999/xlink" version="1.1" viewBox="0 0 136.69 135.69">
  <!-- Generator: Adobe Illustrator 29.8.1, SVG Export Plug-In . SVG Version: 2.1.1 Build 2)  -->
  <defs>
    <style>
      .st0 {
        fill: none;
      }

      .st1 {
        mask: url(#mask);
      }

      .st2 {
        fill: #231f20;
      }

      .st3 {
        fill: #fff;
      }

      .st4 {
        clip-path: url(#clippath);
      }
    </style>
    <clipPath id="clippath">
      <rect class="st0" width="136" height="136"/>
    </clipPath>
    <mask id="mask" x="0" y="0" width="136" height="136" maskUnits="userSpaceOnUse">
      <g id="mask0_3311_39726">
        <path class="st3" d="M0,0h136v136H0V0Z"/>
      </g>
    </mask>
  </defs>
  <g class="st4">
    <g class="st1">
      <g>
        <path d="M11.51,72.08l3.93-10.19,3.77,10.19h-7.7ZM27.45,79.54l-8.89-22.94c-.29.02-.61.04-.95.04s-.66-.01-.95-.04l-8.38,21.66c-.49,1.27-.99,2.16-1.52,2.67-.52.51-1.06.83-1.59.95v.73c.37-.05.79-.08,1.26-.09.48-.01.98-.02,1.52-.02.73,0,1.46,0,2.2.02.73.01,1.49.04,2.27.09v-.73c-1.02-.02-1.82-.21-2.38-.55-.56-.34-.85-.95-.88-1.81-.02-.87.28-2.1.91-3.71l1.16-3h8.26l2.22,6c.49,1.24.56,2.06.22,2.43-.34.38-1.13.59-2.38.64v.73c.59-.05,1.34-.08,2.27-.09.93-.01,1.93-.02,3-.02.93,0,1.84,0,2.73.02.89.01,1.65.04,2.29.09v-.73c-.37-.02-.76-.2-1.19-.53-.43-.33-.82-.93-1.19-1.81Z"/>
        <path d="M50.25,56.71c-1.07.02-2.26.05-3.55.07-1.29.02-2.59.04-3.88.04h-7.06c-1.29,0-2.59-.01-3.88-.04-1.29-.02-2.48-.05-3.55-.07.1,1.12.16,2.21.2,3.27.04,1.06.05,1.87.05,2.43s0,1.09-.02,1.57c-.01.49-.04.91-.09,1.28h.84c.32-1.95.72-3.48,1.21-4.59.49-1.11,1.13-1.91,1.94-2.4.81-.49,1.84-.73,3.11-.73h1.21v20.86c0,1-.1,1.74-.29,2.23-.2.49-.57.81-1.13.97-.56.16-1.37.25-2.41.27v.73c.68-.05,1.58-.08,2.69-.09,1.11-.01,2.3-.02,3.57-.02s2.41,0,3.59.02c1.17.01,2.12.04,2.85.09v-.73c-1.07-.02-1.89-.12-2.45-.27-.56-.16-.93-.48-1.12-.97-.18-.49-.27-1.23-.27-2.23v-20.86h1.17c1.29,0,2.34.24,3.13.73.79.49,1.43,1.29,1.92,2.4.49,1.11.9,2.64,1.24,4.59h.84c-.02-.37-.05-.79-.07-1.28-.02-.49-.04-1.01-.04-1.57s.02-1.37.05-2.43c.04-1.06.1-2.15.2-3.27Z"/>
        <path class="st2" d="M54.98,76.28h1.07v-8.99h-1.07v8.99Z"/>
        <path class="st2" d="M64.79,74.12l-6.58-7.18v9.34h1.02v-6.75l6.58,7.1v-9.34h-1.02v6.83Z"/>
        <path class="st2" d="M70.53,74.17l-2.64-6.88h-1.16l3.8,9.34,3.78-9.34h-1.15l-2.63,6.88Z"/>
        <path class="st2" d="M75.25,76.28h4.74v-.99h-3.67v-3.44h3.67v-.99h-3.67v-2.58h3.67v-.98h-4.74v8.99Z"/>
        <path class="st2" d="M82.85,71.21v-3.01h.82c.82,0,1.37.12,1.66.35.29.23.44.64.44,1.21,0,.54-.14.91-.42,1.13-.28.21-.84.32-1.68.32h-.82ZM84.4,72c.79,0,1.4-.19,1.81-.57.41-.38.62-.94.62-1.68,0-.43-.07-.81-.22-1.16-.15-.35-.35-.63-.62-.84-.21-.16-.46-.28-.74-.35-.28-.07-.72-.1-1.32-.1h-2.11v8.99h1.04v-4.29h.15l3.28,4.29h1.36l-3.43-4.29h.19Z"/>
        <path class="st2" d="M91.81,71.29l-1.28-.56c-.41-.18-.72-.39-.91-.62-.2-.23-.29-.51-.29-.83,0-.38.13-.69.38-.94.26-.25.58-.37.99-.37.32,0,.6.08.85.25.25.17.47.43.68.78l.88-.56c-.22-.45-.53-.78-.92-1.01-.4-.23-.86-.34-1.4-.34-.74,0-1.34.21-1.82.63-.47.42-.71.95-.71,1.58,0,.55.15,1.02.44,1.41.29.39.74.71,1.34.96l1.09.47c.47.2.82.46,1.05.75.23.3.35.65.35,1.05,0,.5-.17.9-.5,1.21-.33.31-.77.46-1.3.46-.45,0-.83-.14-1.13-.42-.3-.28-.52-.69-.65-1.24l-.97.48c.17.67.49,1.18.97,1.54.48.36,1.07.54,1.78.54.87,0,1.56-.25,2.09-.76.53-.51.79-1.17.79-2,0-.57-.15-1.05-.44-1.47-.3-.41-.74-.74-1.32-.99Z"/>
        <path class="st2" d="M95.01,76.28h1.07v-8.99h-1.07v8.99Z"/>
        <path class="st2" d="M106.06,73.23c-.18.45-.45.85-.8,1.2-.36.36-.76.63-1.2.81-.44.19-.91.28-1.4.28s-.96-.09-1.4-.28c-.44-.18-.84-.46-1.2-.82-.36-.36-.63-.76-.81-1.2-.18-.44-.27-.91-.27-1.41s.09-.98.28-1.43c.18-.45.45-.85.8-1.21.34-.35.74-.62,1.19-.8.45-.18.92-.28,1.42-.28s.97.09,1.41.28c.44.18.84.45,1.2.8.35.35.62.75.8,1.2.19.45.28.93.28,1.44s-.09.97-.28,1.42ZM106.06,68.46c-.45-.44-.97-.78-1.56-1.01-.59-.24-1.21-.36-1.85-.36s-1.25.12-1.84.36c-.59.24-1.11.58-1.56,1.01-.46.45-.81.95-1.05,1.53-.24.57-.36,1.18-.36,1.82s.12,1.24.36,1.81c.24.57.59,1.08,1.05,1.52.45.44.98.78,1.56,1.02.59.24,1.2.36,1.83.36s1.25-.12,1.84-.36c.59-.24,1.12-.58,1.57-1.02.45-.44.8-.95,1.04-1.52.24-.57.36-1.18.36-1.82s-.12-1.26-.36-1.83c-.24-.57-.58-1.08-1.04-1.52Z"/>
        <path class="st2" d="M115.77,74.12l-6.58-7.18v9.34h1.02v-6.75l6.58,7.1v-9.34h-1.02v6.83Z"/>
        <path class="st2" d="M118.94,76.28h4.74v-.99h-3.67v-3.44h3.67v-.99h-3.67v-2.58h3.67v-.98h-4.74v8.99Z"/>
        <path class="st2" d="M130.09,72.29c-.3-.41-.74-.74-1.32-.99l-1.28-.56c-.41-.18-.72-.39-.91-.62-.2-.23-.29-.51-.29-.83,0-.38.13-.69.38-.94.26-.25.58-.37.99-.37.32,0,.6.08.85.25.25.17.47.43.68.78l.88-.56c-.22-.45-.53-.78-.92-1.01-.4-.23-.86-.34-1.4-.34-.74,0-1.34.21-1.82.63-.47.42-.71.95-.71,1.58,0,.55.15,1.02.44,1.41.29.39.74.71,1.34.96l1.09.47c.47.2.82.46,1.05.75.23.3.35.65.35,1.05,0,.5-.17.9-.5,1.21-.33.31-.77.46-1.3.46-.45,0-.83-.14-1.13-.42-.3-.28-.52-.69-.65-1.24l-.97.48c.17.67.49,1.18.97,1.54.48.36,1.07.54,1.78.54.87,0,1.56-.25,2.09-.76.53-.51.79-1.17.79-2,0-.56-.15-1.05-.45-1.47Z"/>
      </g>
    </g>
  </g>
</svg>