<svg width="113" height="159" viewBox="0 0 113 159" fill="none" xmlns="http://www.w3.org/2000/svg">
<g clip-path="url(#clip0_3311_39745)">
<mask id="mask0_3311_39745" style="mask-type:luminance" maskUnits="userSpaceOnUse" x="0" y="0" width="113" height="159">
<path d="M0 4.57764e-05H112.116V158.562H0V4.57764e-05Z" fill="white"/>
</mask>
<g mask="url(#mask0_3311_39745)">
<path d="M49.246 59.9418H49.9732C50.1981 59.9418 50.3742 59.9212 50.5022 59.8788C50.6299 59.8368 50.7318 59.7781 50.8079 59.702C50.9149 59.5952 50.9981 59.4513 51.0573 59.2707C51.1177 59.0908 51.1475 58.8712 51.1475 58.6149C51.1475 58.2578 51.0889 57.9843 50.9716 57.7932C50.855 57.6014 50.713 57.4735 50.5456 57.4084C50.4243 57.362 50.2297 57.3385 49.9615 57.3385H49.246V59.9418ZM48.7949 60.3442V56.9364H49.9692C50.2337 56.9364 50.4359 56.9526 50.5751 56.9854C50.7704 57.0298 50.9373 57.1112 51.0754 57.2293C51.2552 57.3811 51.3899 57.5754 51.4788 57.8111C51.5675 58.0476 51.6121 58.3177 51.6121 58.6211C51.6121 58.8797 51.5818 59.1093 51.5212 59.3091C51.4609 59.5095 51.3833 59.6751 51.2895 59.8052C51.1946 59.9367 51.0908 60.0399 50.9785 60.1154C50.8665 60.1907 50.7303 60.2467 50.5717 60.2853C50.4128 60.3247 50.231 60.3442 50.0248 60.3442H48.7949Z" fill="#1D1D1B"/>
</g>
<mask id="mask1_3311_39745" style="mask-type:luminance" maskUnits="userSpaceOnUse" x="0" y="0" width="113" height="159">
<path d="M0 4.57764e-05H112.116V158.562H0V4.57764e-05Z" fill="white"/>
</mask>
<g mask="url(#mask1_3311_39745)">
<path d="M52.5417 58.8725H53.9204C53.9017 58.665 53.8486 58.509 53.762 58.4054C53.629 58.2442 53.4556 58.1629 53.2437 58.1629C53.0516 58.1629 52.8905 58.2277 52.7587 58.3565C52.6282 58.4851 52.5557 58.6573 52.5417 58.8725ZM53.9153 59.5494L54.3475 59.6024C54.2799 59.8555 54.1537 60.0508 53.9686 60.1909C53.7844 60.3299 53.549 60.3994 53.2623 60.3994C52.9015 60.3994 52.6154 60.2889 52.4031 60.0659C52.192 59.844 52.0859 59.5321 52.0859 59.1311C52.0859 58.7155 52.1929 58.3932 52.4071 58.1629C52.6208 57.9342 52.8983 57.8197 53.2392 57.8197C53.5691 57.8197 53.8392 57.9323 54.0481 58.1566C54.2566 58.3815 54.3619 58.6974 54.3619 59.1053C54.3619 59.13 54.3611 59.1671 54.3592 59.2168H52.5186C52.5348 59.4877 52.6105 59.695 52.7485 59.8397C52.8864 59.983 53.0585 60.0559 53.265 60.0559C53.4175 60.0559 53.549 60.0154 53.6575 59.9357C53.7656 59.8544 53.852 59.7255 53.9153 59.5494Z" fill="#1D1D1B"/>
</g>
<mask id="mask2_3311_39745" style="mask-type:luminance" maskUnits="userSpaceOnUse" x="0" y="0" width="113" height="159">
<path d="M0 4.57764e-05H112.116V158.562H0V4.57764e-05Z" fill="white"/>
</mask>
<g mask="url(#mask2_3311_39745)">
<path d="M56.5083 60.3442V59.9811C56.3156 60.2604 56.0548 60.3994 55.7248 60.3994C55.579 60.3994 55.4431 60.3717 55.3169 60.3156C55.1903 60.2604 55.0969 60.1909 55.0359 60.1054C54.9743 60.0212 54.9313 59.9178 54.9067 59.795C54.8901 59.7129 54.8809 59.5835 54.8809 59.4052V57.8756H55.2999V59.2443C55.2999 59.4635 55.3076 59.6106 55.325 59.6862C55.3513 59.7962 55.4069 59.8826 55.4926 59.9451C55.5777 60.0084 55.6828 60.0393 55.8086 60.0393C55.9341 60.0393 56.0514 60.0069 56.1618 59.9433C56.2718 59.8788 56.3494 59.7909 56.3957 59.6803C56.4407 59.5696 56.4639 59.4087 56.4639 59.198V57.8756H56.8827V60.3442H56.5083Z" fill="#1D1D1B"/>
</g>
<mask id="mask3_3311_39745" style="mask-type:luminance" maskUnits="userSpaceOnUse" x="0" y="0" width="113" height="159">
<path d="M0 4.57764e-05H112.116V158.562H0V4.57764e-05Z" fill="white"/>
</mask>
<g mask="url(#mask3_3311_39745)">
<path d="M58.4518 59.9698L58.5125 60.3391C58.3951 60.3642 58.2897 60.3762 58.1966 60.3762C58.0454 60.3762 57.9265 60.3523 57.8435 60.3041C57.7595 60.2562 57.7011 60.1933 57.6661 60.1154C57.6325 60.0366 57.6154 59.8722 57.6154 59.621V58.2003H57.3086V57.8756H57.6154V57.2639L58.0318 57.0134V57.8756H58.4518V58.2003H58.0318V59.6441C58.0318 59.7634 58.0388 59.84 58.0535 59.8749C58.0686 59.9084 58.0925 59.9355 58.1252 59.9562C58.1586 59.9752 58.2064 59.9856 58.2682 59.9856C58.3153 59.9856 58.3765 59.9805 58.4518 59.9698Z" fill="#1D1D1B"/>
</g>
<mask id="mask4_3311_39745" style="mask-type:luminance" maskUnits="userSpaceOnUse" x="0" y="0" width="113" height="159">
<path d="M0 4.57764e-05H112.116V158.562H0V4.57764e-05Z" fill="white"/>
</mask>
<g mask="url(#mask4_3311_39745)">
<path d="M58.7383 59.6067L59.1524 59.5415C59.1752 59.7071 59.2404 59.8348 59.3461 59.9227C59.4523 60.0112 59.6013 60.0559 59.7915 60.0559C59.9834 60.0559 60.1258 60.0165 60.2192 59.9385C60.3119 59.8602 60.3584 59.7677 60.3584 59.663C60.3584 59.5681 60.3171 59.4941 60.2354 59.4393C60.1781 59.4029 60.0358 59.3554 59.8073 59.298C59.5005 59.2208 59.2879 59.1532 59.1694 59.0968C59.0506 59.0402 58.9613 58.9622 58.8997 58.8622C58.8387 58.7625 58.8085 58.6518 58.8085 58.5311C58.8085 58.4207 58.8328 58.3188 58.8833 58.2254C58.934 58.1316 59.0023 58.0536 59.0895 57.9915C59.1543 57.9433 59.243 57.9028 59.3547 57.8689C59.4677 57.8363 59.5885 57.8197 59.7171 57.8197C59.9107 57.8197 60.0806 57.8472 60.2269 57.9031C60.3735 57.9595 60.4816 58.0348 60.5511 58.1293C60.6209 58.2254 60.6692 58.3527 60.6957 58.5122L60.2863 58.5682C60.2674 58.4414 60.2141 58.3416 60.1243 58.2698C60.0358 58.1996 59.91 58.1629 59.7468 58.1629C59.5549 58.1629 59.418 58.196 59.3357 58.2589C59.2532 58.3222 59.2125 58.3968 59.2125 58.4813C59.2125 58.5362 59.2293 58.5859 59.2636 58.629C59.2982 58.6727 59.3511 58.7109 59.424 58.7403C59.4658 58.7554 59.5896 58.7915 59.7934 58.8475C60.0898 58.9262 60.2959 58.9906 60.4132 59.0409C60.5298 59.091 60.6221 59.1645 60.6884 59.2605C60.7549 59.3566 60.7884 59.4765 60.7884 59.6187C60.7884 59.7575 60.7479 59.8892 60.6665 60.0127C60.5846 60.1361 60.4676 60.2307 60.3141 60.2983C60.1612 60.3659 59.9872 60.3994 59.7934 60.3994C59.4728 60.3994 59.2287 60.3331 59.0605 60.1996C58.892 60.0668 58.7854 59.869 58.7383 59.6067Z" fill="#1D1D1B"/>
</g>
<mask id="mask5_3311_39745" style="mask-type:luminance" maskUnits="userSpaceOnUse" x="0" y="0" width="113" height="159">
<path d="M0 4.57764e-05H112.116V158.562H0V4.57764e-05Z" fill="white"/>
</mask>
<g mask="url(#mask5_3311_39745)">
<path d="M62.9126 59.4393L63.3239 59.4933C63.2785 59.7769 63.1638 59.9984 62.9785 60.1591C62.7934 60.3196 62.5657 60.3994 62.2965 60.3994C61.9588 60.3994 61.6865 60.2894 61.4816 60.0687C61.2767 59.8476 61.1738 59.5312 61.1738 59.1189C61.1738 58.8526 61.2175 58.6192 61.3059 58.4196C61.394 58.219 61.5294 58.0694 61.7093 57.9696C61.8895 57.8689 62.0863 57.8195 62.299 57.8195C62.5672 57.8195 62.7864 57.8877 62.9563 58.0229C63.1267 58.1583 63.2364 58.3512 63.2838 58.6006L62.8776 58.6631C62.839 58.4975 62.7702 58.3732 62.6717 58.2894C62.5734 58.2047 62.4542 58.1629 62.3144 58.1629C62.1044 58.1629 61.933 58.2397 61.8014 58.3906C61.6699 58.5412 61.6034 58.7804 61.6034 59.107C61.6034 59.4393 61.6675 59.6801 61.7944 59.8302C61.9212 59.9804 62.0871 60.0557 62.292 60.0557C62.4557 60.0557 62.593 60.005 62.7033 59.905C62.8133 59.8039 62.8828 59.6493 62.9126 59.4393Z" fill="#1D1D1B"/>
</g>
<mask id="mask6_3311_39745" style="mask-type:luminance" maskUnits="userSpaceOnUse" x="0" y="0" width="113" height="159">
<path d="M0 4.57764e-05H112.116V158.562H0V4.57764e-05Z" fill="white"/>
</mask>
<g mask="url(#mask6_3311_39745)">
<path d="M63.7441 60.3442V56.9364H64.1628V58.1591C64.3578 57.9322 64.6041 57.8197 64.9017 57.8197C65.0842 57.8197 65.2435 57.8549 65.3782 57.9278C65.5136 57.9992 65.6087 58.1 65.6677 58.2269C65.7255 58.3531 65.7545 58.538 65.7545 58.7789V60.3442H65.3362V58.7789C65.3362 58.5704 65.2906 58.4181 65.2 58.323C65.11 58.2277 64.9812 58.1798 64.8152 58.1798C64.6917 58.1798 64.5751 58.2122 64.4655 58.2764C64.3574 58.3409 64.2787 58.4281 64.2323 58.538C64.186 58.6477 64.1628 58.8 64.1628 58.9931V60.3442H63.7441Z" fill="#1D1D1B"/>
</g>
<mask id="mask7_3311_39745" style="mask-type:luminance" maskUnits="userSpaceOnUse" x="0" y="0" width="113" height="159">
<path d="M0 4.57764e-05H112.116V158.562H0V4.57764e-05Z" fill="white"/>
</mask>
<g mask="url(#mask7_3311_39745)">
<path d="M66.7273 58.8725H68.1052C68.0865 58.665 68.0342 58.509 67.9468 58.4054C67.814 58.2442 67.6411 58.1629 67.4292 58.1629C67.2364 58.1629 67.0753 58.2277 66.9442 58.3565C66.813 58.4851 66.7408 58.6573 66.7273 58.8725ZM68.1008 59.5494L68.5327 59.6024C68.4651 59.8555 68.3385 60.0508 68.1541 60.1909C67.9699 60.3299 67.7341 60.3994 67.4479 60.3994C67.0862 60.3994 66.8002 60.2889 66.5879 60.0659C66.3775 59.844 66.2715 59.5321 66.2715 59.1311C66.2715 58.7155 66.3779 58.3932 66.5919 58.1629C66.806 57.9342 67.083 57.8197 67.4247 57.8197C67.7539 57.8197 68.024 57.9323 68.2329 58.1566C68.4421 58.3815 68.5474 58.6974 68.5474 59.1053C68.5474 59.13 68.5459 59.1671 68.5448 59.2168H66.7034C66.7195 59.4877 66.7956 59.695 66.9337 59.8397C67.0716 59.983 67.2433 60.0559 67.4497 60.0559C67.6031 60.0559 67.7341 60.0154 67.8422 59.9357C67.9504 59.8544 68.0368 59.7255 68.1008 59.5494Z" fill="#1D1D1B"/>
</g>
<mask id="mask8_3311_39745" style="mask-type:luminance" maskUnits="userSpaceOnUse" x="0" y="0" width="113" height="159">
<path d="M0 4.57764e-05H112.116V158.562H0V4.57764e-05Z" fill="white"/>
</mask>
<g mask="url(#mask8_3311_39745)">
<path d="M70.8673 59.9418H71.7159C71.8612 59.9418 71.9634 59.9359 72.0228 59.9252C72.1267 59.9071 72.213 59.8755 72.2829 59.8321C72.3531 59.7884 72.4104 59.7259 72.4546 59.6427C72.4998 59.5604 72.5222 59.4643 72.5222 59.3554C72.5222 59.2289 72.4902 59.1181 72.4251 59.0247C72.3601 58.9313 72.2699 58.8654 72.1537 58.8275C72.0386 58.7893 71.8719 58.7701 71.6557 58.7701H70.8673V59.9418ZM70.8673 58.3682H71.6041C71.8047 58.3682 71.9472 58.3552 72.0337 58.3288C72.1486 58.2945 72.235 58.2378 72.293 58.1591C72.3516 58.0792 72.3806 57.9807 72.3806 57.8611C72.3806 57.748 72.3535 57.6485 72.2994 57.5628C72.2452 57.4771 72.168 57.418 72.0668 57.3856C71.9661 57.3543 71.7935 57.3385 71.5485 57.3385H70.8673V58.3682ZM70.416 60.3442V56.9364H71.695C71.9553 56.9364 72.164 56.9707 72.3215 57.0398C72.4785 57.1085 72.6017 57.2148 72.6912 57.3579C72.7801 57.5018 72.8247 57.6511 72.8247 57.8078C72.8247 57.9534 72.7846 58.0907 72.7062 58.2192C72.6268 58.3474 72.5068 58.4516 72.3478 58.5311C72.5539 58.591 72.7132 58.694 72.8236 58.8396C72.9336 58.9854 72.9891 59.1575 72.9891 59.3554C72.9891 59.5157 72.9556 59.664 72.8886 59.8013C72.8209 59.9384 72.7379 60.0436 72.6384 60.1182C72.5392 60.1934 72.4149 60.2486 72.2659 60.2868C72.1165 60.3247 71.9325 60.3442 71.7159 60.3442H70.416Z" fill="#1D1D1B"/>
</g>
<mask id="mask9_3311_39745" style="mask-type:luminance" maskUnits="userSpaceOnUse" x="0" y="0" width="113" height="159">
<path d="M0 4.57764e-05H112.116V158.562H0V4.57764e-05Z" fill="white"/>
</mask>
<g mask="url(#mask9_3311_39745)">
<path d="M73.8721 59.1093C73.8721 59.4257 73.9409 59.6628 74.0782 59.8193C74.2161 59.9773 74.3901 60.0557 74.599 60.0557C74.8065 60.0557 74.9802 59.9766 75.118 59.8182C75.2561 59.6607 75.3248 59.4197 75.3248 59.0957C75.3248 58.79 75.2553 58.5593 75.1165 58.4015C74.9775 58.244 74.8054 58.1661 74.599 58.1661C74.3901 58.1661 74.2161 58.244 74.0782 58.4007C73.9409 58.5574 73.8721 58.7932 73.8721 59.1093ZM73.4414 59.1093C73.4414 58.6527 73.5691 58.3135 73.8232 58.0932C74.0351 57.9109 74.294 57.8195 74.599 57.8195C74.9389 57.8195 75.216 57.931 75.4318 58.1533C75.6471 58.3751 75.7548 58.6825 75.7548 59.0742C75.7548 59.3925 75.707 59.6423 75.6117 59.8244C75.5162 60.0062 75.3777 60.1474 75.196 60.2486C75.0137 60.3493 74.815 60.3994 74.599 60.3994C74.2535 60.3994 73.9744 60.2894 73.761 60.0668C73.5484 59.8449 73.4414 59.5268 73.4414 59.1093Z" fill="#1D1D1B"/>
</g>
<mask id="mask10_3311_39745" style="mask-type:luminance" maskUnits="userSpaceOnUse" x="0" y="0" width="113" height="159">
<path d="M0 4.57764e-05H112.116V158.562H0V4.57764e-05Z" fill="white"/>
</mask>
<g mask="url(#mask10_3311_39745)">
<path d="M77.1452 59.9698L77.2058 60.3391C77.0885 60.3642 76.9826 60.3762 76.8892 60.3762C76.738 60.3762 76.6199 60.3523 76.5368 60.3041C76.4528 60.2562 76.3937 60.1933 76.3602 60.1154C76.3251 60.0366 76.3088 59.8722 76.3088 59.621V58.2003H76.002V57.8756H76.3088V57.2639L76.7252 57.0134V57.8756H77.1452V58.2003H76.7252V59.6441C76.7252 59.7634 76.7322 59.84 76.7468 59.8749C76.7612 59.9084 76.7855 59.9355 76.819 59.9562C76.8527 59.9752 76.8994 59.9856 76.9616 59.9856C77.0086 59.9856 77.0691 59.9805 77.1452 59.9698Z" fill="#1D1D1B"/>
</g>
<mask id="mask11_3311_39745" style="mask-type:luminance" maskUnits="userSpaceOnUse" x="0" y="0" width="113" height="159">
<path d="M0 4.57764e-05H112.116V158.562H0V4.57764e-05Z" fill="white"/>
</mask>
<g mask="url(#mask11_3311_39745)">
<path d="M77.4316 59.6067L77.8454 59.5415C77.8686 59.7071 77.9338 59.8348 78.04 59.9227C78.146 60.0112 78.2942 60.0559 78.4848 60.0559C78.6768 60.0559 78.8195 60.0165 78.9129 59.9385C79.0056 59.8602 79.0521 59.7677 79.0521 59.663C79.0521 59.5681 79.0109 59.4941 78.9291 59.4393C78.8717 59.4029 78.7287 59.3554 78.5018 59.298C78.195 59.2208 77.9824 59.1532 77.8635 59.0968C77.745 59.0402 77.655 58.9622 77.5934 58.8622C77.5324 58.7625 77.5015 58.6518 77.5015 58.5311C77.5015 58.4207 77.5273 58.3188 77.5772 58.2254C77.6277 58.1316 77.6961 58.0536 77.7829 57.9915C77.8481 57.9433 77.9371 57.9028 78.0492 57.8689C78.1615 57.8363 78.2818 57.8197 78.4108 57.8197C78.6041 57.8197 78.7743 57.8472 78.9207 57.9031C79.0676 57.9595 79.1753 58.0348 79.2456 58.1293C79.3151 58.2254 79.3629 58.3527 79.3894 58.5122L78.98 58.5682C78.9619 58.4414 78.9079 58.3416 78.8188 58.2698C78.7291 58.1996 78.6037 58.1629 78.441 58.1629C78.249 58.1629 78.1117 58.196 78.0294 58.2589C77.9473 58.3222 77.9063 58.3968 77.9063 58.4813C77.9063 58.5362 77.923 58.5859 77.9569 58.629C77.9912 58.6727 78.0449 58.7109 78.1178 58.7403C78.1596 58.7554 78.2826 58.7915 78.4873 58.8475C78.7836 58.9262 78.9894 58.9906 79.1062 59.0409C79.2235 59.091 79.3151 59.1645 79.3819 59.2605C79.449 59.3566 79.4821 59.4765 79.4821 59.6187C79.4821 59.7575 79.4412 59.8892 79.3603 60.0127C79.2791 60.1361 79.1617 60.2307 79.0075 60.2983C78.8549 60.3659 78.6809 60.3994 78.4873 60.3994C78.1665 60.3994 77.9217 60.3331 77.7539 60.1996C77.5857 60.0668 77.4783 59.869 77.4316 59.6067Z" fill="#1D1D1B"/>
</g>
<mask id="mask12_3311_39745" style="mask-type:luminance" maskUnits="userSpaceOnUse" x="0" y="0" width="113" height="159">
<path d="M0 4.57764e-05H112.116V158.562H0V4.57764e-05Z" fill="white"/>
</mask>
<g mask="url(#mask12_3311_39745)">
<path d="M81.606 59.4393L82.0173 59.4933C81.9727 59.7769 81.8572 59.9984 81.6722 60.1591C81.4875 60.3196 81.259 60.3994 80.9899 60.3994C80.6522 60.3994 80.3814 60.2894 80.1749 60.0687C79.97 59.8476 79.8672 59.5312 79.8672 59.1189C79.8672 58.8526 79.912 58.6192 80 58.4196C80.0881 58.219 80.2228 58.0694 80.4034 57.9696C80.5836 57.8689 80.7797 57.8195 80.9923 57.8195C81.2605 57.8195 81.4798 57.8877 81.6504 58.0229C81.8205 58.1583 81.9297 58.3512 81.9779 58.6006L81.5709 58.6631C81.5323 58.4975 81.4643 58.3732 81.3654 58.2894C81.2668 58.2047 81.1483 58.1629 81.0085 58.1629C80.7978 58.1629 80.6264 58.2397 80.4947 58.3906C80.3633 58.5412 80.2975 58.7804 80.2975 59.107C80.2975 59.4393 80.3608 59.6801 80.4883 59.8302C80.6145 59.9804 80.7808 60.0557 80.9861 60.0557C81.1498 60.0557 81.2871 60.005 81.3971 59.905C81.5067 59.8039 81.5762 59.6493 81.606 59.4393Z" fill="#1D1D1B"/>
</g>
<mask id="mask13_3311_39745" style="mask-type:luminance" maskUnits="userSpaceOnUse" x="0" y="0" width="113" height="159">
<path d="M0 4.57764e-05H112.116V158.562H0V4.57764e-05Z" fill="white"/>
</mask>
<g mask="url(#mask13_3311_39745)">
<path d="M82.4375 60.3442V56.9364H82.8558V58.1591C83.0511 57.9322 83.2975 57.8197 83.595 57.8197C83.7783 57.8197 83.9369 57.8549 84.0715 57.9278C84.2062 57.9992 84.3028 58.1 84.361 58.2269C84.4188 58.3531 84.4486 58.538 84.4486 58.7789V60.3442H84.0295V58.7789C84.0295 58.5704 83.9843 58.4181 83.8934 58.323C83.8026 58.2277 83.6749 58.1798 83.5086 58.1798C83.385 58.1798 83.2685 58.2122 83.1596 58.2764C83.05 58.3409 82.9724 58.4281 82.9257 58.538C82.879 58.6477 82.8558 58.8 82.8558 58.9931V60.3442H82.4375Z" fill="#1D1D1B"/>
</g>
<mask id="mask14_3311_39745" style="mask-type:luminance" maskUnits="userSpaceOnUse" x="0" y="0" width="113" height="159">
<path d="M0 4.57764e-05H112.116V158.562H0V4.57764e-05Z" fill="white"/>
</mask>
<g mask="url(#mask14_3311_39745)">
<path d="M86.6726 59.1053C86.5213 59.1671 86.2929 59.2193 85.9894 59.2632C85.8173 59.2878 85.6962 59.3153 85.6243 59.347C85.5532 59.3771 85.4984 59.4238 85.4591 59.4831C85.4205 59.5423 85.4009 59.6086 85.4009 59.6815C85.4009 59.7928 85.4436 59.886 85.5282 59.9606C85.6124 60.035 85.7363 60.0721 85.8987 60.0721C86.0597 60.0721 86.2028 60.0367 86.329 59.9664C86.4541 59.8954 86.5464 59.7988 86.6049 59.6769C86.6501 59.5824 86.6726 59.443 86.6726 59.2586V59.1053ZM86.7076 60.0393C86.5526 60.1706 86.404 60.264 86.2608 60.3181C86.1164 60.3727 85.9629 60.3994 85.7985 60.3994C85.5274 60.3994 85.3191 60.3333 85.1736 60.2011C85.028 60.0687 84.9551 59.8996 84.9551 59.6931C84.9551 59.5722 84.9826 59.4619 85.0374 59.3617C85.0929 59.262 85.1651 59.1814 85.2542 59.1215C85.3431 59.0616 85.4436 59.0151 85.5544 58.9842C85.6371 58.9622 85.7606 58.9409 85.9269 58.9209C86.2646 58.881 86.5136 58.8335 86.6726 58.7772C86.6748 58.7198 86.6752 58.6831 86.6752 58.6676C86.6752 58.4975 86.6358 58.3778 86.5567 58.3075C86.4496 58.2133 86.2912 58.1663 86.0802 58.1663C85.8832 58.1663 85.7382 58.2003 85.6448 58.2698C85.5506 58.3384 85.4811 58.4601 85.4367 58.6356L85.0272 58.5793C85.0647 58.4041 85.1253 58.2636 85.2103 58.1551C85.296 58.0478 85.419 57.9653 85.58 57.9065C85.7416 57.8483 85.9284 57.8197 86.1403 57.8197C86.3511 57.8197 86.5225 57.8448 86.6541 57.8935C86.7863 57.9433 86.8829 58.0058 86.9447 58.0813C87.0072 58.1566 87.0496 58.2512 87.075 58.3655C87.089 58.4377 87.096 58.5653 87.096 58.7514V59.3091C87.096 59.6982 87.1052 59.9444 87.1225 60.0478C87.14 60.1508 87.1762 60.2493 87.2284 60.3442H86.7914C86.7479 60.257 86.7196 60.1559 86.7076 60.0393Z" fill="#1D1D1B"/>
</g>
<mask id="mask15_3311_39745" style="mask-type:luminance" maskUnits="userSpaceOnUse" x="0" y="0" width="113" height="159">
<path d="M0 4.57764e-05H112.116V158.562H0V4.57764e-05Z" fill="white"/>
</mask>
<g mask="url(#mask15_3311_39745)">
<path d="M87.842 60.3442V58.2004H87.4727V57.8757H87.842V57.6125C87.842 57.447 87.8567 57.3231 87.8864 57.2432C87.9269 57.1351 87.9979 57.0468 88.0991 56.9799C88.2002 56.9121 88.3422 56.878 88.5259 56.878C88.6432 56.878 88.7737 56.8919 88.9157 56.9202L88.8532 57.2852C88.766 57.2698 88.6844 57.262 88.607 57.262C88.4799 57.262 88.3897 57.2892 88.3368 57.3432C88.285 57.3975 88.2584 57.4993 88.2584 57.6476V57.8757H88.7393V58.2004H88.2584V60.3442H87.842Z" fill="#1D1D1B"/>
</g>
<mask id="mask16_3311_39745" style="mask-type:luminance" maskUnits="userSpaceOnUse" x="0" y="0" width="113" height="159">
<path d="M0 4.57764e-05H112.116V158.562H0V4.57764e-05Z" fill="white"/>
</mask>
<g mask="url(#mask16_3311_39745)">
<path d="M90.1374 59.9698L90.198 60.3391C90.0807 60.3642 89.9748 60.3762 89.8822 60.3762C89.7302 60.3762 89.6128 60.3523 89.529 60.3041C89.445 60.2562 89.3859 60.1933 89.3516 60.1154C89.3173 60.0366 89.3009 59.8722 89.3009 59.621V58.2003H88.9941V57.8756H89.3009V57.2639L89.7174 57.0134V57.8756H90.1374V58.2003H89.7174V59.6441C89.7174 59.7634 89.7243 59.84 89.739 59.8749C89.7533 59.9084 89.7776 59.9355 89.8112 59.9562C89.8445 59.9752 89.8923 59.9856 89.9541 59.9856C90.0004 59.9856 90.0613 59.9805 90.1374 59.9698Z" fill="#1D1D1B"/>
</g>
<mask id="mask17_3311_39745" style="mask-type:luminance" maskUnits="userSpaceOnUse" x="0" y="0" width="113" height="159">
<path d="M0 4.57764e-05H112.116V158.562H0V4.57764e-05Z" fill="white"/>
</mask>
<g mask="url(#mask17_3311_39745)">
<path d="M49.2286 64.9234H50.0765C50.2221 64.9234 50.3248 64.9176 50.3833 64.9072C50.4871 64.8888 50.5743 64.8571 50.6438 64.8138C50.7141 64.7701 50.7707 64.7076 50.8159 64.6244C50.8612 64.5421 50.8828 64.446 50.8828 64.3379C50.8828 64.2106 50.8508 64.1006 50.7858 64.0064C50.7206 63.913 50.6301 63.8471 50.515 63.8092C50.3995 63.7717 50.2332 63.7518 50.0163 63.7518H49.2286V64.9234ZM49.2286 63.3499H49.965C50.1649 63.3499 50.3078 63.3369 50.395 63.3105C50.5099 63.2762 50.5963 63.2195 50.654 63.1408C50.7129 63.0613 50.7419 62.9628 50.7419 62.8436C50.7419 62.7302 50.7141 62.6302 50.66 62.5445C50.6058 62.4581 50.5285 62.3997 50.4278 62.368C50.3274 62.336 50.1541 62.3202 49.9098 62.3202H49.2286V63.3499ZM48.7773 65.3259V61.9181H50.056C50.3163 61.9181 50.5246 61.9531 50.682 62.0215C50.8399 62.0902 50.9627 62.1965 51.0518 62.3396C51.1406 62.4835 51.186 62.6336 51.186 62.7895C51.186 62.9351 51.1459 63.0724 51.0668 63.2009C50.9873 63.3295 50.8689 63.4333 50.7088 63.5128C50.9152 63.5727 51.0738 63.6764 51.1845 63.822C51.2957 63.967 51.3508 64.1392 51.3508 64.3379C51.3508 64.4974 51.3166 64.6456 51.2489 64.7829C51.1819 64.9201 51.0981 65.0253 50.9994 65.0999C50.9005 65.1751 50.7758 65.2303 50.6265 65.2685C50.4767 65.3063 50.2939 65.3259 50.0765 65.3259H48.7773Z" fill="#1D1D1B"/>
</g>
<mask id="mask18_3311_39745" style="mask-type:luminance" maskUnits="userSpaceOnUse" x="0" y="0" width="113" height="159">
<path d="M0 4.57764e-05H112.116V158.562H0V4.57764e-05Z" fill="white"/>
</mask>
<g mask="url(#mask18_3311_39745)">
<path d="M53.5591 65.3257V64.9626C53.3664 65.2419 53.1052 65.3809 52.7752 65.3809C52.6294 65.3809 52.4938 65.3532 52.368 65.2978C52.2411 65.2419 52.1477 65.1716 52.0863 65.0869C52.0251 65.0027 51.9821 64.8993 51.9574 64.7772C51.9401 64.6944 51.9316 64.565 51.9316 64.3866V62.8577H52.3499V64.2258C52.3499 64.4442 52.3584 64.5921 52.3757 64.6676C52.4016 64.7776 52.4577 64.8641 52.5434 64.9266C52.6285 64.9899 52.7336 65.0208 52.859 65.0208C52.9848 65.0208 53.1022 64.9884 53.2122 64.9247C53.3218 64.8607 53.3998 64.7723 53.4457 64.6625C53.4922 64.551 53.5146 64.3902 53.5146 64.1794V62.8577H53.9328V65.3257H53.5591Z" fill="#1D1D1B"/>
</g>
<mask id="mask19_3311_39745" style="mask-type:luminance" maskUnits="userSpaceOnUse" x="0" y="0" width="113" height="159">
<path d="M0 4.57764e-05H112.116V158.562H0V4.57764e-05Z" fill="white"/>
</mask>
<g mask="url(#mask19_3311_39745)">
<path d="M54.9218 63.8544H56.2997C56.2818 63.6464 56.2287 63.4905 56.1421 63.3861C56.0086 63.2257 55.8357 63.1451 55.6238 63.1451C55.4317 63.1451 55.2699 63.2091 55.1388 63.3387C55.0083 63.4666 54.9358 63.6387 54.9218 63.8544ZM56.2958 64.5309L56.7276 64.5846C56.6597 64.8366 56.5331 65.0322 56.3487 65.1724C56.1645 65.3114 55.9287 65.3809 55.6424 65.3809C55.2816 65.3809 54.9955 65.2703 54.784 65.0477C54.5725 64.8254 54.4668 64.5135 54.4668 64.1126C54.4668 63.6977 54.573 63.3747 54.7872 63.1451C55.0006 62.9157 55.2776 62.8012 55.6193 62.8012C55.9492 62.8012 56.2186 62.913 56.4274 63.1388C56.6374 63.363 56.742 63.6788 56.742 64.0868C56.742 64.1114 56.7405 64.1485 56.7393 64.1983H54.8987C54.9141 64.4691 54.9906 64.6765 55.1286 64.8211C55.2661 64.9646 55.4386 65.0373 55.6451 65.0373C55.7984 65.0373 55.9287 64.9968 56.0376 64.9172C56.1457 64.8358 56.2314 64.707 56.2958 64.5309Z" fill="#1D1D1B"/>
</g>
<mask id="mask20_3311_39745" style="mask-type:luminance" maskUnits="userSpaceOnUse" x="0" y="0" width="113" height="159">
<path d="M0 4.57764e-05H112.116V158.562H0V4.57764e-05Z" fill="white"/>
</mask>
<g mask="url(#mask20_3311_39745)">
<path d="M57.2695 65.3257V62.8577H57.6458V63.2084C57.8276 62.9368 58.0892 62.8012 58.4316 62.8012C58.5802 62.8012 58.7171 62.8279 58.8422 62.881C58.9665 62.9351 59.0599 63.0053 59.1217 63.0918C59.1835 63.1786 59.2273 63.2818 59.2518 63.401C59.2673 63.4782 59.275 63.6144 59.275 63.8075V65.3257H58.8569V63.8237C58.8569 63.6538 58.8407 63.5261 58.8079 63.4415C58.7755 63.3566 58.7177 63.2895 58.6346 63.2392C58.5519 63.1888 58.4548 63.1637 58.3433 63.1637C58.1653 63.1637 58.0112 63.2204 57.8816 63.3334C57.7522 63.4466 57.6878 63.6607 57.6878 63.9772V65.3257H57.2695Z" fill="#1D1D1B"/>
</g>
<mask id="mask21_3311_39745" style="mask-type:luminance" maskUnits="userSpaceOnUse" x="0" y="0" width="113" height="159">
<path d="M0 4.57764e-05H112.116V158.562H0V4.57764e-05Z" fill="white"/>
</mask>
<g mask="url(#mask21_3311_39745)">
<path d="M60.2144 64.0913C60.2144 64.4074 60.2839 64.6447 60.4219 64.801C60.5598 64.959 60.7331 65.0374 60.9427 65.0374C61.1503 65.0374 61.3228 64.9585 61.4606 64.8006C61.5987 64.6424 61.6678 64.4008 61.6678 64.0774C61.6678 63.7717 61.5979 63.541 61.4595 63.3832C61.3201 63.2265 61.148 63.1478 60.9427 63.1478C60.7331 63.1478 60.5598 63.2257 60.4219 63.3824C60.2839 63.5391 60.2144 63.7757 60.2144 64.0913ZM59.7852 64.0913C59.7852 63.6337 59.9113 63.296 60.1658 63.0751C60.3781 62.8933 60.637 62.8012 60.9427 62.8012C61.2815 62.8012 61.559 62.9127 61.774 63.1349C61.9893 63.3568 62.0974 63.6646 62.0974 64.0567C62.0974 64.3742 62.05 64.624 61.9543 64.8061C61.859 64.9878 61.7204 65.1291 61.5382 65.2302C61.3561 65.331 61.158 65.3811 60.9427 65.3811C60.5969 65.3811 60.3174 65.2711 60.1048 65.0485C59.8906 64.8274 59.7852 64.5085 59.7852 64.0913Z" fill="#1D1D1B"/>
</g>
<mask id="mask22_3311_39745" style="mask-type:luminance" maskUnits="userSpaceOnUse" x="0" y="0" width="113" height="159">
<path d="M0 4.57764e-05H112.116V158.562H0V4.57764e-05Z" fill="white"/>
</mask>
<g mask="url(#mask22_3311_39745)">
<path d="M62.4531 64.5889L62.8669 64.5237C62.8901 64.6893 62.9545 64.817 63.0609 64.9042C63.1667 64.9929 63.3154 65.0373 63.5056 65.0373C63.6975 65.0373 63.8403 64.998 63.9337 64.92C64.0265 64.8416 64.0729 64.7499 64.0729 64.6448C64.0729 64.5495 64.0324 64.4755 63.9495 64.4211C63.8922 64.384 63.7499 64.3369 63.5218 64.2794C63.215 64.2022 63.0023 64.1346 62.8835 64.0783C62.765 64.0224 62.6761 63.9436 62.6142 63.8436C62.5535 63.744 62.5226 63.6332 62.5226 63.5125C62.5226 63.4029 62.548 63.3003 62.5981 63.2068C62.6484 63.113 62.7172 63.0351 62.8036 62.9729C62.8688 62.9247 62.9571 62.8846 63.0699 62.8505C63.1826 62.8177 63.3025 62.8012 63.4316 62.8012C63.6248 62.8012 63.7951 62.8287 63.9418 62.8846C64.0875 62.9409 64.196 63.0162 64.2655 63.1115C64.335 63.2068 64.3836 63.3345 64.4098 63.4939L64.0007 63.55C63.9819 63.4229 63.9286 63.323 63.8395 63.252C63.7499 63.181 63.6244 63.1451 63.4617 63.1451C63.269 63.1451 63.1325 63.1775 63.0498 63.2407C62.968 63.3044 62.927 63.3782 62.927 63.4635C62.927 63.5178 62.9441 63.5666 62.9777 63.6105C63.0119 63.6541 63.0652 63.6924 63.1389 63.7216C63.1799 63.737 63.3041 63.773 63.5082 63.8282C63.8039 63.9077 64.0103 63.9728 64.1277 64.0231C64.2442 64.0732 64.3365 64.1467 64.4028 64.2427C64.4693 64.338 64.5028 64.458 64.5028 64.6004C64.5028 64.7397 64.4627 64.8706 64.381 64.9942C64.2991 65.1176 64.1817 65.2121 64.0282 65.2805C63.8749 65.3473 63.7016 65.3809 63.5082 65.3809C63.1873 65.3809 62.9432 65.3148 62.7746 65.1812C62.6064 65.0477 62.4995 64.8505 62.4531 64.5889Z" fill="#1D1D1B"/>
</g>
<mask id="mask23_3311_39745" style="mask-type:luminance" maskUnits="userSpaceOnUse" x="0" y="0" width="113" height="159">
<path d="M0 4.57764e-05H112.116V158.562H0V4.57764e-05Z" fill="white"/>
</mask>
<g mask="url(#mask23_3311_39745)">
<path d="M66.9849 63.9266H68.14L67.7838 62.983C67.6757 62.6961 67.5951 62.4607 67.543 62.2759C67.4991 62.4948 67.4381 62.7116 67.3586 62.9274L66.9849 63.9266ZM66.002 65.3259L67.3105 61.9181H67.7965L69.1902 65.3259H68.6773L68.2798 64.2936H66.8548L66.4809 65.3259H66.002Z" fill="#1D1D1B"/>
</g>
<mask id="mask24_3311_39745" style="mask-type:luminance" maskUnits="userSpaceOnUse" x="0" y="0" width="113" height="159">
<path d="M0 4.57764e-05H112.116V158.562H0V4.57764e-05Z" fill="white"/>
</mask>
<g mask="url(#mask24_3311_39745)">
<path d="M69.5859 62.8577H70.0037V65.3257H69.5859V62.8577ZM69.5859 61.9178H70.0037V62.3994H69.5859V61.9178Z" fill="#1D1D1B"/>
</g>
<mask id="mask25_3311_39745" style="mask-type:luminance" maskUnits="userSpaceOnUse" x="0" y="0" width="113" height="159">
<path d="M0 4.57764e-05H112.116V158.562H0V4.57764e-05Z" fill="white"/>
</mask>
<g mask="url(#mask25_3311_39745)">
<path d="M70.6504 65.3257V62.8577H71.0267V63.2308C71.1231 63.056 71.2115 62.9409 71.2923 62.8846C71.3744 62.8287 71.4636 62.8012 71.5612 62.8012C71.7025 62.8012 71.8456 62.846 71.9912 62.9364L71.8467 63.3242C71.7448 63.2639 71.6426 63.2334 71.5399 63.2334C71.449 63.2334 71.3674 63.2613 71.2938 63.3157C71.2216 63.3705 71.1687 63.4466 71.1386 63.5445C71.0915 63.6935 71.0683 63.8568 71.0683 64.0335V65.3257H70.6504Z" fill="#1D1D1B"/>
</g>
<mask id="mask26_3311_39745" style="mask-type:luminance" maskUnits="userSpaceOnUse" x="0" y="0" width="113" height="159">
<path d="M0 4.57764e-05H112.116V158.562H0V4.57764e-05Z" fill="white"/>
</mask>
<g mask="url(#mask26_3311_39745)">
<path d="M72.5714 63.8544H73.9493C73.9307 63.6464 73.8779 63.4905 73.7909 63.3861C73.6581 63.2257 73.4856 63.1451 73.2726 63.1451C73.0805 63.1451 72.9195 63.2091 72.788 63.3387C72.6571 63.4666 72.5842 63.6387 72.5714 63.8544ZM73.9442 64.5309L74.3768 64.5846C74.3092 64.8366 74.1823 65.0322 73.9983 65.1724C73.8141 65.3114 73.5783 65.3809 73.2912 65.3809C72.9296 65.3809 72.6443 65.2703 72.4324 65.0477C72.2209 64.8254 72.1152 64.5135 72.1152 64.1126C72.1152 63.6977 72.222 63.3747 72.436 63.1451C72.6501 62.9157 72.9272 62.8012 73.2673 62.8012C73.598 62.8012 73.8681 62.913 74.077 63.1388C74.2861 63.363 74.3908 63.6788 74.3908 64.0868C74.3908 64.1114 74.3896 64.1485 74.3881 64.1983H72.5475C72.5629 64.4691 72.6398 64.6765 72.7778 64.8211C72.9157 64.9646 73.0875 65.0373 73.2931 65.0373C73.4464 65.0373 73.5783 64.9968 73.6864 64.9172C73.7949 64.8358 73.8809 64.707 73.9442 64.5309Z" fill="#1D1D1B"/>
</g>
<mask id="mask27_3311_39745" style="mask-type:luminance" maskUnits="userSpaceOnUse" x="0" y="0" width="113" height="159">
<path d="M0 4.57764e-05H112.116V158.562H0V4.57764e-05Z" fill="white"/>
</mask>
<g mask="url(#mask27_3311_39745)">
<path d="M74.7695 64.5889L75.1833 64.5237C75.2057 64.6893 75.2709 64.817 75.3773 64.9042C75.4832 64.9929 75.6318 65.0373 75.822 65.0373C76.0139 65.0373 76.157 64.998 76.2501 64.92C76.3429 64.8416 76.3893 64.7499 76.3893 64.6448C76.3893 64.5495 76.348 64.4755 76.2659 64.4211C76.2086 64.384 76.0663 64.3369 75.8389 64.2794C75.5321 64.2022 75.3191 64.1346 75.2006 64.0783C75.0822 64.0224 74.9918 63.9436 74.9313 63.8436C74.8695 63.744 74.839 63.6332 74.839 63.5125C74.839 63.4029 74.8645 63.3003 74.9146 63.2068C74.9648 63.113 75.0332 63.0351 75.12 62.9729C75.1852 62.9247 75.2743 62.8846 75.3863 62.8505C75.4986 62.8177 75.6189 62.8012 75.748 62.8012C75.942 62.8012 76.1122 62.8287 76.2578 62.8846C76.4047 62.9409 76.5128 63.0162 76.5827 63.1115C76.6522 63.2068 76.7 63.3345 76.7262 63.4939L76.3171 63.55C76.299 63.4229 76.245 63.323 76.1559 63.252C76.067 63.181 75.9408 63.1451 75.7781 63.1451C75.5862 63.1451 75.4489 63.1775 75.3669 63.2407C75.2845 63.3044 75.2434 63.3782 75.2434 63.4635C75.2434 63.5178 75.26 63.5666 75.2948 63.6105C75.3291 63.6541 75.3824 63.6924 75.4545 63.7216C75.4971 63.737 75.6205 63.773 75.8246 63.8282C76.1203 63.9077 76.3267 63.9728 76.4441 64.0231C76.5607 64.0732 76.6529 64.1467 76.7192 64.2427C76.7861 64.338 76.8196 64.458 76.8196 64.6004C76.8196 64.7397 76.7784 64.8706 76.697 64.9942C76.6162 65.1176 76.4989 65.2121 76.3454 65.2805C76.1921 65.3473 76.018 65.3809 75.8246 65.3809C75.5037 65.3809 75.2596 65.3148 75.091 65.1812C74.9236 65.0477 74.8159 64.8505 74.7695 64.5889Z" fill="#1D1D1B"/>
</g>
<mask id="mask28_3311_39745" style="mask-type:luminance" maskUnits="userSpaceOnUse" x="0" y="0" width="113" height="159">
<path d="M0 4.57764e-05H112.116V158.562H0V4.57764e-05Z" fill="white"/>
</mask>
<g mask="url(#mask28_3311_39745)">
<path d="M48.8047 76.4939V73.0864H51.2689V73.4885H49.256V74.5314H51.1412V74.9316H49.256V76.0918H51.348V76.4939H48.8047Z" fill="#1D1D1B"/>
</g>
<mask id="mask29_3311_39745" style="mask-type:luminance" maskUnits="userSpaceOnUse" x="0" y="0" width="113" height="159">
<path d="M0 4.57764e-05H112.116V158.562H0V4.57764e-05Z" fill="white"/>
</mask>
<g mask="url(#mask29_3311_39745)">
<path d="M51.8789 76.4939V74.0253H52.2533V74.3713C52.3305 74.2504 52.4336 74.1536 52.5628 74.0797C52.6908 74.0061 52.8372 73.9694 53.0016 73.9694C53.1841 73.9694 53.3342 74.008 53.4508 74.0826C53.5681 74.1602 53.6504 74.2651 53.699 74.402C53.8943 74.1135 54.1482 73.9694 54.4613 73.9694C54.7063 73.9694 54.8946 74.0377 55.0259 74.1732C55.1575 74.3084 55.2238 74.5178 55.2238 74.7996V76.4939H54.8074V74.9386C54.8074 74.7713 54.7939 74.6514 54.7669 74.577C54.7396 74.5039 54.6908 74.4449 54.6195 74.3994C54.5477 74.3549 54.4639 74.3319 54.3686 74.3319C54.1946 74.3319 54.0503 74.3894 53.936 74.5056C53.8209 74.6208 53.7642 74.8054 53.7642 75.0593V76.4939H53.3451V74.8896C53.3451 74.7039 53.3116 74.5649 53.2432 74.4715C53.1749 74.3788 53.0634 74.3319 52.9082 74.3319C52.7909 74.3319 52.682 74.3632 52.5818 74.4252C52.4822 74.4877 52.4093 74.5777 52.3648 74.6969C52.3196 74.8162 52.2972 74.9883 52.2972 75.2134V76.4939H51.8789Z" fill="#1D1D1B"/>
</g>
<mask id="mask30_3311_39745" style="mask-type:luminance" maskUnits="userSpaceOnUse" x="0" y="0" width="113" height="159">
<path d="M0 4.57764e-05H112.116V158.562H0V4.57764e-05Z" fill="white"/>
</mask>
<g mask="url(#mask30_3311_39745)">
<path d="M56.2426 75.2409C56.2426 75.5366 56.2828 75.7508 56.3634 75.882C56.495 76.0973 56.6734 76.205 56.8981 76.205C57.0806 76.205 57.2384 76.1259 57.3719 75.9673C57.5055 75.8089 57.5725 75.5716 57.5725 75.2571C57.5725 74.9349 57.5081 74.6968 57.3804 74.5435C57.2527 74.39 57.0983 74.3135 56.9162 74.3135C56.734 74.3135 56.576 74.3934 56.4427 74.552C56.3093 74.7105 56.2426 74.9399 56.2426 75.2409ZM56.2474 76.4938H55.8594V73.0865H56.2777V74.3018C56.4542 74.08 56.6796 73.9692 56.9536 73.9692C57.106 73.9692 57.2495 73.9994 57.3848 74.0615C57.5209 74.1227 57.6317 74.2084 57.7196 74.319C57.8072 74.4301 57.8756 74.5633 57.9257 74.72C57.9744 74.8767 57.9999 75.0445 57.9999 75.2221C57.9999 75.6449 57.8946 75.9726 57.6857 76.2031C57.4772 76.4346 57.2256 76.5493 56.9331 76.5493C56.6417 76.5493 56.4129 76.4276 56.2474 76.1845V76.4938Z" fill="#1D1D1B"/>
</g>
<mask id="mask31_3311_39745" style="mask-type:luminance" maskUnits="userSpaceOnUse" x="0" y="0" width="113" height="159">
<path d="M0 4.57764e-05H112.116V158.562H0V4.57764e-05Z" fill="white"/>
</mask>
<g mask="url(#mask31_3311_39745)">
<path d="M60.0932 75.2548C59.9409 75.317 59.7128 75.3692 59.4094 75.4131C59.2372 75.4374 59.1163 75.4656 59.0446 75.4969C58.9732 75.527 58.9187 75.5733 58.8798 75.6327C58.8404 75.6918 58.8216 75.7585 58.8216 75.8314C58.8216 75.9427 58.8636 76.0355 58.9485 76.1097C59.0323 76.1845 59.1559 76.222 59.3186 76.222C59.4804 76.222 59.6235 76.1862 59.7489 76.1159C59.874 76.0453 59.9667 75.9491 60.0256 75.8268C60.0701 75.7319 60.0932 75.5929 60.0932 75.4082V75.2548ZM60.1279 76.1888C59.9725 76.3205 59.8235 76.4139 59.6806 76.4687C59.5371 76.5222 59.383 76.5493 59.2191 76.5493C58.9474 76.5493 58.7393 76.4828 58.5939 76.3506C58.4483 76.2178 58.375 76.0491 58.375 75.8423C58.375 75.7217 58.4025 75.6114 58.4573 75.5116C58.5129 75.4115 58.585 75.3317 58.6741 75.271C58.7628 75.2108 58.8636 75.1654 58.9743 75.1337C59.0566 75.1121 59.1805 75.0908 59.3468 75.0712C59.6845 75.0313 59.9331 74.9831 60.0932 74.9271C60.0944 74.8697 60.0951 74.833 60.0951 74.8175C60.0951 74.6471 60.0558 74.5273 59.9767 74.4578C59.8702 74.3632 59.7111 74.3154 59.5003 74.3154C59.3031 74.3154 59.1577 74.3502 59.0643 74.4192C58.9705 74.4887 58.9007 74.61 58.8566 74.7851L58.4471 74.7299C58.4846 74.5544 58.5456 74.4132 58.6313 74.305C58.7161 74.1973 58.8389 74.1148 59.0007 74.0564C59.1611 73.999 59.348 73.9692 59.561 73.9692C59.771 73.9692 59.9424 73.9943 60.0736 74.0434C60.2059 74.0928 60.3025 74.1553 60.365 74.2308C60.4268 74.3062 60.4703 74.4011 60.4946 74.515C60.5089 74.5872 60.5159 74.7156 60.5159 74.9013V75.4594C60.5159 75.8485 60.5251 76.0943 60.5424 76.1966C60.5603 76.3003 60.5957 76.3988 60.6487 76.4938H60.2117C60.1678 76.4066 60.1403 76.305 60.1279 76.1888Z" fill="#1D1D1B"/>
</g>
<mask id="mask32_3311_39745" style="mask-type:luminance" maskUnits="userSpaceOnUse" x="0" y="0" width="113" height="159">
<path d="M0 4.57764e-05H112.116V158.562H0V4.57764e-05Z" fill="white"/>
</mask>
<g mask="url(#mask32_3311_39745)">
<path d="M61.1683 73.0863H61.5873V73.5715H61.1683V73.0863ZM60.6387 77.4509L60.717 77.0955C60.8008 77.1176 60.8675 77.1279 60.9157 77.1279C61.0007 77.1279 61.0639 77.1004 61.105 77.0437C61.1478 76.9867 61.1683 76.845 61.1683 76.6196V74.025H61.5873V76.6284C61.5873 76.9318 61.5472 77.1434 61.4685 77.2626C61.3674 77.4181 61.2003 77.4954 60.9664 77.4954C60.8532 77.4954 60.7441 77.4803 60.6387 77.4509Z" fill="#1D1D1B"/>
</g>
<mask id="mask33_3311_39745" style="mask-type:luminance" maskUnits="userSpaceOnUse" x="0" y="0" width="113" height="159">
<path d="M0 4.57764e-05H112.116V158.562H0V4.57764e-05Z" fill="white"/>
</mask>
<g mask="url(#mask33_3311_39745)">
<path d="M63.821 75.2548C63.6698 75.317 63.4413 75.3692 63.1379 75.4131C62.9657 75.4374 62.8441 75.4656 62.7734 75.4969C62.7017 75.527 62.6469 75.5733 62.6083 75.6327C62.5695 75.6918 62.5501 75.7585 62.5501 75.8314C62.5501 75.9427 62.5921 76.0355 62.6766 76.1097C62.7608 76.1845 62.8848 76.222 63.0479 76.222C63.2089 76.222 63.352 76.1862 63.4778 76.1159C63.6029 76.0453 63.6948 75.9491 63.7541 75.8268C63.7986 75.7319 63.821 75.5929 63.821 75.4082V75.2548ZM63.856 76.1888C63.7014 76.3205 63.5517 76.4139 63.4087 76.4687C63.2656 76.5222 63.1121 76.5493 62.9473 76.5493C62.6766 76.5493 62.4676 76.4828 62.322 76.3506C62.1764 76.2178 62.1035 76.0491 62.1035 75.8423C62.1035 75.7217 62.131 75.6114 62.1858 75.5116C62.2406 75.4115 62.3131 75.3317 62.4018 75.271C62.4915 75.2108 62.5913 75.1654 62.7034 75.1337C62.7855 75.1121 62.9091 75.0908 63.0754 75.0712C63.4127 75.0313 63.6613 74.9831 63.821 74.9271C63.8225 74.8697 63.8236 74.833 63.8236 74.8175C63.8236 74.6471 63.7839 74.5273 63.7052 74.4578C63.598 74.3632 63.4396 74.3154 63.2287 74.3154C63.0317 74.3154 62.8866 74.3502 62.7925 74.4192C62.6991 74.4887 62.6303 74.61 62.5851 74.7851L62.1757 74.7299C62.2131 74.5544 62.2742 74.4132 62.3595 74.305C62.4444 74.1973 62.5678 74.1148 62.7292 74.0564C62.89 73.999 63.0769 73.9692 63.2887 73.9692C63.4995 73.9692 63.6709 73.9943 63.8025 74.0434C63.9348 74.0928 64.0314 74.1553 64.0932 74.2308C64.1549 74.3062 64.1988 74.4011 64.2235 74.515C64.2374 74.5872 64.2448 74.7156 64.2448 74.9013V75.4594C64.2448 75.8485 64.2529 76.0943 64.2709 76.1966C64.2888 76.3003 64.3239 76.3988 64.3768 76.4938H63.9398C63.8963 76.4066 63.8688 76.305 63.856 76.1888Z" fill="#1D1D1B"/>
</g>
<mask id="mask34_3311_39745" style="mask-type:luminance" maskUnits="userSpaceOnUse" x="0" y="0" width="113" height="159">
<path d="M0 4.57764e-05H112.116V158.562H0V4.57764e-05Z" fill="white"/>
</mask>
<g mask="url(#mask34_3311_39745)">
<path d="M65.1807 75.2622C65.1807 75.5779 65.2467 75.8144 65.3806 75.9711C65.5133 76.1271 65.6708 76.205 65.8524 76.205C66.0345 76.205 66.1901 76.131 66.3178 75.9805C66.4458 75.8319 66.5099 75.6035 66.5099 75.2968C66.5099 74.9592 66.4447 74.7111 66.3151 74.5529C66.1842 74.3945 66.0239 74.3154 65.8337 74.3154C65.6473 74.3154 65.4919 74.3915 65.3676 74.5435C65.2425 74.6957 65.1807 74.9349 65.1807 75.2622ZM66.5031 76.4938V76.1826C66.346 76.4269 66.1166 76.5493 65.8124 76.5493C65.616 76.5493 65.4346 76.4945 65.2698 76.3868C65.1046 76.2785 64.977 76.1271 64.8862 75.9325C64.7952 75.7378 64.75 75.5142 64.75 75.2622C64.75 75.0153 64.7916 74.7917 64.8732 74.5911C64.9557 74.3907 65.0788 74.2374 65.2433 74.1291C65.4077 74.0225 65.5906 73.9692 65.7944 73.9692C65.9426 73.9692 66.0754 74.0009 66.1912 74.0634C66.3074 74.1267 66.4019 74.2075 66.4748 74.3088V73.0863H66.8913V76.4938H66.5031Z" fill="#1D1D1B"/>
</g>
<mask id="mask35_3311_39745" style="mask-type:luminance" maskUnits="userSpaceOnUse" x="0" y="0" width="113" height="159">
<path d="M0 4.57764e-05H112.116V158.562H0V4.57764e-05Z" fill="white"/>
</mask>
<g mask="url(#mask35_3311_39745)">
<path d="M69.1315 75.2548C68.9796 75.317 68.7518 75.3692 68.4477 75.4131C68.2763 75.4374 68.1546 75.4656 68.0829 75.4969C68.0122 75.527 67.9567 75.5733 67.9181 75.6327C67.8795 75.6918 67.8599 75.7585 67.8599 75.8314C67.8599 75.9427 67.9026 76.0355 67.9868 76.1097C68.0714 76.1845 68.1949 76.222 68.3577 76.222C68.5187 76.222 68.6618 76.1862 68.7873 76.1159C68.9131 76.0453 69.0046 75.9491 69.0639 75.8268C69.1091 75.7319 69.1315 75.5929 69.1315 75.4082V75.2548ZM69.1666 76.1888C69.0116 76.3205 68.8626 76.4139 68.7193 76.4687C68.5754 76.5222 68.4219 76.5493 68.2575 76.5493C67.9864 76.5493 67.7781 76.4828 67.6318 76.3506C67.487 76.2178 67.4141 76.0491 67.4141 75.8423C67.4141 75.7217 67.4408 75.6114 67.4964 75.5116C67.5512 75.4115 67.6226 75.3317 67.7124 75.271C67.8017 75.2108 67.9026 75.1654 68.0134 75.1337C68.0957 75.1121 68.2196 75.0908 68.3851 75.0712C68.7236 75.0313 68.9718 74.9831 69.1315 74.9271C69.1331 74.8697 69.1334 74.833 69.1334 74.8175C69.1334 74.6471 69.0941 74.5273 69.015 74.4578C68.908 74.3632 68.7494 74.3154 68.5392 74.3154C68.3422 74.3154 68.1964 74.3502 68.1034 74.4192C68.0096 74.4887 67.9397 74.61 67.8949 74.7851L67.4862 74.7299C67.5237 74.5544 67.5839 74.4132 67.6693 74.305C67.755 74.1973 67.8779 74.1148 68.039 74.0564C68.2002 73.999 68.3867 73.9692 68.5993 73.9692C68.81 73.9692 68.9814 73.9943 69.1127 74.0434C69.2446 74.0928 69.3415 74.1553 69.4033 74.2308C69.4655 74.3062 69.5086 74.4011 69.5337 74.515C69.5472 74.5872 69.5542 74.7156 69.5542 74.9013V75.4594C69.5542 75.8485 69.5634 76.0943 69.5807 76.1966C69.5986 76.3003 69.6344 76.3988 69.6866 76.4938H69.2496C69.2069 76.4066 69.1786 76.305 69.1666 76.1888Z" fill="#1D1D1B"/>
</g>
<mask id="mask36_3311_39745" style="mask-type:luminance" maskUnits="userSpaceOnUse" x="0" y="0" width="113" height="159">
<path d="M0 4.57764e-05H112.116V158.562H0V4.57764e-05Z" fill="white"/>
</mask>
<g mask="url(#mask36_3311_39745)">
<path d="M71.805 75.2622C71.805 75.5779 71.8713 75.8144 72.0048 75.9711C72.1383 76.1271 72.2954 76.205 72.4766 76.205C72.6595 76.205 72.8151 76.131 72.9431 75.9805C73.0708 75.8319 73.1349 75.6035 73.1349 75.2968C73.1349 74.9592 73.0697 74.7111 72.9394 74.5529C72.8092 74.3945 72.6488 74.3154 72.4587 74.3154C72.2721 74.3154 72.1169 74.3915 71.9918 74.5435C71.8675 74.6957 71.805 74.9349 71.805 75.2622ZM73.1273 76.4938V76.1826C72.9714 76.4269 72.7409 76.5493 72.4372 76.5493C72.2406 76.5493 72.0596 76.4945 71.8948 76.3868C71.7296 76.2785 71.6012 76.1271 71.511 75.9325C71.421 75.7378 71.375 75.5142 71.375 75.2622C71.375 75.0153 71.4159 74.7917 71.4982 74.5911C71.5807 74.3907 71.7038 74.2374 71.8675 74.1291C72.0319 74.0225 72.2156 73.9692 72.4186 73.9692C72.5676 73.9692 72.6996 74.0009 72.8162 74.0634C72.9328 74.1267 73.0269 74.2075 73.0991 74.3088V73.0863H73.5155V76.4938H73.1273Z" fill="#1D1D1B"/>
</g>
<mask id="mask37_3311_39745" style="mask-type:luminance" maskUnits="userSpaceOnUse" x="0" y="0" width="113" height="159">
<path d="M0 4.57764e-05H112.116V158.562H0V4.57764e-05Z" fill="white"/>
</mask>
<g mask="url(#mask37_3311_39745)">
<path d="M74.5039 75.0224H75.8825C75.8639 74.8149 75.8108 74.6589 75.7243 74.5546C75.5912 74.3941 75.4183 74.3135 75.2064 74.3135C75.0145 74.3135 74.8527 74.3779 74.7216 74.5064C74.5903 74.6358 74.5178 74.8072 74.5039 75.0224ZM75.8778 75.6993L76.3097 75.7519C76.2421 76.0054 76.1151 76.2007 75.9315 76.3404C75.7473 76.4794 75.5111 76.5493 75.2245 76.5493C74.8636 76.5493 74.5775 76.4384 74.366 76.2161C74.1545 75.9931 74.0488 75.6816 74.0488 75.2803C74.0488 74.865 74.1558 74.5427 74.3696 74.3135C74.583 74.0841 74.861 73.9692 75.2013 73.9692C75.5313 73.9692 75.8013 74.0822 76.0102 74.3069C76.2195 74.5314 76.324 74.8469 76.324 75.2548C76.324 75.2795 76.3232 75.317 76.3214 75.366H74.4807C74.4961 75.6372 74.5734 75.8449 74.7114 75.9892C74.8493 76.1336 75.0207 76.205 75.2271 76.205C75.3804 76.205 75.5111 76.1649 75.62 76.0845C75.7285 76.0039 75.8141 75.8758 75.8778 75.6993Z" fill="#1D1D1B"/>
</g>
<mask id="mask38_3311_39745" style="mask-type:luminance" maskUnits="userSpaceOnUse" x="0" y="0" width="113" height="159">
<path d="M0 4.57764e-05H112.116V158.562H0V4.57764e-05Z" fill="white"/>
</mask>
<g mask="url(#mask38_3311_39745)">
<path d="M78.8208 75.0945H79.9763L79.6205 74.1509C79.5124 73.8641 79.4311 73.6283 79.3797 73.4439C79.3358 73.6624 79.2736 73.8792 79.1953 74.095L78.8208 75.0945ZM77.8379 76.4939L79.1461 73.0864H79.6324L81.0269 76.4939H80.5133L80.1157 75.4612H78.6915L78.3168 76.4939H77.8379Z" fill="#1D1D1B"/>
</g>
<mask id="mask39_3311_39745" style="mask-type:luminance" maskUnits="userSpaceOnUse" x="0" y="0" width="113" height="159">
<path d="M0 4.57764e-05H112.116V158.562H0V4.57764e-05Z" fill="white"/>
</mask>
<g mask="url(#mask39_3311_39745)">
<path d="M81.416 73.0864H81.8341V76.4939H81.416V73.0864Z" fill="#1D1D1B"/>
</g>
<mask id="mask40_3311_39745" style="mask-type:luminance" maskUnits="userSpaceOnUse" x="0" y="0" width="113" height="159">
<path d="M0 4.57764e-05H112.116V158.562H0V4.57764e-05Z" fill="white"/>
</mask>
<g mask="url(#mask40_3311_39745)">
<path d="M82.823 75.0224H84.2009C84.183 74.8149 84.1299 74.6589 84.0432 74.5546C83.9097 74.3941 83.7368 74.3135 83.5249 74.3135C83.3328 74.3135 83.171 74.3779 83.0399 74.5064C82.9094 74.6358 82.8373 74.8072 82.823 75.0224ZM84.1965 75.6993L84.6288 75.7519C84.5608 76.0054 84.4342 76.2007 84.2498 76.3404C84.0656 76.4794 83.8298 76.5493 83.5436 76.5493C83.182 76.5493 82.8966 76.4384 82.6844 76.2161C82.4732 75.9931 82.3672 75.6816 82.3672 75.2803C82.3672 74.865 82.4742 74.5427 82.6883 74.3135C82.9017 74.0841 83.1787 73.9692 83.5204 73.9692C83.8504 73.9692 84.1197 74.0822 84.3286 74.3069C84.5378 74.5314 84.6431 74.8469 84.6431 75.2548C84.6431 75.2795 84.6416 75.317 84.6405 75.366H82.7998C82.8153 75.6372 82.8917 75.8449 83.0298 75.9892C83.1673 76.1336 83.3398 76.205 83.5454 76.205C83.6988 76.205 83.8298 76.1649 83.9387 76.0845C84.0461 76.0039 84.1325 75.8758 84.1965 75.6993Z" fill="#1D1D1B"/>
</g>
<mask id="mask41_3311_39745" style="mask-type:luminance" maskUnits="userSpaceOnUse" x="0" y="0" width="113" height="159">
<path d="M0 4.57764e-05H112.116V158.562H0V4.57764e-05Z" fill="white"/>
</mask>
<g mask="url(#mask41_3311_39745)">
<path d="M85.1738 76.4939V74.0253H85.5483V74.3713C85.6255 74.2504 85.7285 74.1536 85.8577 74.0797C85.986 74.0061 86.1321 73.9694 86.2958 73.9694C86.479 73.9694 86.6291 74.008 86.7457 74.0826C86.8631 74.1602 86.9454 74.2651 86.994 74.402C87.1893 74.1135 87.4432 73.9694 87.7566 73.9694C88.0012 73.9694 88.1895 74.0377 88.3208 74.1732C88.4525 74.3084 88.5188 74.5178 88.5188 74.7996V76.4939H88.1023V74.9386C88.1023 74.7713 88.0892 74.6514 88.0619 74.577C88.0349 74.5039 87.9858 74.4449 87.9144 74.3994C87.8426 74.3549 87.7592 74.3319 87.6631 74.3319C87.4895 74.3319 87.3452 74.3894 87.2305 74.5056C87.1158 74.6208 87.0591 74.8054 87.0591 75.0593V76.4939H86.6401V74.8896C86.6401 74.7039 86.6065 74.5649 86.5382 74.4715C86.4698 74.3788 86.3583 74.3319 86.2031 74.3319C86.0858 74.3319 85.9769 74.3632 85.8767 74.4252C85.7771 74.4877 85.7042 74.5777 85.659 74.6969C85.6145 74.8162 85.5921 74.9883 85.5921 75.2134V76.4939H85.1738Z" fill="#1D1D1B"/>
</g>
<mask id="mask42_3311_39745" style="mask-type:luminance" maskUnits="userSpaceOnUse" x="0" y="0" width="113" height="159">
<path d="M0 4.57764e-05H112.116V158.562H0V4.57764e-05Z" fill="white"/>
</mask>
<g mask="url(#mask42_3311_39745)">
<path d="M90.7351 75.2548C90.5831 75.317 90.3546 75.3692 90.0512 75.4131C89.8791 75.4374 89.7581 75.4656 89.6864 75.4969C89.6157 75.527 89.5602 75.5733 89.5216 75.6327C89.483 75.6918 89.4634 75.7585 89.4634 75.8314C89.4634 75.9427 89.5054 76.0355 89.5899 76.1097C89.6749 76.1845 89.7984 76.222 89.9612 76.222C90.1222 76.222 90.2653 76.1862 90.3908 76.1159C90.5166 76.0453 90.6081 75.9491 90.6674 75.8268C90.7126 75.7319 90.7351 75.5929 90.7351 75.4082V75.2548ZM90.7701 76.1888C90.6143 76.3205 90.4657 76.4139 90.3228 76.4687C90.1789 76.5222 90.0254 76.5493 89.8602 76.5493C89.5899 76.5493 89.3816 76.4828 89.2353 76.3506C89.0905 76.2178 89.0176 76.0491 89.0176 75.8423C89.0176 75.7217 89.0443 75.6114 89.0999 75.5116C89.1547 75.4115 89.2261 75.3317 89.3159 75.271C89.405 75.2108 89.5054 75.1654 89.6169 75.1337C89.6992 75.1121 89.8231 75.0908 89.9887 75.0712C90.3264 75.0313 90.5753 74.9831 90.7351 74.9271C90.7366 74.8697 90.7369 74.833 90.7369 74.8175C90.7369 74.6471 90.6976 74.5273 90.6185 74.4578C90.5115 74.3632 90.3529 74.3154 90.1427 74.3154C89.9457 74.3154 89.7999 74.3502 89.7065 74.4192C89.6131 74.4887 89.5432 74.61 89.4984 74.7851L89.0897 74.7299C89.1272 74.5544 89.1875 74.4132 89.2728 74.305C89.3585 74.1973 89.4815 74.1148 89.6425 74.0564C89.8037 73.999 89.9902 73.9692 90.2028 73.9692C90.4136 73.9692 90.5842 73.9943 90.7162 74.0434C90.8481 74.0928 90.9447 74.1553 91.0065 74.2308C91.0684 74.3062 91.1121 74.4011 91.1372 74.515C91.1507 74.5872 91.1577 74.7156 91.1577 74.9013V75.4594C91.1577 75.8485 91.1669 76.0943 91.1843 76.1966C91.2021 76.3003 91.2379 76.3988 91.2901 76.4938H90.8532C90.8104 76.4066 90.7821 76.305 90.7701 76.1888Z" fill="#1D1D1B"/>
</g>
<mask id="mask43_3311_39745" style="mask-type:luminance" maskUnits="userSpaceOnUse" x="0" y="0" width="113" height="159">
<path d="M0 4.57764e-05H112.116V158.562H0V4.57764e-05Z" fill="white"/>
</mask>
<g mask="url(#mask43_3311_39745)">
<path d="M91.8164 76.4939V74.0253H92.1927V74.3762C92.3737 74.1054 92.6357 73.9694 92.9785 73.9694C93.1274 73.9694 93.264 73.9965 93.3883 74.0492C93.5134 74.1033 93.6068 74.1732 93.6686 74.26C93.7307 74.3472 93.7744 74.4495 93.7987 74.5692C93.8141 74.6465 93.8219 74.7826 93.8219 74.9761V76.4939H93.4034V74.9923C93.4034 74.8212 93.3875 74.6943 93.3548 74.6094C93.3228 74.5248 93.2646 74.4577 93.1815 74.4075C93.0992 74.3574 93.0009 74.3319 92.8901 74.3319C92.7118 74.3319 92.5577 74.389 92.4285 74.5016C92.2991 74.6152 92.2347 74.8297 92.2347 75.1458V76.4939H91.8164Z" fill="#1D1D1B"/>
</g>
<mask id="mask44_3311_39745" style="mask-type:luminance" maskUnits="userSpaceOnUse" x="0" y="0" width="113" height="159">
<path d="M0 4.57764e-05H112.116V158.562H0V4.57764e-05Z" fill="white"/>
</mask>
<g mask="url(#mask44_3311_39745)">
<path d="M94.4707 74.0251H94.8888V76.4937H94.4707V74.0251ZM94.4707 73.0864H94.8888V73.5672H94.4707V73.0864Z" fill="#1D1D1B"/>
</g>
<mask id="mask45_3311_39745" style="mask-type:luminance" maskUnits="userSpaceOnUse" x="0" y="0" width="113" height="159">
<path d="M0 4.57764e-05H112.116V158.562H0V4.57764e-05Z" fill="white"/>
</mask>
<g mask="url(#mask45_3311_39745)">
<path d="M97.1195 75.2548C96.9678 75.317 96.7398 75.3692 96.436 75.4131C96.2642 75.4374 96.1421 75.4656 96.0715 75.4969C96.0005 75.527 95.945 75.5733 95.9063 75.6327C95.8677 75.6918 95.8485 75.7585 95.8485 75.8314C95.8485 75.9427 95.8901 76.0355 95.9747 76.1097C96.0589 76.1845 96.1828 76.222 96.3452 76.222C96.507 76.222 96.6501 76.1862 96.7759 76.1159C96.901 76.0453 96.9929 75.9491 97.0522 75.8268C97.0974 75.7319 97.1195 75.5929 97.1195 75.4082V75.2548ZM97.1541 76.1888C96.9995 76.3205 96.8497 76.4139 96.7068 76.4687C96.5637 76.5222 96.4102 76.5493 96.2454 76.5493C95.9747 76.5493 95.7658 76.4828 95.6201 76.3506C95.4745 76.2178 95.4023 76.0491 95.4023 75.8423C95.4023 75.7217 95.4295 75.6114 95.4843 75.5116C95.5391 75.4115 95.6112 75.3317 95.7003 75.271C95.789 75.2108 95.8898 75.1654 96.0018 75.1337C96.0836 75.1121 96.2071 75.0908 96.3734 75.0712C96.7107 75.0313 96.9594 74.9831 97.1195 74.9271C97.1206 74.8697 97.1221 74.833 97.1221 74.8175C97.1221 74.6471 97.082 74.5273 97.0032 74.4578C96.8961 74.3632 96.7377 74.3154 96.5269 74.3154C96.3297 74.3154 96.1847 74.3502 96.0905 74.4192C95.9964 74.4887 95.9284 74.61 95.8832 74.7851L95.4741 74.7299C95.5105 74.5544 95.5726 74.4132 95.6575 74.305C95.7425 74.1973 95.8659 74.1148 96.0276 74.0564C96.1881 73.999 96.3749 73.9692 96.5868 73.9692C96.7976 73.9692 96.969 73.9943 97.1006 74.0434C97.2328 74.0928 97.3295 74.1553 97.3912 74.2308C97.453 74.3062 97.4969 74.4011 97.5216 74.515C97.5359 74.5872 97.5428 74.7156 97.5428 74.9013V75.4594C97.5428 75.8485 97.5513 76.0943 97.5694 76.1966C97.5873 76.3003 97.6219 76.3988 97.6749 76.4938H97.2379C97.1948 76.4066 97.1669 76.305 97.1541 76.1888Z" fill="#1D1D1B"/>
</g>
<mask id="mask46_3311_39745" style="mask-type:luminance" maskUnits="userSpaceOnUse" x="0" y="0" width="113" height="159">
<path d="M0 4.57764e-05H112.116V158.562H0V4.57764e-05Z" fill="white"/>
</mask>
<g mask="url(#mask46_3311_39745)">
<path d="M49.2286 81.5035H50.0765C50.2221 81.5035 50.3248 81.4985 50.3833 81.487C50.4871 81.4689 50.5743 81.4376 50.6438 81.3947C50.7141 81.3508 50.7707 81.2877 50.8159 81.2045C50.8612 81.1222 50.8828 81.0269 50.8828 80.9176C50.8828 80.7907 50.8508 80.6807 50.7858 80.5865C50.7206 80.4931 50.6301 80.4272 50.515 80.3893C50.3995 80.3511 50.2332 80.3319 50.0163 80.3319H49.2286V81.5035ZM49.2286 79.9296H49.965C50.1649 79.9296 50.3078 79.9166 50.395 79.8906C50.5099 79.8563 50.5963 79.7996 50.654 79.7209C50.7129 79.6414 50.7419 79.5429 50.7419 79.4229C50.7419 79.3103 50.7141 79.2111 50.66 79.1239C50.6058 79.0382 50.5285 78.9798 50.4278 78.9474C50.3274 78.9165 50.1541 78.8999 49.9098 78.8999H49.2286V79.9296ZM48.7773 81.9053V78.4974H50.056C50.3163 78.4974 50.5246 78.5325 50.682 78.6012C50.8399 78.6703 50.9627 78.7766 51.0518 78.9204C51.1406 79.064 51.186 79.2137 51.186 79.3696C51.186 79.5152 51.1459 79.6525 51.0668 79.7812C50.9873 79.9096 50.8689 80.0134 50.7088 80.0936C50.9152 80.1528 51.0738 80.2565 51.1845 80.4014C51.2957 80.5471 51.3508 80.72 51.3508 80.9176C51.3508 81.0768 51.3166 81.2257 51.2489 81.363C51.1819 81.4998 51.0981 81.6062 50.9994 81.68C50.9005 81.7544 50.7758 81.8103 50.6265 81.8482C50.4767 81.8872 50.2939 81.9053 50.0765 81.9053H48.7773Z" fill="#1D1D1B"/>
</g>
<mask id="mask47_3311_39745" style="mask-type:luminance" maskUnits="userSpaceOnUse" x="0" y="0" width="113" height="159">
<path d="M0 4.57764e-05H112.116V158.562H0V4.57764e-05Z" fill="white"/>
</mask>
<g mask="url(#mask47_3311_39745)">
<path d="M53.5591 81.9052V81.5429C53.3664 81.8222 53.1052 81.9612 52.7752 81.9612C52.6294 81.9612 52.4938 81.9335 52.368 81.8774C52.2411 81.8222 52.1477 81.7519 52.0863 81.6672C52.0251 81.583 51.9821 81.4792 51.9574 81.3568C51.9401 81.2747 51.9316 81.1445 51.9316 80.9669V79.4372H52.3499V80.8061C52.3499 81.0246 52.3584 81.1717 52.3757 81.2479C52.4016 81.3579 52.4577 81.4444 52.5434 81.5069C52.6285 81.5694 52.7336 81.6011 52.859 81.6011C52.9848 81.6011 53.1022 81.5687 53.2122 81.505C53.3218 81.4402 53.3998 81.3527 53.4457 81.2421C53.4922 81.131 53.5146 80.9705 53.5146 80.7598V79.4372H53.9328V81.9052H53.5591Z" fill="#1D1D1B"/>
</g>
<mask id="mask48_3311_39745" style="mask-type:luminance" maskUnits="userSpaceOnUse" x="0" y="0" width="113" height="159">
<path d="M0 4.57764e-05H112.116V158.562H0V4.57764e-05Z" fill="white"/>
</mask>
<g mask="url(#mask48_3311_39745)">
<path d="M54.9218 80.4343H56.2997C56.2818 80.2267 56.2287 80.0716 56.1421 79.9672C56.0086 79.806 55.8357 79.7254 55.6238 79.7254C55.4317 79.7254 55.2699 79.7898 55.1388 79.9182C55.0083 80.0469 54.9358 80.219 54.9218 80.4343ZM56.2958 81.1104L56.7276 81.1649C56.6597 81.4169 56.5331 81.6126 56.3487 81.7523C56.1645 81.8917 55.9287 81.9612 55.6424 81.9612C55.2816 81.9612 54.9955 81.8506 54.784 81.628C54.5725 81.4058 54.4668 81.0939 54.4668 80.6929C54.4668 80.2772 54.573 79.955 54.7872 79.7254C55.0006 79.4966 55.2776 79.3811 55.6193 79.3811C55.9492 79.3811 56.2186 79.4933 56.4274 79.7184C56.6374 79.9433 56.742 80.2591 56.742 80.6671C56.742 80.6914 56.7405 80.7289 56.7393 80.7786H54.8987C54.9141 81.0494 54.9906 81.2568 55.1286 81.4014C55.2661 81.5455 55.4386 81.6169 55.6451 81.6169C55.7984 81.6169 55.9287 81.5772 56.0376 81.4967C56.1457 81.4161 56.2314 81.2869 56.2958 81.1104Z" fill="#1D1D1B"/>
</g>
<mask id="mask49_3311_39745" style="mask-type:luminance" maskUnits="userSpaceOnUse" x="0" y="0" width="113" height="159">
<path d="M0 4.57764e-05H112.116V158.562H0V4.57764e-05Z" fill="white"/>
</mask>
<g mask="url(#mask49_3311_39745)">
<path d="M57.2695 81.9053V79.4373H57.6458V79.7879C57.8276 79.5171 58.0892 79.3811 58.4316 79.3811C58.5802 79.3811 58.7171 79.4082 58.8422 79.4615C58.9665 79.5154 59.0599 79.5857 59.1217 79.6721C59.1835 79.7589 59.2273 79.8614 59.2518 79.9814C59.2673 80.0586 59.275 80.194 59.275 80.3871V81.9053H58.8569V80.404C58.8569 80.2337 58.8407 80.1064 58.8079 80.0219C58.7755 79.9377 58.7177 79.8699 58.6346 79.8196C58.5519 79.7691 58.4548 79.7441 58.3433 79.7441C58.1653 79.7441 58.0112 79.8008 57.8816 79.9138C57.7522 80.0269 57.6878 80.2411 57.6878 80.5575V81.9053H57.2695Z" fill="#1D1D1B"/>
</g>
<mask id="mask50_3311_39745" style="mask-type:luminance" maskUnits="userSpaceOnUse" x="0" y="0" width="113" height="159">
<path d="M0 4.57764e-05H112.116V158.562H0V4.57764e-05Z" fill="white"/>
</mask>
<g mask="url(#mask50_3311_39745)">
<path d="M60.2144 80.6714C60.2144 80.9875 60.2839 81.2244 60.4219 81.3817C60.5598 81.5387 60.7331 81.6169 60.9427 81.6169C61.1503 81.6169 61.3228 81.5385 61.4606 81.3803C61.5987 81.2218 61.6678 80.9809 61.6678 80.6575C61.6678 80.3526 61.5979 80.1211 61.4595 79.9633C61.3201 79.8066 61.148 79.7271 60.9427 79.7271C60.7331 79.7271 60.5598 79.8058 60.4219 79.9625C60.2839 80.1192 60.2144 80.355 60.2144 80.6714ZM59.7852 80.6714C59.7852 80.2138 59.9113 79.8753 60.1658 79.6557C60.3781 79.4734 60.637 79.3809 60.9427 79.3809C61.2815 79.3809 61.559 79.4928 61.774 79.715C61.9893 79.9376 62.0974 80.2443 62.0974 80.6368C62.0974 80.9539 62.05 81.2044 61.9543 81.3862C61.859 81.5679 61.7204 81.7099 61.5382 81.8103C61.3561 81.9107 61.158 81.9612 60.9427 81.9612C60.5969 81.9612 60.3174 81.8512 60.1048 81.6286C59.8906 81.4075 59.7852 81.0878 59.7852 80.6714Z" fill="#1D1D1B"/>
</g>
<mask id="mask51_3311_39745" style="mask-type:luminance" maskUnits="userSpaceOnUse" x="0" y="0" width="113" height="159">
<path d="M0 4.57764e-05H112.116V158.562H0V4.57764e-05Z" fill="white"/>
</mask>
<g mask="url(#mask51_3311_39745)">
<path d="M62.4531 81.1692L62.8669 81.104C62.8901 81.2688 62.9545 81.3965 63.0609 81.4849C63.1667 81.5732 63.3154 81.6169 63.5056 81.6169C63.6975 81.6169 63.8403 81.5783 63.9337 81.4999C64.0265 81.422 64.0729 81.3297 64.0729 81.2251C64.0729 81.1306 64.0324 81.0554 63.9495 81.0006C63.8922 80.9643 63.7499 80.9172 63.5218 80.8592C63.215 80.7825 63.0023 80.7153 62.8835 80.6594C62.765 80.6027 62.6761 80.524 62.6142 80.4239C62.5535 80.3243 62.5226 80.2132 62.5226 80.0936C62.5226 79.9825 62.548 79.8813 62.5981 79.7872C62.6484 79.693 62.7172 79.615 62.8036 79.5532C62.8688 79.505 62.9571 79.4649 63.0699 79.4314C63.1826 79.398 63.3025 79.3811 63.4316 79.3811C63.6248 79.3811 63.7951 79.409 63.9418 79.4657C64.0875 79.5212 64.196 79.5966 64.2655 79.6911C64.335 79.7872 64.3836 79.9149 64.4098 80.0742L64.0007 80.1296C63.9819 80.0024 63.9286 79.9034 63.8395 79.8324C63.7499 79.7606 63.6244 79.7254 63.4617 79.7254C63.269 79.7254 63.1325 79.7578 63.0498 79.8207C62.968 79.8847 62.927 79.9593 62.927 80.0439C62.927 80.0981 62.9441 80.1469 62.9777 80.19C63.0119 80.2352 63.0652 80.2727 63.1389 80.3015C63.1799 80.3177 63.3041 80.3533 63.5082 80.4085C63.8039 80.488 64.0103 80.5524 64.1277 80.6031C64.2442 80.6528 64.3365 80.7262 64.4028 80.823C64.4693 80.9191 64.5028 81.0376 64.5028 81.1807C64.5028 81.3201 64.4627 81.4506 64.381 81.5745C64.2991 81.6979 64.1817 81.7932 64.0282 81.8608C63.8749 81.9277 63.7016 81.9612 63.5082 81.9612C63.1873 81.9612 62.9432 81.8943 62.7746 81.7615C62.6064 81.628 62.4995 81.4308 62.4531 81.1692Z" fill="#1D1D1B"/>
</g>
<mask id="mask52_3311_39745" style="mask-type:luminance" maskUnits="userSpaceOnUse" x="0" y="0" width="113" height="159">
<path d="M0 4.57764e-05H112.116V158.562H0V4.57764e-05Z" fill="white"/>
</mask>
<g mask="url(#mask52_3311_39745)">
<path d="M66.9849 80.5067H68.14L67.7838 79.5631C67.6757 79.2755 67.5951 79.0404 67.543 78.8557C67.4991 79.0743 67.4381 79.2917 67.3586 79.5068L66.9849 80.5067ZM66.002 81.9053L67.3105 78.4974H67.7965L69.1902 81.9053H68.6773L68.2798 80.8734H66.8548L66.4809 81.9053H66.002Z" fill="#1D1D1B"/>
</g>
<mask id="mask53_3311_39745" style="mask-type:luminance" maskUnits="userSpaceOnUse" x="0" y="0" width="113" height="159">
<path d="M0 4.57764e-05H112.116V158.562H0V4.57764e-05Z" fill="white"/>
</mask>
<g mask="url(#mask53_3311_39745)">
<path d="M69.5859 79.4375H70.0037V81.9055H69.5859V79.4375ZM69.5859 78.4977H70.0037V78.98H69.5859V78.4977Z" fill="#1D1D1B"/>
</g>
<mask id="mask54_3311_39745" style="mask-type:luminance" maskUnits="userSpaceOnUse" x="0" y="0" width="113" height="159">
<path d="M0 4.57764e-05H112.116V158.562H0V4.57764e-05Z" fill="white"/>
</mask>
<g mask="url(#mask54_3311_39745)">
<path d="M70.6504 81.9053V79.4373H71.0267V79.8111C71.1231 79.6363 71.2115 79.5213 71.2923 79.4657C71.3744 79.409 71.4636 79.3811 71.5612 79.3811C71.7025 79.3811 71.8456 79.4263 71.9912 79.516L71.8467 79.9045C71.7448 79.8439 71.6426 79.8137 71.5399 79.8137C71.449 79.8137 71.3674 79.842 71.2938 79.8961C71.2216 79.9509 71.1687 80.0277 71.1386 80.1249C71.0915 80.2739 71.0683 80.4368 71.0683 80.6131V81.9053H70.6504Z" fill="#1D1D1B"/>
</g>
<mask id="mask55_3311_39745" style="mask-type:luminance" maskUnits="userSpaceOnUse" x="0" y="0" width="113" height="159">
<path d="M0 4.57764e-05H112.116V158.562H0V4.57764e-05Z" fill="white"/>
</mask>
<g mask="url(#mask55_3311_39745)">
<path d="M72.5714 80.4343H73.9493C73.9307 80.2267 73.8779 80.0716 73.7909 79.9672C73.6581 79.806 73.4856 79.7254 73.2726 79.7254C73.0805 79.7254 72.9195 79.7898 72.788 79.9182C72.6571 80.0469 72.5842 80.219 72.5714 80.4343ZM73.9442 81.1104L74.3768 81.1649C74.3092 81.4169 74.1823 81.6126 73.9983 81.7523C73.8141 81.8917 73.5783 81.9612 73.2912 81.9612C72.9296 81.9612 72.6443 81.8506 72.4324 81.628C72.2209 81.4058 72.1152 81.0939 72.1152 80.6929C72.1152 80.2772 72.222 79.955 72.436 79.7254C72.6501 79.4966 72.9272 79.3811 73.2673 79.3811C73.598 79.3811 73.8681 79.4933 74.077 79.7184C74.2861 79.9433 74.3908 80.2591 74.3908 80.6671C74.3908 80.6914 74.3896 80.7289 74.3881 80.7786H72.5475C72.5629 81.0494 72.6398 81.2568 72.7778 81.4014C72.9157 81.5455 73.0875 81.6169 73.2931 81.6169C73.4464 81.6169 73.5783 81.5772 73.6864 81.4967C73.7949 81.4161 73.8809 81.2869 73.9442 81.1104Z" fill="#1D1D1B"/>
</g>
<mask id="mask56_3311_39745" style="mask-type:luminance" maskUnits="userSpaceOnUse" x="0" y="0" width="113" height="159">
<path d="M0 4.57764e-05H112.116V158.562H0V4.57764e-05Z" fill="white"/>
</mask>
<g mask="url(#mask56_3311_39745)">
<path d="M74.7695 81.1692L75.1833 81.104C75.2057 81.2688 75.2709 81.3965 75.3773 81.4849C75.4832 81.5732 75.6318 81.6169 75.822 81.6169C76.0139 81.6169 76.157 81.5783 76.2501 81.4999C76.3429 81.422 76.3893 81.3297 76.3893 81.2251C76.3893 81.1306 76.348 81.0554 76.2659 81.0006C76.2086 80.9643 76.0663 80.9172 75.8389 80.8592C75.5321 80.7825 75.3191 80.7153 75.2006 80.6594C75.0822 80.6027 74.9918 80.524 74.9313 80.4239C74.8695 80.3243 74.839 80.2132 74.839 80.0936C74.839 79.9825 74.8645 79.8813 74.9146 79.7872C74.9648 79.693 75.0332 79.615 75.12 79.5532C75.1852 79.505 75.2743 79.4649 75.3863 79.4314C75.4986 79.398 75.6189 79.3811 75.748 79.3811C75.942 79.3811 76.1122 79.409 76.2578 79.4657C76.4047 79.5212 76.5128 79.5966 76.5827 79.6911C76.6522 79.7872 76.7 79.9149 76.7262 80.0742L76.3171 80.1296C76.299 80.0024 76.245 79.9034 76.1559 79.8324C76.067 79.7606 75.9408 79.7254 75.7781 79.7254C75.5862 79.7254 75.4489 79.7578 75.3669 79.8207C75.2845 79.8847 75.2434 79.9593 75.2434 80.0439C75.2434 80.0981 75.26 80.1469 75.2948 80.19C75.3291 80.2352 75.3824 80.2727 75.4545 80.3015C75.4971 80.3177 75.6205 80.3533 75.8246 80.4085C76.1203 80.488 76.3267 80.5524 76.4441 80.6031C76.5607 80.6528 76.6529 80.7262 76.7192 80.823C76.7861 80.9191 76.8196 81.0376 76.8196 81.1807C76.8196 81.3201 76.7784 81.4506 76.697 81.5745C76.6162 81.6979 76.4989 81.7932 76.3454 81.8608C76.1921 81.9277 76.018 81.9612 75.8246 81.9612C75.5037 81.9612 75.2596 81.8943 75.091 81.7615C74.9236 81.628 74.8159 81.4308 74.7695 81.1692Z" fill="#1D1D1B"/>
</g>
<mask id="mask57_3311_39745" style="mask-type:luminance" maskUnits="userSpaceOnUse" x="0" y="0" width="113" height="159">
<path d="M0 4.57764e-05H112.116V158.562H0V4.57764e-05Z" fill="white"/>
</mask>
<g mask="url(#mask57_3311_39745)">
<path d="M41.4787 88.2554H38.4648V104.655H41.4787V88.2554Z" fill="#F3D500"/>
</g>
<mask id="mask58_3311_39745" style="mask-type:luminance" maskUnits="userSpaceOnUse" x="0" y="0" width="113" height="159">
<path d="M0 4.57764e-05H112.116V158.562H0V4.57764e-05Z" fill="white"/>
</mask>
<g mask="url(#mask58_3311_39745)">
<path d="M41.4787 71.394H38.4648V88.2556H41.4787V71.394Z" fill="#E31318"/>
</g>
<mask id="mask59_3311_39745" style="mask-type:luminance" maskUnits="userSpaceOnUse" x="0" y="0" width="113" height="159">
<path d="M0 4.57764e-05H112.116V158.562H0V4.57764e-05Z" fill="white"/>
</mask>
<g mask="url(#mask59_3311_39745)">
<path d="M41.4787 54.9116H38.4648V71.394H41.4787V54.9116Z" fill="#161612"/>
</g>
<mask id="mask60_3311_39745" style="mask-type:luminance" maskUnits="userSpaceOnUse" x="0" y="0" width="113" height="159">
<path d="M0 4.57764e-05H112.116V158.562H0V4.57764e-05Z" fill="white"/>
</mask>
<g mask="url(#mask60_3311_39745)">
<path d="M23.5112 55.7229C23.5579 55.7579 23.6389 55.8078 23.7116 55.8078C23.8941 55.8078 23.942 55.4485 23.9548 55.2343C23.9404 54.9733 23.4854 54.5188 23.2882 54.3459C23.2025 54.3254 22.8803 54.2574 22.5648 54.2574C22.336 54.2574 22.042 54.2945 21.942 54.4686C21.8625 54.6072 21.9052 54.8349 22.0651 55.1306C22.2009 55.059 22.4735 54.9386 22.7439 54.9673C23.1187 55.0004 23.4688 55.404 23.5112 55.7229ZM23.7116 56.0039C23.5274 56.0039 23.3677 55.8615 23.3502 55.8446C23.331 55.8267 23.3199 55.802 23.3191 55.7762C23.3104 55.5643 23.0304 55.1899 22.727 55.1633C22.4066 55.139 22.0843 55.3458 22.0817 55.3477C22.0593 55.3628 22.032 55.3683 22.0056 55.3605C21.9794 55.3551 21.9566 55.3381 21.9435 55.3157C21.7003 54.9019 21.6436 54.5936 21.7713 54.3721C21.889 54.1657 22.1561 54.0606 22.5648 54.0606C22.9565 54.0606 23.3425 54.1567 23.3592 54.1606C23.3733 54.164 23.3877 54.171 23.3993 54.1811C23.4741 54.2456 24.1299 54.8213 24.1506 55.2351C24.1218 55.7487 23.974 56.0039 23.7116 56.0039Z" fill="#1D1D1B"/>
</g>
<mask id="mask61_3311_39745" style="mask-type:luminance" maskUnits="userSpaceOnUse" x="0" y="0" width="113" height="159">
<path d="M0 4.57764e-05H112.116V158.562H0V4.57764e-05Z" fill="white"/>
</mask>
<g mask="url(#mask61_3311_39745)">
<path d="M21.8367 67.5385L20.9521 68.9492L22.2582 68.8569C22.2582 68.8569 22.582 69.3332 22.0586 69.7952C22.0586 69.7952 21.9574 69.472 21.6546 69.472C21.3515 69.472 20.7213 69.5183 20.7213 69.5183V70.8712C20.7213 70.8712 20.8907 71.1475 21.0594 71.1475C21.2284 71.1475 20.3524 71.5014 20.1833 71.0405C20.0139 70.5793 20.1833 69.8715 20.1833 69.8715C20.1833 69.8715 19.3685 70.7307 19.5372 71.2778C19.5372 71.2778 18.7379 70.8098 19.0455 70.2717C19.3529 69.7334 19.9367 69.4076 19.9367 69.4076C19.9367 69.4076 18.6151 69.3641 18.6761 69.8414C18.6761 69.8414 18.2108 68.9345 18.6743 68.8415C19.1378 68.7495 20.1365 68.826 20.1365 68.826L21.2127 67.227L21.8742 66.8893L21.8367 67.5385Z" fill="white"/>
</g>
<mask id="mask62_3311_39745" style="mask-type:luminance" maskUnits="userSpaceOnUse" x="0" y="0" width="113" height="159">
<path d="M0 4.57764e-05H112.116V158.562H0V4.57764e-05Z" fill="white"/>
</mask>
<g mask="url(#mask62_3311_39745)">
<path d="M20.1835 69.7736C20.1993 69.7736 20.2155 69.7773 20.2298 69.7851C20.2695 69.8063 20.2891 69.8515 20.2788 69.8952C20.2773 69.9016 20.1187 70.5791 20.2761 71.0066C20.3174 71.121 20.4289 71.1792 20.6061 71.1792C20.6875 71.1792 20.7658 71.1669 20.8331 71.1515C20.7312 71.0677 20.6577 70.9547 20.637 70.9228C20.6278 70.9074 20.6227 70.8897 20.6227 70.8712V69.5184C20.6227 69.4668 20.6628 69.4234 20.7142 69.4204C20.74 69.4182 21.3517 69.3733 21.6548 69.3733C21.8823 69.3733 22.016 69.515 22.087 69.628C22.3424 69.3377 22.2556 69.0665 22.2038 68.9596L20.9592 69.0477C20.9199 69.053 20.8871 69.0309 20.8677 69.0001C20.8485 68.968 20.8489 68.9279 20.8692 68.897L21.7407 67.5073L21.7663 67.0547L21.2807 67.3031L20.2187 68.8808C20.1989 68.9098 20.1673 68.933 20.1298 68.9242C20.126 68.9242 19.7388 68.8944 19.341 68.8944C19.0568 68.8944 18.8389 68.9091 18.6937 68.9381C18.6421 68.9477 18.6104 68.9705 18.5907 69.0117C18.5321 69.1321 18.5914 69.3767 18.6701 69.5833C18.8982 69.3443 19.5073 69.3082 19.8531 69.3082C19.9079 69.3082 19.9403 69.3093 19.9403 69.3093C19.9848 69.3108 20.0221 69.3417 20.0326 69.3848C20.0433 69.4274 20.0241 69.4718 19.9855 69.4937C19.9797 69.4961 19.4209 69.8133 19.1306 70.3201C18.9581 70.623 19.2256 70.9144 19.4184 71.0718C19.4525 70.5057 20.0816 69.8361 20.1125 69.8045C20.1313 69.7839 20.1569 69.7736 20.1835 69.7736ZM19.5375 71.376C19.5205 71.376 19.5026 71.3718 19.4879 71.363C19.1822 71.1835 18.679 70.7157 18.96 70.2228C19.1399 69.9082 19.4058 69.6658 19.6069 69.5116C19.263 69.5319 18.9221 69.5945 18.8073 69.7246C18.7794 69.7566 18.769 69.789 18.7743 69.8291C18.7809 69.8755 18.7511 69.921 18.7061 69.9354C18.6583 69.9476 18.6104 69.928 18.5888 69.8862C18.5553 69.8207 18.2641 69.236 18.4134 68.926C18.4598 68.83 18.5436 68.7667 18.6558 68.7447C18.8133 68.7138 19.0438 68.698 19.341 68.698C19.6548 68.698 19.9627 68.716 20.087 68.7238L21.1321 67.172C21.141 67.1581 21.1538 67.1472 21.1683 67.1402L21.8292 66.8017C21.8616 66.7855 21.8991 66.787 21.9286 66.8061C21.9584 66.826 21.975 66.8597 21.9723 66.8944L21.9352 67.5436C21.9352 67.5602 21.9299 67.5771 21.9209 67.5899L21.1384 68.837L22.2522 68.759C22.2869 68.7505 22.3204 68.7733 22.3398 68.8017C22.3443 68.8072 22.7052 69.3556 22.1247 69.8689C22.0996 69.8909 22.0654 69.8986 22.033 69.8894C22.0006 69.8809 21.975 69.8559 21.9654 69.825C21.962 69.8148 21.8797 69.5705 21.6548 69.5705C21.4273 69.5705 21.0056 69.5971 20.8202 69.6099V70.843C20.8805 70.9338 20.9882 71.0496 21.0596 71.0496C21.1141 71.0496 21.1796 71.1012 21.1796 71.1552C21.1796 71.3212 20.7272 71.376 20.6061 71.376C20.3456 71.376 20.1626 71.2688 20.0904 71.0743C19.9917 70.8047 20.0002 70.4644 20.0279 70.2105C19.7979 70.5158 19.5412 70.9547 19.6316 71.2483C19.6431 71.2876 19.6301 71.3293 19.5987 71.3547C19.5806 71.3694 19.5593 71.376 19.5375 71.376Z" fill="#1D1D1B"/>
</g>
<mask id="mask63_3311_39745" style="mask-type:luminance" maskUnits="userSpaceOnUse" x="0" y="0" width="113" height="159">
<path d="M0 4.57764e-05H112.116V158.562H0V4.57764e-05Z" fill="white"/>
</mask>
<g mask="url(#mask63_3311_39745)">
<path d="M25.7238 67.5385L26.6084 68.9492L25.3023 68.8569C25.3023 68.8569 24.9785 69.3332 25.5011 69.7952C25.5011 69.7952 25.603 69.472 25.9059 69.472C26.2082 69.472 26.8391 69.5183 26.8391 69.5183V70.8712C26.8391 70.8712 26.6698 71.1475 26.5011 71.1475C26.3321 71.1475 27.2081 71.5014 27.3772 71.0405C27.5465 70.5793 27.3772 69.8715 27.3772 69.8715C27.3772 69.8715 28.192 70.7307 28.0232 71.2778C28.0232 71.2778 28.8225 70.8098 28.515 70.2717C28.2076 69.7334 27.623 69.4076 27.623 69.4076C27.623 69.4076 28.9453 69.3641 28.8843 69.8414C28.8843 69.8414 29.3497 68.9345 28.8862 68.8415C28.4227 68.7495 27.4239 68.826 27.4239 68.826L26.3477 67.227L25.6863 66.8893L25.7238 67.5385Z" fill="white"/>
</g>
<mask id="mask64_3311_39745" style="mask-type:luminance" maskUnits="userSpaceOnUse" x="0" y="0" width="113" height="159">
<path d="M0 4.57764e-05H112.116V158.562H0V4.57764e-05Z" fill="white"/>
</mask>
<g mask="url(#mask64_3311_39745)">
<path d="M26.729 71.1514C26.7963 71.1669 26.8746 71.1789 26.956 71.1789C27.1326 71.1789 27.2447 71.1209 27.2859 71.0064C27.4434 70.579 27.2848 69.9014 27.2826 69.8952C27.2731 69.8515 27.2925 69.8061 27.3319 69.7848C27.3698 69.7639 27.4187 69.7709 27.4496 69.8044C27.4805 69.836 28.1092 70.5054 28.1438 71.0716C28.3365 70.9141 28.6032 70.6227 28.4307 70.3201C28.1404 69.8121 27.5824 69.4961 27.5766 69.4935C27.5379 69.4718 27.5187 69.4273 27.5291 69.3846C27.5402 69.3416 27.5773 69.3108 27.621 69.3093C27.621 69.3093 27.6534 69.3081 27.709 69.3081C28.0544 69.3081 28.6638 69.3441 28.8919 69.5833C28.9707 69.3765 29.03 69.1318 28.9714 69.0117C28.9516 68.9704 28.92 68.9476 28.8684 68.938C28.7232 68.909 28.5055 68.8943 28.2211 68.8943C27.8235 68.8943 27.436 68.9241 27.4323 68.9241C27.3948 68.9265 27.3632 68.9098 27.3426 68.8806L26.2813 67.3029L25.7958 67.0546L25.8216 67.507L26.693 68.8968C26.7132 68.9277 26.7136 68.9678 26.6944 68.9998C26.675 69.0307 26.6414 69.0514 26.6028 69.0476L25.3588 68.9593C25.3087 69.0672 25.223 69.3398 25.475 69.6277C25.546 69.5149 25.68 69.3733 25.9073 69.3733C26.2096 69.3733 26.8221 69.4181 26.8479 69.4204C26.8993 69.4232 26.9394 69.4667 26.9394 69.5181V70.8712C26.9394 70.8894 26.9343 70.9071 26.9243 70.9226C26.9046 70.9546 26.8309 71.0676 26.729 71.1514ZM28.0246 71.3757C28.003 71.3757 27.9807 71.3691 27.9636 71.3544C27.9312 71.329 27.9182 71.2876 27.9304 71.2482C28.0212 70.9546 27.7641 70.515 27.5342 70.2105C27.5619 70.4644 27.5696 70.8045 27.4709 71.0742C27.3997 71.2688 27.2164 71.3757 26.956 71.3757C26.8349 71.3757 26.3825 71.3209 26.3825 71.1552C26.3825 71.129 26.4038 71.1004 26.4222 71.0819C26.4403 71.0631 26.4759 71.0495 26.5024 71.0495C26.5712 71.0495 26.6793 70.9356 26.7418 70.8427V69.6097C26.5565 69.5969 26.135 69.5703 25.9073 69.5703C25.6792 69.5703 25.5975 69.821 25.5967 69.8242C25.5873 69.8558 25.5615 69.8809 25.5291 69.8893C25.4982 69.899 25.4632 69.8909 25.4376 69.8686C24.8571 69.3556 25.218 68.8071 25.2215 68.8015C25.2419 68.7732 25.2737 68.7512 25.3099 68.7589L26.4237 68.8369L25.6413 67.5899C25.6321 67.5769 25.6268 67.5601 25.6265 67.5436L25.5897 66.8942C25.5873 66.8597 25.6037 66.8258 25.6336 66.806C25.663 66.7868 25.7005 66.7853 25.7321 66.8015L26.394 67.1399C26.4083 67.1469 26.4211 67.158 26.4299 67.172L27.475 68.7235C27.5993 68.7158 27.9073 68.6979 28.2211 68.6979C28.5183 68.6979 28.749 68.7137 28.9064 68.7446C29.0185 68.7666 29.1025 68.8299 29.1488 68.926C29.2982 69.236 29.0068 69.8206 28.9725 69.886C28.9516 69.928 28.9023 69.9481 28.856 69.9353C28.8111 69.921 28.7812 69.8754 28.788 69.8291C28.793 69.789 28.7827 69.7566 28.7548 69.7245C28.6399 69.5942 28.299 69.5317 27.9551 69.5115C28.1563 69.6656 28.4215 69.908 28.6021 70.2225C28.8833 70.7156 28.38 71.1834 28.0736 71.3629C28.0589 71.3718 28.0416 71.3757 28.0246 71.3757Z" fill="#1D1D1B"/>
</g>
<mask id="mask65_3311_39745" style="mask-type:luminance" maskUnits="userSpaceOnUse" x="0" y="0" width="113" height="159">
<path d="M0 4.57764e-05H112.116V158.562H0V4.57764e-05Z" fill="white"/>
</mask>
<g mask="url(#mask65_3311_39745)">
<path fill-rule="evenodd" clip-rule="evenodd" d="M29.2177 58.3343C28.7977 59.8218 27.0244 60.9202 25.885 60.7695V59.9355C26.9071 59.8063 27.8302 59.4805 28.4779 58.6288C29.1192 57.7854 29.0907 57.0274 28.3752 55.8719C29.0977 56.2463 29.4832 57.3956 29.2177 58.3343ZM24.1649 55.2119C23.9471 54.8882 23.9592 54.4196 24.0545 54.3733C24.1494 54.3277 24.2748 54.4273 24.2748 54.4273C24.1364 54.6578 24.2594 54.8426 24.3498 54.829C24.4408 54.8153 24.4975 54.5042 24.4975 54.5042C24.4975 54.5042 24.6515 54.5806 24.7056 54.7117C24.7589 54.8426 24.3818 55.5342 24.1649 55.2119ZM18.5495 58.8629C18.0573 57.8148 18.3001 56.4976 19.2471 55.7265C18.5433 56.6431 18.4174 57.753 19.1226 58.6998C19.7646 59.5615 20.6864 59.8911 21.7492 60.0088C21.7612 60.2921 21.7731 60.558 21.7837 60.8158C20.7828 61.0686 19.1079 60.0506 18.5495 58.8629ZM30.1645 59.5997C30.2185 59.5777 30.2733 59.5562 30.3276 59.5346C31.1493 60.6384 31.4346 62.0822 33.3744 61.834C31.7397 60.4207 30.1841 57.3922 30.1841 57.3922C30.0409 56.4281 29.6179 55.9819 29.2817 55.5882C29.1077 55.3833 29.716 55.4999 29.5896 55.2602C29.4119 55.2251 28.8457 55.278 28.5218 55.2016C28.178 55.1196 27.9012 54.9004 27.5593 54.8095C27.1625 54.7032 26.579 54.7562 26.4941 55.2394C26.411 55.7152 26.8414 55.7707 27.2327 55.8387C27.3861 55.866 27.5505 55.828 27.704 55.8549C27.8249 55.8755 28.0479 56.08 28.1259 56.1661C28.795 56.907 28.7832 57.9826 27.9791 58.5605C27.4616 58.9324 26.8156 59.3095 26.1615 59.2948C25.4686 59.2782 25.6914 59.0402 25.5343 58.9236C24.8256 58.3983 25.1614 56.8592 25.572 56.2437C25.9816 55.6287 25.3667 54.5215 25.3667 54.5215C25.5712 54.5015 25.7356 54.0098 25.7356 54.0098C25.3868 54.3173 23.829 53.9484 23.5207 54.0098C23.2139 54.0708 23.3363 54.2559 23.3363 54.2559C23.3363 54.2559 24.0353 54.8565 24.0545 55.2394C23.9927 56.3062 23.4192 55.7724 23.4192 55.7724C22.9885 55.9163 21.8812 55.6705 21.8812 55.6705C22.0861 56.1212 23.2548 56.2644 23.3571 56.2644C23.4605 56.2644 23.3363 56.613 23.3363 56.613L22.1067 56.2849C21.9635 56.6543 23.2548 57.1667 23.1521 57.208C23.0499 57.249 22.2506 58.4582 22.2506 58.4582C21.7871 59.2937 21.8458 59.4643 20.9422 59.1729C20.5933 59.0601 20.2468 58.8885 19.9515 58.6735L19.7234 58.5407C18.9188 57.9627 18.9075 56.8865 19.5767 56.1463C19.6539 56.0598 19.8782 55.8557 19.9993 55.835C20.1526 55.8078 20.3163 55.8453 20.4698 55.8182C20.8615 55.7504 21.2923 55.6945 21.2085 55.2197C21.1233 54.736 20.54 54.6833 20.1423 54.7889C19.8006 54.8797 19.5247 55.0997 19.1808 55.1814C18.857 55.2583 18.2913 55.2046 18.1133 55.2394C17.9863 55.4798 18.5949 55.3632 18.4208 55.5677C18.0843 55.9627 17.4997 56.4233 17.3556 57.3871L15.957 59.7549L14.2715 61.876C14.7096 61.8545 15.2226 61.9016 15.4838 61.6677C16.3564 61.0614 16.7598 60.1018 17.4173 59.3863C17.6498 59.6589 17.8682 59.3797 16.3333 61.8123C15.8259 62.6147 15.2117 63.3677 14.6491 64.1297C15.4213 64.2273 16.1159 64.0154 16.6186 63.3291C16.8617 62.9968 17.0808 62.6267 17.3051 62.2809C17.6402 61.7645 17.969 61.2639 18.3016 60.7456C18.409 60.814 18.5169 60.8823 18.625 60.9513C17.5347 62.6216 16.6787 64.4356 15.1744 65.888C16.1317 65.9926 16.7062 65.7852 17.2279 65.1381C17.4618 64.8478 17.6556 64.5256 17.8554 64.2099C18.3969 63.3566 18.9314 62.497 19.4799 61.6214C19.7716 61.9451 19.784 61.9529 18.1353 64.522C17.5177 65.4827 16.8309 66.3973 16.1894 67.314C17.2392 67.5213 17.9099 66.9156 18.444 66.0609C19.1525 64.9281 19.8528 63.7892 20.5724 62.6631C20.6683 62.5124 20.8512 62.4164 20.9943 62.2949C21.055 62.3531 21.1167 62.4115 21.1776 62.4689C19.7963 64.4503 18.7887 66.6989 17.0435 68.4615C18.0345 68.6262 18.6992 68.3252 19.2573 67.4776C20.0997 66.1967 20.8785 64.8795 21.6968 63.5835C21.8863 63.2829 22.0746 63.0663 22.3325 62.6812C22.621 63.646 22.5257 64.5768 22.0876 65.2739C21.6609 65.9521 20.9067 66.4657 20.4259 67.1091C20.6062 67.1403 20.9951 67.0972 21.1845 67.1296L21.3185 67.1341C21.4526 67.0006 21.5085 67.0569 21.6744 66.9542C21.6377 67.1539 21.9456 66.8718 21.8605 67.0469L21.8385 67.5383C21.9971 67.6696 22.2703 67.8841 22.3737 67.9698C22.5666 67.4552 22.5694 66.864 22.7423 66.4013C22.8152 66.4244 22.9568 66.3276 23.0293 66.3508C23.0425 68.1137 23.5207 70.5327 21.6409 71.4104C22.2332 71.9184 22.4389 71.8747 22.9619 71.172C23.2062 71.4213 23.4563 71.6748 23.7057 71.9287C23.9475 71.6709 24.1888 71.4128 24.4289 71.1558C24.9661 71.8978 25.4478 71.9975 25.8993 71.3938C24.4643 70.8813 24.2182 68.2576 24.625 66.3079C24.8233 66.864 25.0691 66.9865 25.1875 67.8805C25.3177 67.7656 25.4324 67.6645 25.5736 67.5409L25.7006 67.3407C25.6175 67.1991 25.7426 67.1256 25.7271 66.9446C25.8838 67.0354 26.0066 66.8548 26.1144 66.9865L26.3065 67.0509C26.6118 67.0123 26.8583 67.062 27.129 67.0277C25.9209 65.8135 24.8024 64.5256 25.2026 62.7017C25.5122 63.0405 25.9726 63.66 26.2112 64.0359C27.0101 65.2978 27.7889 66.5727 28.6176 67.8153C29.09 68.5224 29.6437 68.6525 30.5434 68.4719C28.7692 66.6938 27.9434 64.5889 26.6534 62.5245C26.8866 62.5569 27.0664 62.6514 27.161 62.8004C27.9251 63.9918 28.6623 65.2006 29.4273 66.3909C30.0343 67.3338 30.5713 67.4735 31.4738 67.2132C29.9648 65.773 29.2972 64.0378 28.1575 62.3512C28.0707 62.2235 28.0976 62.0186 28.0718 61.8491C28.1394 61.834 28.208 61.8193 28.2748 61.8046C28.4242 62.0301 28.5777 62.2538 28.7229 62.4817C29.2921 63.3778 29.836 64.2898 30.4327 65.1671C30.9239 65.8896 31.4998 66.0493 32.4724 65.9112C31.0088 64.6024 30.3728 63.03 29.3693 61.4937C29.2764 61.3515 29.2714 61.1524 29.225 60.9784C29.2956 60.9537 29.3667 60.929 29.4377 60.9034C29.5767 61.1085 29.7187 61.311 29.8552 61.5176C30.3091 62.206 30.7252 62.9228 31.2243 63.5769C31.7171 64.2257 32.4391 64.2659 33.054 64.1158C32.1767 62.797 31.1791 61.5611 30.2856 60.1849C30.1844 60.0297 30.2021 59.7969 30.1645 59.5997Z" fill="#12110C"/>
</g>
</g>
<defs>
<clipPath id="clip0_3311_39745">
<rect width="112.116" height="158.562" fill="white"/>
</clipPath>
</defs>
</svg>
