<?xml version="1.0" encoding="utf-8"?>
<!-- Generator: Adobe Illustrator 22.1.0, SVG Export Plug-In . SVG Version: 6.00 Build 0)  -->
<svg version="1.1" id="Layer_1" xmlns="http://www.w3.org/2000/svg" xmlns:xlink="http://www.w3.org/1999/xlink" x="0px" y="0px"
	 viewBox="0 0 373 71.3" style="enable-background:new 0 0 373 71.3;" xml:space="preserve">
<style type="text/css">
	.st0{fill:#FFFFFF;}
</style>
<g>
	<g>
		<path class="st0" d="M330.8,26.9c0,5.6-3.1,10.3-8.7,10.3c-7,0-9.6-7.6-9.6-13.7c0-5.6,3.1-10.3,8.7-10.3
			C328.2,13.3,330.8,20.9,330.8,26.9z M336.2,25.1c0-8.1-6-13.8-13.9-13.8c-8.2,0-15,5.6-15,14.2c0,8.1,6,13.8,13.9,13.8
			C329.2,39.3,336.2,33.6,336.2,25.1z"/>
		<path class="st0" d="M144.7,26.9c0,5.6-3.1,10.3-8.7,10.3c-7,0-9.6-7.6-9.6-13.7c0-5.6,3.1-10.3,8.7-10.3
			C142.1,13.3,144.7,20.9,144.7,26.9z M150,25.1c0-8.1-6-13.8-13.9-13.8c-8.2,0-15,5.6-15,14.2c0,8.1,6,13.8,13.9,13.8
			C143.1,39.3,150,33.6,150,25.1z"/>
		<g>
			<path class="st0" d="M164.5,26V8.1c0,0,0,0,0,0V6.4h-6.6c0.6,0.3,1.2,1,1.2,2.3v27.6c0,1.3-0.6,1.9-1.2,2.2h7.8
				c-0.6-0.4-1.3-1.3-1.3-2.3v-8.6c0,0,0,0,0,0L164.5,26C164.5,26,164.5,26,164.5,26z"/>
			<path class="st0" d="M182.5,16.1c0-6.3-6.2-9.7-12.5-9.7h-6.6v1.7c2.2-0.2,3.4-0.3,4.2-0.3c5,0,9.6,3.7,9.6,8.4
				c0,5.1-4.6,8-9.2,8c-1,0-1.9,0-4.5-0.3v1.7c2.5,0.2,3.5,0.2,4.5,0.2C174.4,26,182.5,23.4,182.5,16.1z"/>
		</g>
		<g>
			<path class="st0" d="M119.1,20.1c0-5.2-5.2-8-10.5-8h-5.5v1.4c1.9-0.2,2.8-0.2,3.4-0.2c4.2,0,7.6,2.8,7.6,6.7c0,4.2-3.5,7-7.3,7
				c-0.9,0-1.6,0-3.7-0.1v1.4c2.1,0,2.9,0,3.7,0C112.2,28.3,119.1,26.2,119.1,20.1z"/>
		</g>
		<path class="st0" d="M38.3,28.2v8.4c-4.9,1.3-7.4,2.7-12.6,2.7C15.2,39.4,9,33.2,9,23.5c0-10.6,7.1-17,18.4-17
			c2.8,0,6,0.5,8.6,1.6l0.9,4.2c-1.2-2-5.3-3.7-9.3-3.7c-8.8,0-12.5,7.1-12.5,14.2c0,6.6,2.9,14.4,12.1,14.4c2.2,0,4.4-0.5,6.1-1.8
			V28c0-1.2-0.7-2-1.5-2.5h8.1C39.3,25.7,38.3,26.6,38.3,28.2z"/>
		<path class="st0" d="M57.1,18.6c0,3.6-2.6,5.4-5.7,5.4c-0.8,0-1.5,0-2.3-0.1V13.8c0.9-0.2,1.6-0.2,2.3-0.2
			C54.9,13.6,57.1,15.3,57.1,18.6z M69.2,38.4c-4.7-1-9.4-13.6-14.5-13.3c2.9-0.3,7.9-1.8,7.9-6.4c0-4.4-5.2-6.6-10.6-6.6h-9.4
			c0.7,0.5,1.2,1.2,1.2,2.3v21.7c0,1.1-0.5,1.9-1.2,2.3h7.5c-0.4-0.2-1.2-1.2-1.2-2.3V25.6c1.8,0,3.2,0.4,4.6,1.7
			c2.3,2.3,6.3,10.2,9.1,11.1c0.6,0.2,1.6,0.3,2.3,0.3C66.1,38.7,68,38.6,69.2,38.4z"/>
		<path class="st0" d="M352.6,18.6c0,3.6-2.6,5.4-5.7,5.4c-0.8,0-1.5,0-2.3-0.1V13.8c0.9-0.2,1.6-0.2,2.3-0.2
			C350.5,13.6,352.6,15.3,352.6,18.6z M364.8,38.4c-4.7-1-9.4-13.6-14.5-13.3c2.9-0.3,7.9-1.8,7.9-6.4c0-4.4-5.2-6.6-10.6-6.6h-9.4
			c0.7,0.5,1.2,1.2,1.2,2.3v21.7c0,1.1-0.5,1.9-1.2,2.3h7.5c-0.4-0.2-1.2-1.2-1.2-2.3V25.6c1.8,0,3.2,0.4,4.6,1.7
			c2.3,2.3,6.3,10.2,9.1,11.1c0.6,0.2,1.6,0.3,2.3,0.3C361.7,38.7,363.5,38.6,364.8,38.4z"/>
		<path class="st0" d="M87.7,38.5v-3.4c-1.4,1.8-4.5,4.2-8.7,4.2c-6.1,0-10.7-3.6-10.7-9.5V14.6c0-1.4-0.4-2-1.1-2.5h7.5
			c-0.5,0.3-1.2,1.1-1.2,2.6v14.1c0,4.1,1.5,8.4,6.7,8.4c2.9,0,5.6-1.7,7-4.1c0.4-0.6,0.5-1.4,0.5-2.1V14.5c0-1.5-0.4-1.8-1.2-2.4
			H94c-0.7,0.4-1.2,1.1-1.2,2.4v21.2c0,1.2,0.2,2,1.2,2.7H87.7z"/>
		<path class="st0" d="M104,12.1h-6.3c0.5,0.4,1.2,1,1.2,2.3v21.7c0,1.3-0.6,2-1.1,2.3h7.5c-0.5-0.4-1.2-1.3-1.2-2.5v-9.9v-1.6V13.8
			V12.1z"/>
		<path class="st0" d="M223.9,10.3c-1.9,0-3.5-1.2-5.4-1.2c-1.3,0-2,0.4-3.1,1.4c1.1-2.3,2.9-4.4,5.1-4.4c1.9,0,3.5,1.2,5.4,1.2
			c1.3,0,2,0.5,3.1-0.5C228.3,8.6,226,10.3,223.9,10.3z M233.1,14.5v24h-1.7L212,17v18.9c0,1.1,0.6,2.2,1.2,2.6h-5.5
			c0.6-0.6,1.2-0.9,1.2-2.6V14.5c0-1.6-0.7-2-1.2-2.4h5.9L230,30.4V14.5c0-1.4-0.5-1.8-1.1-2.4h5.4C233.9,12.3,233.1,13,233.1,14.5z
			"/>
		<path class="st0" d="M253.9,27.7c-1.8,0.1-3.6,0.2-5.4,0.2c-1.7,0-3,0-4.8-0.2l5.2-11.9L253.9,27.7z M264.7,38.5
			c-0.8-0.4-1.4-1.4-1.8-2.3l-10.7-24.1h-5.6c0.3,0.1,0.6,0.4,0.6,0.7c0,0.4-0.2,0.7-0.3,1.1L236.9,37c-0.3,0.6-0.8,1.1-1.2,1.5h4.7
			c-0.2-0.1-0.6-0.4-0.6-0.6c0-0.3,0-0.5,0.4-1.4c0,0,2.4-5.7,2.9-6.8c2.1-0.2,3.7-0.2,5.8-0.2c2,0,4,0,6,0.2c0.3,0.7,3,6.7,3,6.7
			c0.3,0.7,0.5,1.2,0.5,1.5c0,0.2-0.3,0.6-0.6,0.7H264.7z"/>
		<path class="st0" d="M277,13.9h-4.7v9.7c3.3,0,6.7,0,10-0.4l0.4,2.5c-1-0.5-2.2-0.6-3.3-0.6h-7.1v11.1c0,1.2,0.4,1.5,0.8,2.1h-6.9
			c0.3-0.3,0.9-0.9,0.9-2.1V14.1c0-1.4-0.6-1.6-0.9-2h18l0.4,2.7C283,13.9,279,13.9,277,13.9z"/>
		<path class="st0" d="M307.4,38.5h-19.8c0.5-0.4,1.1-1.1,1.1-2.4V14.5c0-1.5-0.6-2-1.2-2.4h7.6c-0.6,0.4-1.3,1-1.3,2.4v21.9
			c1.4,0.1,2.8,0.1,4.2,0.1c6.2,0,8.9-1.1,9.9-2L307.4,38.5z"/>
		<path class="st0" d="M203.9,38.5h-19.5c0.5-0.4,1.2-1,1.2-2.2v-22c0-1.2-0.7-1.9-1.2-2.2h18.3l0.4,2.5c-1-0.5-2.2-0.6-3.4-0.6h-9
			v9.7c3.3,0,6.7,0,10-0.3l0.4,2.5c-1-0.5-2.2-0.6-3.4-0.6h-7.1v11.1c1.3,0.2,5.9,0.2,5.2,0.2c-0.6,0,6.3,0.1,8.4-1.1L203.9,38.5z"
			/>
	</g>
	<g>
		<path class="st0" d="M59.2,51.1c1.4,0,2.1,0.7,2.1,1.8c0,1.3-1,2-2,2h-1.5v-3.8H59.2z M63.8,58.3c0-1.6-1.2-2.7-2.4-3v0
			c1.1-0.5,1.6-1.5,1.6-2.7c0-1.4-1-3-3.3-3h-3.6V62h3.3C62.7,62,63.8,60,63.8,58.3z M62,58.4c0,1.2-0.9,2.1-2.5,2.1h-1.7v-4.1h1.8
			C61.1,56.4,62,57.3,62,58.4z"/>
		<path class="st0" d="M74.5,57.5c0,2-1,3.3-2.7,3.3c-1.7,0-2.8-1.3-2.8-3.3c0-2,1-3.3,2.7-3.3C73.4,54.1,74.5,55.4,74.5,57.5z
			 M76.2,57.5c0-1.4-0.5-2.6-1.3-3.5c-0.8-0.8-1.9-1.3-3.2-1.3c-1.3,0-2.3,0.4-3.1,1.2c-0.9,0.8-1.4,2.1-1.4,3.5
			c0,1.5,0.5,2.7,1.4,3.6c0.8,0.7,1.8,1.1,3,1.1c1.2,0,2.3-0.4,3.1-1.2C75.7,60.2,76.2,58.9,76.2,57.5z"/>
		<path class="st0" d="M83.1,54.3c2.3,0,3.2,1.3,3.2,3.1c0,1.7-0.8,3.1-3.2,3.1H82v-6.2H83.1z M88,57.4c0-2.7-1.6-4.5-5.1-4.5h-2.6
			V62h2.6C86.2,62,88,60.1,88,57.4z"/>
		<path class="st0" d="M97.2,54.3h-3.4v2.4h3.4V58h-3.4v2.5h3.7V62h-5.3v-9.1h5.5L97.2,54.3z"/>
		<path class="st0" d="M105.6,62.2c-2.5,0-4.5-1.8-4.5-4.6c0-2.8,1.9-4.8,5-4.8c1,0,1.8,0.2,2.5,0.5l0,1.5c-0.8-0.4-1.6-0.7-2.3-0.7
			c-2.4,0-3.5,1.7-3.5,3.4c0,2,1.4,3.3,3.1,3.3c0.5,0,1-0.1,1.4-0.2v-3.2h1.6v4C108.1,61.8,107,62.2,105.6,62.2z"/>
		<path class="st0" d="M117.7,58.5h-2.4l0.7-1.9c0.2-0.6,0.4-1,0.5-1.4h0c0.1,0.4,0.3,0.8,0.5,1.4L117.7,58.5z M120.8,62l-3.8-9.1
			h-1l-3.8,9.1h1.7l0.8-2.1h3.4l0.9,2.1H120.8z"/>
		<path class="st0" d="M126.5,62.2c-1.3,0-2.1-0.3-2.8-0.7l0.6-1.2c0.4,0.3,1.2,0.6,2,0.6c0.9,0,1.7-0.4,1.7-1.3
			c0-1.5-2.2-1.5-3.3-2.6c-0.4-0.4-0.7-1-0.7-1.8c0-1.4,1.1-2.4,2.9-2.4c1,0,1.8,0.3,2.3,0.5l0,1.5c-0.7-0.4-1.4-0.6-2.1-0.6
			c-0.8,0-1.5,0.4-1.5,1c0,1.9,4.1,1.1,4.1,4.4C129.6,61.2,128.1,62.2,126.5,62.2z"/>
		<path class="st0" d="M146.3,57.3h-3.6l1.4-3.7c0.2-0.6,0.4-1.1,0.5-1.5h0c0.1,0.4,0.2,0.9,0.5,1.5L146.3,57.3z M149.9,62
			l-4.8-12.3H144L139.3,62h1.6l1.2-3.2h4.8l1.3,3.2H149.9z"/>
		<path class="st0" d="M156.1,54.3c1.1,0,1.6,0.7,1.6,1.4c0,0.8-0.5,1.4-1.5,1.4h-1.1v-2.8H156.1z M160.5,62
			c-1.3-2.1-2.5-3.9-2.9-4.1v0c1-0.4,1.7-1.3,1.7-2.3c0-1.4-0.9-2.6-3.2-2.6h-2.7V62h1.6v-3.5h1c0.4,0.2,1.2,1.5,2.5,3.5H160.5z"/>
		<path class="st0" d="M168,62.2c-2.5,0-4.5-1.8-4.5-4.6c0-2.8,1.9-4.8,5-4.8c1,0,1.8,0.2,2.5,0.5l0,1.5c-0.8-0.4-1.6-0.7-2.3-0.7
			c-2.4,0-3.5,1.7-3.5,3.4c0,2,1.4,3.3,3.1,3.3c0.5,0,1-0.1,1.4-0.2v-3.2h1.6v4C170.5,61.8,169.4,62.2,168,62.2z"/>
		<path class="st0" d="M180.9,54.3h-3.4v2.4h3.4V58h-3.4v2.5h3.7V62h-5.3v-9.1h5.5L180.9,54.3z"/>
		<path class="st0" d="M192.1,62l-3.7-4.9c-0.7-0.9-1.1-1.4-1.3-1.9h0c0,0.4,0,0.9,0,1.5V62h-1.6v-9.1h1.7l3.4,4.6
			c0.8,1.1,1.2,1.6,1.4,2h0c0-0.5,0-0.9,0-1.6v-5h1.6V62H192.1z"/>
		<path class="st0" d="M204.3,54.3h-2.7V62H200v-7.7h-2.8v-1.4h7.5L204.3,54.3z"/>
		<path class="st0" d="M208.1,62v-9.1h1.6V62H208.1z"/>
		<path class="st0" d="M221.2,62l-3.7-4.9c-0.7-0.9-1.1-1.4-1.3-1.9h0c0,0.4,0,0.9,0,1.5V62h-1.6v-9.1h1.7l3.4,4.6
			c0.8,1.1,1.2,1.6,1.4,2h0c0-0.5,0-0.9,0-1.6v-5h1.6V62H221.2z"/>
		<path class="st0" d="M231.8,58.5h-2.4l0.7-1.9c0.2-0.6,0.4-1,0.5-1.4h0c0.1,0.4,0.3,0.8,0.5,1.4L231.8,58.5z M234.9,62l-3.8-9.1
			h-1l-3.8,9.1h1.7l0.8-2.1h3.4l0.9,2.1H234.9z"/>
		<path class="st0" d="M240.5,62.2c-1.3,0-2.1-0.3-2.8-0.7l0.6-1.2c0.4,0.3,1.2,0.6,2,0.6c1,0,1.7-0.4,1.7-1.3
			c0-1.5-2.2-1.5-3.3-2.6c-0.4-0.4-0.7-1-0.7-1.8c0-1.4,1.1-2.4,2.9-2.4c1,0,1.8,0.3,2.3,0.5l0,1.5c-0.7-0.4-1.4-0.6-2.1-0.6
			c-0.8,0-1.5,0.4-1.5,1c0,1.9,4.1,1.1,4.1,4.4C243.7,61.2,242.2,62.2,240.5,62.2z"/>
		<path class="st0" d="M254.5,62V49.7h1.7v10.8h4.6V62H254.5z"/>
		<path class="st0" d="M265.5,52h-1.4l1.6-2.7h2.1L265.5,52z M264.4,62v-9.1h1.6V62H264.4z"/>
		<path class="st0" d="M273.5,54.3c2.3,0,3.3,1.3,3.3,3.1c0,1.7-0.8,3.1-3.2,3.1h-1.2v-6.2H273.5z M278.5,57.4
			c0-2.7-1.6-4.5-5.1-4.5h-2.6V62h2.6C276.7,62,278.5,60.1,278.5,57.4z"/>
		<path class="st0" d="M287.6,54.3h-3.4v2.4h3.4V58h-3.4v2.5h3.7V62h-5.3v-9.1h5.5L287.6,54.3z"/>
		<path class="st0" d="M294.8,54.3c1.1,0,1.6,0.7,1.6,1.4c0,0.8-0.5,1.4-1.5,1.4h-1.1v-2.8H294.8z M299.2,62
			c-1.3-2.1-2.5-3.9-2.9-4.1v0c1-0.4,1.7-1.3,1.7-2.3c0-1.4-0.9-2.6-3.2-2.6h-2.7V62h1.6v-3.5h1c0.4,0.2,1.2,1.5,2.5,3.5H299.2z"/>
		<path class="st0" d="M307.8,54.3h-3.4v2.4h3.4V58h-3.4v2.5h3.7V62h-5.3v-9.1h5.5L307.8,54.3z"/>
		<path class="st0" d="M314.5,62.2c-1.3,0-2.1-0.3-2.8-0.7l0.6-1.2c0.4,0.3,1.2,0.6,2,0.6c1,0,1.7-0.4,1.7-1.3
			c0-1.5-2.2-1.5-3.3-2.6c-0.4-0.4-0.7-1-0.7-1.8c0-1.4,1.1-2.4,2.9-2.4c1,0,1.8,0.3,2.3,0.5l0,1.5c-0.7-0.4-1.4-0.6-2.1-0.6
			c-0.8,0-1.5,0.4-1.5,1c0,1.9,4.1,1.1,4.1,4.4C317.6,61.2,316.1,62.2,314.5,62.2z"/>
	</g>
</g>
</svg>
