<svg width="86" height="58" viewBox="0 0 86 58" fill="none" xmlns="http://www.w3.org/2000/svg">
<g clip-path="url(#clip0_3311_39687)">
<path d="M23.6298 48.6279C24.191 48.6279 24.6056 48.2288 24.6056 47.6899C24.6056 47.1715 24.1984 46.7796 23.6225 46.7796H22.5338V48.6279H23.6298ZM23.4471 46.2896C23.9103 46.2896 24.2477 45.9607 24.2477 45.5198C24.2477 45.0857 23.9177 44.7567 23.4538 44.7567H22.5338V46.2896H23.4471ZM21.9863 44.2527H23.4822C24.2195 44.2527 24.7954 44.7778 24.7954 45.4987C24.7954 45.9677 24.5635 46.3249 24.1702 46.4788C24.8165 46.6118 25.1531 47.0805 25.1531 47.6899C25.1531 48.5154 24.5213 49.1316 23.6646 49.1316H21.9863V44.2527Z" fill="#343434"/>
<path d="M26.1367 45.6035H26.6568V47.7176C26.6568 48.3898 27.0358 48.7326 27.6189 48.7326C28.2088 48.7326 28.5876 48.3898 28.5876 47.7108V45.6035H29.1077V47.7176C29.1077 48.7045 28.4619 49.2156 27.5978 49.2156C26.7622 49.2156 26.1367 48.7255 26.1367 47.7665V45.6035Z" fill="#343434"/>
<path d="M32.819 47.0247C32.819 46.4576 32.3411 45.9813 31.7441 45.9813C31.0983 45.9813 30.5645 46.4506 30.5294 47.0247H32.819ZM29.9746 47.3815C29.9746 46.2406 30.7332 45.4986 31.7441 45.4986C32.7273 45.4986 33.3731 46.2827 33.3731 47.2554C33.3731 47.2554 33.3731 47.3747 33.3665 47.4795H30.4941C30.5223 48.2565 31.0139 48.7533 31.7586 48.7533C32.2708 48.7533 32.552 48.5715 32.8464 48.2636L33.1907 48.5994C32.7484 49.0894 32.2708 49.2227 31.7586 49.2227C30.705 49.2227 29.9746 48.5084 29.9746 47.4096V47.3815Z" fill="#343434"/>
<path d="M34.2617 45.6036H34.7815V46.1987C34.9642 45.8206 35.3641 45.5476 35.9189 45.5476C36.7334 45.5476 37.2321 46.0868 37.2321 46.8777V49.1316H36.7123V46.9896C36.7123 46.4015 36.3618 46.0308 35.7858 46.0308C35.1958 46.0308 34.7815 46.4294 34.7815 47.0248V49.1316H34.2617V45.6036Z" fill="#343434"/>
<path d="M39.9738 48.7536C40.7602 48.7536 41.3361 48.159 41.3361 47.3678C41.3361 46.5769 40.7602 45.9815 39.9738 45.9815C39.187 45.9815 38.6111 46.5769 38.6111 47.3678C38.6111 48.159 39.187 48.7536 39.9738 48.7536ZM39.9738 45.4988C41.0132 45.4988 41.8559 46.2897 41.8559 47.3678C41.8559 48.4456 41.0132 49.2368 39.9738 49.2368C38.9348 49.2368 38.0918 48.4456 38.0918 47.3678C38.0918 46.2897 38.9348 45.4988 39.9738 45.4988Z" fill="#343434"/>
<path d="M42.8525 48.1656C42.9927 48.5085 43.3156 48.7326 43.7651 48.7326C44.3273 48.7326 44.5237 48.4948 44.5237 48.2077C44.5237 47.8364 44.2148 47.6824 43.6744 47.4937C43.0985 47.2838 42.6772 47.0247 42.6772 46.4787C42.6772 45.8978 43.1267 45.4986 43.7795 45.4986C44.2356 45.4986 44.6151 45.7364 44.8255 46.1216L44.4257 46.3736C44.3062 46.1288 44.0603 45.9745 43.7935 45.9745C43.4074 45.9745 43.1965 46.1986 43.1965 46.4506C43.1965 46.7795 43.4983 46.8986 43.9266 47.0596C44.6787 47.3327 45.0438 47.5986 45.0438 48.2145C45.0438 48.8096 44.6081 49.2156 43.7724 49.2156C43.1406 49.2156 42.6139 48.9287 42.4102 48.3477L42.8525 48.1656Z" fill="#343434"/>
<path d="M50.6641 47.4237L49.7792 45.3516L48.894 47.4237H50.6641ZM49.7863 44.0774L52.0053 49.1316H51.4079L50.8815 47.9277H48.6766L48.1502 49.1316H47.5742L49.7863 44.0774Z" fill="#343434"/>
<path d="M52.8398 45.6036H53.359V49.1316H52.8398V45.6036ZM52.748 44.6658C52.748 44.4629 52.9167 44.3158 53.0994 44.3158C53.2821 44.3158 53.4508 44.4629 53.4508 44.6658C53.4508 44.8686 53.2821 45.0155 53.0994 45.0155C52.9167 45.0155 52.748 44.8686 52.748 44.6658Z" fill="#343434"/>
<path d="M54.4375 45.6036H54.9573V46.1987C55.1326 45.8206 55.5122 45.5476 56.046 45.5476C56.123 45.5476 56.2139 45.5547 56.2635 45.5618V46.1217C56.1791 46.1007 56.0599 46.0868 55.9121 46.0868C55.3645 46.0868 54.9573 46.4856 54.9573 47.0805V49.1316H54.4375V45.6036Z" fill="#343434"/>
<path d="M59.674 47.0247C59.674 46.4576 59.1963 45.9813 58.5993 45.9813C57.9535 45.9813 57.4197 46.4506 57.3846 47.0247H59.674ZM56.8301 47.3815C56.8301 46.2406 57.5884 45.4986 58.5993 45.4986C59.5825 45.4986 60.2283 46.2827 60.2283 47.2554C60.2283 47.2554 60.2283 47.3747 60.2217 47.4795H57.3491C57.3775 48.2565 57.8691 48.7533 58.6138 48.7533C59.1257 48.7533 59.4072 48.5715 59.7016 48.2636L60.0459 48.5994C59.6036 49.0894 59.1257 49.2227 58.6138 49.2227C57.5599 49.2227 56.8301 48.5084 56.8301 47.4096V47.3815Z" fill="#343434"/>
<path d="M61.2115 48.1656C61.3518 48.5085 61.675 48.7326 62.1244 48.7326C62.6864 48.7326 62.8827 48.4948 62.8827 48.2077C62.8827 47.8364 62.5738 47.6824 62.0332 47.4937C61.4575 47.2838 61.0363 47.0247 61.0363 46.4787C61.0363 45.8978 61.4857 45.4986 62.1389 45.4986C62.5946 45.4986 62.9742 45.7364 63.1846 46.1216L62.7847 46.3736C62.6653 46.1288 62.4196 45.9745 62.1526 45.9745C61.7664 45.9745 61.5555 46.1986 61.5555 46.4506C61.5555 46.7795 61.8574 46.8986 62.2857 47.0596C63.0377 47.3327 63.4025 47.5986 63.4025 48.2145C63.4025 48.8096 62.9671 49.2156 62.1315 49.2156C61.4997 49.2156 60.973 48.9287 60.7695 48.3477L61.2115 48.1656Z" fill="#343434"/>
<path d="M5.46499 52.5662C6.12529 52.5662 6.70783 52.7901 7.15729 53.2034L6.81327 53.581C6.46216 53.2591 5.99876 53.0702 5.46499 53.0702C4.31308 53.0702 3.46377 53.9452 3.46377 55.1C3.46377 56.2622 4.31308 57.1301 5.46499 57.1301C5.99165 57.1301 6.45478 56.9482 6.80619 56.64V55.3804H5.31078V54.8761H7.35365V56.8289C6.88311 57.3332 6.21623 57.634 5.46499 57.634C4.05343 57.634 2.91602 56.5633 2.91602 55.1C2.91602 53.6372 4.05343 52.5662 5.46499 52.5662Z" fill="#343434"/>
<path d="M8.5 54.0083H9.02007V54.6032C9.19505 54.2251 9.57463 53.9521 10.1085 53.9521C10.1857 53.9521 10.2766 53.9592 10.3259 53.9663V54.5265C10.2415 54.5055 10.1224 54.4913 9.97478 54.4913C9.42732 54.4913 9.02007 54.8904 9.02007 55.485V57.5364H8.5V54.0083Z" fill="#343434"/>
<path d="M13.7388 55.4295C13.7388 54.8625 13.2611 54.3863 12.6638 54.3863C12.0183 54.3863 11.4845 54.8554 11.4494 55.4295H13.7388ZM10.8945 55.7866C10.8945 54.6454 11.6532 53.9034 12.6638 53.9034C13.647 53.9034 14.2931 54.6875 14.2931 55.6604C14.2931 55.6604 14.2931 55.7795 14.2865 55.8843H11.4139C11.4423 56.6616 11.9339 57.1584 12.6786 57.1584C13.1905 57.1584 13.472 56.9763 13.7664 56.6684L14.1104 57.0042C13.6684 57.4945 13.1905 57.6274 12.6786 57.6274C11.6247 57.6274 10.8945 56.9133 10.8945 55.8144V55.7866Z" fill="#343434"/>
<path d="M17.8503 55.4295C17.8503 54.8625 17.3724 54.3863 16.7754 54.3863C16.1295 54.3863 15.5958 54.8554 15.561 55.4295H17.8503ZM15.0059 55.7866C15.0059 54.6454 15.7645 53.9034 16.7754 53.9034C17.7586 53.9034 18.4044 54.6875 18.4044 55.6604C18.4044 55.6604 18.4044 55.7795 18.3978 55.8843H15.5251C15.5536 56.6616 16.0452 57.1584 16.7899 57.1584C17.3018 57.1584 17.5833 56.9763 17.878 56.6684L18.2217 57.0042C17.7797 57.4945 17.3018 57.6274 16.7899 57.6274C15.736 57.6274 15.0059 56.9133 15.0059 55.8144V55.7866Z" fill="#343434"/>
<path d="M19.2949 54.0083H19.815V54.6032C19.9974 54.2251 20.3972 53.9521 20.9521 53.9521C21.7666 53.9521 22.2656 54.4913 22.2656 55.2822V57.5364H21.7458V55.3941C21.7458 54.8063 21.3944 54.4353 20.819 54.4353C20.2293 54.4353 19.815 54.8342 19.815 55.4293V57.5364H19.2949V54.0083Z" fill="#343434"/>
<path d="M22.791 54.0083H23.3317L24.4833 56.5981L25.6418 54.0083H26.1756L24.4833 57.7812L22.791 54.0083Z" fill="#343434"/>
<path d="M26.8942 54.0083H27.4134V57.5364H26.8942V54.0083ZM26.8027 53.0703C26.8027 52.8675 26.9714 52.7203 27.1538 52.7203C27.3365 52.7203 27.5052 52.8675 27.5052 53.0703C27.5052 53.2734 27.3365 53.42 27.1538 53.42C26.9714 53.42 26.8027 53.2734 26.8027 53.0703Z" fill="#343434"/>
<path d="M28.4863 52.6574H29.0061V56.6124C29.0061 56.9973 29.1181 57.1584 29.4484 57.1584C29.5327 57.1584 29.6234 57.1516 29.7007 57.1303V57.6132C29.6171 57.6342 29.5327 57.6416 29.4484 57.6416C29.0688 57.6416 28.4863 57.5575 28.4863 56.6473V52.6574Z" fill="#343434"/>
<path d="M30.4375 52.6574H30.9568V56.6124C30.9568 56.9973 31.0696 57.1584 31.3996 57.1584C31.484 57.1584 31.5749 57.1516 31.6521 57.1303V57.6132C31.5683 57.6342 31.484 57.6416 31.3996 57.6416C31.0201 57.6416 30.4375 57.5575 30.4375 56.6473V52.6574Z" fill="#343434"/>
<path d="M34.9927 55.4295C34.9927 54.8625 34.5148 54.3863 33.9177 54.3863C33.2719 54.3863 32.7381 54.8554 32.7031 55.4295H34.9927ZM32.1484 55.7866C32.1484 54.6454 32.9068 53.9034 33.9177 53.9034C34.901 53.9034 35.5467 54.6875 35.5467 55.6604C35.5467 55.6604 35.5467 55.7795 35.5401 55.8843H32.6678C32.696 56.6616 33.1876 57.1584 33.9322 57.1584C34.4444 57.1584 34.7256 56.9763 35.0201 56.6684L35.3643 57.0042C34.922 57.4945 34.4444 57.6274 33.9322 57.6274C32.8786 57.6274 32.1484 56.9133 32.1484 55.8144V55.7866Z" fill="#343434"/>
<path d="M40.0998 55.1211C40.6542 55.1211 41.0688 54.7012 41.0688 54.141C41.0688 53.5811 40.6542 53.1615 40.0998 53.1615H39.1024V55.1211H40.0998ZM38.5547 52.6572H40.1212C40.9423 52.6572 41.6163 53.2871 41.6163 54.141C41.6163 55.0024 40.9423 55.6253 40.1212 55.6253H39.1024V57.5364H38.5547V52.6572Z" fill="#343434"/>
<path d="M44.1184 57.1584C44.9047 57.1584 45.4804 56.5635 45.4804 55.7724C45.4804 54.9815 44.9047 54.3863 44.1184 54.3863C43.3315 54.3863 42.7556 54.9815 42.7556 55.7724C42.7556 56.5635 43.3315 57.1584 44.1184 57.1584ZM44.1184 53.9034C45.1578 53.9034 46.0004 54.6943 46.0004 55.7724C46.0004 56.8502 45.1578 57.6416 44.1184 57.6416C43.079 57.6416 42.2363 56.8502 42.2363 55.7724C42.2363 54.6943 43.079 53.9034 44.1184 53.9034Z" fill="#343434"/>
<path d="M46.8984 52.6574H47.4178V56.6124C47.4178 56.9973 47.5306 57.1584 47.8606 57.1584C47.9449 57.1584 48.0359 57.1516 48.1131 57.1303V57.6132C48.0293 57.6342 47.9449 57.6416 47.8606 57.6416C47.481 57.6416 46.8984 57.5575 46.8984 56.6473V52.6574Z" fill="#343434"/>
<path d="M50.4657 57.1584C51.2521 57.1584 51.828 56.5635 51.828 55.7724C51.828 54.9815 51.2521 54.3863 50.4657 54.3863C49.6789 54.3863 49.1032 54.9815 49.1032 55.7724C49.1032 56.5635 49.6789 57.1584 50.4657 57.1584ZM50.4657 53.9034C51.5051 53.9034 52.3481 54.6943 52.3481 55.7724C52.3481 56.8502 51.5051 57.6416 50.4657 57.6416C49.4267 57.6416 48.584 56.8502 48.584 55.7724C48.584 54.6943 49.4267 53.9034 50.4657 53.9034Z" fill="#343434"/>
<path d="M57.3718 53.6516C57.3718 53.2804 57.0765 53.0704 56.7747 53.0704C56.4236 53.0704 56.1566 53.2804 56.1566 53.6375C56.1566 53.9315 56.2831 54.1065 56.6134 54.4982C57.0483 54.2883 57.3718 54.0085 57.3718 53.6516ZM57.5966 56.5703L56.4165 55.1212C55.918 55.3732 55.5319 55.6743 55.5319 56.2135C55.5319 56.8155 56.0024 57.1374 56.5501 57.1374C56.95 57.1374 57.3647 56.9553 57.5966 56.5703ZM54.9844 56.2414C54.9844 55.4434 55.4615 55.0513 56.1144 54.7224C55.8759 54.4494 55.6091 54.1343 55.6091 53.6304C55.6091 53.0914 56.0375 52.5665 56.7747 52.5665C57.5399 52.5665 57.9195 53.0704 57.9195 53.6022C57.9195 54.1343 57.6032 54.5613 56.9292 54.8974L57.891 56.0874C58.0389 55.8144 58.1159 55.4573 58.1159 55.0792H58.6637C58.6497 55.5414 58.5303 56.0945 58.2706 56.5215L59.1062 57.5365H58.4111L57.9472 56.9763C57.5966 57.4524 57.0695 57.6416 56.5009 57.6416C55.6302 57.6416 54.9844 57.1303 54.9844 56.2414Z" fill="#343434"/>
<path d="M63.5626 55.1001C64.1249 55.1001 64.5387 54.6805 64.5387 54.1132C64.5387 53.5743 64.1386 53.1615 63.5974 53.1615H62.495V55.1001H63.5626ZM61.9473 52.6572H63.6188C64.4264 52.6572 65.0869 53.2734 65.0869 54.1132C65.0869 54.7643 64.7 55.2893 64.1525 55.4992L65.3326 57.5364H64.7074L63.6048 55.6043H63.5974H62.495V57.5364H61.9473V52.6572Z" fill="#343434"/>
<path d="M68.7951 55.4295C68.7951 54.8625 68.3173 54.3863 67.7201 54.3863C67.0746 54.3863 66.5408 54.8554 66.5061 55.4295H68.7951ZM65.9512 55.7866C65.9512 54.6454 66.7095 53.9034 67.7201 53.9034C68.704 53.9034 69.3498 54.6875 69.3498 55.6604C69.3498 55.6604 69.3498 55.7795 69.343 55.8843H66.4702C66.4986 56.6616 66.9902 57.1584 67.7349 57.1584C68.2471 57.1584 68.5285 56.9763 68.8227 56.6684L69.1669 57.0042C68.7249 57.4945 68.2471 57.6274 67.7349 57.6274C66.681 57.6274 65.9512 56.9133 65.9512 55.8144V55.7866Z" fill="#343434"/>
<path d="M70.3333 56.5704C70.4737 56.9133 70.7962 57.1374 71.2456 57.1374C71.8077 57.1374 72.0041 56.8996 72.0041 56.6124C72.0041 56.2414 71.695 56.0874 71.1545 55.8985C70.5789 55.6883 70.1579 55.4295 70.1579 54.8835C70.1579 54.3025 70.6073 53.9034 71.2605 53.9034C71.716 53.9034 72.0959 54.1412 72.3058 54.5266L71.9063 54.7784C71.7868 54.5335 71.5412 54.3795 71.274 54.3795C70.888 54.3795 70.6768 54.6034 70.6768 54.8554C70.6768 55.1843 70.9791 55.3034 71.4069 55.4642C72.1593 55.7374 72.5244 56.0036 72.5244 56.6195C72.5244 57.2144 72.0885 57.6206 71.2531 57.6206C70.6208 57.6206 70.0944 57.3334 69.8906 56.7525L70.3333 56.5704Z" fill="#343434"/>
<path d="M75.0246 57.1584C75.8108 57.1584 76.3864 56.5635 76.3864 55.7724C76.3864 54.9815 75.8108 54.3863 75.0246 54.3863C74.2378 54.3863 73.6615 54.9815 73.6615 55.7724C73.6615 56.5635 74.2378 57.1584 75.0246 57.1584ZM75.0246 53.9034C76.0638 53.9034 76.9066 54.6943 76.9066 55.7724C76.9066 56.8502 76.0638 57.6416 75.0246 57.6416C73.9854 57.6416 73.1426 56.8502 73.1426 55.7724C73.1426 54.6943 73.9854 53.9034 75.0246 53.9034Z" fill="#343434"/>
<path d="M77.8105 54.0083H78.3302V54.6032C78.5056 54.2251 78.8848 53.9521 79.4186 53.9521C79.4962 53.9521 79.5866 53.9592 79.6366 53.9663V54.5265C79.5522 54.5055 79.4328 54.4913 79.285 54.4913C78.7377 54.4913 78.3302 54.8904 78.3302 55.485V57.5364H77.8105V54.0083Z" fill="#343434"/>
<path d="M80.7672 54.4914H80.3535V54.0085H80.7672V52.6574H81.2874V54.0085H82.1094V54.4914H81.2874V56.5493C81.2874 57.0042 81.4413 57.1584 81.7787 57.1584C81.8772 57.1584 81.9751 57.1584 82.1094 57.1374V57.6064C81.9892 57.6342 81.9056 57.6416 81.7854 57.6416C81.3569 57.6416 80.7672 57.5294 80.7672 56.5493V54.4914Z" fill="#343434"/>
<path d="M38.3003 9.04213C38.3003 7.50289 39.8731 7.06304 41.35 7.00553C44.1223 6.8909 45.8293 8.86999 45.8293 8.86999H45.8678V7.78009C45.8678 7.78009 43.6618 6.77608 41.35 6.77608C40.0265 6.78583 37.5329 7.32134 37.5329 9.60629C37.5329 14.2909 45.4073 10.8013 45.4073 13.9564C45.4073 15.6678 43.0286 15.9067 42.338 15.9163C39.1825 15.9163 37.8687 13.88 37.8687 13.88H37.7633L37.8495 15.3046C37.8495 15.3046 40.5255 16.1457 42.1944 16.1457C45.6374 16.1457 46.4145 13.88 46.4145 13.2491C46.4145 8.46855 38.3003 11.8912 38.3003 9.04213ZM35.6048 5.38899L33.3204 4.59573C32.841 4.42945 32.3019 4.59627 32.0191 5.01614L32.0143 5.02354L35.0008 6.06037C35.1909 5.82649 35.392 5.60182 35.6048 5.38899ZM32.7392 11.5373L31.4705 11.0966L30.0619 10.6076C30.0384 10.894 30.7728 11.5373 30.7728 11.5373C30.7728 11.5373 30.0349 12.1813 30.0571 12.4682L31.4705 11.9776L32.7392 11.5373ZM37.8213 3.77778L35.1139 2.83788C34.5741 2.65027 33.9665 2.77014 33.5582 3.16949L33.5513 3.17609L36.8821 4.33245C37.1821 4.12857 37.4963 3.94413 37.8213 3.77778ZM34.1737 7.27351L32.0517 6.53648C31.6097 6.38332 31.1162 6.59083 30.9354 7.02099L30.9322 7.02859L33.7962 8.02312C33.9103 7.76643 34.0363 7.51627 34.1737 7.27351ZM33.3265 9.36003L31.2351 8.63402C30.8166 8.48873 30.3571 8.73762 30.2675 9.17034L30.2656 9.17847L33.1552 10.1814C33.1994 9.9032 33.2564 9.62889 33.3265 9.36003ZM41.8209 2.81581C42.4355 2.81581 43.0358 2.87918 43.6152 2.99925L47.9307 1.50097C47.9276 1.49889 47.9244 1.4968 47.9212 1.49498C47.3318 1.13942 46.6093 1.07874 45.9585 1.30476L41.7573 2.76328L37.6041 1.3213C36.9591 1.09737 36.2474 1.17359 35.6651 1.52909L39.9504 3.01687C40.5534 2.88624 41.1787 2.81581 41.8209 2.81581ZM49.8283 7.98504L52.6939 6.99026C52.6925 6.98763 52.6915 6.98528 52.6905 6.98239C52.5078 6.55249 52.0136 6.34571 51.571 6.49915L49.4467 7.23671C49.5853 7.47921 49.7126 7.72883 49.8283 7.98504ZM48.6137 6.02566L51.6036 4.98775C51.6023 4.98513 51.6005 4.98278 51.5986 4.98042C51.3137 4.56082 50.7733 4.39501 50.2931 4.56156L48.0037 5.35671C48.2183 5.569 48.4218 5.79232 48.6137 6.02566ZM46.7171 4.30333L50.0569 3.14373C50.0545 3.14165 50.0521 3.13929 50.05 3.13721C49.6393 2.73859 49.0305 2.61926 48.489 2.80713L45.7687 3.75155C46.0969 3.91655 46.4142 4.09965 46.7171 4.30333ZM44.8411 0.192451C44.7043 0.156464 44.5664 0.122831 44.4276 0.0915527C43.6787 -0.0766125 42.896 -0.0129795 42.1709 0.238729L41.7573 0.382206L41.4001 0.258169C40.6173 -0.0135174 39.7719 -0.0495052 38.9674 0.150139C38.8878 0.169847 38.8082 0.190367 38.7288 0.211689L41.7573 1.26318L44.8411 0.192451ZM50.4789 10.1402L53.3671 9.13751C53.3665 9.13462 53.3658 9.132 53.3653 9.1291C53.274 8.69658 52.8141 8.44857 52.3952 8.59387L50.3039 9.32014C50.375 9.58866 50.4333 9.86216 50.4789 10.1402ZM34.9682 17.0252L31.9861 18.0607C31.9877 18.0631 31.9892 18.0654 31.9908 18.068C32.2713 18.4882 32.8093 18.6556 33.2875 18.4895L35.567 17.6981C35.3562 17.4845 35.1566 17.2596 34.9682 17.0252ZM49.4717 15.8465L51.5934 16.5829C52.0352 16.7364 52.5286 16.5286 52.7091 16.0982L52.7123 16.0906L49.8487 15.0963C49.7347 15.3533 49.609 15.6034 49.4717 15.8465ZM45.8301 19.344L48.5349 20.2831C49.0747 20.4707 49.682 20.3504 50.0898 19.951L50.0964 19.9444L46.7674 18.7885C46.468 18.9927 46.1546 19.1777 45.8301 19.344ZM48.043 17.7312L50.3266 18.5242C50.8055 18.6905 51.3448 18.5237 51.6268 18.1038L51.6318 18.0964L48.6458 17.0596C48.4563 17.2937 48.2554 17.5181 48.043 17.7312ZM52.7118 11.5373C52.7118 11.5373 53.6004 10.8509 53.5761 10.5648L52.0444 11.0966L50.776 11.5373L52.0444 11.9776L53.5806 12.511C53.6035 12.2243 52.7118 11.5373 52.7118 11.5373ZM50.3176 13.7591L52.4084 14.4849C52.8267 14.6302 53.2864 14.3816 53.3758 13.9488L53.3776 13.9404L50.4878 12.9372C50.4438 13.2158 50.3871 13.4901 50.3176 13.7591ZM33.1462 12.896L30.2559 13.8995C30.2564 13.9023 30.2569 13.905 30.2574 13.9076C30.3452 14.3403 30.8047 14.5899 31.2227 14.4446L33.3141 13.7184C33.2456 13.4488 33.1892 13.1747 33.1462 12.896ZM36.8326 18.7591L33.5118 19.9121C33.5142 19.9142 33.5162 19.9163 33.5186 19.9187C33.9238 20.3185 34.5298 20.4394 35.068 20.2526L37.7602 19.3178C37.4388 19.1501 37.1291 18.9638 36.8326 18.7591ZM33.7756 15.0582L30.9133 16.0522C30.9146 16.0548 30.9153 16.0572 30.9164 16.0598C31.0951 16.4902 31.5878 16.6986 32.0293 16.5457L34.1486 15.8097C34.0126 15.5661 33.8882 15.3157 33.7756 15.0582ZM41.8209 20.3109C41.1463 20.3109 40.4905 20.2327 39.8597 20.0889L35.611 21.564L35.6206 21.5698C36.192 21.923 36.8929 22 37.5277 21.7795L41.7573 20.3109L46.0249 21.7927C46.6723 22.0175 47.3912 21.9551 47.9755 21.5982L47.985 21.5922L43.7058 20.1065C43.0982 20.2392 42.4682 20.3109 41.8209 20.3109ZM38.644 22.8923L38.6593 22.8965C39.5676 23.1485 40.5313 23.1177 41.4218 22.8085L41.7573 22.6921L42.0713 22.8011C42.9854 23.1185 43.9762 23.1679 44.9107 22.9157L44.9262 22.9112L41.7573 21.811L38.644 22.8923Z" fill="#343434"/>
<path d="M45.7219 35.119L47.5924 31.1182L49.4774 35.119H45.7219ZM47.6082 28.9282L42.8239 38.9234H43.9139L45.3094 35.9871H49.8862L51.2139 38.8054L51.2703 38.9234H52.4075L47.6082 28.9282ZM37.8979 34.8221L40.4956 38.9234H39.3073L36.8817 35.0367L36.8414 34.9968H35.1053L35.394 34.1307H36.7128C37.9988 34.1307 38.9691 33.2345 38.9691 32.0458C38.9691 30.8973 38.0326 30.0315 36.7908 30.0315H34.2534V38.9234H33.2096V29.1654H36.8374C38.6183 29.1654 40.013 30.4304 40.013 32.0458C40.013 33.2815 39.2198 34.3583 37.9925 34.7887L37.8979 34.8221ZM24.3726 38.0574H29.4144V38.9234H23.3287V29.1654H29.3049V30.0315H24.3726L24.3736 34.1329H28.7564V34.9994H24.3726V38.0574ZM17.9276 29.1654H18.9715V38.9234H17.9276V34.9994H11.7136V38.9234H10.6695V29.1654H11.7136L11.7207 34.1329H17.9253L17.9276 29.1654ZM6.98368 36.4845C6.98368 38.0871 5.676 39.1228 3.65238 39.1228C1.92952 39.1228 0.602842 38.3017 0 36.8668L0.888845 36.4921C1.3823 37.6146 2.39028 38.2565 3.66793 38.2565C5.0692 38.2565 5.93985 37.5829 5.93985 36.4985C5.93985 35.295 5.05286 34.8696 3.48499 34.2214C1.83331 33.5395 0.66426 32.9402 0.66426 31.4338C0.66426 30.0123 1.92082 28.9805 3.65238 28.9805C4.90788 28.9805 5.86552 29.4894 6.49999 30.4934L5.63778 30.9408C5.18545 30.1949 4.54728 29.8465 3.63656 29.8465C2.55529 29.8465 1.7081 30.5313 1.7081 31.4054C1.7081 32.4817 2.76643 32.9063 3.99215 33.3985C6.0192 34.2069 6.98368 34.8749 6.98368 36.4845ZM53.6266 29.1654H60.6018V30.0315H57.6361V38.9234H56.5923V30.0315H53.6266V29.1654ZM67.9581 38.2565C65.533 38.2565 63.7038 36.449 63.7038 34.0517C63.7038 31.6545 65.533 29.8465 67.9581 29.8465C70.3753 29.8465 72.1986 31.6545 72.1986 34.0517C72.1986 36.449 70.3753 38.2565 67.9581 38.2565ZM67.9581 28.9805C64.985 28.9805 62.7428 31.1605 62.7428 34.0517C62.7428 36.9425 64.985 39.1228 67.9581 39.1228C70.932 39.1228 73.1744 36.9425 73.1744 34.0517C73.1744 31.1605 70.932 28.9805 67.9581 28.9805ZM85.0253 29.1654V39.1494L77.3926 31.2964V38.9234H76.3487V28.9392L83.9814 36.7928V29.1654H85.0253Z" fill="#343434"/>
</g>
<defs>
<clipPath id="clip0_3311_39687">
<rect width="85.0253" height="57.7812" fill="white"/>
</clipPath>
</defs>
</svg>
