<svg width="113" height="65" viewBox="0 0 113 65" fill="none" xmlns="http://www.w3.org/2000/svg">
<g clip-path="url(#clip0_3311_39553)">
<mask id="mask0_3311_39553" style="mask-type:luminance" maskUnits="userSpaceOnUse" x="0" y="0" width="113" height="65">
<path d="M0 1.52588e-05H112.875V64.5H0V1.52588e-05Z" fill="white"/>
</mask>
<g mask="url(#mask0_3311_39553)">
<path d="M50.023 40.5776V38.025C50.023 37.4777 49.0223 37.2369 48.6629 37.6504C48.3217 38.0431 48.705 39.8861 48.5253 40.4404C48.4576 40.6494 48.1366 40.5675 47.959 40.5776V36.9788C48.375 36.7907 48.5431 37.2427 48.5777 37.2295C48.6334 37.2083 48.7309 37.0723 48.8672 37.0208C49.2466 36.8771 49.6288 36.8593 49.9992 37.0446C50.1562 37.1232 50.3455 37.4137 50.4663 37.3919C50.5346 37.3796 50.6888 37.1545 50.8264 37.0818C51.4027 36.7776 52.1349 36.8557 52.4874 37.4517C52.5201 37.507 52.6649 37.8353 52.6649 37.8575V40.452C52.6649 40.6232 52.0869 40.6232 52.0869 40.452V37.9412C52.0869 37.7194 51.6535 37.4581 51.4309 37.4347C50.0298 37.2871 50.8318 39.6923 50.5893 40.4404C50.5216 40.6494 50.2006 40.5675 50.023 40.5776Z" fill="black"/>
</g>
<mask id="mask1_3311_39553" style="mask-type:luminance" maskUnits="userSpaceOnUse" x="0" y="0" width="113" height="65">
<path d="M0 1.52588e-05H112.875V64.5H0V1.52588e-05Z" fill="white"/>
</mask>
<g mask="url(#mask1_3311_39553)">
<path d="M88.8078 37.4125C87.9956 37.5108 88.0057 38.74 88.0916 39.3565C88.2253 40.3175 89.5632 40.2992 89.7176 39.5973C89.7757 39.3333 89.7736 38.3099 89.7304 38.03C89.6661 37.6135 89.1853 37.3668 88.8078 37.4125ZM90.3132 40.8706C90.1785 41.6934 89.0793 42.1041 88.3443 41.9883C88.0629 41.1716 88.6053 41.4946 89.0973 41.3954C89.6212 41.2897 89.8157 40.8301 89.7348 40.327C89.5119 40.3439 89.44 40.5323 89.1943 40.5728C87.5975 40.8361 87.3155 39.3188 87.5258 38.0449C87.6825 37.0954 88.5491 36.7325 89.4049 37.0207C89.5442 37.0676 89.6356 37.2072 89.6945 37.2296C89.729 37.2427 89.8973 36.7909 90.3132 36.9788V40.8706Z" fill="black"/>
</g>
<mask id="mask2_3311_39553" style="mask-type:luminance" maskUnits="userSpaceOnUse" x="0" y="0" width="113" height="65">
<path d="M0 1.52588e-05H112.875V64.5H0V1.52588e-05Z" fill="white"/>
</mask>
<g mask="url(#mask2_3311_39553)">
<path d="M83.035 37.1336C82.1766 37.4695 82.7031 36.6688 82.1353 36.271C81.2227 35.6314 79.8027 36.4341 80.5116 37.2903C80.9861 37.8633 82.8133 37.9151 83.0279 38.9645C83.496 41.255 79.3581 41.2155 79.7442 38.9871C80.4332 38.9448 80.1562 38.9714 80.2594 39.4282C80.4825 40.4158 82.5395 40.378 82.5397 39.3641C82.54 38.3094 80.1319 38.2579 79.866 37.2324C79.2827 34.9824 83.268 35.0064 83.035 37.1336Z" fill="black"/>
</g>
<mask id="mask3_3311_39553" style="mask-type:luminance" maskUnits="userSpaceOnUse" x="0" y="0" width="113" height="65">
<path d="M0 1.52588e-05H112.875V64.5H0V1.52588e-05Z" fill="white"/>
</mask>
<g mask="url(#mask3_3311_39553)">
<path d="M54.9564 37.4119C54.0276 37.5663 54.0115 39.8184 54.8351 40.0958C56.3014 40.5897 56.4193 37.1686 54.9564 37.4119ZM54.2335 40.2429V41.9168C54.0113 41.9083 53.6884 42.006 53.6555 41.7077C53.7679 41.0611 53.4929 37.3439 53.6916 37.0572C53.8173 36.8759 54.4299 36.9 54.2343 37.3136C56.0067 35.9374 57.0412 38.3028 56.3721 39.8581C55.9991 40.7253 54.8747 40.9201 54.2335 40.2429Z" fill="black"/>
</g>
<mask id="mask4_3311_39553" style="mask-type:luminance" maskUnits="userSpaceOnUse" x="0" y="0" width="113" height="65">
<path d="M0 1.52588e-05H112.875V64.5H0V1.52588e-05Z" fill="white"/>
</mask>
<g mask="url(#mask4_3311_39553)">
<path d="M72.2963 37.4125C71.3333 37.5315 71.3073 39.6886 72.0458 40.0555C73.5295 40.7927 73.7109 37.2377 72.2963 37.4125ZM73.8018 35.6396V40.452C73.8018 40.5703 73.4786 40.6105 73.3563 40.5681C73.2209 40.5212 73.2492 40.3103 73.1834 40.3271C72.7423 40.4401 72.7755 40.7988 72.0005 40.6035C70.9202 40.3313 70.8772 39.0447 71.002 38.1159C71.1537 36.9863 72.3604 36.5595 73.2239 37.2298V35.7652C73.2239 35.6173 73.6851 35.6255 73.8018 35.6396Z" fill="black"/>
</g>
<mask id="mask5_3311_39553" style="mask-type:luminance" maskUnits="userSpaceOnUse" x="0" y="0" width="113" height="65">
<path d="M0 1.52588e-05H112.875V64.5H0V1.52588e-05Z" fill="white"/>
</mask>
<g mask="url(#mask5_3311_39553)">
<path d="M41.253 35.5783C41.9744 35.4727 42.7807 35.7045 43.1035 36.4204C43.1853 36.6019 43.3691 37.0579 43.1771 37.1935C42.6514 37.5651 42.6878 36.6624 42.4635 36.3996C41.9952 35.8508 40.7672 35.9483 40.5687 36.7254C40.4703 37.1105 40.4762 38.8435 40.5279 39.2824C40.6453 40.279 42.0777 40.4341 42.5491 39.6536C42.741 39.3357 42.5685 38.9016 43.0465 38.9842C43.3756 39.0412 43.2498 39.3846 43.1764 39.6207C42.7183 41.0949 40.1454 41.028 39.9517 39.2807C39.8925 38.7468 39.8908 37.1556 40.0085 36.6596C40.1498 36.0645 40.6753 35.6629 41.253 35.5783Z" fill="black"/>
</g>
<mask id="mask6_3311_39553" style="mask-type:luminance" maskUnits="userSpaceOnUse" x="0" y="0" width="113" height="65">
<path d="M0 1.52588e-05H112.875V64.5H0V1.52588e-05Z" fill="white"/>
</mask>
<g mask="url(#mask6_3311_39553)">
<path d="M59.4352 38.9033C58.9697 38.9181 57.9407 38.7524 57.8004 39.3827C57.6234 40.177 58.5882 40.3145 59.133 39.9788C59.5753 39.7063 59.4148 39.3579 59.4352 38.9033ZM60.0127 40.5776C59.5969 40.7634 59.4304 40.318 59.3946 40.327C59.1935 40.3771 58.9639 40.5974 58.6284 40.6401C56.9169 40.8576 56.6295 38.6299 58.4119 38.4108C58.7476 38.3696 59.0983 38.4204 59.4351 38.402C59.6299 37.5884 58.8563 37.1568 58.202 37.5289C57.8874 37.7078 57.9578 38.1965 57.3735 37.8956C57.4352 36.8942 58.8573 36.6552 59.5591 37.1457C59.6933 37.2395 60.0127 37.6235 60.0127 37.7739V40.5776Z" fill="black"/>
</g>
<mask id="mask7_3311_39553" style="mask-type:luminance" maskUnits="userSpaceOnUse" x="0" y="0" width="113" height="65">
<path d="M0 1.52588e-05H112.875V64.5H0V1.52588e-05Z" fill="white"/>
</mask>
<g mask="url(#mask7_3311_39553)">
<path d="M68.1864 38.9036H66.9893C66.6491 38.9036 66.3077 39.6907 66.6677 39.9828C67.3601 40.5446 68.4985 39.8404 68.1864 38.9036ZM68.1855 40.2429C67.3081 41.0663 65.6516 40.6441 65.9748 39.214C66.1588 38.4006 67.5495 38.3349 68.1868 38.4018C68.2628 37.7492 67.9265 37.3226 67.2591 37.4136C66.695 37.4905 66.6263 37.9729 66.5642 37.9881C66.4071 38.0267 66.0399 37.9482 66.0744 37.7282C66.2253 36.765 68.6109 36.3295 68.7671 38.1894C68.7944 38.5136 68.8196 40.2326 68.7525 40.4401C68.6663 40.7067 68.0894 40.6278 68.1855 40.2429Z" fill="black"/>
</g>
<mask id="mask8_3311_39553" style="mask-type:luminance" maskUnits="userSpaceOnUse" x="0" y="0" width="113" height="65">
<path d="M0 1.52588e-05H112.875V64.5H0V1.52588e-05Z" fill="white"/>
</mask>
<g mask="url(#mask8_3311_39553)">
<path d="M77.0209 38.4852C77.1849 37.0364 75.237 37.0768 75.2871 38.4852H77.0209ZM77.5988 38.9874H75.2871C75.1851 39.8894 76.0529 40.4699 76.8046 39.9813C76.9604 39.88 77.2243 39.3227 77.4798 39.7398C77.6568 40.0285 77.1349 40.4121 76.9125 40.5096C74.3407 41.6355 73.8897 36.8986 76.1537 36.8887C77.3665 36.8834 77.7261 37.9282 77.5988 38.9874Z" fill="black"/>
</g>
<mask id="mask9_3311_39553" style="mask-type:luminance" maskUnits="userSpaceOnUse" x="0" y="0" width="113" height="65">
<path d="M0 1.52588e-05H112.875V64.5H0V1.52588e-05Z" fill="white"/>
</mask>
<g mask="url(#mask9_3311_39553)">
<path d="M86.1845 38.4852C86.1634 37.0509 84.3858 37.0498 84.3682 38.4852H86.1845ZM86.6799 38.9874H84.3682C84.3123 39.9051 85.0832 40.461 85.8832 39.9792C86.091 39.854 86.3282 39.3697 86.5589 39.7392C86.7459 40.0387 86.2966 40.37 86.0516 40.4847C85.2991 40.8372 84.3126 40.6688 83.9982 39.8227C83.5724 38.6769 83.7698 36.8791 85.3181 36.8885C86.4758 36.8956 86.8141 37.9921 86.6799 38.9874Z" fill="black"/>
</g>
<mask id="mask10_3311_39553" style="mask-type:luminance" maskUnits="userSpaceOnUse" x="0" y="0" width="113" height="65">
<path d="M0 1.52588e-05H112.875V64.5H0V1.52588e-05Z" fill="white"/>
</mask>
<g mask="url(#mask10_3311_39553)">
<path d="M98.1817 37.6741C97.7708 38.1226 97.7724 39.8912 98.5848 40.102C99.7863 40.4136 99.8274 39.0505 99.7265 38.1905C99.639 37.4442 98.663 37.1487 98.1817 37.6741ZM98.6323 36.9164C99.4463 36.8153 100.209 37.3474 100.303 38.1921C100.42 39.2519 100.241 40.6117 98.9363 40.6639C96.8829 40.746 96.8366 37.1393 98.6323 36.9164Z" fill="black"/>
</g>
<mask id="mask11_3311_39553" style="mask-type:luminance" maskUnits="userSpaceOnUse" x="0" y="0" width="113" height="65">
<path d="M0 1.52588e-05H112.875V64.5H0V1.52588e-05Z" fill="white"/>
</mask>
<g mask="url(#mask11_3311_39553)">
<path d="M46.1975 37.6771C45.6872 37.1476 44.7418 37.4518 44.6553 38.1905C44.5583 39.0181 44.5747 40.3447 45.7335 40.1237C46.6218 39.9544 46.6732 38.1707 46.1975 37.6771ZM45.2966 36.9143C46.8576 36.6652 47.2812 38.4299 46.9126 39.6419C46.4506 41.1613 44.2578 40.9206 44.0786 39.2809C43.9703 38.2893 44.1388 37.099 45.2966 36.9143Z" fill="black"/>
</g>
<mask id="mask12_3311_39553" style="mask-type:luminance" maskUnits="userSpaceOnUse" x="0" y="0" width="113" height="65">
<path d="M0 1.52588e-05H112.875V64.5H0V1.52588e-05Z" fill="white"/>
</mask>
<g mask="url(#mask12_3311_39553)">
<path d="M91.7987 36.9787V39.5313C91.7987 39.8463 92.3491 40.1666 92.6582 40.1541C92.9574 40.1418 93.45 39.7425 93.45 39.4477V36.9787C93.6276 36.9888 93.9486 36.9069 94.0163 37.1159V40.4403C93.752 40.7031 93.3722 40.6833 93.409 40.2432C92.7237 41.0248 91.4162 40.6312 91.2406 39.595C91.1924 39.3104 91.1679 37.3147 91.2324 37.1159C91.3 36.9069 91.6211 36.9888 91.7987 36.9787Z" fill="black"/>
</g>
<mask id="mask13_3311_39553" style="mask-type:luminance" maskUnits="userSpaceOnUse" x="0" y="0" width="113" height="65">
<path d="M0 1.52588e-05H112.875V64.5H0V1.52588e-05Z" fill="white"/>
</mask>
<g mask="url(#mask13_3311_39553)">
<path d="M61.0039 40.5776V36.9788C61.5117 36.8366 61.4787 37.1469 61.5837 37.2299C61.6179 37.257 62.0523 36.9164 62.3776 36.9003C62.9281 36.8733 63.7284 37.328 63.7284 37.9412V40.452C63.7284 40.6232 63.1504 40.6232 63.1504 40.452V38.025C63.1504 37.7648 62.6907 37.4359 62.4288 37.4146C61.0095 37.299 61.813 39.6915 61.5703 40.4404C61.5026 40.6494 61.1816 40.5675 61.0039 40.5776Z" fill="black"/>
</g>
<mask id="mask14_3311_39553" style="mask-type:luminance" maskUnits="userSpaceOnUse" x="0" y="0" width="113" height="65">
<path d="M0 1.52588e-05H112.875V64.5H0V1.52588e-05Z" fill="white"/>
</mask>
<g mask="url(#mask14_3311_39553)">
<path d="M103.688 38.0671C103.152 38.195 103.246 37.8081 103.026 37.6089C102.501 37.1359 101.329 37.5494 101.7 38.1127C102.083 38.6921 103.942 38.4663 103.755 39.7603C103.58 40.9751 101.129 40.8627 101.059 39.6816C101.044 39.4289 101.582 39.4548 101.62 39.4942C101.644 39.5185 101.608 39.6855 101.645 39.7579C102.032 40.5185 103.501 40.1286 103.153 39.4055C102.894 38.8681 100.954 39.1656 101.125 37.7705C101.272 36.5793 103.904 36.6562 103.688 38.0671Z" fill="black"/>
</g>
<mask id="mask15_3311_39553" style="mask-type:luminance" maskUnits="userSpaceOnUse" x="0" y="0" width="113" height="65">
<path d="M0 1.52588e-05H112.875V64.5H0V1.52588e-05Z" fill="white"/>
</mask>
<g mask="url(#mask15_3311_39553)">
<path d="M95.0195 37.1043C95.0613 36.9672 95.3324 36.948 95.4623 36.9893C95.7059 37.0665 95.4018 37.4186 95.6374 37.3126C95.7393 37.2667 95.8694 37.0965 96.0187 37.0297C96.2641 36.9197 96.8978 36.8449 96.9225 37.1876C96.9647 37.7721 96.4681 37.4859 96.0884 37.6021C95.1821 37.8796 95.8017 39.7744 95.5859 40.4404C95.5182 40.6495 95.1972 40.5675 95.0195 40.5776V37.1043Z" fill="black"/>
</g>
<mask id="mask16_3311_39553" style="mask-type:luminance" maskUnits="userSpaceOnUse" x="0" y="0" width="113" height="65">
<path d="M0 1.52588e-05H112.875V64.5H0V1.52588e-05Z" fill="white"/>
</mask>
<g mask="url(#mask16_3311_39553)">
<path d="M64.6367 37.1042C64.6992 36.8987 65.2146 36.9605 65.2146 37.1042V40.452C65.2146 40.6231 64.6367 40.6231 64.6367 40.452V37.1042Z" fill="black"/>
</g>
<mask id="mask17_3311_39553" style="mask-type:luminance" maskUnits="userSpaceOnUse" x="0" y="0" width="113" height="65">
<path d="M0 1.52588e-05H112.875V64.5H0V1.52588e-05Z" fill="white"/>
</mask>
<g mask="url(#mask17_3311_39553)">
<path d="M61.8069 35.6558C62.2792 35.5498 62.4522 35.9047 62.7815 35.898C62.9504 35.8945 63.4029 35.5088 63.4011 35.9327C63.4001 36.1421 63.0274 36.3573 62.8422 36.3755C62.5054 36.4088 62.2192 36.0499 61.9511 36.0643C61.7902 36.0728 61.6332 36.2983 61.5399 36.2906C61.1621 36.2596 61.43 35.7405 61.8069 35.6558Z" fill="black"/>
</g>
<mask id="mask18_3311_39553" style="mask-type:luminance" maskUnits="userSpaceOnUse" x="0" y="0" width="113" height="65">
<path d="M0 1.52588e-05H112.875V64.5H0V1.52588e-05Z" fill="white"/>
</mask>
<g mask="url(#mask18_3311_39553)">
<path d="M65.544 35.64C65.3485 36.0354 65.169 36.6891 64.6367 36.5598C64.7297 36.1009 64.9807 35.4796 65.544 35.64Z" fill="black"/>
</g>
<mask id="mask19_3311_39553" style="mask-type:luminance" maskUnits="userSpaceOnUse" x="0" y="0" width="113" height="65">
<path d="M0 1.52588e-05H112.875V64.5H0V1.52588e-05Z" fill="white"/>
</mask>
<g mask="url(#mask19_3311_39553)">
<path d="M55.8433 24.0061C55.9013 24.0161 56.0117 24.0958 56.0528 24.1514L58.8567 28.8604V24.1317C58.8567 24.1228 58.9718 24.0061 58.9805 24.0061H60.384C60.3928 24.0061 60.5079 24.1228 60.5079 24.1317V31.8315C60.5079 31.8404 60.3928 31.957 60.384 31.957H58.9805L56.0084 27.0182L55.9671 31.957H54.3984V24.0061C54.8404 24.0586 55.4226 23.9344 55.8433 24.0061Z" fill="black"/>
</g>
<mask id="mask20_3311_39553" style="mask-type:luminance" maskUnits="userSpaceOnUse" x="0" y="0" width="113" height="65">
<path d="M0 1.52588e-05H112.875V64.5H0V1.52588e-05Z" fill="white"/>
</mask>
<g mask="url(#mask20_3311_39553)">
<path d="M41.5204 27.1867H43.9972V24.1319C43.9972 24.123 44.1123 24.0063 44.121 24.0063H45.5245C45.5333 24.0063 45.6484 24.123 45.6484 24.1319V31.8317C45.6484 31.8406 45.5333 31.9573 45.5245 31.9573H44.121C44.1123 31.9573 43.9972 31.8406 43.9972 31.8317V28.6932H41.5204V31.8317C41.5204 31.8406 41.4053 31.9573 41.3965 31.9573H39.8691V24.0063H41.3965C41.4053 24.0063 41.5204 24.123 41.5204 24.1319V27.1867Z" fill="black"/>
</g>
<mask id="mask21_3311_39553" style="mask-type:luminance" maskUnits="userSpaceOnUse" x="0" y="0" width="113" height="65">
<path d="M0 1.52588e-05H112.875V64.5H0V1.52588e-05Z" fill="white"/>
</mask>
<g mask="url(#mask21_3311_39553)">
<path d="M50.9323 29.3627L49.9829 26.0141L49.0334 29.3627H50.9323ZM53.4091 31.9573H51.8818C51.506 31.9573 51.6877 30.7652 51.1433 30.6972C50.8703 30.6631 48.8358 30.6575 48.6732 30.7132C48.4255 30.798 48.4072 31.7607 48.1666 31.9573H46.5566L46.5942 31.5348L48.8896 24.2372L49.0323 24.047C49.1602 23.9821 50.6067 23.9695 50.8066 24.0083C50.92 24.0303 50.9988 24.0691 51.0523 24.1776L53.4091 31.9573Z" fill="black"/>
</g>
<mask id="mask22_3311_39553" style="mask-type:luminance" maskUnits="userSpaceOnUse" x="0" y="0" width="113" height="65">
<path d="M0 1.52588e-05H112.875V64.5H0V1.52588e-05Z" fill="white"/>
</mask>
<g mask="url(#mask22_3311_39553)">
<path d="M79.0031 29.3627L78.0941 26.0987C77.979 26.1094 77.9618 26.2183 77.926 26.3041C77.543 27.2236 77.4242 28.4267 77.0216 29.3627H79.0031ZM79.8699 31.9573C79.6902 31.8991 79.553 30.9371 79.4251 30.7515C79.3378 30.6246 76.9839 30.7377 76.6171 30.7104C76.5598 30.9191 76.3557 31.9573 76.1547 31.9573H74.6687C74.6435 31.9573 74.5221 31.8327 74.5571 31.7652L76.935 24.2952C76.9673 24.2034 77.0139 24.0917 77.103 24.047C77.2314 23.9827 78.6777 23.9689 78.8794 24.0062C78.9715 24.0234 79.0373 24.047 79.0785 24.1391L81.4767 31.7555C81.4942 31.8253 81.3921 31.9573 81.356 31.9573H79.8699Z" fill="black"/>
</g>
<mask id="mask23_3311_39553" style="mask-type:luminance" maskUnits="userSpaceOnUse" x="0" y="0" width="113" height="65">
<path d="M0 1.52588e-05H112.875V64.5H0V1.52588e-05Z" fill="white"/>
</mask>
<g mask="url(#mask23_3311_39553)">
<path d="M63.4262 26.6555C63.8524 27.105 65.5242 27.4747 66.178 27.8414C68.3065 29.0351 67.4779 31.7574 65.1639 32.0318C63.9117 32.1802 62.1981 31.8888 61.6829 30.5571C61.5881 30.3123 61.3254 29.3934 61.6342 29.2906C61.7635 29.2476 62.9953 29.2596 63.0729 29.3153C63.2004 29.4068 63.1297 29.7259 63.1676 29.8889C63.3681 30.7507 65.8698 31.0956 65.7153 29.6528C65.6434 28.9802 63.9853 28.6284 63.424 28.3735C62.1824 27.8093 61.2483 26.9636 61.7291 25.4532C62.3827 23.3992 66.025 23.4424 67.0475 25.2025C67.1979 25.4613 67.5686 26.558 67.2253 26.6727C67.0967 26.7157 65.8623 26.7035 65.7864 26.6483C65.6912 26.579 65.7623 26.0014 65.2987 25.6362C64.2802 24.8336 62.5343 25.7148 63.4262 26.6555Z" fill="black"/>
</g>
<mask id="mask24_3311_39553" style="mask-type:luminance" maskUnits="userSpaceOnUse" x="0" y="0" width="113" height="65">
<path d="M0 1.52588e-05H112.875V64.5H0V1.52588e-05Z" fill="white"/>
</mask>
<g mask="url(#mask24_3311_39553)">
<path d="M73.8826 24.0061V25.4289H70.0848V27.1866H72.4378C72.4651 27.1866 72.5631 27.2974 72.6442 27.2702V28.6093C72.5631 28.5821 72.4651 28.693 72.4378 28.693H70.0848V30.5343H73.8826V31.957H68.5575C68.5487 31.957 68.4336 31.8404 68.4336 31.8315V24.1317C68.4336 24.1228 68.5487 24.0061 68.5575 24.0061H73.8826Z" fill="black"/>
</g>
<mask id="mask25_3311_39553" style="mask-type:luminance" maskUnits="userSpaceOnUse" x="0" y="0" width="113" height="65">
<path d="M0 1.52588e-05H112.875V64.5H0V1.52588e-05Z" fill="white"/>
</mask>
<g mask="url(#mask25_3311_39553)">
<path d="M87.0103 24.0061C87.1362 24.4634 87.1371 24.9675 87.0103 25.4289H84.8637V31.8315C84.8637 31.8404 84.7486 31.957 84.7399 31.957H83.3364C83.3276 31.957 83.2125 31.8404 83.2125 31.8315V25.4289H81.1898C81.0019 25.4289 81.0019 24.0061 81.1898 24.0061H87.0103Z" fill="black"/>
</g>
<mask id="mask26_3311_39553" style="mask-type:luminance" maskUnits="userSpaceOnUse" x="0" y="0" width="113" height="65">
<path d="M0 1.52588e-05H112.875V64.5H0V1.52588e-05Z" fill="white"/>
</mask>
<g mask="url(#mask26_3311_39553)">
<path d="M89.6532 31.9573H88.002V24.0064H89.6532V31.9573Z" fill="black"/>
</g>
<mask id="mask27_3311_39553" style="mask-type:luminance" maskUnits="userSpaceOnUse" x="0" y="0" width="113" height="65">
<path d="M0 1.52588e-05H112.875V64.5H0V1.52588e-05Z" fill="white"/>
</mask>
<g mask="url(#mask27_3311_39553)">
<path d="M96.5876 26.6837C96.2122 26.6817 95.0902 26.991 94.9556 26.5403C94.9154 26.4054 94.9496 26.2429 94.8995 26.0952C94.5738 25.1366 92.9808 25.0471 92.552 25.9823C92.3024 26.527 92.3081 28.7358 92.387 29.3953C92.5788 30.9994 94.5924 30.9321 94.9 29.869C94.9535 29.6842 94.8933 29.3185 95.0144 29.2318C95.1375 29.1434 96.5042 29.1731 96.5767 29.2911C96.8521 32.6119 91.5743 33.0848 90.8478 30.035C90.6225 29.089 90.6189 26.4377 90.9591 25.5392C91.9572 22.9029 96.9367 23.5344 96.5876 26.6837Z" fill="black"/>
</g>
<mask id="mask28_3311_39553" style="mask-type:luminance" maskUnits="userSpaceOnUse" x="0" y="0" width="113" height="65">
<path d="M0 1.52588e-05H112.875V64.5H0V1.52588e-05Z" fill="white"/>
</mask>
<g mask="url(#mask28_3311_39553)">
<path d="M101.624 29.3626L100.592 26.0139L99.6428 29.3626H101.624ZM104.101 31.8734C103.783 31.9678 102.7 32.0427 102.449 31.9164C102.18 31.7814 102.096 30.7266 101.987 30.6966C101.58 30.7673 99.3315 30.5853 99.1866 30.7832C99.0451 30.9767 99.0336 31.7423 98.7759 31.9571H97.166C97.8764 29.2932 98.7398 26.6444 99.6413 24.0465C99.9499 24.004 101.565 23.9272 101.69 24.1076L104.101 31.706V31.8734Z" fill="black"/>
</g>
<mask id="mask29_3311_39553" style="mask-type:luminance" maskUnits="userSpaceOnUse" x="0" y="0" width="113" height="65">
<path d="M0 1.52588e-05H112.875V64.5H0V1.52588e-05Z" fill="white"/>
</mask>
<g mask="url(#mask29_3311_39553)">
<path d="M10.9737 44.3438C9.55686 43.9002 8.77541 42.6369 9.36326 41.1629C13.2365 34.7147 16.6363 27.9512 20.5364 21.5228C20.7724 21.1338 20.9955 20.6087 21.4167 20.4065L16.7529 44.3438H10.9737Z" fill="black"/>
</g>
<mask id="mask30_3311_39553" style="mask-type:luminance" maskUnits="userSpaceOnUse" x="0" y="0" width="113" height="65">
<path d="M0 1.52588e-05H112.875V64.5H0V1.52588e-05Z" fill="white"/>
</mask>
<g mask="url(#mask30_3311_39553)">
<path d="M34.5023 44.3438H25.916L29.0523 28.6932L36.1362 41.2226C36.6893 42.6653 35.8836 43.9186 34.5023 44.3438Z" fill="black"/>
</g>
<mask id="mask31_3311_39553" style="mask-type:luminance" maskUnits="userSpaceOnUse" x="0" y="0" width="113" height="65">
<path d="M0 1.52588e-05H112.875V64.5H0V1.52588e-05Z" fill="white"/>
</mask>
<g mask="url(#mask31_3311_39553)">
<path d="M19.1465 44.3438L21.0454 34.5516H25.421L23.5222 44.3438H19.1465Z" fill="black"/>
</g>
<mask id="mask32_3311_39553" style="mask-type:luminance" maskUnits="userSpaceOnUse" x="0" y="0" width="113" height="65">
<path d="M0 1.52588e-05H112.875V64.5H0V1.52588e-05Z" fill="white"/>
</mask>
<g mask="url(#mask32_3311_39553)">
<path d="M21.541 32.292L23.8535 20.2402C24.1937 20.412 24.3836 20.6467 24.5978 20.9493C25.546 22.2889 26.2661 24.0718 27.1544 25.4783C26.6834 27.5895 26.4868 30.0163 25.9131 32.0792C25.8889 32.1666 25.8798 32.2413 25.7928 32.292H21.541Z" fill="black"/>
</g>
</g>
<defs>
<clipPath id="clip0_3311_39553">
<rect width="112.875" height="64.5" fill="white"/>
</clipPath>
</defs>
</svg>
