<svg width="400" height="400" viewBox="0 0 400 400" fill="none" xmlns="http://www.w3.org/2000/svg">
<rect width="400" height="400" fill="white"/>
<g clip-path="url(#clip0_3543_4009)">
<path d="M263.684 143.796H251.279V167.994C251.279 175.881 259.754 182.62 270.234 182.62C280.713 182.62 289.882 175.805 289.882 167.994V143.796H277.477V165.62C277.477 169.219 274.395 172.129 270.619 172.129C266.766 172.129 263.684 169.219 263.684 165.544V143.796ZM66.8894 130.472V180.705H54.0215V120.135H77.2146C87.3086 120.135 95.5534 128.252 95.5534 138.13C95.5534 146.553 89.6202 153.598 81.6067 155.436L99.4831 180.705H84.1494L71.2815 160.873V146.4H74.2866C79.0639 146.4 82.9166 142.878 82.9166 138.513C82.9166 134.148 79.2951 130.472 74.5177 130.472H66.8894ZM185.321 180.705V117.225H173.146V147.166C169.91 144.026 165.826 142.265 161.126 142.265C151.109 142.265 142.941 151.071 142.941 162.021C142.941 172.895 151.109 181.777 161.126 181.777C165.903 181.777 170.372 179.94 173.146 176.57V180.705H185.321ZM164.593 171.44C159.662 171.44 155.655 167.075 155.655 161.715C155.655 156.355 159.662 151.99 164.593 151.99C169.525 151.99 173.532 156.355 173.532 161.715C173.455 167.075 169.448 171.44 164.593 171.44ZM236.484 147.778C239.798 144.715 241.878 140.58 241.878 136.062C241.878 131.927 240.26 128.175 237.486 125.189C234.558 122.049 229.472 120.135 222.538 120.135H201.81V180.705H228.625C238.873 180.552 247.195 172.818 247.195 163.323C247.118 156.431 244.652 151.53 236.484 147.778ZM226.159 170.215H214.524V131.009H222.692C226.236 131.009 229.241 133.689 229.241 137.288C229.241 140.887 226.236 143.796 222.692 143.796H218.377V154.747H226.313C230.628 154.747 233.864 158.269 233.864 162.557C233.71 166.845 230.859 169.985 226.159 170.215Z" fill="black"/>
<path d="M110.27 157.503C110.27 153.445 113.584 150.152 117.668 150.152C121.751 150.152 125.065 153.445 125.065 157.503H110.27ZM137.085 164.395C137.162 163.553 137.239 162.71 137.239 161.868C137.393 148.774 128.763 141.652 117.668 141.652C106.572 141.652 97.5566 150.688 97.5566 161.868C97.5566 173.048 106.572 182.084 117.668 182.084C126.144 182.084 132.77 178.255 136.16 172.282L126.298 167.764C125.065 170.444 122.137 172.359 118.669 172.359C114.123 172.359 110.348 168.913 110.348 164.395H137.085ZM295.584 117.225H307.759V180.705H295.584V117.225ZM316.312 117.225H328.486V180.705H316.312V117.225Z" fill="black"/>
<path d="M193.103 193.534C209.319 193.534 222.423 206.561 222.423 222.669C222.423 238.776 209.319 251.802 193.103 251.802C176.887 251.802 163.783 238.701 163.783 222.669C163.783 206.561 176.886 193.534 193.103 193.534Z" stroke="black"/>
<path fill-rule="evenodd" clip-rule="evenodd" d="M169.139 205.056C169.602 205.286 170.064 205.516 170.603 205.822C172.838 207.353 174.302 208.655 177.692 211.488C178.694 212.484 179.85 214.092 180.697 215.087C182.547 217.385 183.857 218.993 184.088 220.907C184.627 224.736 185.166 226.88 186.63 230.785C186.785 231.168 187.401 231.704 187.786 232.164C188.711 233.312 189.096 235.15 190.791 236.145C191.716 236.681 191.87 236.758 192.178 236.988C192.641 237.371 191.87 238.749 189.481 238.443C190.714 239.055 190.56 240.434 188.788 240.51C185.321 240.663 183.163 238.672 182.701 238.136C182.47 237.907 181.776 238.826 180.543 239.285C179.31 239.898 177.615 239.285 176.305 239.515C175.072 239.744 173.454 240.51 172.144 240.587C169.833 240.663 169.525 239.055 169.525 237.677V237.064C169.293 237.907 168.446 239.362 168.446 239.362C168.138 240.051 167.675 240.893 166.828 241.199L164.362 241.506C162.436 242.348 160.509 242.961 158.506 243.65C157.35 243.879 156.04 243.65 155.193 242.961C154.499 242.425 154.114 241.735 153.729 241.046C153.343 240.893 152.804 241.046 152.342 240.893C151.956 240.816 151.725 240.51 151.494 240.28L149.799 237.447C149.645 237.064 149.645 236.528 149.799 236.145C150.107 235.533 150.801 235.227 151.494 235.227C152.727 235.15 154.114 234.767 155.347 235.227C155.886 234.614 156.734 234.691 157.504 234.537C157.196 234.078 156.734 233.848 156.348 233.465C154.114 234.001 151.648 233.618 149.491 233.236C147.487 232.776 145.792 233.925 143.789 233.618L143.172 234.92C142.248 235.916 142.171 237.6 140.784 238.29C139.782 238.519 139.011 239.208 138.164 239.668C136.623 240.51 134.542 240.127 132.847 239.821C132.154 239.744 131.691 239.821 131.075 240.051C130.535 240.434 129.919 241.046 129.303 241.506C128.301 241.889 127.453 242.731 126.375 242.807C125.758 242.807 125.142 242.425 124.525 242.578C123.755 243.42 123.369 244.798 122.137 245.181C120.904 245.564 119.363 245.258 118.13 244.952C117.745 245.105 117.513 245.411 117.051 245.334C116.203 245.105 115.356 244.875 114.585 244.415C114.277 244.109 114.2 243.726 114.123 243.42C114.123 242.884 114.585 242.425 114.817 241.965C114.894 241.429 114.894 240.663 115.125 240.127C115.51 239.285 116.358 238.749 117.205 238.366C117.282 237.754 117.668 237.217 118.207 236.911C119.209 236.375 120.287 235.15 121.597 235.839L122.984 236.988C124.217 236.452 123.909 235.227 124.525 234.231C124.833 233.542 125.219 232.776 125.989 232.776C126.529 232.7 127.145 232.853 127.684 232.776C128.455 232.546 129.303 232.24 129.842 231.628L129.765 231.168C128.994 229.713 128.763 227.952 128.686 226.191C127.299 226.344 125.835 226.574 124.371 226.267C122.214 225.961 120.133 224.276 119.286 222.132C118.361 220.065 118.746 217.155 120.21 215.394C121.366 214.015 122.676 212.79 124.063 211.718C123.601 211.565 123.061 211.642 122.599 211.488C120.596 211.182 118.592 209.421 118.13 207.43C117.822 206.128 118.13 204.903 118.746 203.831C118.977 203.601 119.209 203.372 119.594 203.525C120.596 203.908 120.904 204.444 121.828 204.903L122.368 205.209C124.911 206.052 128.301 206.052 129.303 209.191C129.919 211.642 128.378 213.479 126.606 214.858C125.219 215.853 123.832 217.078 123.138 218.533C122.83 219.605 122.984 220.677 123.909 221.443C124.833 222.362 126.452 222.362 127.607 221.903C129.765 220.984 131.768 219.605 133.695 218.15C135.544 216.772 137.778 216.236 140.167 216.159C141.246 215.93 142.171 215.47 143.018 214.781C144.482 213.403 146.023 212.254 147.873 211.795C148.72 211.642 149.568 211.565 150.415 211.488C151.109 211.182 151.571 210.34 152.11 209.957C154.653 207.736 158.044 207.813 160.74 206.052C162.282 204.903 163.977 204.137 165.98 204.214C166.905 204.29 167.752 204.444 168.523 204.75L169.139 205.056ZM171.682 231.092C169.987 231.168 168.908 231.551 167.752 231.704C167.829 232.776 168.446 233.695 169.293 234.844C169.756 233.082 171.22 232.393 171.682 231.092ZM215.063 231.474C215.834 232.623 216.296 233.772 216.99 234.997C217.683 233.695 218.299 232.47 218.916 231.704C218.839 231.628 216.835 231.857 215.063 231.474ZM216.681 237.141C216.604 237.371 216.45 237.447 216.142 237.447C216.373 238.519 215.603 240.51 213.676 240.587C212.366 240.663 210.209 239.362 208.976 239.285C207.666 239.208 205.277 240.204 203.89 238.136C202.041 240.357 199.884 240.97 198.034 240.893C196.956 240.893 195.8 240.28 197.418 238.902C193.873 240.051 193.873 237.677 194.49 237.217C194.875 236.911 195.337 236.681 196.647 235.38C201.579 230.249 199.73 221.367 205.123 215.47C207.204 213.173 208.899 211.871 213.137 208.885C214.601 207.889 216.065 206.435 217.452 205.439L217.529 205.592V205.516C218.377 204.903 219.147 204.29 220.072 204.061C221.998 203.831 223.77 204.444 225.234 205.439C226.005 205.975 226.621 206.588 227.238 207.353C227.7 207.813 228.393 207.813 229.01 208.043C230.782 208.349 232.323 209.038 233.787 209.957C234.789 210.57 235.637 211.642 236.869 211.795C238.333 212.024 239.643 212.484 240.953 213.25C242.494 214.245 243.881 215.47 245.731 215.777C249.429 216.159 252.511 218.227 255.439 220.295C257.134 221.29 259.138 222.439 261.218 221.749C261.835 221.52 262.297 220.984 262.451 220.448C262.605 219.069 261.758 217.997 260.91 217.002C259.138 214.934 256.056 213.173 256.441 210.187C256.98 207.966 259.446 206.664 261.372 206.052C262.451 205.669 263.761 205.822 264.686 204.903C265.148 204.597 265.379 203.525 266.15 203.908C266.766 204.29 266.843 205.056 266.92 205.745C267.228 207.889 266.766 210.034 264.763 211.259C263.838 211.871 262.836 212.101 261.758 212.331C263.376 213.633 264.994 215.241 265.919 217.078C266.458 218.15 266.766 219.069 266.843 220.295C266.766 222.592 265.379 224.583 263.376 225.731C262.22 226.344 260.91 226.574 259.523 226.574C258.984 226.574 258.521 226.42 258.059 226.42C258.29 227.493 258.29 228.947 258.059 230.173C257.982 230.785 257.597 231.474 257.597 232.24C257.905 232.623 258.367 232.623 258.753 232.623C259.754 232.623 260.987 232.546 261.526 233.618C261.989 234.614 262.22 235.763 262.605 236.758C262.759 236.911 262.836 237.294 263.068 237.217C263.761 236.605 264.455 235.763 265.456 235.992C266.381 236.605 267.306 237.294 268.23 237.983C268.461 238.213 268.538 238.519 268.615 238.902C269.386 239.208 270.388 239.744 270.619 240.663C270.773 241.276 270.696 241.889 270.85 242.425C271.081 243.037 271.698 243.803 271.235 244.569L270.927 244.798L267.999 245.717C267.768 245.717 267.537 245.564 267.305 245.334C265.764 245.258 263.915 245.717 262.682 244.645C262.143 244.186 261.758 243.65 261.372 243.037C260.448 243.497 259.138 243.803 258.213 243.19C256.287 241.735 254.361 240.28 251.741 240.357C250.585 240.587 249.198 240.893 248.042 240.434C246.963 239.668 245.731 239.285 244.883 238.136C243.65 236.835 243.65 235.303 243.188 233.695C241.493 234.078 239.643 233.848 237.948 233.772C236.561 233.695 235.251 233.925 233.941 234.231C232.323 234.537 230.551 234.691 228.856 234.614L228.008 235.227C228.393 235.303 228.779 235.303 229.087 235.609L229.395 235.916C230.782 236.069 232.4 235.839 233.71 236.145C234.018 236.222 234.327 236.528 234.481 236.835C234.635 237.217 234.635 237.677 234.404 237.983C233.71 238.902 233.325 239.974 232.4 240.74C232.169 241.046 231.476 240.663 231.399 241.199C231.09 242.578 229.78 243.726 228.471 244.033C227.931 244.109 227.315 244.033 226.852 243.879C225.234 243.343 223.616 242.884 221.998 242.425C221.459 242.271 220.996 241.735 220.534 241.429C219.841 241.429 218.839 241.659 218.377 241.046C218.145 240.893 217.914 240.357 217.837 240.127C217.298 239.438 216.912 238.213 216.681 237.141Z" fill="white"/>
<path fill-rule="evenodd" clip-rule="evenodd" d="M168.369 214.705C168.831 215.853 168.831 217.385 168.523 218.61C168.446 218.687 168.369 218.687 168.291 218.61C168.06 217.538 167.829 216.466 167.444 215.394C167.213 214.781 166.442 214.245 166.75 213.556C166.905 213.403 167.213 213.403 167.444 213.479C167.829 213.862 168.06 214.245 168.369 214.705ZM180.697 225.425C181.545 226.421 182.161 227.493 181.853 228.794C181.699 229.024 181.776 229.484 181.391 229.56C181.236 229.637 181.082 229.484 181.082 229.33C181.005 228.641 181.005 227.875 180.62 227.339C180.158 226.88 179.618 225.961 178.848 225.961C178.308 226.114 177.923 226.727 177.615 227.11C177.615 227.186 177.538 227.186 177.461 227.11C177.153 226.344 177.769 225.731 178 225.119C178.463 224.659 178.386 223.358 179.387 223.74C180.081 224.2 180.235 224.966 180.697 225.425ZM179.079 234.537C179.156 234.997 179.156 235.686 178.694 235.992C178.231 236.146 177.615 236.222 177.076 236.146C176.921 236.069 176.767 235.992 176.844 235.839C177.076 235.15 177.769 234.384 178.54 234.231C178.694 234.231 179.002 234.231 179.079 234.537ZM122.83 206.588C124.679 207.047 126.683 207.047 128.07 208.502C128.84 209.421 128.917 211.029 128.301 211.948C127.222 213.786 125.064 214.705 123.755 216.313C122.445 217.385 121.982 219.069 122.368 220.754C122.83 222.209 124.294 223.204 125.758 223.281C128.07 223.358 129.765 222.209 131.614 221.137C133.463 219.835 135.158 218.151 137.239 217.615C138.626 217.155 140.167 217.385 141.554 216.849C143.018 216.542 144.174 215.317 145.33 214.245C146.639 213.173 148.181 212.561 149.876 212.637C151.417 212.867 152.264 211.489 153.343 210.57C155.115 208.962 157.427 208.808 159.507 207.89C160.971 207.43 162.127 206.358 163.514 205.669C164.824 205.133 166.596 204.98 167.906 205.516C168.754 205.899 169.678 206.281 170.449 206.894L176.69 212.101C176.767 212.331 176.999 212.484 177.153 212.561C178.925 214.705 180.774 216.772 182.238 219.146C182.701 219.988 182.932 220.831 183.163 221.75C183.471 225.272 184.396 228.335 185.551 231.398C185.86 231.857 186.476 232.24 186.784 232.7C187.786 234.078 188.402 235.839 190.021 236.758L190.945 237.218C191.022 237.294 191.022 237.447 190.945 237.524L190.791 237.677C188.865 237.983 187.401 236.835 186.399 235.456C185.783 234.231 184.935 232.929 183.548 232.393C183.471 232.393 183.394 232.47 183.394 232.47C183.548 232.929 184.01 233.236 184.165 233.619C184.704 234.461 185.166 235.38 185.397 236.299C185.706 237.294 186.784 237.983 187.632 238.519L188.865 239.132C189.019 239.209 189.096 239.438 188.942 239.591L188.788 239.668C186.707 239.745 184.858 239.055 183.394 237.524C183.086 237.141 182.623 236.835 182.084 236.835C181.159 237.677 180.235 238.443 179.002 238.519C177.692 238.29 176.305 238.29 175.149 238.749C174.071 239.132 172.992 239.591 171.836 239.591C171.297 239.591 170.68 239.362 170.449 238.826C170.449 238.136 169.987 237.371 170.372 236.682L171.142 235.533C171.142 235.38 171.065 235.227 170.911 235.227C170.603 235.15 170.064 235.686 169.91 235.15C169.987 234.001 171.142 233.236 171.913 232.47C172.067 231.551 172.452 230.709 173.146 229.943C173.146 229.866 173.069 229.713 172.915 229.713C171.913 229.866 170.911 230.096 169.833 230.096C168.985 230.556 167.906 230.862 166.905 230.556C166.673 230.402 166.75 230.173 166.827 230.02C167.906 228.565 168.291 226.727 167.983 224.966C167.906 224.889 167.906 224.736 167.752 224.736C167.598 224.736 167.598 224.889 167.521 224.966C167.29 226.65 166.75 227.952 165.826 229.407C165.132 230.096 164.054 230.096 163.129 230.326C162.898 230.402 162.667 230.632 162.667 230.862C162.667 231.474 163.052 231.857 163.283 232.393L165.286 236.069C165.363 237.064 164.901 238.06 164.67 238.979C164.747 239.132 164.901 239.055 165.055 238.979C165.749 238.366 166.211 237.524 166.519 236.605C166.596 236.222 166.442 235.763 166.288 235.456L164.208 231.321C164.362 231.092 164.67 231.092 164.901 231.015C165.363 231.015 165.826 231.245 166.288 231.398C166.75 232.623 167.29 233.925 168.137 234.997C168.291 235.686 168.523 236.605 168.06 237.141C167.598 238.06 167.136 238.826 166.519 239.668C165.98 240.204 165.209 240.127 164.439 240.204H164.208C162.358 241.199 160.432 241.812 158.429 242.425C157.581 242.808 156.579 242.501 155.886 241.965C155.192 241.429 154.884 240.663 154.422 239.974C153.882 239.285 153.035 239.898 152.418 239.515C151.879 238.672 151.34 237.83 150.877 236.911C150.877 236.682 150.877 236.452 151.109 236.299C151.802 236.069 152.573 236.069 153.343 235.992C154.037 235.916 154.807 236.069 155.269 236.528C156.194 237.6 156.579 239.055 157.966 239.745C159.045 239.821 159.97 239.515 160.894 239.055C161.434 238.749 162.05 238.29 162.05 237.6C161.973 236.222 161.048 235.15 159.893 234.384C158.737 233.772 157.504 232.929 156.656 231.857C156.194 231.245 156.117 230.556 155.886 229.943C155.809 229.79 155.501 229.79 155.424 229.866C154.961 230.249 155.346 230.938 155.346 231.398C155.424 231.704 155.578 232.087 155.424 232.317C154.73 232.853 153.805 232.547 152.958 232.623C151.263 232.547 149.645 231.857 147.872 232.011C146.177 232.087 143.866 233.236 142.633 231.551C142.016 229.943 142.17 228.029 142.479 226.421C142.479 226.267 142.324 226.114 142.17 226.114C142.016 226.038 141.862 226.114 141.785 226.267C141.323 227.875 141.246 229.637 140.86 231.321C140.244 232.776 139.165 234.308 137.701 235.073C136.391 235.763 134.85 235.992 133.232 236.146C130.304 236.222 127.607 236.758 125.758 239.285C125.604 239.515 125.373 239.745 125.45 240.051C125.527 240.127 125.758 240.204 125.835 240.127C127.838 237.907 130.381 236.988 133.309 237.141C136.083 237.141 138.857 236.682 140.629 234.308C141.092 233.772 141.4 233.236 141.785 232.623C142.093 232.623 142.324 233.006 142.556 233.159C142.633 234.001 141.939 234.537 141.631 235.227C141.246 235.992 140.86 236.911 140.09 237.371C139.165 237.6 138.395 238.213 137.547 238.672C136.7 239.055 135.621 239.209 134.619 238.979C133.386 238.749 131.691 238.443 130.458 238.979C129.842 239.362 129.302 240.051 128.686 240.434C127.838 240.817 127.068 241.506 126.066 241.429C125.373 241.276 124.525 240.817 123.909 241.429C123.138 242.118 122.984 243.344 121.982 243.803C120.826 244.416 119.594 243.803 118.438 243.726C118.592 242.578 118.746 241.506 119.517 240.663C119.979 240.587 120.364 240.51 120.749 240.204C121.212 239.821 121.52 239.285 121.828 238.749C122.83 238.136 123.986 237.677 124.602 236.605C125.064 235.61 125.064 234.691 125.835 233.772L126.22 233.619L128.301 233.465C129.148 233.083 129.919 232.7 130.689 232.087C130.921 231.857 130.998 231.474 130.921 231.092C130.535 230.096 130.227 229.407 129.996 228.335C129.765 227.263 129.919 226.191 129.765 224.966C129.688 224.889 129.611 224.659 129.456 224.659C128.07 224.966 126.76 225.349 125.219 225.119C123.138 224.889 120.981 223.511 120.21 221.443C119.517 219.682 119.671 217.155 120.981 215.7C122.213 214.169 123.755 213.02 125.296 211.718C125.527 211.565 125.527 211.259 125.604 211.029C125.604 210.723 125.296 210.493 125.064 210.34C124.14 210.11 123.061 210.416 122.136 210.034C120.518 209.498 119.285 207.966 119.054 206.281C118.977 205.516 119.131 204.903 119.517 204.291C120.749 205.363 121.674 206.281 122.83 206.588ZM118.207 240.817V241.046C117.821 241.965 117.59 243.037 117.282 244.109C116.589 244.033 115.972 243.803 115.433 243.573C115.279 243.42 115.433 243.267 115.433 243.114C116.126 242.501 115.895 241.735 116.049 240.893C116.126 240.434 116.589 240.051 117.051 239.821C117.59 239.898 117.898 240.434 118.207 240.817ZM121.597 237.6C121.212 238.366 120.672 239.285 119.825 239.745C119.517 239.821 119.131 239.821 118.823 239.668C118.669 239.515 118.361 239.362 118.361 239.055C118.438 238.749 118.284 238.366 118.592 238.213C119.208 237.83 119.825 237.447 120.441 236.911C120.595 236.835 120.904 236.758 120.981 236.911C121.289 237.141 121.52 237.294 121.597 237.6ZM160.201 237.294C160.278 237.6 160.74 237.983 160.432 238.29C159.816 238.749 159.122 239.055 158.275 238.979C157.658 238.519 157.735 237.677 157.196 237.064C157.042 236.605 156.348 236.605 156.502 236.146L156.733 235.992C157.581 235.992 158.429 235.992 159.276 235.839C160.124 235.763 159.893 236.758 160.201 237.294ZM208.899 224.813C209.361 225.425 209.746 226.038 210.055 226.803C210.132 226.957 210.055 227.11 209.977 227.263C209.9 227.416 209.746 227.569 209.515 227.416C208.976 227.263 209.053 226.421 208.359 226.497C207.897 226.497 207.589 226.88 207.204 227.11C206.51 227.722 205.585 228.335 205.431 229.254C205.277 229.56 205.354 230.096 205.046 230.249C204.892 230.326 204.661 230.173 204.661 230.02C204.584 228.794 204.969 227.646 205.817 226.803C206.664 226.114 207.281 225.119 207.974 224.276C208.436 224.2 208.745 224.506 208.899 224.813ZM209.207 234.997C209.361 235.303 209.669 235.686 209.438 236.069C209.13 236.299 208.59 236.146 208.205 236.146C207.743 235.916 207.589 235.303 207.589 234.767C207.589 234.614 207.589 234.537 207.743 234.384C208.282 234.384 208.822 234.537 209.207 234.997ZM220.765 211.565C220.996 211.871 220.765 212.178 220.611 212.407C219.532 213.403 218.222 214.475 217.452 215.7C217.143 216.083 216.912 216.542 216.758 217.002C216.758 217.078 216.681 217.078 216.604 217.078C216.373 216.466 216.681 215.777 216.835 215.164C217.375 213.709 218.607 212.331 219.917 211.335C220.071 211.259 220.611 211.182 220.765 211.565ZM225.157 206.664C226.005 207.2 226.313 208.349 227.314 208.579C229.01 208.962 230.705 209.344 232.246 210.11C233.325 210.646 234.326 211.412 235.328 212.254C236.253 212.714 237.409 212.714 238.41 213.02C239.874 213.403 241.03 214.475 242.34 215.317C244.035 216.619 246.424 216.466 248.35 217.308C251.432 218.304 253.898 220.677 256.749 222.056C258.213 222.822 260.448 223.128 261.912 222.286C262.913 221.596 263.53 220.677 263.299 219.376C262.759 216.236 259.292 214.628 257.674 212.025C257.365 211.412 257.134 210.57 257.288 209.88C257.905 208.349 259.523 207.507 260.91 206.971C261.989 206.435 263.376 206.588 264.377 205.975C264.763 205.745 265.071 205.439 265.302 205.209C265.533 205.209 265.533 205.439 265.61 205.592C265.918 207.43 265.61 209.344 263.992 210.416C263.376 210.876 262.605 211.029 261.912 211.182C261.295 211.412 260.062 210.953 260.139 212.025C260.293 212.561 260.756 212.867 261.141 213.25C263.299 215.011 265.302 217.308 265.533 220.065C265.61 222.209 264.146 224.047 262.297 224.966C260.91 225.502 259.215 225.731 257.751 225.349C257.365 225.272 256.749 224.889 256.441 225.425C256.364 226.038 256.749 226.497 256.749 227.033C256.903 228.029 256.903 229.33 256.595 230.326C256.441 231.092 255.67 232.011 256.364 232.776C257.057 233.848 258.444 233.542 259.6 233.695C260.216 233.772 260.448 234.461 260.602 234.92C260.833 235.533 260.833 236.222 261.064 236.682C261.064 237.83 262.374 238.29 262.99 239.055C263.761 239.898 264.454 241.353 265.764 241.276C266.227 242.195 266.458 243.037 266.612 244.109L266.458 244.262C265.379 244.262 263.915 244.569 263.144 243.803C262.22 243.19 261.912 241.506 260.525 241.965C259.908 242.425 259.061 242.578 258.367 242.271C257.674 242.042 257.211 241.429 256.595 241.046C254.746 239.668 252.28 238.979 249.891 239.515C248.504 239.898 247.425 238.902 246.347 238.29C244.883 237.677 244.497 236.146 244.189 234.844L243.958 233.236C243.958 233.083 244.112 232.929 244.266 232.853H244.497C245.345 234.767 246.963 236.911 249.044 237.6C250.97 238.366 252.742 237.371 254.823 237.754C256.749 237.983 258.29 239.209 259.754 240.357C259.908 240.357 259.985 240.281 260.062 240.127V239.974C258.29 237.754 255.824 236.605 252.973 236.835C250.585 237.294 248.273 236.528 246.886 234.537C246.116 233.389 245.576 232.164 245.345 230.862C245.114 229.33 244.806 227.646 244.266 226.267C244.112 226.191 243.958 226.038 243.804 226.114L243.65 226.344C243.881 227.799 244.343 229.56 243.804 231.092C243.419 232.317 242.186 232.776 241.03 232.853C239.874 232.929 238.795 232.7 237.563 232.7C234.789 232.623 232.323 233.695 229.472 233.465C229.703 232.776 230.165 232.087 229.934 231.321C229.857 231.168 229.626 231.168 229.472 231.168C228.933 231.474 229.01 232.164 228.701 232.623C228.085 233.619 226.929 234.537 225.773 234.767C224.926 235.38 224.155 236.222 223.462 236.988C223.231 237.218 223.231 237.677 223.308 237.983C223.847 239.362 225.465 239.515 226.698 239.898C227.315 239.974 227.854 239.745 228.162 239.209C228.701 238.366 228.779 236.988 230.011 236.835H232.708C232.939 236.911 233.094 237.064 233.248 237.294L233.171 237.677C232.554 238.366 232.323 239.362 231.552 239.821C231.09 239.974 230.551 239.821 230.243 240.204C230.088 241.123 229.857 242.118 228.933 242.578C228.239 243.19 227.237 242.884 226.467 242.654C225.003 242.118 223.539 241.812 222.075 241.353C221.458 241.199 221.227 240.434 220.534 240.281C219.917 240.127 219.224 240.587 218.685 240.051C218.376 239.362 218.222 238.902 218.068 238.136C217.837 237.677 217.683 237.141 217.606 236.605C217.529 236.146 217.606 235.839 217.76 235.456L219.763 231.857C219.917 231.628 220.071 231.398 220.303 231.321C220.765 231.398 221.304 231.628 221.767 231.857L221.69 232.087L219.609 235.227C219.147 236.222 219.609 237.371 220.071 238.213C220.149 238.29 220.226 238.443 220.303 238.366C220.226 237.754 220.149 237.141 220.303 236.452C220.457 235.839 220.842 235.303 221.15 234.767L222.768 232.393C222.922 232.011 222.922 231.398 222.614 231.015C221.921 230.326 220.919 230.096 220.303 229.177C218.993 227.416 218.839 225.349 218.685 223.128C218.685 222.975 218.53 222.745 218.299 222.668C218.145 222.592 217.991 222.822 217.914 222.898C217.529 224.353 217.76 226.114 218.145 227.416C218.376 228.412 218.839 229.407 219.301 230.326C219.378 230.479 219.224 230.709 219.07 230.785C217.991 230.862 216.912 230.785 215.911 230.632C214.524 230.402 213.522 229.33 212.366 228.488C212.212 228.412 212.135 228.565 212.058 228.641C212.366 230.173 214.061 231.092 214.601 232.47C214.909 233.619 216.065 234.461 216.296 235.686C216.296 235.839 216.142 236.069 215.988 236.146C215.602 236.222 215.217 235.992 214.832 236.222C214.755 236.911 215.217 237.6 214.909 238.213C214.524 238.826 213.984 239.515 213.291 239.515C211.904 239.055 210.517 238.443 209.13 238.06C208.128 237.983 207.126 238.136 206.202 238.213C205.277 238.06 204.661 237.218 203.967 236.758C203.736 236.682 203.505 236.682 203.351 236.835C201.81 238.366 200.115 240.051 197.803 239.974C197.649 239.974 197.572 239.821 197.572 239.668V239.515C198.574 238.596 199.806 237.677 200.269 236.375C200.577 235.303 201.502 234.537 201.887 233.542C201.964 233.389 201.81 233.312 201.656 233.236L201.425 233.389C200.269 234.537 199.421 235.839 198.574 237.064C197.726 237.907 196.493 238.443 195.183 238.136C195.029 238.06 195.029 237.83 195.106 237.677C199.883 234.767 200.423 229.56 201.733 224.813C202.657 221.673 203.351 218.457 205.817 215.93C209.515 211.871 214.138 209.498 218.222 205.975C218.839 205.439 219.455 204.903 220.226 204.903C222.229 204.75 223.77 205.516 225.157 206.664ZM269.155 240.51C269.54 241.046 269.386 241.889 269.54 242.501C269.617 242.961 270.233 243.344 269.925 243.803L268.23 244.339C267.922 244.339 268.076 243.956 267.922 243.803C267.768 242.808 267.536 242.118 267.228 241.199C267.151 240.663 267.691 240.281 268.076 239.974C268.461 239.821 268.769 240.281 269.155 240.51ZM265.225 237.064C265.841 237.6 266.689 237.983 267.151 238.672C267.228 238.979 266.997 239.285 266.843 239.515C266.612 239.745 266.304 239.898 265.918 239.898C265.533 239.898 265.225 239.668 264.994 239.362C264.608 238.749 264.069 238.213 263.915 237.6C264.146 237.218 264.685 236.605 265.225 237.064ZM228.085 236.452C228.008 237.218 227.777 237.907 227.469 238.596C227.237 239.055 226.544 238.902 226.082 238.826C225.619 238.672 224.849 238.596 224.772 237.907C224.695 237.294 225.003 236.682 225.311 236.222C226.005 236.146 226.852 236.299 227.546 236.146C227.854 236.146 228.085 236.222 228.085 236.452Z" fill="black"/>
<path d="M69.4316 284.158H80.1421V281.937H71.8974V274.433H79.8339V272.212H71.8974V266.699H80.1421V264.478H69.4316V284.158ZM90.6214 284.158H93.0871V269.455L108.035 285V264.478H105.57V279.027L90.6214 263.483V284.158ZM118.669 284.158H129.302V281.937H121.135V274.433H129.071V272.212H121.135V266.699H129.302V264.478H118.669V284.158ZM145.483 275.581C148.334 275.275 150.261 272.901 150.261 270.068C150.261 268.154 149.336 266.316 147.641 265.32C146.1 264.401 144.174 264.401 142.401 264.401H139.396V284.158H141.862V275.811H142.864L148.72 284.158H151.725L145.483 275.581ZM141.862 266.622H142.555C145.021 266.622 147.949 267.082 147.949 270.145C147.949 273.284 145.175 273.744 142.71 273.744H141.939V266.622H141.862ZM169.524 274.203V276.424H174.687C174.61 279.64 171.296 282.243 168.214 282.243C163.899 282.243 160.509 278.338 160.509 274.203C160.509 269.762 163.976 266.163 168.445 266.163C170.911 266.163 173.3 267.464 174.687 269.379L176.459 267.694C174.533 265.244 171.451 263.865 168.368 263.865C162.666 263.865 158.043 268.536 158.043 274.203C158.043 279.64 162.512 284.464 168.06 284.464C173.608 284.464 177.461 280.329 177.461 274.892V274.126H169.524V274.203ZM191.022 275.581V284.158H193.488V275.581L199.96 264.478H197.109L192.255 272.901L187.324 264.478H184.473L191.022 275.581ZM216.989 284.158H220.996C227.237 284.158 232.246 280.942 232.246 274.203C232.246 267.618 227.16 264.401 221.073 264.401H216.989V284.158ZM219.455 266.699H220.303C225.388 266.699 229.703 268.536 229.703 274.356C229.703 280.099 225.311 281.937 220.303 281.937H219.455V266.699ZM247.734 275.581C250.585 275.275 252.511 272.901 252.511 270.068C252.511 268.154 251.586 266.316 249.891 265.32C248.35 264.401 246.424 264.401 244.651 264.401H241.646V284.158H244.112V275.811H245.114L250.97 284.158H253.975L247.734 275.581ZM244.112 266.622H244.806C247.271 266.622 250.199 267.082 250.199 270.145C250.199 273.284 247.425 273.744 244.96 273.744H244.189V266.622H244.112ZM261.757 264.478H264.223V284.234H261.757V264.478ZM274.163 284.158H276.629V269.455L291.5 285V264.478H289.034V279.027L274.163 263.483V284.158ZM303.983 272.978V264.478H301.517V284.158H303.983V275.964L304.984 274.969L312.459 284.158H315.772L306.68 273.284L315.618 264.478H312.381L303.983 272.978ZM341.2 116.842C342.586 116.842 343.742 117.302 344.667 118.297C345.592 119.216 346.131 120.441 346.131 121.743C346.131 123.121 345.669 124.27 344.667 125.189C343.742 126.184 342.509 126.644 341.2 126.644C339.813 126.644 338.657 126.184 337.655 125.189C336.73 124.27 336.191 123.045 336.191 121.743C336.191 120.365 336.653 119.216 337.655 118.297C338.657 117.378 339.813 116.842 341.2 116.842ZM346.979 121.743C346.979 120.212 346.439 118.833 345.283 117.685C344.128 116.613 342.818 116 341.2 116C339.581 116 338.271 116.536 337.116 117.685C335.96 118.833 335.421 120.135 335.421 121.743C335.421 123.351 335.96 124.653 337.116 125.802C338.271 126.95 339.581 127.486 341.2 127.486C342.818 127.486 344.128 126.95 345.283 125.802C346.362 124.729 346.979 123.351 346.979 121.743ZM342.741 120.518C342.741 120.977 342.509 121.36 342.047 121.513C341.816 121.59 341.431 121.667 340.968 121.667H339.967V119.369H340.891C341.508 119.369 341.97 119.446 342.278 119.599C342.586 119.829 342.741 120.058 342.741 120.518ZM338.888 118.604V124.883H339.967V122.432H340.814C341.431 122.432 341.816 122.509 342.047 122.662C342.432 122.892 342.664 123.351 342.664 124.117V124.883H343.742L343.665 124.806C343.665 124.729 343.588 124.653 343.588 124.5V123.581C343.588 123.275 343.434 122.968 343.28 122.585C343.049 122.279 342.664 122.049 342.201 121.973C342.586 121.896 342.895 121.82 343.126 121.667C343.511 121.437 343.742 120.977 343.742 120.441C343.742 119.676 343.434 119.14 342.741 118.833C342.355 118.68 341.816 118.604 340.968 118.604H338.888Z" fill="black"/>
</g>
<defs>
<clipPath id="clip0_3543_4009">
<rect width="293" height="169" fill="white" transform="translate(54 116)"/>
</clipPath>
</defs>
</svg>
