<svg width="400" height="400" viewBox="0 0 400 400" fill="none" xmlns="http://www.w3.org/2000/svg">
<g clip-path="url(#clip0_3410_2537)">
<rect width="400" height="400" fill="white"/>
<mask id="mask0_3410_2537" style="mask-type:luminance" maskUnits="userSpaceOnUse" x="-201" y="-30" width="799" height="449">
<path d="M-200.998 -30H597.614V419H-200.998V-30Z" fill="white"/>
</mask>
<g mask="url(#mask0_3410_2537)">
<path d="M184.297 147.4C187.779 134.747 191.246 122.148 194.738 109.456C190.624 110.111 186.791 111.383 183.39 113.784C179.721 116.374 177.255 119.839 176.137 124.186C173.797 133.278 176.561 142.875 184.297 147.4ZM226.989 144.827C225.595 145.811 224.314 146.825 222.931 147.672C218.485 150.394 213.603 151.919 208.478 152.7C201.903 153.701 195.389 153.358 188.941 151.733C188.807 151.7 188.666 151.692 188.436 151.658C187.193 156.125 185.953 160.584 184.675 165.176H185.519C193.259 165.176 200.999 165.221 208.738 165.146C210.849 165.125 212.975 164.85 215.061 164.496C217.105 164.15 218.775 162.986 219.827 161.208C220.855 159.47 221.668 157.603 222.54 155.776C223.079 154.643 222.69 154.785 224.139 154.863C222.547 159.703 220.963 164.517 219.367 169.369C218.901 169.184 218.473 169.014 218.073 168.855C218.048 168.758 218.02 168.71 218.029 168.669C218.32 167.2 218.051 166.779 216.525 166.608C215.367 166.479 214.195 166.42 213.029 166.419C200.029 166.406 187.028 166.411 174.027 166.411H173.07V165.259C173.98 165.143 174.911 165.081 175.816 164.898C177.92 164.472 179.744 163.568 180.597 161.448C181.003 160.438 181.198 159.342 181.479 158.283C182.209 155.534 182.933 152.783 183.675 149.98C182.856 149.569 182.037 149.189 181.246 148.756C176.706 146.271 173.083 142.891 171.169 137.984C168.037 129.95 169.67 119.761 178.601 113.573C182.852 110.627 187.604 108.997 192.653 108.122C193.366 107.999 194.084 107.899 194.803 107.819C195.203 107.775 195.401 107.604 195.526 107.208C196.265 104.849 197.045 102.503 197.785 100.144C197.965 99.5689 198.091 98.9668 198.161 98.3675C198.293 97.2339 197.846 96.4066 196.757 96.0781C195.74 95.7711 194.662 95.6589 193.607 95.4917C193.269 95.4385 192.917 95.4835 192.531 95.4835V94.3189H210.538V95.3654C209.381 95.4952 208.242 95.5753 207.12 95.7583C204.987 96.1067 203.6 97.2222 203.089 99.4538C202.537 101.861 201.772 104.219 201.102 106.599C201.033 106.842 200.976 107.088 200.911 107.346C202.388 107.411 203.809 107.46 205.229 107.538C208.134 107.695 210.964 108.268 213.768 109.03C215.048 109.377 216.367 109.585 217.67 109.846C217.874 109.887 218.089 109.888 218.299 109.884C219.451 109.857 219.866 109.351 219.662 108.229C219.621 108.001 219.574 107.774 219.516 107.478C219.887 107.402 220.22 107.335 220.618 107.253C222.051 112.159 223.473 117.03 224.909 121.948C224.544 122.077 224.222 122.19 223.858 122.319C223.424 121.341 223.01 120.407 222.592 119.473C220.138 113.98 215.692 111.073 209.995 109.792C207.015 109.122 203.994 108.906 200.946 108.929C200.402 108.933 200.357 109.244 200.256 109.604C197.482 119.485 194.705 129.365 191.929 139.246C191.021 142.479 190.117 145.714 189.212 148.949C189.15 149.171 189.097 149.397 189.042 149.615C196.482 152.848 215.088 153.124 225.968 143.694C226.268 144.027 226.569 144.361 226.989 144.827Z" fill="black"/>
</g>
<mask id="mask1_3410_2537" style="mask-type:luminance" maskUnits="userSpaceOnUse" x="-201" y="-30" width="799" height="449">
<path d="M-200.998 -30H597.614V419H-200.998V-30Z" fill="white"/>
</mask>
<g mask="url(#mask1_3410_2537)">
<path d="M149.451 206.754C149.382 206.346 149.341 206.098 149.285 205.769C149.571 205.682 149.868 205.59 150.231 205.479C150.928 207.825 151.609 210.123 152.317 212.51C151.989 212.613 151.693 212.705 151.337 212.817C151.195 212.438 151.065 212.097 150.94 211.754C149.86 208.784 147.704 207.154 144.611 206.727C142.134 206.385 139.662 206.414 137.248 207.121C136.478 207.347 135.705 207.703 135.057 208.17C133.241 209.477 133.427 211.797 135.392 212.862C136.901 213.679 138.585 213.856 140.242 214.133C142.954 214.587 145.665 215.054 148.369 215.553C148.841 215.639 149.292 215.88 149.73 216.095C151.564 216.994 152.706 218.387 152.819 220.498C152.939 222.73 152.162 224.523 150.236 225.741C148.634 226.754 146.828 227.115 144.978 227.29C141.727 227.597 138.538 227.387 135.501 226.041C135.48 226.032 135.457 226.027 135.434 226.023C134.988 225.953 134.542 225.882 134.096 225.812C134.124 226.213 134.153 226.615 134.188 227.111C133.953 227.195 133.655 227.301 133.282 227.434C132.541 224.963 131.808 222.517 131.055 220.005C131.396 219.895 131.673 219.807 131.984 219.707C132.092 219.937 132.194 220.117 132.265 220.307C133.458 223.487 135.839 225.248 139.082 225.9C141.7 226.427 144.336 226.4 146.937 225.764C147.651 225.589 148.356 225.281 148.991 224.91C151.239 223.591 151.609 219.774 148.667 218.4C146.856 217.554 144.908 217.344 142.969 217.052C140.709 216.712 138.45 216.355 136.202 215.942C135.572 215.827 134.969 215.522 134.377 215.25C131.052 213.723 131.17 209.353 133.602 207.51C135.227 206.278 137.112 205.812 139.079 205.578C142.302 205.194 145.467 205.394 148.524 206.597C148.768 206.692 149.052 206.689 149.451 206.754Z" fill="black"/>
</g>
<mask id="mask2_3410_2537" style="mask-type:luminance" maskUnits="userSpaceOnUse" x="-201" y="-30" width="799" height="449">
<path d="M-200.998 -30H597.614V419H-200.998V-30Z" fill="white"/>
</mask>
<g mask="url(#mask2_3410_2537)">
<path d="M176.235 218.704C173.929 214.971 171.675 211.324 169.361 207.578C167.063 211.338 164.837 214.984 162.565 218.704H176.235ZM187.129 225.799V226.839H177.1V225.825H180.555C180.435 225.578 180.374 225.418 180.287 225.275C179.258 223.605 178.215 221.944 177.202 220.265C176.98 219.896 176.723 219.773 176.301 219.774C171.695 219.788 167.089 219.776 162.483 219.798C162.209 219.799 161.816 219.947 161.682 220.157C160.549 221.926 159.463 223.725 158.366 225.516C158.333 225.571 158.324 225.64 158.278 225.779H161.552V226.842H153.379V225.799C154.41 225.799 155.41 225.823 156.408 225.782C156.659 225.771 157.007 225.615 157.131 225.415C160.873 219.357 164.594 213.285 168.317 207.215C168.34 207.177 168.343 207.128 168.381 206.997H165.018V205.861C165.602 205.861 166.201 205.858 166.799 205.861C168.108 205.868 169.418 205.91 170.726 205.871C171.271 205.856 171.558 206.048 171.833 206.499C175.613 212.699 179.42 218.882 183.192 225.087C183.53 225.644 183.895 225.85 184.526 225.812C185.361 225.76 186.203 225.799 187.129 225.799Z" fill="black"/>
</g>
<mask id="mask3_3410_2537" style="mask-type:luminance" maskUnits="userSpaceOnUse" x="-201" y="-30" width="799" height="449">
<path d="M-200.998 -30H597.614V419H-200.998V-30Z" fill="white"/>
</mask>
<g mask="url(#mask3_3410_2537)">
<path d="M118.405 218.705C116.095 214.968 113.84 211.319 111.528 207.577C109.223 211.352 106.999 214.996 104.735 218.705H118.405ZM129.29 225.798V226.852H119.296V225.827H122.719C122.6 225.571 122.543 225.405 122.453 225.259C121.423 223.59 120.404 221.914 119.338 220.268C119.184 220.03 118.801 219.805 118.522 219.803C113.87 219.774 109.217 219.778 104.564 219.796C104.328 219.797 103.988 219.927 103.872 220.11C102.735 221.903 101.633 223.72 100.525 225.532C100.493 225.585 100.496 225.658 100.468 225.788H103.741V226.842H95.5566V225.798C96.5762 225.798 97.576 225.823 98.5734 225.781C98.8253 225.771 99.1773 225.618 99.3006 225.418C103.03 219.379 106.737 213.326 110.446 207.275C110.48 207.218 110.498 207.151 110.565 206.987H107.195V205.887C108.543 205.887 109.869 205.882 111.194 205.888C111.986 205.892 112.931 205.652 113.529 205.999C114.156 206.363 114.464 207.291 114.89 207.986C118.421 213.735 121.951 219.486 125.464 225.246C125.714 225.657 125.979 225.829 126.463 225.809C127.391 225.772 128.323 225.798 129.29 225.798Z" fill="black"/>
</g>
<mask id="mask4_3410_2537" style="mask-type:luminance" maskUnits="userSpaceOnUse" x="-201" y="-30" width="799" height="449">
<path d="M-200.998 -30H597.614V419H-200.998V-30Z" fill="white"/>
</mask>
<g mask="url(#mask4_3410_2537)">
<path d="M316.341 218.7C314.027 214.956 311.773 211.308 309.467 207.576C307.168 211.344 304.942 214.989 302.678 218.7H316.341ZM308.537 206.954H305.159V205.888C307.215 205.888 309.244 205.871 311.271 205.913C311.483 205.918 311.745 206.233 311.887 206.464C315.679 212.625 319.468 218.789 323.226 224.971C323.596 225.58 323.971 225.878 324.705 225.815C325.515 225.744 326.336 225.798 327.24 225.798C327.258 226.145 327.274 226.456 327.293 226.834H317.245V225.813H320.655C320.538 225.566 320.479 225.403 320.389 225.258C319.359 223.59 318.339 221.915 317.274 220.27C317.12 220.032 316.74 219.805 316.463 219.803C311.813 219.774 307.161 219.778 302.51 219.796C302.271 219.797 301.926 219.923 301.811 220.105C300.651 221.935 299.528 223.788 298.319 225.761H301.694V226.846H293.506V225.798C294.531 225.798 295.509 225.827 296.483 225.779C296.754 225.767 297.128 225.599 297.262 225.383C300.98 219.368 304.673 213.337 308.369 207.308C308.415 207.233 308.445 207.148 308.537 206.954Z" fill="black"/>
</g>
<mask id="mask5_3410_2537" style="mask-type:luminance" maskUnits="userSpaceOnUse" x="-201" y="-30" width="799" height="449">
<path d="M-200.998 -30H597.614V419H-200.998V-30Z" fill="white"/>
</mask>
<g mask="url(#mask5_3410_2537)">
<path d="M224.846 206.959H221.328C221.309 206.593 221.293 206.282 221.273 205.914H231.067V206.921H227.728C227.703 207.165 227.668 207.343 227.668 207.521C227.665 210.723 227.635 213.925 227.675 217.126C227.706 219.566 228.279 221.851 229.999 223.705C231.386 225.2 233.174 225.922 235.149 226.135C237.473 226.386 239.774 226.257 241.934 225.217C244.902 223.787 246.385 221.255 246.59 218.131C246.828 214.501 246.694 210.847 246.718 207.203C246.718 207.138 246.676 207.073 246.633 206.946H242.9V205.903H251.686V206.928H247.776V207.768C247.776 210.783 247.805 213.798 247.767 216.812C247.73 219.783 246.937 222.493 244.728 224.622C242.982 226.306 240.797 227.019 238.448 227.245C236.031 227.478 233.641 227.3 231.33 226.46C227.212 224.964 224.877 221.589 224.849 217.026C224.831 213.965 224.846 210.903 224.846 207.842V206.959Z" fill="black"/>
</g>
<mask id="mask6_3410_2537" style="mask-type:luminance" maskUnits="userSpaceOnUse" x="-201" y="-30" width="799" height="449">
<path d="M-200.998 -30H597.614V419H-200.998V-30Z" fill="white"/>
</mask>
<g mask="url(#mask6_3410_2537)">
<path d="M278.171 222.414C278.399 222.691 278.591 222.924 278.913 223.314C277.853 224.01 276.879 224.774 275.801 225.335C272.116 227.253 268.169 227.705 264.087 227.23C261.672 226.949 259.385 226.278 257.283 225.014C251.02 221.251 250.85 212.241 256.778 208.221C259.729 206.22 263.039 205.511 266.533 205.421C268.673 205.365 270.777 205.591 272.827 206.241C273.204 206.361 273.595 206.44 273.985 206.515C275.017 206.712 275.16 206.58 275.008 205.503C275.276 205.428 275.555 205.351 275.936 205.245C276.619 207.67 277.293 210.06 277.987 212.52C277.687 212.645 277.419 212.757 277.094 212.892C276.965 212.607 276.837 212.366 276.745 212.112C275.624 208.986 273.338 207.31 270.121 206.794C267.141 206.315 264.202 206.425 261.354 207.503C257.002 209.152 255.084 212.86 255.435 217.189C255.81 221.815 258.372 224.75 262.933 225.767C267.418 226.766 271.757 226.283 275.846 224.084C276.256 223.864 276.644 223.598 277.023 223.326C277.401 223.054 277.755 222.747 278.171 222.414Z" fill="black"/>
</g>
<mask id="mask7_3410_2537" style="mask-type:luminance" maskUnits="userSpaceOnUse" x="-201" y="-30" width="799" height="449">
<path d="M-200.998 -30H597.614V419H-200.998V-30Z" fill="white"/>
</mask>
<g mask="url(#mask7_3410_2537)">
<path d="M95.0863 222.45C95.2734 222.672 95.4797 222.919 95.7212 223.207C94.4777 224.43 93.057 225.312 91.4785 225.915C85.9367 228.032 80.3856 228.095 75.0263 225.458C68.6485 222.321 68.4135 215.585 70.486 211.768C72.0534 208.881 74.6065 207.227 77.6565 206.315C81.6157 205.132 85.614 205.05 89.61 206.206C90.0128 206.323 90.4238 206.416 90.8354 206.5C91.91 206.721 92.0473 206.599 91.91 205.495C92.183 205.423 92.4659 205.347 92.8337 205.25C93.5177 207.678 94.1918 210.07 94.8817 212.52C94.5724 212.65 94.304 212.763 93.9842 212.897C93.8521 212.599 93.7253 212.356 93.6335 212.1C92.5098 208.973 90.2209 207.304 87.0019 206.791C84.0454 206.32 81.1305 206.428 78.3014 207.483C73.8985 209.126 71.999 212.854 72.3264 217.134C72.6755 221.692 75.0614 224.582 79.5098 225.679C84.246 226.845 88.8377 226.335 93.1161 223.853C93.7983 223.457 94.4087 222.937 95.0863 222.45Z" fill="black"/>
</g>
<mask id="mask8_3410_2537" style="mask-type:luminance" maskUnits="userSpaceOnUse" x="-201" y="-30" width="799" height="449">
<path d="M-200.998 -30H597.614V419H-200.998V-30Z" fill="white"/>
</mask>
<g mask="url(#mask8_3410_2537)">
<path d="M219.876 219.229C220.208 219.329 220.493 219.414 220.842 219.519C219.841 222.462 218.855 225.365 217.854 228.312C217.488 228.193 217.183 228.094 216.838 227.981C217.033 227.221 216.579 227.016 215.974 226.959C215.626 226.926 215.275 226.896 214.926 226.896C209.083 226.892 203.24 226.893 197.397 226.893H196.539V225.791H199.954V206.986H196.545V205.908H206.153V206.97H202.726V225.731C202.937 225.745 203.14 225.77 203.342 225.77C206.1 225.773 208.858 225.795 211.616 225.759C212.592 225.747 213.571 225.626 214.541 225.492C216.4 225.235 217.722 224.219 218.49 222.513C218.966 221.453 219.395 220.372 219.876 219.229Z" fill="black"/>
</g>
<mask id="mask9_3410_2537" style="mask-type:luminance" maskUnits="userSpaceOnUse" x="-201" y="-30" width="799" height="449">
<path d="M-200.998 -30H597.614V419H-200.998V-30Z" fill="white"/>
</mask>
<g mask="url(#mask9_3410_2537)">
<path d="M288.492 206.947V225.778H291.92V226.834H282.335V225.809H285.76V206.974H282.324V205.904H291.919V206.947H288.492Z" fill="black"/>
</g>
<mask id="mask10_3410_2537" style="mask-type:luminance" maskUnits="userSpaceOnUse" x="-201" y="-30" width="799" height="449">
<path d="M-200.998 -30H597.614V419H-200.998V-30Z" fill="white"/>
</mask>
<g mask="url(#mask10_3410_2537)">
<path d="M198.328 283.515C198.678 284.6 199.064 285.675 199.365 286.774C199.54 287.408 199.812 287.672 200.512 287.631C201.694 287.561 202.882 287.611 204.283 287.611C203.111 288.463 202.116 289.215 201.087 289.917C200.673 290.2 200.557 290.45 200.739 290.946C201.163 292.101 201.513 293.282 201.791 294.554C200.865 293.883 199.907 293.251 199.025 292.528C198.455 292.061 198.044 292.049 197.469 292.522C196.588 293.248 195.63 293.879 194.537 294.671C194.931 293.434 195.195 292.34 195.63 291.319C195.966 290.531 195.784 290.122 195.098 289.69C194.162 289.101 193.295 288.402 192.443 287.611C193.717 287.611 194.991 287.594 196.265 287.621C196.685 287.631 196.879 287.5 197.003 287.092C197.366 285.894 197.775 284.71 198.165 283.52C198.22 283.518 198.273 283.517 198.328 283.515Z" fill="black"/>
</g>
<mask id="mask11_3410_2537" style="mask-type:luminance" maskUnits="userSpaceOnUse" x="-201" y="-30" width="799" height="449">
<path d="M-200.998 -30H597.614V419H-200.998V-30Z" fill="white"/>
</mask>
<g mask="url(#mask11_3410_2537)">
<path d="M176.381 287.598H180.988C180.628 287.869 180.428 288.023 180.223 288.172C179.428 288.748 178.648 289.344 177.831 289.887C177.395 290.176 177.262 290.445 177.456 290.97C177.882 292.122 178.229 293.303 178.675 294.681C177.513 293.838 176.508 293.139 175.54 292.392C175.124 292.072 174.825 292.039 174.391 292.378C173.417 293.139 172.395 293.838 171.23 294.681C171.655 293.393 171.992 292.267 172.402 291.17C172.633 290.554 172.563 290.178 171.968 289.801C170.986 289.177 170.071 288.448 168.975 287.651H173.513C173.985 286.227 174.436 284.867 174.886 283.508C174.933 283.508 174.98 283.508 175.027 283.508C175.476 284.865 175.926 286.221 176.381 287.598Z" fill="black"/>
</g>
<mask id="mask12_3410_2537" style="mask-type:luminance" maskUnits="userSpaceOnUse" x="-201" y="-30" width="799" height="449">
<path d="M-200.998 -30H597.614V419H-200.998V-30Z" fill="white"/>
</mask>
<g mask="url(#mask12_3410_2537)">
<path d="M151.739 283.508C152.124 284.681 152.534 285.847 152.88 287.031C153.018 287.501 153.237 287.638 153.714 287.624C154.969 287.589 156.227 287.612 157.707 287.612C156.549 288.448 155.576 289.19 154.56 289.868C154.091 290.181 153.973 290.47 154.173 291.01C154.592 292.143 154.935 293.303 155.208 294.552C154.282 293.882 153.323 293.252 152.443 292.527C151.87 292.055 151.462 292.053 150.888 292.525C150.006 293.25 149.046 293.881 147.956 294.671C148.355 293.417 148.639 292.308 149.067 291.257C149.363 290.532 149.216 290.141 148.578 289.732C147.626 289.123 146.736 288.417 145.867 287.612C147.141 287.612 148.416 287.593 149.69 287.622C150.117 287.632 150.3 287.487 150.422 287.085C150.787 285.887 151.196 284.702 151.587 283.512C151.638 283.511 151.688 283.509 151.739 283.508Z" fill="black"/>
</g>
<mask id="mask13_3410_2537" style="mask-type:luminance" maskUnits="userSpaceOnUse" x="-201" y="-30" width="799" height="449">
<path d="M-200.998 -30H597.614V419H-200.998V-30Z" fill="white"/>
</mask>
<g mask="url(#mask13_3410_2537)">
<path d="M241.106 294.676C241.558 293.279 241.927 292.057 242.356 290.856C242.502 290.445 242.423 290.229 242.081 289.991C241.037 289.262 240.014 288.503 239.021 287.612C240.268 287.612 241.516 287.589 242.761 287.623C243.234 287.637 243.458 287.507 243.597 287.034C243.945 285.853 244.36 284.692 244.823 283.298C245.003 283.84 245.122 284.192 245.238 284.545C245.516 285.385 245.821 286.218 246.057 287.069C246.182 287.52 246.409 287.631 246.849 287.622C248.108 287.593 249.369 287.612 250.838 287.612C250.059 288.184 249.417 288.647 248.784 289.123C248.248 289.526 247.441 289.855 247.271 290.382C247.101 290.911 247.562 291.649 247.764 292.29C247.992 293.018 248.238 293.741 248.545 294.676C247.368 293.826 246.345 293.122 245.365 292.363C244.956 292.047 244.681 292.059 244.278 292.37C243.3 293.125 242.283 293.827 241.106 294.676Z" fill="black"/>
</g>
<mask id="mask14_3410_2537" style="mask-type:luminance" maskUnits="userSpaceOnUse" x="-201" y="-30" width="799" height="449">
<path d="M-200.998 -30H597.614V419H-200.998V-30Z" fill="white"/>
</mask>
<g mask="url(#mask14_3410_2537)">
<path d="M215.747 287.619H220.103C220.563 286.224 221.012 284.863 221.529 283.296C222.044 284.852 222.493 286.209 222.957 287.608H227.58C226.418 288.448 225.445 289.193 224.426 289.87C223.948 290.186 223.854 290.493 224.044 291.02C224.455 292.155 224.809 293.311 225.257 294.674C224.079 293.826 223.056 293.125 222.076 292.369C221.671 292.057 221.395 292.05 220.987 292.365C220.01 293.122 218.99 293.823 217.817 294.67C218.228 293.4 218.527 292.289 218.953 291.229C219.23 290.538 219.119 290.155 218.487 289.756C217.522 289.146 216.625 288.432 215.699 287.763C215.715 287.715 215.731 287.667 215.747 287.619Z" fill="black"/>
</g>
<mask id="mask15_3410_2537" style="mask-type:luminance" maskUnits="userSpaceOnUse" x="-201" y="-30" width="799" height="449">
<path d="M-200.998 -30H597.614V419H-200.998V-30Z" fill="white"/>
</mask>
<g mask="url(#mask15_3410_2537)">
<path d="M142.348 256.364C143.272 256.31 144.153 256.321 145.012 256.186C145.632 256.089 145.933 255.578 145.9 254.946C145.867 254.313 145.518 253.863 144.881 253.816C144.054 253.754 143.219 253.801 142.348 253.801V256.364ZM142.307 260.091C143.263 260.091 144.123 260.137 144.975 260.078C145.753 260.023 146.195 259.513 146.212 258.817C146.231 258.078 145.797 257.511 145.029 257.434C144.245 257.355 143.451 257.371 142.661 257.383C142.542 257.384 142.327 257.584 142.323 257.698C142.292 258.48 142.307 259.264 142.307 260.091ZM141.016 261.193V252.71C142.513 252.71 143.981 252.625 145.432 252.742C146.336 252.814 147.003 253.41 147.201 254.386C147.386 255.298 147.027 255.971 146.305 256.495C146.217 256.558 146.136 256.63 146.034 256.713C146.116 256.788 146.159 256.843 146.215 256.875C147.303 257.5 147.718 258.236 147.547 259.239C147.375 260.253 146.593 261.083 145.433 261.168C143.978 261.273 142.51 261.193 141.016 261.193Z" fill="black"/>
</g>
<mask id="mask16_3410_2537" style="mask-type:luminance" maskUnits="userSpaceOnUse" x="-201" y="-30" width="799" height="449">
<path d="M-200.998 -30H597.614V419H-200.998V-30Z" fill="white"/>
</mask>
<g mask="url(#mask16_3410_2537)">
<path d="M178.337 258.855V252.677H179.557V261.126C178.404 261.433 178.143 261.338 177.542 260.364C176.441 258.58 175.343 256.794 174.127 254.821V261.18H172.846V252.754C174.008 252.439 174.246 252.527 174.839 253.491C175.95 255.295 177.059 257.099 178.169 258.903C178.224 258.887 178.28 258.871 178.337 258.855Z" fill="black"/>
</g>
<mask id="mask17_3410_2537" style="mask-type:luminance" maskUnits="userSpaceOnUse" x="-201" y="-30" width="799" height="449">
<path d="M-200.998 -30H597.614V419H-200.998V-30Z" fill="white"/>
</mask>
<g mask="url(#mask17_3410_2537)">
<path d="M190.623 256.878C190.592 256.615 190.578 256.262 190.506 255.922C190.224 254.603 189.238 253.732 187.992 253.677C186.671 253.619 185.667 254.373 185.282 255.747C185.017 256.693 185.04 257.642 185.422 258.556C186.02 259.987 187.569 260.614 188.961 259.971C190.238 259.382 190.564 258.243 190.623 256.878ZM183.734 256.969C183.746 253.09 186.749 251.9 189.351 252.737C191.228 253.341 191.863 254.881 192.015 256.707C192.292 260.044 189.288 262.306 186.182 261.089C184.642 260.485 183.745 258.975 183.734 256.969Z" fill="black"/>
</g>
<mask id="mask18_3410_2537" style="mask-type:luminance" maskUnits="userSpaceOnUse" x="-201" y="-30" width="799" height="449">
<path d="M-200.998 -30H597.614V419H-200.998V-30Z" fill="white"/>
</mask>
<g mask="url(#mask18_3410_2537)">
<path d="M229.604 256.647C230.489 256.647 231.303 256.665 232.115 256.642C232.873 256.619 233.374 256.121 233.448 255.375C233.52 254.635 233.059 253.917 232.323 253.85C231.433 253.77 230.531 253.831 229.604 253.831V256.647ZM234.741 261.178C233.35 261.316 233.331 261.3 233.214 260C233.015 257.784 233.015 257.776 230.813 257.787C229.385 257.794 229.591 257.592 229.574 258.994C229.564 259.711 229.572 260.43 229.572 261.188H228.309V252.676C229.058 252.676 229.818 252.675 230.576 252.677C231.207 252.677 231.839 252.658 232.468 252.686C233.604 252.735 234.45 253.379 234.717 254.36C235.03 255.511 234.686 256.363 233.638 257.045C233.562 257.094 233.496 257.158 233.421 257.219C234.337 257.951 234.337 257.951 234.741 261.178Z" fill="black"/>
</g>
<mask id="mask19_3410_2537" style="mask-type:luminance" maskUnits="userSpaceOnUse" x="-201" y="-30" width="799" height="449">
<path d="M-200.998 -30H597.614V419H-200.998V-30Z" fill="white"/>
</mask>
<g mask="url(#mask19_3410_2537)">
<path d="M248.535 258.58C249.251 258.526 249.793 258.331 250.128 259.207C250.556 260.328 252.687 260.597 253.541 259.74C254.032 259.248 253.962 258.406 253.342 258.063C252.942 257.841 252.476 257.735 252.031 257.602C251.451 257.429 250.844 257.329 250.284 257.11C249.206 256.689 248.717 255.876 248.783 254.758C248.845 253.707 249.443 252.961 250.538 252.664C251.504 252.401 252.479 252.38 253.417 252.805C254.318 253.213 254.799 253.93 254.959 254.957C254.28 255.047 253.731 255.245 253.34 254.391C252.942 253.52 251.105 253.383 250.408 254.057C249.873 254.575 250.037 255.544 250.769 255.864C251.276 256.085 251.84 256.176 252.376 256.33C252.868 256.47 253.383 256.564 253.845 256.772C255.288 257.423 255.631 259.323 254.541 260.465C253.006 262.069 249.716 261.579 248.832 259.605C248.696 259.301 248.643 258.96 248.535 258.58Z" fill="black"/>
</g>
<mask id="mask20_3410_2537" style="mask-type:luminance" maskUnits="userSpaceOnUse" x="-201" y="-30" width="799" height="449">
<path d="M-200.998 -30H597.614V419H-200.998V-30Z" fill="white"/>
</mask>
<g mask="url(#mask20_3410_2537)">
<path d="M201.918 254.976C201.249 255.033 200.696 255.243 200.319 254.415C199.912 253.518 198.018 253.374 197.34 254.085C196.851 254.599 197.015 255.542 197.709 255.851C198.214 256.076 198.776 256.175 199.314 256.324C199.74 256.441 200.182 256.516 200.596 256.668C201.54 257.013 202.085 257.682 202.125 258.712C202.166 259.749 201.73 260.538 200.797 260.982C199.544 261.577 198.258 261.58 197.021 260.937C196.107 260.462 195.649 259.655 195.535 258.606C196.237 258.478 196.76 258.376 197.11 259.244C197.548 260.33 199.617 260.579 200.485 259.759C201.032 259.242 200.925 258.338 200.208 258.011C199.642 257.753 199.01 257.646 198.409 257.464C197.964 257.33 197.507 257.217 197.082 257.035C196.134 256.628 195.731 255.858 195.748 254.856C195.766 253.837 196.261 253.109 197.211 252.762C198.274 252.373 199.365 252.342 200.417 252.824C201.313 253.235 201.785 253.959 201.918 254.976Z" fill="black"/>
</g>
<mask id="mask21_3410_2537" style="mask-type:luminance" maskUnits="userSpaceOnUse" x="-201" y="-30" width="799" height="449">
<path d="M-200.998 -30H597.614V419H-200.998V-30Z" fill="white"/>
</mask>
<g mask="url(#mask21_3410_2537)">
<path d="M245.169 260.049V261.181H239.139V252.706H244.956V253.78H240.489V256.313H243.932V257.476H240.491V260.049H245.169Z" fill="black"/>
</g>
<mask id="mask22_3410_2537" style="mask-type:luminance" maskUnits="userSpaceOnUse" x="-201" y="-30" width="799" height="449">
<path d="M-200.998 -30H597.614V419H-200.998V-30Z" fill="white"/>
</mask>
<g mask="url(#mask22_3410_2537)">
<path d="M167.458 257.507H163.995V260.06H168.633V261.174H162.658V252.7H168.451V253.788H164.007V256.336H167.458V257.507Z" fill="black"/>
</g>
<mask id="mask23_3410_2537" style="mask-type:luminance" maskUnits="userSpaceOnUse" x="-201" y="-30" width="799" height="449">
<path d="M-200.998 -30H597.614V419H-200.998V-30Z" fill="white"/>
</mask>
<g mask="url(#mask23_3410_2537)">
<path d="M214.414 254.242C213.909 255.619 213.483 256.782 213.039 257.996H215.782C215.337 256.776 214.911 255.606 214.414 254.242ZM210.443 261.23C211.285 259.054 212.097 256.952 212.911 254.851C213.104 254.352 213.336 253.864 213.487 253.353C213.639 252.839 213.873 252.61 214.462 252.611C215.046 252.613 215.197 252.904 215.367 253.352C216.277 255.746 217.214 258.13 218.139 260.518C218.221 260.731 218.286 260.95 218.364 261.18C218.248 261.202 218.181 261.224 218.113 261.227C217.001 261.271 217.001 261.27 216.61 260.206C216.221 259.146 216.221 259.146 215.115 259.146C214.928 259.146 214.737 259.174 214.556 259.142C213.15 258.896 212.187 259.286 211.955 260.85C211.932 260.999 211.618 261.169 211.414 261.214C211.131 261.276 210.823 261.23 210.443 261.23Z" fill="black"/>
</g>
<mask id="mask24_3410_2537" style="mask-type:luminance" maskUnits="userSpaceOnUse" x="-201" y="-30" width="799" height="449">
<path d="M-200.998 -30H597.614V419H-200.998V-30Z" fill="white"/>
</mask>
<g mask="url(#mask24_3410_2537)">
<path d="M151.447 252.676H152.762V255.85C152.762 256.598 152.761 257.345 152.763 258.093C152.769 259.811 153.845 260.602 155.5 260.107C156.252 259.882 156.634 259.289 156.646 258.228C156.664 256.686 156.651 255.144 156.652 253.603C156.652 253.325 156.652 253.047 156.652 252.703H157.913C157.931 252.85 157.97 253.025 157.971 253.2C157.976 254.859 157.981 256.518 157.972 258.176C157.965 259.383 157.686 260.497 156.467 261.029C155.135 261.61 153.774 261.599 152.515 260.794C151.818 260.35 151.479 259.618 151.462 258.825C151.418 256.799 151.447 254.772 151.447 252.676Z" fill="black"/>
</g>
<mask id="mask25_3410_2537" style="mask-type:luminance" maskUnits="userSpaceOnUse" x="-201" y="-30" width="799" height="449">
<path d="M-200.998 -30H597.614V419H-200.998V-30Z" fill="white"/>
</mask>
<g mask="url(#mask25_3410_2537)">
<path d="M223.46 261.204H222.232V252.703H223.46V261.204Z" fill="black"/>
</g>
</g>
<defs>
<clipPath id="clip0_3410_2537">
<rect width="400" height="400" fill="white"/>
</clipPath>
</defs>
</svg>
