<svg width="84" height="84" viewBox="0 0 84 84" fill="none" xmlns="http://www.w3.org/2000/svg">
<g clip-path="url(#clip0_3311_39726)">
<mask id="mask0_3311_39726" style="mask-type:luminance" maskUnits="userSpaceOnUse" x="0" y="0" width="84" height="84">
<path d="M0 2.28882e-05H83.3125V83.3125H0V2.28882e-05Z" fill="white"/>
</mask>
<g mask="url(#mask0_3311_39726)">
<path d="M7.04928 44.1558L9.45531 37.9151L11.7677 44.1558H7.04928ZM16.8152 48.7286L11.3682 34.674C11.1889 34.689 10.9945 34.6963 10.7854 34.6963C10.5759 34.6963 10.3819 34.689 10.2026 34.674L5.06937 47.9441C4.7703 48.7213 4.46034 49.2667 4.13913 49.5803C3.8176 49.8942 3.49261 50.0887 3.16406 50.1633V50.6116C3.38823 50.5819 3.64596 50.5632 3.9374 50.5555C4.22877 50.5481 4.5388 50.5443 4.86765 50.5443C5.31592 50.5443 5.76426 50.5481 6.21253 50.5555C6.66087 50.5632 7.12388 50.5819 7.60231 50.6116V50.1633C6.97468 50.1486 6.48893 50.0364 6.14534 49.827C5.80137 49.6179 5.62209 49.248 5.60736 48.7175C5.59231 48.1872 5.779 47.4286 6.16771 46.4423L6.87641 44.6041H11.9339L13.2959 48.2803C13.5947 49.0425 13.6395 49.5395 13.4305 49.771C13.221 50.0029 12.7355 50.1335 11.9734 50.1633V50.6116C12.3321 50.5819 12.7951 50.5632 13.3632 50.5555C13.931 50.5481 14.5435 50.5443 15.2013 50.5443C15.769 50.5443 16.3256 50.5481 16.8713 50.5555C17.4166 50.5632 17.8835 50.5819 18.2722 50.6116V50.1633C18.0481 50.1486 17.805 50.0399 17.5437 49.8382C17.2821 49.6364 17.0394 49.2667 16.8152 48.7286Z" fill="black"/>
<path d="M30.7806 34.7413C30.1229 34.7564 29.3982 34.7714 28.6063 34.7861C27.8139 34.8012 27.0221 34.8086 26.2302 34.8086H24.0783H21.9039C21.1117 34.8086 20.3198 34.8012 19.5279 34.7861C18.7356 34.7714 18.0109 34.7564 17.3535 34.7413C17.4131 35.4289 17.4544 36.0975 17.4769 36.7475C17.4992 37.3976 17.5105 37.8945 17.5105 38.2382C17.5105 38.5821 17.5066 38.9033 17.4992 39.202C17.4915 39.5012 17.473 39.7624 17.4432 39.9866H17.9588C18.1528 38.7912 18.3994 37.8536 18.6985 37.1734C18.9972 36.4936 19.3934 36.0043 19.8865 35.7052C20.3797 35.4064 21.0146 35.2569 21.7919 35.2569H22.5315V48.0338C22.5315 48.6468 22.4717 49.1024 22.3523 49.4012C22.2325 49.7004 22.001 49.8982 21.6574 49.9952C21.3134 50.0926 20.8202 50.1486 20.178 50.1634V50.6116C20.5961 50.582 21.1453 50.5633 21.8255 50.5556C22.5053 50.5482 23.2338 50.5444 24.011 50.5444C24.7581 50.5444 25.4904 50.5482 26.2078 50.5556C26.9251 50.5633 27.5078 50.582 27.9562 50.6116V50.1634C27.2984 50.1486 26.7979 50.0926 26.4543 49.9952C26.1104 49.8982 25.8827 49.7004 25.7706 49.4012C25.6586 49.1024 25.6025 48.6468 25.6025 48.0338V35.2569H26.3199C27.1117 35.2569 27.7506 35.4064 28.2364 35.7052C28.7218 36.0043 29.1141 36.4936 29.4132 37.1734C29.7119 37.8536 29.9659 38.7912 30.1753 39.9866H30.6909C30.6759 39.7624 30.6608 39.5012 30.6461 39.202C30.6311 38.9033 30.6237 38.5821 30.6237 38.2382C30.6237 37.8945 30.6348 37.3976 30.6573 36.7475C30.6797 36.0975 30.7207 35.4289 30.7806 34.7413Z" fill="black"/>
<path d="M33.6777 46.7307H34.3322V41.2243H33.6777V46.7307Z" fill="#231F20"/>
<path d="M39.6903 45.4068L35.6621 41.0062V46.7307H36.2865V42.5934L40.3147 46.9451V41.2243H39.6903V45.4068Z" fill="#231F20"/>
<path d="M43.2051 45.437L41.5878 41.2245H40.877L43.2051 46.9453L45.522 41.2245H44.8149L43.2051 45.437Z" fill="#231F20"/>
<path d="M46.0996 46.7307H49.0033V46.1215H46.754V44.0113H49.0033V43.4021H46.754V41.8223H49.0033V41.2243H46.0996V46.7307Z" fill="#231F20"/>
<path d="M50.7527 43.6202V41.7772H51.2529C51.7544 41.7772 52.0942 41.8481 52.2722 41.9897C52.4503 42.1314 52.5392 42.379 52.5392 42.7326C52.5392 43.0611 52.4527 43.2911 52.2797 43.4227C52.1068 43.5543 51.7644 43.6202 51.2529 43.6202H50.7527ZM51.7005 44.1054C52.187 44.1054 52.5563 43.9882 52.8082 43.7537C53.0602 43.5192 53.1862 43.1764 53.1862 42.7251C53.1862 42.4643 53.1412 42.2267 53.0507 42.0123C52.9605 41.7979 52.8339 41.6268 52.6709 41.4989C52.5406 41.3986 52.3894 41.3277 52.2177 41.2864C52.0459 41.245 51.7758 41.2243 51.4071 41.2243H50.1133V46.7307H50.7527V44.1054H50.8467L52.8552 46.7307H53.6864L51.5839 44.1054H51.7005Z" fill="#231F20"/>
<path d="M56.2408 43.6729L55.4548 43.327C55.2014 43.2166 55.0146 43.09 54.8943 42.9471C54.7739 42.8041 54.7138 42.6349 54.7138 42.4393C54.7138 42.2061 54.7921 42.0143 54.9488 41.8639C55.1055 41.7134 55.3067 41.6382 55.5525 41.6382C55.7455 41.6382 55.9185 41.6902 56.0716 41.7942C56.2244 41.8984 56.3623 42.057 56.4853 42.27L57.0268 41.924C56.8915 41.6507 56.7028 41.4438 56.4609 41.3034C56.2189 41.163 55.9324 41.0928 55.6014 41.0928C55.15 41.0928 54.7789 41.2207 54.488 41.4765C54.1972 41.7322 54.0518 42.0556 54.0518 42.4468C54.0518 42.7829 54.1414 43.0711 54.3207 43.3119C54.5 43.5526 54.7727 43.7494 55.1388 43.9024L55.8083 44.1882C56.0941 44.3137 56.3078 44.4672 56.4495 44.6489C56.5911 44.8308 56.662 45.0446 56.662 45.2903C56.662 45.5937 56.5605 45.8401 56.3574 46.0293C56.1543 46.2187 55.8885 46.3134 55.5601 46.3134C55.2817 46.3134 55.0503 46.2274 54.8661 46.0557C54.6818 45.8839 54.5495 45.6313 54.4693 45.2978L53.875 45.5912C53.9778 46 54.1759 46.3152 54.4693 46.5371C54.7627 46.759 55.1262 46.8699 55.5601 46.8699C56.0916 46.8699 56.5185 46.7152 56.8407 46.4054C57.1628 46.0958 57.324 45.6878 57.324 45.1813C57.324 44.8351 57.2331 44.5357 57.0514 44.2822C56.8695 44.0291 56.5993 43.826 56.2408 43.6729Z" fill="#231F20"/>
<path d="M58.2031 46.7307H58.8575V41.2243H58.2031V46.7307Z" fill="#231F20"/>
<path d="M64.9697 44.8577C64.8568 45.131 64.6925 45.3756 64.4766 45.5912C64.2583 45.8093 64.013 45.9754 63.7407 46.0894C63.4684 46.2036 63.1817 46.2606 62.8806 46.2606C62.5769 46.2606 62.2902 46.2042 62.0205 46.0914C61.7507 45.9785 61.5054 45.8117 61.2845 45.5912C61.0662 45.3706 60.9011 45.1247 60.7895 44.854C60.6778 44.5832 60.6221 44.2948 60.6221 43.9888C60.6221 43.6804 60.6784 43.3884 60.7914 43.1126C60.9043 42.8367 61.0687 42.5898 61.2845 42.3715C61.4953 42.156 61.7375 41.9918 62.0111 41.8789C62.2844 41.7661 62.5744 41.7096 62.8806 41.7096C63.1842 41.7096 63.4722 41.7661 63.7445 41.8789C64.0167 41.9918 64.2609 42.156 64.4766 42.3715C64.6899 42.5848 64.8537 42.8305 64.9679 43.1088C65.082 43.3871 65.1391 43.6804 65.1391 43.9888C65.1391 44.2948 65.0827 44.5844 64.9697 44.8577ZM64.9694 41.939C64.6933 41.6708 64.374 41.4639 64.0116 41.3185C63.6489 41.1731 63.272 41.1003 62.8806 41.1003C62.4916 41.1003 62.1167 41.1731 61.7553 41.3185C61.3939 41.4639 61.0753 41.6708 60.7992 41.939C60.5183 42.2123 60.3044 42.5239 60.1576 42.8737C60.0109 43.2234 59.9375 43.5953 59.9375 43.9888C59.9375 44.3801 60.0109 44.75 60.1576 45.0985C60.3044 45.447 60.5183 45.758 60.7992 46.0313C61.0778 46.302 61.3971 46.5107 61.7571 46.6574C62.1171 46.8042 62.4916 46.8774 62.8806 46.8774C63.2695 46.8774 63.6451 46.8042 64.0078 46.6574C64.3703 46.5107 64.6909 46.302 64.9694 46.0313C65.2478 45.7604 65.4599 45.4507 65.6054 45.1023C65.7509 44.7536 65.8237 44.3825 65.8237 43.9888C65.8237 43.5928 65.7509 43.2197 65.6054 42.87C65.4599 42.5201 65.2478 42.2099 64.9694 41.939Z" fill="#231F20"/>
<path d="M70.9208 45.4068L66.8926 41.0062V46.7307H67.517V42.5934L71.5452 46.9451V41.2243H70.9208V45.4068Z" fill="#231F20"/>
<path d="M72.8613 46.7307H75.765V46.1215H73.5158V44.0113H75.765V43.4021H73.5158V41.8223H75.765V41.2243H72.8613V46.7307Z" fill="#231F20"/>
<path d="M79.69 44.2822C79.5082 44.0291 79.2381 43.826 78.8794 43.6729L78.0934 43.3269C77.8401 43.2166 77.6534 43.09 77.5329 42.947C77.4127 42.8041 77.3524 42.6349 77.3524 42.4392C77.3524 42.2061 77.4308 42.0143 77.5875 41.8638C77.7442 41.7134 77.9454 41.6382 78.1912 41.6382C78.3842 41.6382 78.5572 41.6902 78.7103 41.7942C78.8631 41.8984 79.001 42.0569 79.124 42.27L79.6656 41.924C79.5302 41.6507 79.3414 41.4438 79.0995 41.3034C78.8575 41.163 78.571 41.0928 78.2401 41.0928C77.7887 41.0928 77.4176 41.2206 77.1267 41.4764C76.8359 41.7322 76.6905 42.0556 76.6905 42.4468C76.6905 42.7828 76.78 43.0711 76.9595 43.3119C77.1387 43.5526 77.4114 43.7494 77.7775 43.9023L78.447 44.1881C78.7328 44.3136 78.9465 44.4672 79.0882 44.6489C79.2298 44.8307 79.3007 45.0446 79.3007 45.2903C79.3007 45.5937 79.1992 45.84 78.9961 46.0293C78.793 46.2187 78.5272 46.3133 78.1987 46.3133C77.9204 46.3133 77.6891 46.2274 77.5048 46.0556C77.3205 45.8839 77.1882 45.6312 77.108 45.2978L76.5137 45.5912C76.6165 46 76.8146 46.3152 77.108 46.537C77.4013 46.7589 77.7649 46.8699 78.1987 46.8699C78.7303 46.8699 79.1571 46.7151 79.4794 46.4053C79.8015 46.0958 79.9627 45.6878 79.9627 45.1812C79.9627 44.8351 79.8718 44.5356 79.69 44.2822Z" fill="#231F20"/>
</g>
</g>
<defs>
<clipPath id="clip0_3311_39726">
<rect width="83.3125" height="83.3125" fill="white"/>
</clipPath>
</defs>
</svg>
