<svg width="400" height="400" viewBox="0 0 400 400" fill="none" xmlns="http://www.w3.org/2000/svg">
<g clip-path="url(#clip0_3410_2406)">
<rect width="400" height="400" fill="white"/>
<path d="M86.4258 89.3752V89.5356L141.703 142.766L139.889 144.658L86.4258 93.1742V275.402H144.301V89.3752H86.4258Z" fill="black"/>
<mask id="mask0_3410_2406" style="mask-type:luminance" maskUnits="userSpaceOnUse" x="-94" y="-94" width="588" height="588">
<path d="M-93.0039 -93.0002H493.663V493.667H-93.0039V-93.0002Z" fill="white"/>
</mask>
<g mask="url(#mask0_3410_2406)">
<path d="M88.0626 302.026C89.0497 302.746 90.4574 303.291 91.9693 303.291C94.2117 303.291 95.5277 301.941 95.5277 299.984C95.5277 298.199 94.619 297.135 92.3274 296.155C89.5522 295.004 87.8374 293.334 87.8374 290.629C87.8374 287.608 90.0323 285.363 93.3288 285.363C95.0441 285.363 96.3258 285.823 97.062 286.313L96.4592 288.356C95.927 287.983 94.7921 287.434 93.2589 287.434C90.9415 287.434 90.0586 289.017 90.0586 290.343C90.0586 292.155 91.0859 293.048 93.4325 294.083C96.304 295.35 97.7414 296.933 97.7414 299.783C97.7414 302.776 95.8233 305.396 91.8175 305.396C90.1841 305.396 88.3914 304.82 87.4902 304.128L88.0626 302.026Z" fill="black"/>
</g>
<mask id="mask1_3410_2406" style="mask-type:luminance" maskUnits="userSpaceOnUse" x="-94" y="-94" width="588" height="588">
<path d="M-93.0039 -93.0002H493.663V493.667H-93.0039V-93.0002Z" fill="white"/>
</mask>
<g mask="url(#mask1_3410_2406)">
<path d="M102.881 299.408C102.881 299.783 102.911 300.128 102.981 300.446C103.387 302.201 104.725 303.408 106.306 303.408C108.65 303.408 110.013 301.222 110.013 298.025C110.013 295.263 108.731 292.874 106.384 292.874C104.869 292.874 103.435 294.082 103.036 295.984C102.959 296.299 102.881 296.673 102.881 296.99V299.408ZM100.69 295.696C100.69 293.91 100.641 292.473 100.59 291.147H102.552L102.678 293.537H102.733C103.609 291.839 105.072 290.86 107.064 290.86C110.039 290.86 112.253 293.709 112.253 297.911C112.253 302.92 109.563 305.396 106.691 305.396C105.072 305.396 103.665 304.588 102.928 303.207H102.881V310.777H100.69V295.696Z" fill="black"/>
</g>
<mask id="mask2_3410_2406" style="mask-type:luminance" maskUnits="userSpaceOnUse" x="-94" y="-94" width="588" height="588">
<path d="M-93.0039 -93.0002H493.663V493.667H-93.0039V-93.0002Z" fill="white"/>
</mask>
<g mask="url(#mask2_3410_2406)">
<path d="M116.413 298.14C116.413 301.194 117.925 303.495 120.094 303.495C122.212 303.495 123.793 301.222 123.793 298.082C123.793 295.725 122.762 292.759 120.146 292.759C117.548 292.759 116.413 295.521 116.413 298.14ZM126.062 297.998C126.062 303.149 122.91 305.396 119.987 305.396C116.712 305.396 114.145 302.631 114.145 298.227C114.145 293.594 116.846 290.86 120.194 290.86C123.693 290.86 126.062 293.764 126.062 297.998Z" fill="black"/>
</g>
<mask id="mask3_3410_2406" style="mask-type:luminance" maskUnits="userSpaceOnUse" x="-94" y="-94" width="588" height="588">
<path d="M-93.0039 -93.0002H493.663V493.667H-93.0039V-93.0002Z" fill="white"/>
</mask>
<g mask="url(#mask3_3410_2406)">
<path d="M128.866 295.496C128.866 293.853 128.836 292.443 128.758 291.146H130.702L130.805 293.91H130.883C131.437 292.041 132.793 290.86 134.286 290.86C134.509 290.86 134.686 290.889 134.889 290.919V293.306C134.656 293.251 134.431 293.251 134.131 293.251C132.568 293.251 131.463 294.572 131.153 296.472C131.105 296.817 131.079 297.25 131.079 297.652V305.079H128.866V295.496Z" fill="black"/>
</g>
<mask id="mask4_3410_2406" style="mask-type:luminance" maskUnits="userSpaceOnUse" x="-94" y="-94" width="588" height="588">
<path d="M-93.0039 -93.0002H493.663V493.667H-93.0039V-93.0002Z" fill="white"/>
</mask>
<g mask="url(#mask4_3410_2406)">
<path d="M140.376 287.809V291.146H143.55V293.075H140.376V300.589C140.376 302.316 140.805 303.291 142.047 303.291C142.645 303.291 143 303.236 143.324 303.122L143.432 305.049C143 305.222 142.316 305.396 141.462 305.396C140.428 305.396 139.6 304.99 139.068 304.33C138.466 303.554 138.215 302.316 138.215 300.673V293.075H136.322V291.146H138.215V288.557L140.376 287.809Z" fill="black"/>
</g>
<mask id="mask5_3410_2406" style="mask-type:luminance" maskUnits="userSpaceOnUse" x="-94" y="-94" width="588" height="588">
<path d="M-93.0039 -93.0002H493.663V493.667H-93.0039V-93.0002Z" fill="white"/>
</mask>
<g mask="url(#mask5_3410_2406)">
<path d="M145.749 302.516C146.429 302.977 147.586 303.495 148.698 303.495C150.284 303.495 151.037 302.602 151.037 301.424C151.037 300.213 150.405 299.581 148.794 298.89C146.577 297.97 145.546 296.617 145.546 294.947C145.546 292.7 147.157 290.86 149.755 290.86C150.985 290.86 152.072 291.235 152.726 291.723L152.198 293.565C151.717 293.219 150.834 292.731 149.707 292.731C148.391 292.731 147.69 293.594 147.69 294.631C147.69 295.78 148.391 296.299 149.977 297.018C152.072 297.911 153.18 299.119 153.18 301.194C153.18 303.669 151.491 305.396 148.642 305.396C147.313 305.396 146.074 304.989 145.217 304.415L145.749 302.516Z" fill="black"/>
</g>
<mask id="mask6_3410_2406" style="mask-type:luminance" maskUnits="userSpaceOnUse" x="-94" y="-94" width="588" height="588">
<path d="M-93.0039 -93.0002H493.663V493.667H-93.0039V-93.0002Z" fill="white"/>
</mask>
<g mask="url(#mask6_3410_2406)">
<path d="M102.656 327.161C102.531 324.456 102.375 321.176 102.375 318.785H102.327C101.725 321.03 101.037 323.476 100.184 326.154L97.1871 335.565H95.5274L92.7482 326.327C91.9501 323.565 91.2924 321.089 90.8083 318.785H90.7601C90.7086 321.204 90.5825 324.428 90.4347 327.364L89.9804 335.681H87.8887L89.0712 316.283H91.8727L94.766 325.666C95.4718 328.053 96.0264 330.184 96.4807 332.198H96.5328C96.9837 330.243 97.5933 328.112 98.3433 325.666L101.367 316.283H104.164L105.225 335.681H103.055L102.656 327.161Z" fill="black"/>
</g>
<mask id="mask7_3410_2406" style="mask-type:luminance" maskUnits="userSpaceOnUse" x="-94" y="-94" width="588" height="588">
<path d="M-93.0039 -93.0002H493.663V493.667H-93.0039V-93.0002Z" fill="white"/>
</mask>
<g mask="url(#mask7_3410_2406)">
<path d="M115.102 328.572C112.686 328.513 109.94 329.003 109.94 331.71C109.94 333.379 110.893 334.127 112.006 334.127C113.617 334.127 114.648 332.974 115.003 331.797C115.073 331.509 115.102 331.219 115.102 330.988V328.572ZM117.246 332.342C117.246 333.55 117.294 334.731 117.419 335.681H115.432L115.258 333.927H115.18C114.5 335.019 113.188 335.997 111.448 335.997C108.982 335.997 107.723 334.012 107.723 331.997C107.723 328.63 110.343 326.788 115.054 326.816V326.527C115.054 325.405 114.774 323.304 112.279 323.334C111.126 323.334 109.94 323.708 109.079 324.369L108.576 322.671C109.585 321.952 111.071 321.46 112.608 321.46C116.34 321.46 117.246 324.369 117.246 327.133V332.342Z" fill="black"/>
</g>
<mask id="mask8_3410_2406" style="mask-type:luminance" maskUnits="userSpaceOnUse" x="-94" y="-94" width="588" height="588">
<path d="M-93.0039 -93.0002H493.663V493.667H-93.0039V-93.0002Z" fill="white"/>
</mask>
<g mask="url(#mask8_3410_2406)">
<path d="M120.826 326.098C120.826 324.456 120.804 323.046 120.727 321.751H122.667L122.763 324.515H122.841C123.395 322.643 124.755 321.461 126.236 321.461C126.469 321.461 126.643 321.494 126.846 321.52V323.909C126.621 323.852 126.392 323.852 126.093 323.852C124.529 323.852 123.42 325.176 123.121 327.076C123.066 327.421 123.044 327.852 123.044 328.256V335.681H120.826V326.098Z" fill="black"/>
</g>
<mask id="mask9_3410_2406" style="mask-type:luminance" maskUnits="userSpaceOnUse" x="-94" y="-94" width="588" height="588">
<path d="M-93.0039 -93.0002H493.663V493.667H-93.0039V-93.0002Z" fill="white"/>
</mask>
<g mask="url(#mask9_3410_2406)">
<path d="M131.355 328.142H131.407C131.706 327.651 132.113 327.046 132.472 326.558L136.071 321.751H138.717L134.024 327.478L139.397 335.681H136.673L132.493 329.003L131.355 330.444V335.681H129.164V315.247H131.355V328.142Z" fill="black"/>
</g>
<mask id="mask10_3410_2406" style="mask-type:luminance" maskUnits="userSpaceOnUse" x="-94" y="-94" width="588" height="588">
<path d="M-93.0039 -93.0002H493.663V493.667H-93.0039V-93.0002Z" fill="white"/>
</mask>
<g mask="url(#mask10_3410_2406)">
<path d="M148.72 327.364C148.746 325.781 148.135 323.275 145.641 323.275C143.376 323.275 142.423 325.607 142.241 327.364H148.72ZM142.22 329.177C142.267 332.601 144.159 334.012 146.403 334.012C147.988 334.012 148.968 333.696 149.773 333.292L150.183 335.104C149.396 335.509 148.04 335.997 146.099 335.997C142.346 335.997 140.105 333.149 140.105 328.945C140.105 324.746 142.267 321.46 145.819 321.46C149.825 321.46 150.86 325.435 150.86 327.998C150.86 328.513 150.83 328.89 150.782 329.177H142.22Z" fill="black"/>
</g>
<mask id="mask11_3410_2406" style="mask-type:luminance" maskUnits="userSpaceOnUse" x="-94" y="-94" width="588" height="588">
<path d="M-93.0039 -93.0002H493.663V493.667H-93.0039V-93.0002Z" fill="white"/>
</mask>
<g mask="url(#mask11_3410_2406)">
<path d="M156.283 318.412V321.751H159.457V323.68H156.283V331.191C156.283 332.918 156.711 333.895 157.942 333.895C158.555 333.895 158.903 333.84 159.231 333.724L159.331 335.653C158.903 335.827 158.222 335.997 157.361 335.997C156.33 335.997 155.499 335.594 154.974 334.932C154.364 334.156 154.113 332.918 154.113 331.278V323.68H152.225V321.751H154.113V319.16L156.283 318.412Z" fill="black"/>
</g>
<mask id="mask12_3410_2406" style="mask-type:luminance" maskUnits="userSpaceOnUse" x="-94" y="-94" width="588" height="588">
<path d="M-93.0039 -93.0002H493.663V493.667H-93.0039V-93.0002Z" fill="white"/>
</mask>
<g mask="url(#mask12_3410_2406)">
<path d="M161.945 321.751H164.166V335.681H161.945V321.751ZM164.421 317.837C164.421 318.698 163.886 319.391 163.006 319.391C162.196 319.391 161.672 318.698 161.672 317.837C161.672 316.972 162.226 316.253 163.054 316.253C163.867 316.253 164.421 316.945 164.421 317.837Z" fill="black"/>
</g>
<mask id="mask13_3410_2406" style="mask-type:luminance" maskUnits="userSpaceOnUse" x="-94" y="-94" width="588" height="588">
<path d="M-93.0039 -93.0002H493.663V493.667H-93.0039V-93.0002Z" fill="white"/>
</mask>
<g mask="url(#mask13_3410_2406)">
<path d="M167.848 325.522C167.848 324.053 167.826 322.902 167.748 321.751H169.714L169.832 324.053H169.888C170.49 322.759 171.906 321.461 173.923 321.461C175.605 321.461 178.229 322.616 178.229 327.392V335.68H176.011V327.65C176.011 325.405 175.284 323.536 173.188 323.536C171.75 323.536 170.62 324.714 170.221 326.126C170.113 326.444 170.065 326.876 170.065 327.305V335.68H167.848V325.522Z" fill="black"/>
</g>
<mask id="mask14_3410_2406" style="mask-type:luminance" maskUnits="userSpaceOnUse" x="-94" y="-94" width="588" height="588">
<path d="M-93.0039 -93.0002H493.663V493.667H-93.0039V-93.0002Z" fill="white"/>
</mask>
<g mask="url(#mask14_3410_2406)">
<path d="M190.047 327.247C190.047 326.816 190.025 326.444 189.918 326.126C189.523 324.629 188.454 323.421 186.821 323.421C184.712 323.421 183.196 325.463 183.196 328.687C183.196 331.42 184.43 333.696 186.795 333.696C188.181 333.696 189.415 332.717 189.87 331.104C189.996 330.674 190.047 330.184 190.047 329.751V327.247ZM192.268 333.639C192.268 336.862 191.684 338.789 190.528 340.027C189.319 341.264 187.601 341.697 186.071 341.697C184.604 341.697 182.993 341.293 182.006 340.546L182.564 338.589C183.37 339.193 184.634 339.711 186.145 339.711C188.41 339.711 190.073 338.356 190.073 334.818V333.292H190.025C189.367 334.589 188.037 335.626 186.145 335.626C183.122 335.626 180.949 332.687 180.949 328.832C180.949 324.112 183.647 321.46 186.466 321.46C188.591 321.46 189.718 322.7 190.276 323.852H190.328L190.402 321.751H192.364C192.294 322.73 192.268 323.882 192.268 325.55V333.639Z" fill="black"/>
</g>
<mask id="mask15_3410_2406" style="mask-type:luminance" maskUnits="userSpaceOnUse" x="-94" y="-94" width="588" height="588">
<path d="M-93.0039 -93.0002H493.663V493.667H-93.0039V-93.0002Z" fill="white"/>
</mask>
<g mask="url(#mask15_3410_2406)">
<path d="M213.178 335.077C212.398 335.537 210.761 335.997 208.695 335.997C203.905 335.997 200.328 332.543 200.328 326.154C200.328 320.053 203.935 315.965 209.201 315.965C211.293 315.965 212.653 316.484 213.233 316.828L212.675 318.872C211.866 318.412 210.686 318.066 209.279 318.066C205.291 318.066 202.645 320.973 202.645 326.067C202.645 330.845 205.04 333.868 209.149 333.868C210.509 333.868 211.866 333.55 212.748 333.062L213.178 335.077Z" fill="black"/>
</g>
<mask id="mask16_3410_2406" style="mask-type:luminance" maskUnits="userSpaceOnUse" x="-94" y="-94" width="588" height="588">
<path d="M-93.0039 -93.0002H493.663V493.667H-93.0039V-93.0002Z" fill="white"/>
</mask>
<g mask="url(#mask16_3410_2406)">
<path d="M216.988 328.744C216.988 331.797 218.503 334.097 220.664 334.097C222.782 334.097 224.371 331.824 224.371 328.687C224.371 326.327 223.34 323.362 220.712 323.362C218.122 323.362 216.988 326.126 216.988 328.744ZM226.64 328.6C226.64 333.752 223.488 335.997 220.565 335.997C217.291 335.997 214.719 333.234 214.719 328.831C214.719 324.199 217.416 321.46 220.764 321.46C224.272 321.46 226.64 324.369 226.64 328.6Z" fill="black"/>
</g>
<mask id="mask17_3410_2406" style="mask-type:luminance" maskUnits="userSpaceOnUse" x="-94" y="-94" width="588" height="588">
<path d="M-93.0039 -93.0002H493.663V493.667H-93.0039V-93.0002Z" fill="white"/>
</mask>
<g mask="url(#mask17_3410_2406)">
<path d="M229.431 325.522C229.431 324.053 229.412 322.902 229.338 321.751H231.297L231.422 324.053H231.478C232.08 322.759 233.496 321.461 235.513 321.461C237.198 321.461 239.822 322.616 239.822 327.392V335.68H237.598V327.65C237.598 325.405 236.873 323.536 234.778 323.536C233.34 323.536 232.205 324.714 231.811 326.126C231.703 326.444 231.655 326.876 231.655 327.305V335.68H229.431V325.522Z" fill="black"/>
</g>
<mask id="mask18_3410_2406" style="mask-type:luminance" maskUnits="userSpaceOnUse" x="-94" y="-94" width="588" height="588">
<path d="M-93.0039 -93.0002H493.663V493.667H-93.0039V-93.0002Z" fill="white"/>
</mask>
<g mask="url(#mask18_3410_2406)">
<path d="M243.118 333.118C243.806 333.582 244.958 334.097 246.067 334.097C247.656 334.097 248.414 333.207 248.414 332.026C248.414 330.818 247.782 330.183 246.171 329.493C243.95 328.572 242.911 327.22 242.911 325.55C242.911 323.304 244.53 321.46 247.124 321.46C248.358 321.46 249.441 321.837 250.099 322.327L249.567 324.167C249.094 323.823 248.21 323.334 247.076 323.334C245.764 323.334 245.058 324.199 245.058 325.233C245.058 326.385 245.764 326.902 247.353 327.623C249.441 328.513 250.553 329.722 250.553 331.797C250.553 334.273 248.861 335.997 246.019 335.997C244.682 335.997 243.447 335.594 242.586 335.019L243.118 333.118Z" fill="black"/>
</g>
<mask id="mask19_3410_2406" style="mask-type:luminance" maskUnits="userSpaceOnUse" x="-94" y="-94" width="588" height="588">
<path d="M-93.0039 -93.0002H493.663V493.667H-93.0039V-93.0002Z" fill="white"/>
</mask>
<g mask="url(#mask19_3410_2406)">
<path d="M263.603 331.852C263.603 333.321 263.633 334.589 263.707 335.681H261.741L261.615 333.406H261.567C261.013 334.53 259.705 335.997 257.531 335.997C255.621 335.997 253.326 334.761 253.326 329.897V321.751H255.543V329.435C255.543 332.085 256.279 333.895 258.268 333.895C259.753 333.895 260.784 332.717 261.187 331.566C261.312 331.219 261.39 330.76 261.39 330.271V321.751H263.603V331.852Z" fill="black"/>
</g>
<mask id="mask20_3410_2406" style="mask-type:luminance" maskUnits="userSpaceOnUse" x="-94" y="-94" width="588" height="588">
<path d="M-93.0039 -93.0002H493.663V493.667H-93.0039V-93.0002Z" fill="white"/>
</mask>
<g mask="url(#mask20_3410_2406)">
<path d="M267.287 315.247H269.508V335.681H267.287V315.247Z" fill="black"/>
</g>
<mask id="mask21_3410_2406" style="mask-type:luminance" maskUnits="userSpaceOnUse" x="-94" y="-94" width="588" height="588">
<path d="M-93.0039 -93.0002H493.663V493.667H-93.0039V-93.0002Z" fill="white"/>
</mask>
<g mask="url(#mask21_3410_2406)">
<path d="M275.909 318.412V321.751H279.08V323.68H275.909V331.191C275.909 332.918 276.334 333.895 277.568 333.895C278.17 333.895 278.53 333.84 278.858 333.724L278.954 335.653C278.53 335.827 277.85 335.997 276.984 335.997C275.957 335.997 275.125 335.594 274.594 334.932C273.991 334.156 273.737 332.918 273.737 331.278V323.68H271.848V321.751H273.737V319.16L275.909 318.412Z" fill="black"/>
</g>
<mask id="mask22_3410_2406" style="mask-type:luminance" maskUnits="userSpaceOnUse" x="-94" y="-94" width="588" height="588">
<path d="M-93.0039 -93.0002H493.663V493.667H-93.0039V-93.0002Z" fill="white"/>
</mask>
<g mask="url(#mask22_3410_2406)">
<path d="M281.574 321.751H283.795V335.681H281.574V321.751ZM284.039 317.837C284.039 318.698 283.514 319.391 282.631 319.391C281.825 319.391 281.293 318.698 281.293 317.837C281.293 316.972 281.855 316.253 282.679 316.253C283.488 316.253 284.039 316.945 284.039 317.837Z" fill="black"/>
</g>
<mask id="mask23_3410_2406" style="mask-type:luminance" maskUnits="userSpaceOnUse" x="-94" y="-94" width="588" height="588">
<path d="M-93.0039 -93.0002H493.663V493.667H-93.0039V-93.0002Z" fill="white"/>
</mask>
<g mask="url(#mask23_3410_2406)">
<path d="M287.473 325.522C287.473 324.053 287.443 322.902 287.373 321.751H289.335L289.461 324.053H289.513C290.119 322.759 291.527 321.461 293.545 321.461C295.229 321.461 297.857 322.616 297.857 327.392V335.68H295.64V327.65C295.64 325.405 294.909 323.536 292.817 323.536C291.379 323.536 290.245 324.714 289.842 326.126C289.742 326.444 289.69 326.876 289.69 327.305V335.68H287.473V325.522Z" fill="black"/>
</g>
<mask id="mask24_3410_2406" style="mask-type:luminance" maskUnits="userSpaceOnUse" x="-94" y="-94" width="588" height="588">
<path d="M-93.0039 -93.0002H493.663V493.667H-93.0039V-93.0002Z" fill="white"/>
</mask>
<g mask="url(#mask24_3410_2406)">
<path d="M309.671 327.247C309.671 326.816 309.645 326.444 309.545 326.126C309.139 324.629 308.085 323.421 306.445 323.421C304.327 323.421 302.823 325.463 302.823 328.687C302.823 331.42 304.053 333.696 306.422 333.696C307.808 333.696 309.042 332.717 309.497 331.104C309.623 330.674 309.671 330.184 309.671 329.751V327.247ZM311.891 333.639C311.891 336.862 311.311 338.789 310.144 340.027C308.943 341.264 307.228 341.697 305.695 341.697C304.231 341.697 302.62 341.293 301.633 340.546L302.187 338.589C302.993 339.193 304.249 339.711 305.765 339.711C308.033 339.711 309.693 338.356 309.693 334.818V333.292H309.645C308.994 334.589 307.656 335.626 305.765 335.626C302.745 335.626 300.572 332.687 300.572 328.832C300.572 324.112 303.27 321.46 306.093 321.46C308.207 321.46 309.341 322.7 309.896 323.852H309.951L310.029 321.751H311.988C311.914 322.73 311.891 323.882 311.891 325.55V333.639Z" fill="black"/>
</g>
<mask id="mask25_3410_2406" style="mask-type:luminance" maskUnits="userSpaceOnUse" x="-94" y="-94" width="588" height="588">
<path d="M-93.0039 -93.0002H493.663V493.667H-93.0039V-93.0002Z" fill="white"/>
</mask>
<g mask="url(#mask25_3410_2406)">
<path d="M221.578 242.933C207.878 242.933 196.773 217.484 196.773 186.094C196.773 154.699 207.878 129.254 221.578 129.254C235.277 129.254 246.382 154.699 246.382 186.094C246.382 217.484 235.277 242.933 221.578 242.933ZM289.257 250.88C302.469 233.203 310.458 210.304 310.458 185.265C310.458 129.329 270.661 83.9834 221.578 83.9834C172.494 83.9834 132.697 129.329 132.697 185.265C132.697 241.201 172.494 286.544 221.578 286.544C237.634 286.544 252.687 281.665 265.687 273.177L291.194 298.336L313.961 275.25L289.257 250.88Z" fill="black"/>
</g>
</g>
<defs>
<clipPath id="clip0_3410_2406">
<rect width="400" height="400" fill="white"/>
</clipPath>
</defs>
</svg>
