<svg width="400" height="400" viewBox="0 0 400 400" fill="none" xmlns="http://www.w3.org/2000/svg">
<rect width="400" height="400" fill="white"/>
<g clip-path="url(#clip0_3410_2525)">
<path d="M342.763 199.998C342.763 278.844 278.846 342.761 200 342.761C121.154 342.761 57.2365 278.844 57.2363 199.998C57.2363 121.152 121.154 57.2349 200 57.2349C278.846 57.2349 342.763 121.152 342.763 199.998Z" fill="black"/>
<path d="M199.444 99.7957C187.251 100.025 175.554 102.195 164.679 105.991V184.364H199.444V99.7957ZM136.209 123.153C118.08 138.54 105.295 159.761 100.948 183.804H136.209V123.153ZM163.449 212.17V294.105C174.61 297.894 186.613 300.061 199.127 300.29V212.17H163.449ZM100.834 212.393C104.448 237.997 117.503 260.645 136.432 276.834V212.393H100.834Z" fill="white"/>
<path d="M201.975 100.805C255.843 101.858 299.196 145.88 299.196 200C299.196 254.121 255.843 298.118 201.975 299.171V100.805Z" fill="white"/>
<path d="M162.09 107.235V186.586H198.901V210.01H162.09V292.97C153.646 289.484 145.711 284.873 138.502 279.262V210.01H100.152C99.8281 206.721 99.6659 203.418 99.666 200.113C99.6654 195.588 99.9698 191.069 100.577 186.586H138.502V120.948C145.711 115.335 153.645 110.723 162.09 107.235Z" fill="black"/>
<path d="M227.086 134.211H261.211V138.973H227.086V134.211Z" fill="white"/>
<path d="M200.417 50.0019C148.483 49.9192 97.9161 76.8273 70.102 125.002C28.7044 196.705 53.3019 288.499 125.004 329.896C196.707 371.294 288.501 346.696 329.898 274.993C371.296 203.291 346.698 111.497 274.996 70.0999C251.468 56.5163 225.78 50.0422 200.417 50.0019ZM200 57.2335C278.805 57.2335 342.764 121.193 342.764 199.998C342.764 278.803 278.805 342.762 200 342.762C121.195 342.762 57.2356 278.803 57.2356 199.998C57.2356 121.193 121.195 57.2335 200 57.2335ZM191.404 62.2332V91.8248H200.422V81.8553L207.703 91.8248L219.567 93.5609L209.285 80.273C211.541 79.8041 215.773 77.4084 215.773 72.3617C215.773 64.8063 208.969 62.3921 204.697 62.3921L191.404 62.2332ZM202.797 68.7209C205.25 68.7209 206.989 70.3834 207.068 72.203C207.147 74.0227 205.888 75.9973 203.115 75.9973H200.263L200.109 68.8797L202.797 68.7209ZM245.305 70.4024C245.145 70.4015 244.983 70.4042 244.824 70.4074C237.044 70.5658 230.467 75.2826 228.892 82.986C227.324 90.6584 234.292 99.7372 242.81 101.67C252.052 103.768 260.676 99.3799 262.62 89.4191C264.285 80.8898 258.016 72.5147 248.707 70.7396C247.562 70.5213 246.425 70.4093 245.305 70.4024ZM136.184 78.2145L128.114 82.4851L131.909 115.871L140.455 109.542L139.349 104.483L148.684 98.9425L152.954 102.107L162.765 98.154L136.184 78.2145ZM245.513 78.5815C246.062 78.5831 246.618 78.6332 247.18 78.7402C251.671 79.5967 254.522 83.4799 253.737 87.5987C252.952 91.7177 248.824 94.5213 244.333 93.6649C239.841 92.8084 237.625 88.459 238.41 84.34C239.098 80.7361 241.674 78.571 245.513 78.5815ZM136.502 88.814L143.302 94.0369L138.397 96.884L136.502 88.814ZM286.974 93.0895L261.658 110.653L269.093 116.506L281.28 107.012L275.105 122.359L278.269 125.365L293.779 119.036L284.445 131.694L290.139 139.764L308.019 114.13L302.32 107.33L287.763 113.183L293.62 98.4662L286.974 93.0895ZM200 96.8294C143.073 96.8294 96.8266 143.076 96.8266 200.003C96.8266 256.93 143.073 303.171 200 303.171C256.927 303.171 303.173 256.93 303.173 200.003C303.173 143.076 256.927 96.8294 200 96.8294ZM105.487 100.207L93.1462 114.447L114.663 133.593L120.679 126.634L112.45 119.353L118.462 112.865L113.239 108.118L107.228 114.765L104.222 111.918L110.71 104.795L105.487 100.207ZM198.006 100.807V182.687H165.91V106.804C175.95 103.129 186.748 101.03 198.006 100.807ZM201.974 100.807C239.754 101.546 272.359 123.421 288.467 155.09C288.26 154.813 288.048 154.541 287.832 154.271C283.885 149.369 278.914 146.118 274.678 143.394C274.341 143.178 273.947 143.069 273.547 143.082C273.243 143.09 272.944 143.169 272.675 143.312C272.406 143.455 272.173 143.658 271.995 143.905C271.009 145.27 269.148 146.405 266.722 146.405H248.445C247.528 146.405 246.656 146.655 245.905 147.199C245.154 147.742 244.486 148.715 244.486 149.867V151.95C244.477 151.962 244.461 151.994 244.382 152.054C244.203 152.192 243.852 152.337 243.46 152.337H227.712L227.727 151.023V150.998C227.727 148.6 226.504 146.422 224.617 145.046L224.587 145.021L224.562 145.006L217.678 140.339L217.668 140.329L217.658 140.324C216.562 139.6 215.337 139.258 214.181 139.282C213.801 139.291 213.424 139.341 213.055 139.431C211.603 139.787 210.421 140.705 209.657 141.877C208.13 144.221 208.481 147.926 211.418 150.026L214.647 152.496L214.672 152.516L214.697 152.531C215.376 153.017 215.753 153.604 215.753 153.766L215.674 158.999V159.028C215.674 159.092 215.664 159.108 215.659 159.133C215.568 159.132 215.395 159.112 215.034 158.994C214.27 158.743 213.691 158.421 212.792 158.081C211.893 157.741 210.737 157.471 209.251 157.471C206.633 157.471 204.482 158.652 203.135 160.224C202.677 160.757 202.288 161.345 201.974 161.975L201.974 100.807ZM161.942 108.357V186.655H198.006V209.769H161.942V291.629C153.663 288.186 145.889 283.636 138.833 278.103V209.769H101.261C100.943 206.523 100.785 203.264 100.785 200.003C100.784 195.539 101.082 191.08 101.677 186.655H138.833V121.887C145.889 116.353 153.663 111.801 161.942 108.357ZM229.195 123.609C227.574 123.609 226.258 124.924 226.258 126.545C226.258 128.166 227.574 129.481 229.195 129.481C230.816 129.481 232.131 128.166 232.131 126.545C232.131 124.924 230.816 123.609 229.195 123.609ZM236.674 123.609C235.053 123.609 233.738 124.924 233.738 126.545C233.738 128.166 235.053 129.481 236.674 129.481C238.295 129.481 239.611 128.166 239.611 126.545C239.611 124.924 238.295 123.609 236.674 123.609ZM244.149 123.609C242.528 123.609 241.213 124.924 241.213 126.545C241.213 128.166 242.528 129.481 244.149 129.481C245.77 129.481 247.085 128.166 247.085 126.545C247.085 124.924 245.77 123.609 244.149 123.609ZM251.624 123.609C250.003 123.609 248.688 124.924 248.688 126.545C248.688 128.166 250.003 129.481 251.624 129.481C253.245 129.481 254.56 128.166 254.56 126.545C254.56 124.924 253.245 123.609 251.624 123.609ZM259.104 123.609C257.483 123.609 256.167 124.924 256.167 126.545C256.167 128.166 257.483 129.481 259.104 129.481C260.725 129.481 262.04 128.166 262.04 126.545C262.04 124.924 260.725 123.609 259.104 123.609ZM134.865 125.171V182.687H102.292C106.309 159.887 118.116 139.763 134.865 125.171ZM227.087 131.282V136.043H261.212V131.282H227.087ZM227.087 137.69V142.452H261.212V137.69H227.087ZM322.101 137.71L295.203 148.627L302.796 166.349L309.914 163.343L305.961 154.321L309.284 152.739L313.084 161.444L319.567 158.75L315.931 150.368L319.095 148.944L322.89 157.962L329.536 155.273L322.101 137.71ZM76.3715 141.033L72.5771 149.416L98.8404 161.602L107.228 144.51L100.74 141.187L95.6759 150.05L76.3715 141.033ZM214.295 143.24C214.608 143.222 214.973 143.304 215.47 143.632L222.335 148.29C223.191 148.914 223.758 150.067 223.758 150.998L223.679 157.431V157.456C223.679 159.989 224.961 162.148 226.615 163.656C227.591 164.544 228.709 165.246 229.904 165.674C228.709 166.103 227.591 166.804 226.615 167.693C224.961 169.201 223.679 171.36 223.679 173.893V173.918L223.758 180.376C223.758 181.307 223.131 182.475 222.275 183.099L215.45 187.727C214.787 188.164 214.382 188.158 213.997 188.064C213.613 187.97 213.236 187.697 212.98 187.305C212.47 186.521 212.248 185.608 213.724 184.552L213.749 184.532L213.774 184.512L217.058 182.008C218.168 181.213 219.721 179.878 219.721 177.583V177.554L219.642 172.291C219.642 171.168 219.238 169.901 218.104 169.042C216.97 168.184 215.349 168.078 213.799 168.586C212.691 168.949 211.968 169.339 211.388 169.558C210.808 169.777 210.317 169.91 209.25 169.91C207.755 169.91 206.837 169.348 206.145 168.541C205.454 167.735 205.099 166.611 205.099 165.873V165.476C205.099 164.738 205.454 163.614 206.145 162.808C206.837 162.001 207.755 161.439 209.25 161.439C210.317 161.439 210.808 161.572 211.388 161.791C211.968 162.01 212.691 162.4 213.799 162.763C215.349 163.271 216.97 163.165 218.104 162.307C219.238 161.448 219.642 160.151 219.642 159.028L219.721 153.795V153.765C219.721 151.471 218.118 150.101 217.008 149.306L213.774 146.836L213.749 146.816L213.724 146.797C212.248 145.741 212.47 144.828 212.98 144.044C213.236 143.652 213.613 143.379 213.997 143.285C214.095 143.261 214.194 143.246 214.295 143.24ZM273.924 147.65C277.722 150.132 281.661 152.934 284.742 156.761C288.201 161.057 290.649 166.584 290.649 174.731C290.649 190.039 276.355 202.334 262.605 202.334H229.378C228.434 202.334 227.468 202.767 226.883 203.435C226.298 204.104 226.064 204.911 226.07 205.682C226.076 206.454 226.324 207.242 226.903 207.899C227.482 208.557 228.432 208.995 229.378 208.995H261.817C273.479 208.995 279.697 216.502 279.697 225.363C279.697 233.999 273.239 242.118 261.896 242.118H228.47C227.66 242.118 226.8 242.485 226.268 243.076C225.737 243.666 225.515 244.383 225.519 245.069C225.523 245.756 225.747 246.462 226.273 247.044C226.799 247.625 227.657 247.996 228.47 247.996H253.35C258.705 247.996 263.26 253.214 263.26 258.199C263.26 260.726 262.542 263.059 260.954 264.756C259.366 266.452 256.829 267.682 252.561 267.682H237.642C237.047 267.682 236.421 267.812 235.846 268.228C235.271 268.643 234.8 269.437 234.824 270.261C234.849 271.086 235.323 271.793 235.876 272.186C236.428 272.579 237.045 272.722 237.642 272.722H247.537C248.933 272.722 249.965 273.332 250.781 274.324C251.596 275.315 252.07 276.705 252.07 277.816C252.07 279.199 251.559 280.477 250.657 281.278C250.071 281.797 249.262 282.157 248.152 282.245C248.207 281.673 248.216 281.026 247.835 280.251C247.382 279.332 246.12 278.599 245.047 278.599H239.11C237.042 278.599 234.76 277.82 233.074 276.347C231.387 274.875 230.232 272.789 230.232 269.785C230.232 267.023 231.386 265.054 233.024 263.64C234.662 262.226 236.838 261.487 238.441 261.487H253.033C253.692 261.487 254.334 261.374 254.948 261.001C255.561 260.629 256.194 259.844 256.193 258.868C256.192 257.893 255.556 257.107 254.943 256.735C254.329 256.363 253.692 256.254 253.033 256.254H230.172C221.376 256.254 216.478 250.03 216.478 243.319C216.478 237.331 221.606 230.234 229.379 230.234H263.4C264.326 230.234 265.279 229.802 265.845 229.143C266.411 228.484 266.634 227.699 266.629 226.95C266.623 226.202 266.391 225.432 265.83 224.783C265.269 224.134 264.328 223.697 263.4 223.697H228.749C219.063 223.697 211.399 216.514 211.399 205.667C211.399 196.607 218.813 187.315 229.776 187.315H261.183C262.895 187.315 264.432 186.544 265.374 185.42C266.316 184.296 266.736 182.91 266.743 181.546C266.75 180.182 266.343 178.785 265.399 177.653C264.454 176.521 262.906 175.753 261.183 175.753H227.673L227.648 173.873C227.648 172.713 228.279 171.546 229.29 170.624C230.301 169.703 231.662 169.176 232.494 169.176H251.273C251.999 169.176 252.718 169.008 253.425 168.521C254.132 168.035 254.789 166.985 254.789 165.674C254.789 164.324 254.388 163.641 253.425 162.827C252.718 162.34 251.999 162.172 251.273 162.172H232.494C231.662 162.172 230.301 161.645 229.29 160.724C228.279 159.803 227.648 158.616 227.648 157.455L227.663 156.304H250.583C251.852 156.304 253.01 155.898 253.921 155.198C254.833 154.499 255.578 153.426 255.578 152.073V150.372H266.723C269.614 150.373 272.126 149.295 273.924 147.65ZM294.146 168.67C297.422 178.52 299.195 189.056 299.195 200.003C299.195 234.657 281.425 265.158 254.496 282.895C255.547 281.399 256.038 279.596 256.038 277.816C256.038 275.695 255.277 273.544 253.846 271.804C253.79 271.735 253.722 271.673 253.663 271.606C258.176 271.388 261.612 269.861 263.85 267.469C266.27 264.885 267.228 261.488 267.228 258.199C267.228 253.34 264.508 248.665 260.388 246.087H261.896C275.189 246.087 283.666 236.045 283.666 225.364C283.666 216.308 277.775 208.195 267.977 205.777C282.045 203.134 294.617 190.475 294.617 174.732C294.617 172.577 294.45 170.561 294.146 168.67ZM201.974 169.375C202.287 170.004 202.677 170.592 203.135 171.126C204.482 172.697 206.633 173.878 209.25 173.878C210.737 173.878 211.893 173.608 212.792 173.268C213.69 172.929 214.27 172.606 215.034 172.356C215.394 172.237 215.568 172.217 215.659 172.217C215.664 172.242 215.674 172.259 215.674 172.321V172.351L215.753 177.613C215.753 177.775 215.376 178.332 214.696 178.819L214.672 178.833L214.647 178.853L211.368 181.363C208.431 183.463 208.13 187.129 209.657 189.473C210.307 190.47 211.261 191.28 212.425 191.72C209.247 195.699 207.43 200.67 207.43 205.667C207.43 216.689 214.577 225.043 224.056 227.139C216.957 229.565 212.509 236.657 212.509 243.319C212.509 252.054 219.427 260.222 230.172 260.222H230.951C230.776 260.358 230.599 260.488 230.43 260.634C228.049 262.69 226.263 265.86 226.263 269.785C226.263 273.866 227.989 277.182 230.46 279.338C232.931 281.495 236.078 282.567 239.11 282.567H244.08C243.977 282.93 243.862 283.267 243.862 283.267C243.742 283.539 243.684 283.834 243.694 284.131C243.703 284.428 243.779 284.72 243.917 284.983C244.054 285.247 244.248 285.477 244.486 285.655C244.724 285.834 244.998 285.956 245.29 286.015C246.71 286.296 248.052 286.315 249.268 286.109C235.286 294.126 219.166 298.838 201.974 299.174V169.375ZM95.0459 172.832L64.1896 182.96L63.0835 192.136L92.3577 207.959L92.1989 197.359L87.7746 195.311L88.4393 184.414L93.6225 183.119L95.0459 172.832ZM321.942 173.784C311.614 173.784 306.437 182.248 306.437 190.713C306.437 199.178 312.562 207.646 321.942 207.646C331.318 207.647 337.606 199.969 337.606 190.713C337.606 181.615 332.112 173.784 321.942 173.784ZM227.717 179.721H261.182C261.86 179.721 262.109 179.905 262.353 180.198C262.596 180.49 262.777 180.992 262.774 181.527C262.771 182.062 262.584 182.571 262.333 182.871C262.082 183.171 261.831 183.347 261.182 183.347H229.775C228.819 183.347 227.885 183.408 226.973 183.521C227.454 182.552 227.727 181.477 227.727 180.351V180.327L227.717 179.721ZM322.141 182.96C326.693 182.96 329.347 187.211 329.347 190.713C329.347 194.135 326.595 198.465 322.141 198.465C317.684 198.465 315.092 194.708 315.092 190.713C315.092 186.718 317.588 182.96 322.141 182.96ZM81.4951 186.15L81.1182 192.221L72.7358 188.337L81.4951 186.15ZM101.727 213.737H134.865V274.82C117.245 259.474 105.091 238.008 101.727 213.737ZM165.91 213.737H198.006V299.174C186.748 298.952 175.95 296.85 165.91 293.177V213.737Z" fill="white"/>
<path d="M226.258 126.545C226.258 124.924 227.573 123.609 229.194 123.609C230.815 123.609 232.13 124.924 232.13 126.545C232.13 128.166 230.815 129.481 229.194 129.481C227.573 129.481 226.258 128.166 226.258 126.545Z" fill="black"/>
<path d="M233.738 126.545C233.738 124.924 235.053 123.609 236.674 123.609C238.295 123.609 239.61 124.924 239.61 126.545C239.61 128.166 238.295 129.481 236.674 129.481C235.053 129.481 233.738 128.166 233.738 126.545Z" fill="black"/>
<path d="M241.212 126.545C241.212 124.924 242.528 123.609 244.149 123.609C245.77 123.609 247.085 124.924 247.085 126.545C247.085 128.166 245.77 129.481 244.149 129.481C242.528 129.481 241.212 128.166 241.212 126.545Z" fill="black"/>
<path d="M248.687 126.545C248.687 124.924 250.003 123.609 251.623 123.609C253.244 123.609 254.56 124.924 254.56 126.545C254.56 128.166 253.244 129.481 251.623 129.481C250.003 129.481 248.687 128.166 248.687 126.545Z" fill="black"/>
<path d="M256.167 126.545C256.167 124.924 257.482 123.609 259.103 123.609C260.724 123.609 262.04 124.924 262.04 126.545C262.04 128.166 260.724 129.481 259.103 129.481C257.482 129.481 256.167 128.166 256.167 126.545Z" fill="black"/>
<path d="M227.086 136.043V131.282H261.211V136.043H227.086Z" fill="black"/>
<path d="M227.086 142.452V137.69H261.211V142.452H227.086Z" fill="black"/>
<path d="M214.296 143.24C214.609 143.222 214.974 143.304 215.471 143.632L222.336 148.29C223.191 148.914 223.759 150.067 223.759 150.998L223.68 157.431V157.456C223.68 159.989 224.961 162.148 226.616 163.656C227.592 164.545 228.709 165.246 229.905 165.674C228.709 166.103 227.592 166.804 226.616 167.693C224.961 169.201 223.68 171.36 223.68 173.893V173.918L223.759 180.376C223.759 181.307 223.132 182.475 222.276 183.099L215.451 187.727C214.788 188.164 214.382 188.158 213.998 188.064C213.614 187.97 213.237 187.697 212.981 187.305C212.471 186.521 212.248 185.608 213.725 184.552L213.75 184.532L213.775 184.513L217.058 182.008C218.169 181.213 219.722 179.878 219.722 177.583V177.554L219.643 172.291C219.643 171.168 219.239 169.901 218.105 169.042C216.971 168.184 215.35 168.078 213.8 168.586C212.692 168.949 211.969 169.339 211.389 169.558C210.809 169.777 210.318 169.91 209.251 169.91C207.756 169.91 206.838 169.348 206.146 168.541C205.455 167.735 205.1 166.611 205.1 165.873V165.476C205.1 164.738 205.455 163.614 206.146 162.808C206.838 162.001 207.756 161.439 209.251 161.439C210.318 161.439 210.809 161.572 211.389 161.791C211.969 162.01 212.692 162.4 213.8 162.763C215.35 163.271 216.971 163.165 218.105 162.307C219.239 161.448 219.643 160.151 219.643 159.028L219.722 153.795V153.765C219.722 151.471 218.119 150.101 217.009 149.306L213.775 146.836L213.75 146.817L213.725 146.797C212.249 145.741 212.471 144.828 212.981 144.044C213.237 143.652 213.614 143.379 213.998 143.285C214.096 143.261 214.195 143.246 214.296 143.24Z" fill="black"/>
<path d="M273.924 147.65C277.721 150.132 281.66 152.934 284.741 156.761C288.2 161.057 290.649 166.584 290.649 174.732C290.649 190.039 276.354 202.334 262.605 202.334H229.378C228.433 202.334 227.468 202.767 226.883 203.435C226.298 204.104 226.063 204.911 226.069 205.682C226.076 206.454 226.324 207.242 226.902 207.899C227.481 208.557 228.432 208.995 229.378 208.995H261.816C273.479 208.995 279.697 216.502 279.697 225.364C279.697 234 273.238 242.118 261.895 242.118H228.47C227.66 242.118 226.799 242.486 226.268 243.076C225.736 243.666 225.514 244.384 225.519 245.07C225.523 245.756 225.746 246.462 226.272 247.044C226.799 247.626 227.657 247.996 228.47 247.996H253.349C258.704 247.996 263.259 253.215 263.259 258.199C263.259 260.726 262.541 263.06 260.953 264.756C259.365 266.452 256.828 267.682 252.561 267.682H237.641C237.046 267.682 236.421 267.812 235.846 268.228C235.27 268.644 234.8 269.437 234.824 270.262C234.848 271.086 235.323 271.793 235.875 272.186C236.428 272.579 237.044 272.722 237.641 272.722H247.536C248.932 272.722 249.965 273.332 250.78 274.324C251.596 275.316 252.07 276.705 252.07 277.816C252.07 279.199 251.559 280.477 250.656 281.278C250.071 281.797 249.262 282.158 248.151 282.245C248.206 281.673 248.215 281.026 247.834 280.251C247.382 279.332 246.119 278.599 245.047 278.599H239.109C237.042 278.599 234.76 277.82 233.073 276.348C231.387 274.876 230.231 272.789 230.231 269.785C230.231 267.024 231.386 265.054 233.024 263.64C234.662 262.226 236.837 261.487 238.44 261.487H253.032C253.691 261.487 254.333 261.374 254.947 261.001C255.561 260.629 256.193 259.844 256.192 258.868C256.191 257.893 255.555 257.108 254.942 256.736C254.329 256.364 253.691 256.254 253.032 256.254H230.172C221.376 256.254 216.477 250.03 216.477 243.319C216.477 237.331 221.605 230.234 229.378 230.234H263.399C264.325 230.234 265.278 229.802 265.844 229.143C266.411 228.484 266.633 227.699 266.628 226.951C266.623 226.202 266.39 225.432 265.83 224.783C265.269 224.134 264.327 223.697 263.399 223.697H228.749C219.062 223.697 211.398 216.514 211.398 205.667C211.398 196.607 218.812 187.315 229.775 187.315H261.182C262.895 187.315 264.431 186.545 265.373 185.42C266.315 184.296 266.735 182.911 266.742 181.546C266.75 180.182 266.343 178.785 265.398 177.653C264.454 176.521 262.906 175.753 261.182 175.753H227.672L227.647 173.873C227.647 172.713 228.278 171.546 229.289 170.624C230.301 169.703 231.661 169.176 232.494 169.176H251.272C251.999 169.176 252.718 169.008 253.425 168.521C254.131 168.035 254.789 166.985 254.789 165.674C254.789 164.324 254.387 163.641 253.425 162.827C252.718 162.34 251.999 162.172 251.272 162.172H232.494C231.661 162.172 230.301 161.645 229.289 160.724C228.278 159.803 227.647 158.616 227.647 157.455L227.662 156.305H250.583C251.851 156.305 253.009 155.898 253.921 155.198C254.832 154.499 255.577 153.427 255.577 152.074V150.372H266.723C269.613 150.373 272.125 149.296 273.924 147.65Z" fill="black"/>
</g>
<circle cx="200" cy="200" r="150" stroke="black" stroke-width="2"/>
<defs>
<clipPath id="clip0_3410_2525">
<rect width="300" height="300" fill="white" transform="translate(50 50)"/>
</clipPath>
</defs>
</svg>
