<svg width="79" height="66" viewBox="0 0 79 66" fill="none" xmlns="http://www.w3.org/2000/svg">
<rect x="1" y="0.0341797" width="27" height="10" fill="white"/>
<path d="M9.85901 8.76491C9.88401 8.74446 9.90721 8.72711 9.93247 8.70848L9.94175 8.71158C9.91875 8.73066 9.89357 8.74691 9.86674 8.75999C9.86446 8.76206 9.86185 8.76373 9.85901 8.76491ZM13.5089 7.54265C13.4996 7.54886 13.4919 7.55507 13.4824 7.56129C13.4965 7.55973 13.5089 7.55663 13.5089 7.54265ZM12.3551 8.82038C12.0572 9.03961 11.7354 9.22407 11.3959 9.3702C10.9743 9.54638 10.5678 9.75702 10.1805 10H0.949219V0H13.9492C13.7796 0.0546901 13.613 0.118461 13.4502 0.191038C13.2304 0.271956 13.0315 0.401475 12.8684 0.570009C12.7078 0.743204 12.586 0.948843 12.5111 1.17315C12.2873 1.32735 12.1059 1.5359 11.9839 1.7794C11.8153 2.10064 11.5689 2.3841 11.6078 2.74262C11.6439 3.04496 11.7202 3.32867 11.7764 3.64966C11.7931 3.7585 11.8181 3.8659 11.8512 3.9709C11.8903 4.08351 11.8512 4.21682 11.9074 4.31079C11.9463 4.36696 11.9277 4.44384 12.0025 4.48137V4.5567C12.0228 4.5756 12.0228 4.59424 12.0587 4.59424V4.66957C12.2254 4.84049 12.3705 5.03141 12.4907 5.23802C12.5299 5.35088 12.3036 5.29445 12.21 5.25537C12.0429 5.15132 11.8911 5.02428 11.7591 4.87795C11.7484 4.88778 11.7413 4.90103 11.739 4.91548C11.8153 5.04854 12.0961 5.21783 11.9463 5.3118C11.8715 5.35088 11.7764 5.25537 11.7014 5.33199C11.6828 5.36952 11.7014 5.40706 11.7014 5.44485C11.5877 5.36952 11.4753 5.40706 11.3629 5.36952C11.2882 5.35088 11.2678 5.19893 11.1758 5.19893C10.9408 5.13706 10.7015 5.09301 10.4599 5.06717C10.1305 5.00791 9.79447 4.99528 9.46156 5.02964C9.31684 5.05552 9.17887 5.11067 9.05604 5.19175C8.9332 5.27283 8.82806 5.37814 8.747 5.50128V5.55927C8.87821 5.57635 8.93595 5.46375 9.04809 5.42595C9.23523 5.38842 9.40537 5.3118 9.59406 5.274C9.85736 5.20107 10.1291 5.16321 10.4022 5.1614C10.4653 5.15195 10.5294 5.15195 10.5924 5.1614C10.2635 5.16707 9.93811 5.23123 9.63144 5.35088C9.40546 5.3895 9.18429 5.45252 8.97178 5.53882C9.46315 5.52337 9.95345 5.59388 10.4208 5.7472C10.5864 5.80335 10.7447 5.87958 10.892 5.97422C10.9501 6.03005 11.0133 6.08039 11.0807 6.12461C11.1293 6.1513 11.1831 6.16696 11.2384 6.1705C11.2936 6.17403 11.349 6.16535 11.4006 6.14506H11.4957C11.7809 6.09936 12.0478 5.97456 12.2662 5.78473C12.2662 5.80363 12.2847 5.80363 12.3036 5.80363C12.2755 5.96411 12.2185 6.11808 12.1352 6.25793C12.1352 6.27657 12.1149 6.3141 12.1538 6.333H12.1914C12.1711 6.333 12.1538 6.333 12.1538 6.35164C12.1538 6.38943 12.21 6.35163 12.2273 6.38943C12.1347 6.39551 12.0478 6.43636 11.9839 6.50384C11.9839 6.52248 12.0228 6.52248 12.0401 6.52248C12.0025 6.56028 11.9463 6.54138 11.9277 6.57891C11.9373 6.58892 11.9499 6.59555 11.9636 6.59781C11.9463 6.59781 11.9277 6.59781 11.9277 6.61645V6.67288C11.8715 6.67288 11.8512 6.71041 11.8153 6.73086C11.8903 6.7873 11.9463 6.73086 12.0228 6.73086C11.8153 6.80593 11.6439 6.9188 11.4395 6.97523C11.4006 6.97523 11.4395 7.03321 11.4006 7.03321C11.4568 7.06919 11.4957 7.01276 11.5519 7.01276C11.2882 7.16471 11.0245 7.29647 10.7407 7.46706C10.721 7.48758 10.7084 7.5139 10.7048 7.54213H10.6283C10.5924 7.56103 10.6097 7.61901 10.5721 7.65499C10.6659 7.71298 10.7796 7.57992 10.8358 7.65499C10.8546 7.65499 10.7984 7.67544 10.761 7.67544C10.7407 7.67544 10.7407 7.71298 10.7234 7.71298H10.6659C10.6283 7.75051 10.5924 7.76941 10.5924 7.82584C10.5535 7.82584 10.5161 7.82584 10.4973 7.86337C10.9123 7.80694 11.3441 7.84448 11.739 7.63791C12.05 7.48082 12.3305 7.2691 12.5673 7.01276C12.5772 7.02361 12.5837 7.03724 12.5858 7.05185C12.5305 7.22833 12.418 7.38115 12.2662 7.48596C12.1538 7.54213 12.079 7.63791 11.9839 7.67544C11.9277 7.71298 11.8715 7.7506 11.8153 7.7883C11.1183 8.03396 10.2898 7.91981 9.68763 8.39274C9.68763 8.3741 9.66882 8.3741 9.65026 8.3741C9.61288 8.41164 9.55514 8.43054 9.53812 8.46962C9.538 8.4719 9.53835 8.47418 9.53915 8.47632C9.53995 8.47846 9.54118 8.48041 9.54276 8.48205C9.54812 8.48906 9.55535 8.49441 9.5636 8.49748C9.57186 8.50055 9.58081 8.50121 9.58942 8.49939C9.59912 8.49243 9.60959 8.48661 9.62061 8.48205C9.71359 8.42003 9.81431 8.3706 9.92015 8.33502C9.909 8.34298 9.89856 8.3519 9.88896 8.36168C9.81575 8.40232 9.74538 8.44607 9.67371 8.48205H9.67835C9.62857 8.5106 9.58508 8.549 9.5505 8.59491C9.55382 8.59603 9.55685 8.59789 9.55936 8.60035C9.56187 8.60281 9.56379 8.60581 9.56498 8.60912C9.56617 8.61243 9.5666 8.61597 9.56624 8.61947C9.56587 8.62297 9.56472 8.62635 9.56287 8.62934C9.55668 8.64047 9.5505 8.65134 9.54431 8.66377C9.53961 8.67027 9.53538 8.6771 9.53168 8.68422C9.52394 8.6982 9.51621 8.71088 9.50693 8.72486C9.50358 8.73107 9.50049 8.73573 9.49739 8.7422C9.49275 8.74997 9.48966 8.75773 9.48502 8.76576C9.48305 8.77078 9.48036 8.77549 9.47703 8.77974C9.47446 8.78529 9.47135 8.79058 9.46775 8.79553C9.46553 8.80138 9.46294 8.80708 9.46002 8.81261C9.45847 8.81417 9.45692 8.81572 9.45692 8.81727C9.45538 8.81882 9.45538 8.82038 9.45357 8.82193C9.45228 8.82348 9.45228 8.8253 9.45074 8.82659C9.45729 8.8292 9.464 8.83136 9.47084 8.83306C9.48003 8.83533 9.48948 8.83637 9.49894 8.83617C9.56751 8.83772 9.6036 8.75463 9.64871 8.71399C9.67676 8.69091 9.70649 8.66997 9.73764 8.65134C9.74228 8.65755 9.74692 8.66222 9.75002 8.66687C9.74873 8.67153 9.74692 8.678 9.74538 8.68422C9.73455 8.70001 9.72527 8.71865 9.71264 8.73418C9.70336 8.74841 9.72218 8.75929 9.73455 8.75463V8.75773C9.62008 8.82386 9.51375 8.90328 9.41774 8.99433C9.42235 8.99371 9.42704 8.99423 9.4314 8.99586C9.43576 8.99748 9.43966 9.00016 9.44275 9.00365C9.44455 9.00516 9.44602 9.00702 9.44708 9.00912C9.44814 9.01122 9.44876 9.01352 9.4489 9.01587C9.44905 9.01822 9.44872 9.02058 9.44792 9.02279C9.44713 9.02501 9.44589 9.02704 9.44429 9.02876C9.41774 9.06629 9.38964 9.10409 9.36335 9.14318C9.34608 9.17294 9.32726 9.20116 9.3087 9.23093C9.29298 9.25733 9.27751 9.28426 9.26024 9.31092C9.25715 9.31687 9.25251 9.32334 9.24941 9.32955C9.24921 9.32955 9.249 9.32959 9.24881 9.32966C9.24862 9.32974 9.24845 9.32985 9.24831 9.33C9.24817 9.33014 9.24805 9.33032 9.24798 9.33051C9.2479 9.3307 9.24786 9.3309 9.24786 9.33111C9.26744 9.33503 9.28775 9.3323 9.30561 9.32334C9.40846 9.22782 9.50693 9.12894 9.60979 9.03187C9.61968 9.03186 9.62938 9.02918 9.63788 9.0241C9.73306 8.93102 9.83759 8.84808 9.94979 8.77663C10.0001 8.74882 10.0441 8.71093 10.0792 8.66532L10.1073 8.63245C10.1111 8.62931 10.1152 8.6267 10.1197 8.62468C10.2302 8.56357 10.3475 8.51569 10.4692 8.48205C10.4769 8.4805 10.4834 8.47894 10.4896 8.47739C10.7159 8.42377 10.945 8.38298 11.1758 8.35521C11.332 8.36741 11.4892 8.36107 11.6439 8.33631C11.7625 8.30965 11.8715 8.24079 11.9839 8.20481V8.24079C12.2662 8.12819 12.4737 7.88201 12.7544 7.7883C12.7748 7.7883 12.8106 7.82584 12.8495 7.80694C12.9221 7.71714 13.014 7.645 13.1183 7.59591C13.2226 7.54682 13.3365 7.52206 13.4517 7.52349C13.4517 7.54213 13.4517 7.56103 13.4705 7.56103H13.4829L13.2816 7.71298C13.263 7.73187 13.2816 7.75051 13.3019 7.75051C13.394 7.71298 13.4517 7.63791 13.5453 7.59856C13.5265 7.61901 13.5265 7.65499 13.5094 7.67544C13.4368 7.72502 13.368 7.77996 13.3035 7.83982C13.0789 8.03847 12.8689 8.2531 12.675 8.48205H12.6779C12.5704 8.59802 12.4626 8.71399 12.3551 8.82038ZM9.46156 7.46706C9.59406 7.41063 9.74538 7.46706 9.85777 7.3542C9.81884 7.31511 9.76265 7.33401 9.72527 7.27758C9.68764 7.25868 9.63144 7.29647 9.59406 7.31511C9.51776 7.3542 9.38655 7.3542 9.36799 7.44816C9.34917 7.48596 9.42419 7.46706 9.46156 7.46706ZM6.58193 7.05185C6.99597 6.54477 7.4853 6.10474 8.0327 5.7472C8.06853 5.7283 7.97496 5.80363 8.05152 5.78473C8.29641 5.7283 8.37116 5.48239 8.48355 5.29445C8.63487 5.04854 8.89832 4.95302 9.08572 4.74619C9.08699 4.75641 9.08595 4.76678 9.08269 4.77655C9.07944 4.78631 9.07404 4.79522 9.06691 4.80262C9.07432 4.80971 9.0832 4.81505 9.09292 4.81828C9.10264 4.8215 9.11294 4.82252 9.1231 4.82126C9.1994 4.76509 9.29298 4.78372 9.34917 4.70865C9.19307 4.64567 9.02016 4.63845 8.85939 4.6882C8.46023 4.89843 8.1028 5.18032 7.80482 5.51992C7.62195 5.73025 7.40599 5.90908 7.16554 6.04929C6.99753 6.38959 6.79633 6.71233 6.56491 7.01276C6.56626 7.02729 6.57222 7.04099 6.58193 7.05185ZM8.14509 5.80363C8.14509 5.78473 8.14509 5.76584 8.12473 5.76584C8.08742 5.77928 8.05411 5.80201 8.02792 5.83188C8.00173 5.86176 7.98351 5.89782 7.97496 5.93668C7.97496 5.95558 7.99532 5.95558 8.01233 5.95558C8.04628 5.94088 8.07357 5.91404 8.08889 5.88025C8.10591 5.84582 8.12473 5.84116 8.14509 5.80363ZM9.0187 8.63555C9.03417 8.59802 8.93441 8.60734 8.91868 8.61847C8.90361 8.63091 8.89003 8.64507 8.87821 8.66066C8.85376 8.68681 8.82767 8.71137 8.8001 8.73418C8.75345 8.77818 8.70962 8.8253 8.66142 8.86749C8.63023 8.89415 8.73308 8.90969 8.75499 8.88949C8.77819 8.86749 8.8032 8.84549 8.82666 8.82348C8.83929 8.82348 8.85011 8.82038 8.85475 8.82038C8.9087 8.79759 8.95714 8.76343 8.99679 8.7202C9.01226 8.70622 8.99524 8.69509 8.97178 8.69043C8.99112 8.67569 9.00712 8.65698 9.0187 8.63555ZM8.68153 8.47894C8.83594 8.38187 8.99189 8.27677 9.16202 8.18436C9.11058 8.15438 9.05111 8.14126 8.99189 8.14683C8.89832 8.16572 8.78464 8.10929 8.69107 8.14683C8.45236 8.25814 8.14973 8.25037 7.97032 8.42588C7.96877 8.42588 7.96877 8.42717 7.96722 8.42717C7.95211 8.44139 7.93854 8.45718 7.92675 8.47428C7.92391 8.47727 7.92071 8.47988 7.91722 8.48205C7.9002 8.49784 7.88138 8.51026 7.85947 8.52761C7.82499 8.55705 7.79268 8.58897 7.76281 8.62313C7.76281 8.62468 7.76281 8.62468 7.76126 8.62623C7.74708 8.63866 7.73471 8.6529 7.71898 8.66532C7.69424 8.68266 7.73316 8.70777 7.75198 8.69354C7.77827 8.67335 7.79554 8.64979 7.8221 8.63245L7.83163 8.62779C7.80324 8.65904 7.77811 8.69313 7.75662 8.72952C7.75872 8.7334 7.75927 8.73793 7.75817 8.7422C7.75662 8.75152 7.75353 8.7611 7.75198 8.77042C7.75206 8.77126 7.75197 8.77211 7.75171 8.77292C7.75144 8.77372 7.75101 8.77446 7.75043 8.77508C7.74893 8.78205 7.74686 8.78889 7.74425 8.79553C7.74386 8.79983 7.74272 8.80404 7.74089 8.80795C7.74031 8.80856 7.73986 8.8093 7.7396 8.81011C7.73933 8.81091 7.73924 8.81177 7.73935 8.81261C7.73462 8.82763 7.72893 8.84233 7.72233 8.85662C7.72079 8.85946 7.72079 8.86128 7.71898 8.86438C7.71769 8.86438 7.7177 8.86594 7.7177 8.86749L7.71434 8.8706C7.7083 8.88345 7.70159 8.89598 7.69424 8.90813C7.6865 8.92237 7.67697 8.93479 7.66923 8.94903C7.66703 8.95291 7.66444 8.95655 7.6615 8.9599C7.65995 8.96146 7.65995 8.96146 7.65995 8.96301C7.64114 8.98967 7.62103 9.01633 7.60066 9.04274C7.59757 9.04766 7.59267 9.05232 7.58984 9.05698C7.57875 9.07121 7.56793 9.08519 7.5571 9.09762C7.55032 9.10559 7.54403 9.11397 7.53828 9.12273C7.53674 9.12273 7.53674 9.12428 7.53519 9.12583C7.51482 9.15094 7.49446 9.17294 7.47435 9.19469C7.4759 9.19779 7.47719 9.20116 7.47899 9.20427V9.20582C7.48373 9.21625 7.48943 9.22622 7.49601 9.23559L7.50065 9.24491C7.503 9.24883 7.50567 9.25256 7.50864 9.25604C7.51163 9.25587 7.51456 9.25506 7.51722 9.25368C7.51989 9.2523 7.52223 9.25037 7.5241 9.24801H7.52565C7.5303 9.24157 7.53452 9.23483 7.53828 9.22782L7.53983 9.22627C7.54137 9.22316 7.54292 9.22135 7.54447 9.21825L7.55065 9.21203C7.5522 9.21048 7.5522 9.20737 7.55375 9.20582C7.55395 9.20583 7.55416 9.20579 7.55435 9.20571C7.55454 9.20564 7.55471 9.20552 7.55485 9.20538C7.555 9.20523 7.55511 9.20506 7.55519 9.20487C7.55526 9.20468 7.5553 9.20447 7.55529 9.20427C7.58862 9.16228 7.62573 9.12346 7.66614 9.0883C7.68805 9.06811 7.71151 9.04921 7.73471 9.03031C7.73626 9.02721 7.74244 9.02565 7.74708 9.02565C7.75135 9.02529 7.75566 9.02582 7.75971 9.02721C7.76899 9.02255 7.78008 9.01634 7.78936 9.01168C7.79989 9.00519 7.81082 8.9994 7.8221 8.99433V8.99744C7.819 9.01944 7.85174 9.01944 7.86411 9.01168C7.8732 9.0041 7.88157 8.99569 7.88912 8.98657C7.9033 8.96767 7.91722 8.95524 7.92959 8.94101V8.93945C7.93139 8.9379 7.93294 8.9379 7.93294 8.93635C7.94222 8.92703 7.9515 8.919 7.96078 8.90968L7.96258 8.90813L7.96413 8.90658C7.97341 8.89726 7.98114 8.88949 7.99068 8.88147C8.04719 8.82508 8.1106 8.77611 8.17938 8.73573C8.18463 8.7329 8.19075 8.73216 8.19653 8.73364C8.2023 8.73513 8.20731 8.73874 8.21057 8.74376C8.21211 8.74531 8.21366 8.74686 8.21366 8.74841C8.29795 8.70933 8.38199 8.67335 8.46164 8.62623C8.5364 8.58249 8.60677 8.53227 8.67689 8.48205C8.67843 8.4805 8.68024 8.48049 8.68153 8.47894ZM9.06691 7.16471C9.1231 7.22114 9.23523 7.20251 9.31179 7.16471C9.36866 7.13265 9.43418 7.1195 9.49894 7.12718C9.51776 7.12718 9.51776 7.08938 9.51776 7.06919C9.56634 7.08567 9.61764 7.09252 9.66882 7.08939C10.1174 7.01433 10.5542 6.88066 10.9683 6.69178C10.477 6.3141 9.85777 6.1826 9.27442 6.01175C9.33035 6.01175 9.38655 6.06818 9.44275 6.01175C9.34917 5.93668 9.23524 5.97422 9.14192 5.91805C9.16203 5.91805 9.1994 5.93668 9.21822 5.89759C9.07185 5.84392 8.92019 5.80609 8.76582 5.78473C8.80918 5.77687 8.84824 5.7535 8.87577 5.71895C8.90331 5.6844 8.91745 5.64101 8.91559 5.5968C8.91559 5.57635 8.87821 5.57635 8.85939 5.57635C8.63709 5.70009 8.46905 5.90301 8.38843 6.14506C8.52093 6.21858 8.67225 6.16215 8.8032 6.1826C8.747 6.23903 8.65188 6.23903 8.57867 6.25793C8.51938 6.27191 8.46474 6.3141 8.48355 6.35164C8.49361 6.36593 8.50857 6.37598 8.52557 6.37985C8.48112 6.39115 8.44063 6.41453 8.40854 6.44741C8.48355 6.50384 8.55831 6.46605 8.63487 6.46605C8.63487 6.50384 8.67225 6.50384 8.69107 6.52248C8.60855 6.55198 8.54082 6.61275 8.50237 6.69178C8.46474 6.7873 8.37116 6.82483 8.31497 6.90016V6.95633C8.1153 7.09934 7.93217 7.2643 7.76899 7.44816C7.78781 7.44816 7.78781 7.46706 7.78781 7.48596C7.74889 7.54213 7.67387 7.56103 7.65505 7.61901C7.65505 7.63791 7.65506 7.65499 7.67387 7.65499C7.9002 7.57992 8.06853 7.41063 8.27604 7.33401C8.42736 7.29647 8.53975 7.20251 8.67225 7.16471C8.76582 7.14608 8.87821 7.10828 8.97178 7.08939C8.97178 7.10828 8.97179 7.12718 8.99189 7.12718H9.14192C9.1231 7.16471 9.04809 7.14608 9.06691 7.16471Z" fill="#000091"/>
<path d="M28.9492 0H17.4331C17.4717 0.0106279 17.5084 0.0265019 17.542 0.0471122C17.6359 0.0939658 17.7568 0.155057 17.8341 0.192591C17.9886 0.259458 18.1216 0.363209 18.2195 0.493386C18.2597 0.55137 18.3204 0.663974 18.2799 0.739302C18.2397 0.834822 18.2195 0.985219 18.1173 1.02275C17.9827 1.07321 17.8354 1.08633 17.693 1.06055C17.6112 1.05731 17.5301 1.04462 17.4517 1.02275C17.7624 1.11688 18.0365 1.29453 18.2397 1.53348C18.2597 1.57102 18.3403 1.58991 18.4226 1.58991C18.4409 1.58991 18.4409 1.62745 18.4409 1.64635C18.4007 1.68543 18.3619 1.70278 18.3805 1.7605H18.4409C18.5432 1.72297 18.5232 1.53348 18.664 1.58991C18.7138 1.61847 18.7499 1.66384 18.7649 1.71662C18.7798 1.76939 18.7725 1.82552 18.7443 1.87337C18.6689 1.94191 18.5882 2.00524 18.503 2.06285C18.4931 2.08359 18.488 2.10603 18.488 2.12873C18.488 2.15143 18.4931 2.17387 18.503 2.19461C18.5534 2.26277 18.5876 2.34015 18.6036 2.42163C18.664 2.55313 18.6842 2.70508 18.7443 2.83839C18.8416 3.11214 18.8898 3.39902 18.887 3.68745C18.887 3.8394 18.8047 3.97091 18.8668 4.12286C18.9204 4.264 18.9949 4.39741 19.0882 4.51917C19.1694 4.61529 19.2439 4.71619 19.3113 4.82126C19.4318 5.011 19.6549 5.19893 19.5526 5.42595C19.4939 5.55927 19.2728 5.54037 19.13 5.61544C19.0078 5.70966 19.1098 5.86162 19.1702 5.95558C19.2728 6.12617 19.0494 6.23903 18.907 6.29546C18.9472 6.35189 19.0278 6.333 19.0494 6.37053C19.068 6.46605 19.1702 6.52248 19.1098 6.61645C19.0278 6.73086 18.7845 6.7873 18.907 6.95633C18.9361 7.02302 18.9494 7.09481 18.9459 7.16675C18.9425 7.2387 18.9224 7.3091 18.887 7.37309C18.8564 7.44488 18.8071 7.5084 18.7436 7.55789C18.68 7.60739 18.6043 7.6413 18.5232 7.65655C18.3986 7.69099 18.267 7.69746 18.1392 7.67544C18.1017 7.65472 18.0599 7.64183 18.0167 7.63765C17.676 7.57492 17.3317 7.5305 16.9856 7.50459C16.8881 7.51845 16.7928 7.54376 16.7021 7.57992C16.6141 7.64076 16.5322 7.70886 16.4572 7.78339L16.4558 7.7852C16.4396 7.7999 16.4244 7.81555 16.4104 7.83205C16.402 7.83982 16.3934 7.85095 16.3851 7.86027C16.3785 7.86648 16.3735 7.87295 16.3668 7.8789C16.3092 7.94848 16.256 8.02117 16.2075 8.09661C16.2042 8.10163 16.2013 8.10691 16.1989 8.1124C16.1939 8.12042 16.189 8.12974 16.184 8.13751C16.1202 8.24826 16.0685 8.36473 16.0296 8.48515C15.8922 8.91771 15.9526 9.28891 16.0498 9.37951C16.0767 9.40488 16.7171 9.58945 17.1632 9.77428C17.328 9.83877 17.4877 9.9142 17.6409 10H28.9492V0Z" fill="#E1000F"/>
<path d="M17.9181 3.5447C17.9913 3.56305 18.1007 3.56306 18.1007 3.59952C18.0657 3.74713 17.8434 3.78359 17.734 3.9297H17.6792C17.6244 3.96616 17.641 4.05895 17.5864 4.05895C17.5311 4.0469 17.4733 4.05334 17.422 4.07731C17.455 4.11675 17.4973 4.1474 17.5451 4.16653C17.5929 4.18566 17.6447 4.19268 17.6958 4.18695C17.7119 4.19191 17.7261 4.20171 17.7365 4.21503C17.7468 4.22835 17.7528 4.24454 17.7537 4.26139C17.7605 4.26054 17.7671 4.25835 17.7731 4.25494C17.7791 4.25153 17.7844 4.24697 17.7886 4.24152C17.8085 4.24152 17.8253 4.24152 17.8253 4.26139V4.33457C17.7705 4.40749 17.6792 4.37103 17.606 4.38914C17.7442 4.42564 17.8896 4.42564 18.0278 4.38914C18.1387 4.35267 18.0278 4.16859 18.1007 4.07731C18.0657 4.07731 18.1007 4.02098 18.0657 4.02098C18.1007 3.98603 18.1387 3.9297 18.1751 3.91134C18.1964 3.9118 18.2176 3.90708 18.2367 3.89757C18.2558 3.88807 18.2723 3.87407 18.2848 3.85677C18.2848 3.82006 18.2103 3.8017 18.2299 3.76524C18.3396 3.69231 18.4324 3.58116 18.3944 3.47152C18.3775 3.41695 18.2299 3.41695 18.1387 3.37873C18.0344 3.35789 17.9265 3.36421 17.8253 3.39708C17.7317 3.41247 17.64 3.43742 17.5515 3.47152C17.426 3.514 17.3078 3.57567 17.2012 3.65434C17.3329 3.60682 17.4683 3.57015 17.606 3.5447C17.7096 3.53099 17.8145 3.53099 17.9181 3.5447Z" fill="#808080"/>
<path d="M24.668 63.0594C24.8656 63.0594 25.0361 63.2103 24.9448 63.5905L24.0257 63.8035C24.1854 63.376 24.4532 63.0594 24.668 63.0594ZM25.1762 64.543H24.9936C24.7638 64.8154 24.5173 65.0284 24.2724 65.0284C24.0197 65.0284 23.8919 64.8793 23.8919 64.543C23.8925 64.4066 23.9068 64.2705 23.9344 64.1369L25.4166 63.6483C25.7058 62.9636 25.3588 62.6638 24.9509 62.6638C24.2495 62.6638 23.4536 63.8354 23.4536 64.8642C23.4536 65.3236 23.6711 65.5748 24.0151 65.5748C24.4167 65.5748 24.8337 65.1838 25.1762 64.543ZM24.881 62.3915L25.9248 61.4175V61.3049H25.3633L24.7213 62.3915H24.881ZM21.6823 63.0762H22.1739L21.3916 65.2112C21.3719 65.2488 21.3622 65.2908 21.3634 65.3332C21.3645 65.3755 21.3765 65.4169 21.3982 65.4534C21.4199 65.4898 21.4505 65.5201 21.4872 65.5414C21.5239 65.5626 21.5654 65.5742 21.6078 65.5748C21.9116 65.535 22.2004 65.4189 22.4473 65.2375C22.6941 65.056 22.8911 64.8151 23.0198 64.537H22.8798C22.6346 64.7989 22.3218 64.9879 21.976 65.0832L22.6927 63.0762H23.4262L23.5175 62.7717H22.8053L23.0792 62.0002H22.7948L22.2865 62.7717L21.6823 62.8569V63.0762ZM21.0174 62.9744C21.0321 62.9428 21.039 62.9081 21.0377 62.8733C21.0363 62.8385 21.0267 62.8045 21.0096 62.7742C20.9925 62.7438 20.9684 62.718 20.9393 62.6988C20.9102 62.6796 20.877 62.6676 20.8423 62.6638C20.4131 62.6638 19.9049 63.0503 19.7027 63.5905H19.841C19.9785 63.3732 20.1889 63.2119 20.4345 63.1356L19.6157 65.2643C19.5993 65.2959 19.5912 65.3312 19.592 65.3668C19.5928 65.4024 19.6025 65.4372 19.6203 65.4681C19.638 65.499 19.6632 65.5249 19.6935 65.5436C19.7239 65.5622 19.7584 65.573 19.794 65.5748C20.2001 65.5748 20.6764 65.1838 20.8788 64.6497H20.7405C20.6017 64.8665 20.391 65.0276 20.1453 65.1046L21.0174 62.9744ZM21.168 61.9044C21.2378 61.9043 21.306 61.8836 21.364 61.8448C21.4221 61.806 21.4673 61.7509 21.494 61.6864C21.5207 61.6219 21.5276 61.551 21.514 61.4825C21.5004 61.4141 21.4668 61.3512 21.4174 61.3019C21.3681 61.2525 21.3052 61.2189 21.2368 61.2053C21.1683 61.1917 21.0974 61.1986 21.0329 61.2253C20.9684 61.252 20.9133 61.2972 20.8745 61.3553C20.8357 61.4133 20.815 61.4815 20.8149 61.5513C20.8148 61.5977 20.8239 61.6436 20.8416 61.6865C20.8593 61.7294 20.8853 61.7683 20.9181 61.8012C20.9509 61.834 20.9899 61.86 21.0328 61.8777C21.0757 61.8954 21.1216 61.9045 21.168 61.9044ZM16.4537 65.1793C16.3471 65.4197 16.46 65.5748 16.6941 65.5748C16.7548 65.5831 16.8164 65.5679 16.8662 65.5322C16.916 65.4965 16.9502 65.4431 16.9619 65.383L17.5297 63.8797C17.7913 63.5585 18.3329 63.216 18.5462 63.216C18.7013 63.216 18.68 63.344 18.5779 63.5357L17.706 65.2112C17.6857 65.2486 17.6754 65.2906 17.6762 65.3331C17.677 65.3756 17.6887 65.4172 17.7104 65.4539C17.732 65.4905 17.7628 65.5209 17.7996 65.5421C17.8365 65.5633 17.8782 65.5746 17.9208 65.5748C18.3483 65.5748 18.8565 65.1898 19.0604 64.6497H18.9204C18.782 64.8662 18.5719 65.0272 18.3269 65.1046L19.0755 63.5905C19.1622 63.4306 19.2122 63.2533 19.2219 63.0717C19.2276 63.0176 19.2213 62.963 19.2035 62.9116C19.1857 62.8603 19.1568 62.8135 19.1189 62.7745C19.081 62.7356 19.0349 62.7055 18.9841 62.6864C18.9332 62.6672 18.8787 62.6595 18.8245 62.6638C18.4564 62.6638 18.082 63.0823 17.6376 63.595V63.1994C17.6376 62.9165 17.5463 62.6638 17.2891 62.6638C17.1294 62.6638 16.9727 62.8039 16.8281 63.0015V63.0548C17.1065 63.038 17.2297 63.4564 17.0321 63.8948L16.4537 65.1793ZM16.4431 63.3166C16.545 62.9696 16.4919 62.6638 16.2241 62.6638C15.909 62.6638 15.8283 62.9042 15.5071 63.595V63.1994C15.5071 62.9165 15.4159 62.6638 15.1604 62.6638C14.8589 62.6638 14.5865 63.1295 14.378 63.5905H14.5166C14.6612 63.3805 14.7952 63.2573 14.9031 63.2573C15.0309 63.2573 15.101 63.4564 14.9031 63.8948L14.3247 65.1793C14.2169 65.4197 14.3295 65.5748 14.5651 65.5748C14.6259 65.5832 14.6875 65.5679 14.7374 65.5323C14.7872 65.4966 14.8215 65.4431 14.8332 65.383L15.4008 63.8797C15.5605 63.6802 15.7051 63.5097 15.8861 63.3166H16.4431ZM13.1577 63.0594C13.3556 63.0594 13.5261 63.2103 13.4363 63.5905L12.5157 63.8035C12.6768 63.376 12.9447 63.0594 13.1577 63.0594ZM13.6659 64.543H13.4833C13.255 64.8154 13.0085 65.0284 12.7606 65.0284C12.5094 65.0284 12.3816 64.8793 12.3816 64.543C12.3821 64.4065 12.3969 64.2704 12.4259 64.1369L13.9063 63.6483C14.1955 62.9636 13.8469 62.6638 13.4423 62.6638C12.7407 62.6638 11.9418 63.8354 11.9418 64.8642C11.9418 65.3236 12.1626 65.5748 12.5048 65.5748C12.9067 65.5748 13.3251 65.1838 13.6659 64.543ZM10.1722 63.0762H10.6636L9.88301 65.2112C9.86305 65.2485 9.85299 65.2903 9.8538 65.3326C9.85461 65.3748 9.86626 65.4162 9.88764 65.4527C9.90901 65.4892 9.93939 65.5196 9.97588 65.541C10.0124 65.5623 10.0537 65.574 10.096 65.5748C10.4001 65.5352 10.6892 65.4193 10.9364 65.2378C11.1836 65.0564 11.3809 64.8153 11.5098 64.537H11.3697C11.1246 64.7982 10.8125 64.9871 10.4674 65.0832L11.1826 63.0762H11.9159L12.0074 62.7717H11.2965L11.5676 62.0002H11.286L10.7762 62.7717L10.1722 62.8569V63.0762ZM7.46965 64.7394C7.46965 64.0821 8.20318 63.1889 8.61535 63.1889C8.70013 63.188 8.78464 63.1987 8.86656 63.2206L8.43906 64.3605C8.19086 64.6602 7.8119 65.0239 7.63537 65.0239C7.53352 65.0239 7.46965 64.9389 7.46965 64.7394ZM9.72182 62.5406L9.49801 62.5252L9.24704 62.7717H9.19373C7.97334 62.7717 6.91867 64.1415 6.91867 65.1365C6.91357 65.1955 6.92146 65.2549 6.94178 65.3105C6.9621 65.3661 6.99436 65.4165 7.03629 65.4583C7.07822 65.5001 7.1288 65.5322 7.18447 65.5523C7.24014 65.5724 7.29954 65.5801 7.3585 65.5748C7.67359 65.5748 7.9839 65.1259 8.33068 64.6434L8.31559 64.8154C8.27158 65.3085 8.42222 65.5748 8.67947 65.5748C8.97922 65.5748 9.25157 65.1091 9.46003 64.6497H9.32147C9.17688 64.8581 9.0431 64.9814 8.93647 64.9814C8.82381 64.9814 8.74334 64.7774 8.93647 64.3436L9.72182 62.5406ZM7.12111 63.3166C7.22471 62.9696 7.1714 62.6638 6.90359 62.6638C6.58698 62.6638 6.50652 62.9042 6.18539 63.595V63.1994C6.18539 62.9165 6.09536 62.6638 5.83836 62.6638C5.5371 62.6638 5.26601 63.1295 5.05603 63.5905H5.1961C5.33919 63.3805 5.47322 63.2573 5.5811 63.2573C5.71061 63.2573 5.77901 63.4564 5.5811 63.8948L5.00297 65.1793C4.89484 65.4197 5.00901 65.5748 5.24338 65.5748C5.30415 65.5836 5.36594 65.5685 5.41585 65.5327C5.46575 65.497 5.49991 65.4433 5.51119 65.383L6.07876 63.8797C6.23845 63.6802 6.38304 63.5097 6.56561 63.3166H7.12111ZM3.02314 65.4682L3.07646 65.3025C2.36429 65.1684 2.27452 65.1685 2.55742 64.3924L2.84661 63.595H3.63346C3.98653 63.595 3.99256 63.7396 3.93925 64.1246H4.14168L4.61168 62.8358H4.4095C4.23297 63.1401 4.0929 63.3652 3.7079 63.3652H2.93186L3.34427 62.2361C3.47202 61.877 3.54822 61.8025 4.02903 61.8025H4.37128C4.86894 61.8025 4.92829 61.9366 4.92829 62.44H5.12619L5.29191 61.5621H2.33839L2.28508 61.7278C2.85717 61.845 2.91049 61.8983 2.64267 62.6379L2.00067 64.3924C1.73285 65.126 1.6217 65.1838 0.962848 65.3025L0.914062 65.4682H3.02314Z" fill="black"/>
<path d="M17.5023 56.3721C17.7002 56.3721 17.872 56.5212 17.7807 56.9017L16.8603 57.1162C17.0215 56.6872 17.2893 56.3721 17.5023 56.3721ZM18.0105 57.8543H17.828C17.5981 58.1269 17.3532 58.3414 17.1065 58.3414C16.8555 58.3414 16.7278 58.192 16.7278 57.8543C16.7273 57.7178 16.741 57.5816 16.7688 57.4479L18.2524 56.9596C18.5401 56.2748 18.1916 55.975 17.787 55.975C17.0854 55.975 16.288 57.1482 16.288 58.1754C16.288 58.6351 16.5072 58.8876 16.8495 58.8876C17.2511 58.8876 17.668 58.4965 18.0105 57.8543ZM17.7168 55.7025L18.7607 54.7288V54.6161H18.1976L17.5556 55.7025H17.7168ZM14.5151 56.3875H15.0097L14.2277 58.5222C14.2078 58.5597 14.1979 58.6017 14.1988 58.6441C14.1998 58.6866 14.2116 58.7281 14.2331 58.7647C14.2545 58.8013 14.285 58.8318 14.3216 58.8533C14.3582 58.8748 14.3997 58.8866 14.4422 58.8876C14.7461 58.8476 15.035 58.7313 15.282 58.5496C15.5289 58.3678 15.7258 58.1266 15.8544 57.8483H15.7159C15.4707 58.1103 15.1578 58.2994 14.8118 58.3944L15.527 56.3875H16.2605L16.3518 56.0832H15.6412L15.912 55.3117H15.6291L15.1209 56.0832L14.5151 56.1682V56.3875ZM13.8532 56.2869C13.868 56.2551 13.875 56.2202 13.8737 56.1852C13.8723 56.1502 13.8625 56.116 13.8453 56.0855C13.828 56.055 13.8037 56.029 13.7744 56.0098C13.745 55.9906 13.7116 55.9787 13.6767 55.975C13.2477 55.975 12.7395 56.3616 12.537 56.9017H12.6753C12.8136 56.6844 13.0245 56.5231 13.2706 56.4468L12.4518 58.5755C12.4353 58.607 12.427 58.6421 12.4275 58.6776C12.4281 58.7131 12.4374 58.7479 12.4548 58.7789C12.4722 58.8099 12.497 58.8361 12.527 58.855C12.5571 58.874 12.5914 58.8852 12.6268 58.8876C13.0347 58.8876 13.511 58.4965 13.7132 57.9609H13.5748C13.4368 58.1777 13.2266 58.3388 12.9814 58.4158L13.8532 56.2869ZM14.0039 55.2156C14.0974 55.2156 14.1872 55.1784 14.2534 55.1123C14.3196 55.0461 14.3568 54.9564 14.3569 54.8628C14.3569 54.769 14.3196 54.679 14.2533 54.6126C14.1869 54.5463 14.0969 54.509 14.0031 54.509C13.9093 54.509 13.8193 54.5463 13.7529 54.6126C13.6866 54.679 13.6493 54.769 13.6493 54.8628C13.649 54.9094 13.658 54.9555 13.6757 54.9986C13.6934 55.0416 13.7196 55.0807 13.7526 55.1136C13.7856 55.1464 13.8248 55.1723 13.868 55.1899C13.9111 55.2074 13.9573 55.2161 14.0039 55.2156ZM11.1552 58.4158L12.6494 54.505L12.6009 54.4456L11.6634 54.5522V54.6649L11.8475 54.8032C12.012 54.9327 11.9586 55.0559 11.808 55.4515L10.644 58.5222C10.6233 58.5595 10.6127 58.6015 10.6132 58.6441C10.6137 58.6868 10.6253 58.7285 10.6467 58.7654C10.6682 58.8022 10.6988 58.8328 10.7357 58.8542C10.7725 58.8757 10.8143 58.8871 10.857 58.8876C11.2847 58.8876 11.7396 58.5011 11.9436 57.9609H11.8035C11.6448 58.1812 11.4164 58.3415 11.1552 58.4158ZM8.32037 58.0522C8.32037 57.3933 9.05391 56.5001 9.46456 56.5001C9.54987 56.4991 9.63491 56.5099 9.71729 56.5321L9.28979 57.6717C9.0431 57.9715 8.66262 58.3351 8.48634 58.3351C8.38424 58.3351 8.32037 58.2499 8.32037 58.0522ZM10.5738 55.8518L10.3487 55.8365L10.0963 56.0832H10.0429C8.82256 56.0832 7.7694 57.4524 7.7694 58.4478C7.76412 58.5067 7.77182 58.5661 7.79196 58.6218C7.8121 58.6774 7.84418 58.728 7.88597 58.7699C7.92775 58.8118 7.9782 58.8441 8.03379 58.8644C8.08938 58.8847 8.14874 58.8927 8.20771 58.8876C8.52431 58.8876 8.83463 58.4369 9.18317 57.9564L9.16632 58.1269C9.12382 58.6198 9.27294 58.8876 9.53019 58.8876C9.82844 58.8876 10.1023 58.4203 10.3108 57.9609H10.1722C10.0261 58.1691 9.89231 58.2926 9.78569 58.2926C9.67454 58.2926 9.59407 58.0902 9.78569 57.6551L10.5738 55.8518ZM5.12619 59.4051C5.12619 59.1219 5.39853 58.9454 5.78982 58.7903C5.97735 58.8763 6.17051 58.9495 6.36795 59.0093C6.77433 59.1433 6.92949 59.1979 6.92949 59.3199C6.92949 59.5831 6.48514 59.7808 5.88111 59.7808C5.37263 59.7808 5.12619 59.6727 5.12619 59.4051ZM6.23417 57.6778C6.05739 57.6778 5.98748 57.5271 5.98748 57.3569C5.98748 56.8803 6.24473 56.179 6.64633 56.179C6.82286 56.179 6.89152 56.3281 6.89152 56.5001C6.89152 56.9761 6.63577 57.6778 6.23417 57.6778ZM7.39521 59.1433C7.39521 58.8008 7.09068 58.6776 6.59176 58.5285C6.16401 58.3992 5.97088 58.3625 5.97088 58.2242C5.98198 58.1477 6.01319 58.0756 6.0613 58.0152C6.10942 57.9547 6.17272 57.9081 6.24473 57.8802C6.5511 57.8579 6.8385 57.7235 7.05189 57.5025C7.26528 57.2816 7.38967 56.9896 7.40125 56.6827C7.40174 56.5813 7.38154 56.4808 7.3419 56.3875H7.93537L8.02665 56.0832H7.08464C6.97021 56.0128 6.83854 55.9753 6.70417 55.975C6.38755 55.9789 6.08438 56.1036 5.85668 56.3237C5.62897 56.5437 5.49396 56.8424 5.47926 57.1587C5.47121 57.3257 5.52421 57.49 5.62837 57.6208C5.73253 57.7516 5.88073 57.8401 6.04532 57.8696C5.69854 58.0248 5.50667 58.2074 5.50667 58.4203C5.50442 58.4767 5.51635 58.5327 5.54135 58.5832C5.56634 58.6337 5.60362 58.6772 5.64975 58.7095C4.84781 58.9454 4.53297 59.2132 4.53297 59.5922C4.53297 59.9619 5.01831 60.117 5.59644 60.117C6.57642 60.117 7.39521 59.5877 7.39521 59.1433ZM3.65484 56.8532C4.0079 56.8532 4.01243 56.9975 3.95912 57.3825H4.16306L4.63331 56.0937H4.43088C4.25284 56.398 4.11428 56.6233 3.72927 56.6233H2.95324L3.34427 55.5473C3.47227 55.1882 3.54671 55.1198 4.02928 55.1198H4.37002C4.86894 55.1198 4.92854 55.2538 4.92854 55.7512H5.12619L5.29216 54.8734H2.33839L2.28382 55.0391C2.85592 55.1565 2.90898 55.2111 2.64267 55.9491L2.00067 57.7037C1.73285 58.4369 1.6217 58.4965 0.962848 58.6137L0.914062 58.7794H4.19952L4.78847 57.8483H4.5634C4.3707 58.0568 4.13865 58.2252 3.88062 58.3438C3.62258 58.4624 3.34364 58.5287 3.05986 58.539C2.18776 58.539 2.26848 58.5011 2.55767 57.7037L2.86799 56.8532H3.65484ZM4.08234 54.6116L5.12619 53.8949V53.7822H4.49475L3.91637 54.6116H4.08234Z" fill="black"/>
<path d="M17.1553 49.6829C17.3529 49.6829 17.5234 49.832 17.4322 50.2125L16.513 50.427C16.6727 49.9979 16.9405 49.6829 17.1553 49.6829ZM17.6635 51.165H17.4809C17.2496 51.4376 17.0047 51.6521 16.758 51.6521C16.507 51.6521 16.3775 51.5015 16.3775 51.165C16.3783 51.0286 16.3927 50.8925 16.4202 50.7589L17.9039 50.2718C18.1928 49.5855 17.8446 49.2873 17.4367 49.2873C16.7366 49.2873 15.9394 50.4589 15.9394 51.4861C15.9394 51.9456 16.16 52.1983 16.501 52.1983C16.9026 52.1983 17.3195 51.8073 17.6635 51.165ZM17.3683 49.0134L18.4121 48.0395V47.9283H17.8506L17.2083 49.0134H17.3683ZM14.3021 49.6997H14.6931L13.9123 51.8332C13.8925 51.8707 13.8826 51.9127 13.8836 51.9551C13.8846 51.9976 13.8964 52.039 13.9179 52.0756C13.9394 52.1122 13.97 52.1427 14.0066 52.1641C14.0432 52.1856 14.0846 52.1974 14.1271 52.1983C14.4306 52.1581 14.719 52.0419 14.9656 51.8605C15.2121 51.6791 15.4089 51.4383 15.5376 51.1605H15.4008C15.1542 51.4212 14.8411 51.6096 14.4952 51.7052L15.2119 49.6997H15.9455L16.0367 49.3939H15.3246L15.5969 48.6239H15.314L14.8058 49.3939L14.3021 49.4789V49.6997ZM13.9168 49.9401C14.0189 49.5916 13.9656 49.2873 13.6978 49.2873C13.3812 49.2873 13.3022 49.5277 12.9811 50.217V49.8214C12.9811 49.5385 12.8898 49.2873 12.6326 49.2873C12.3331 49.2873 12.0605 49.753 11.852 50.2125H11.9906C12.1349 50.004 12.269 49.8808 12.3753 49.8808C12.5048 49.8808 12.5732 50.0787 12.3753 50.5167L11.7972 51.8012C11.6908 52.0432 11.8035 52.1983 12.0394 52.1983C12.1837 52.1983 12.2478 52.1603 12.3054 52.0052L12.873 50.5016C13.0344 50.3037 13.179 50.132 13.3616 49.9401H13.9168ZM10.6316 49.6829C10.8311 49.6829 11.0015 49.832 10.9085 50.2125L9.98938 50.427C10.1493 49.9979 10.4171 49.6829 10.6316 49.6829ZM11.1399 51.165H10.9588C10.7274 51.4376 10.481 51.6521 10.2361 51.6521C9.98485 51.6521 9.8556 51.5015 9.8556 51.165C9.85637 51.0286 9.8706 50.8925 9.8981 50.7589L11.3803 50.2718C11.6695 49.5855 11.3224 49.2873 10.9145 49.2873C10.2132 49.2873 9.41728 50.4589 9.41728 51.4861C9.41728 51.9456 9.63632 52.1983 9.97882 52.1983C10.3804 52.1983 10.7976 51.8073 11.1399 51.165ZM7.50611 51.7648C7.36151 51.7648 7.15455 51.6307 7.15455 51.5136C7.1922 51.3728 7.24002 51.235 7.29764 51.1011L7.53955 50.4637C7.7953 50.1591 8.18634 49.832 8.40537 49.832C8.5394 49.832 8.64125 49.9187 8.64125 50.1166C8.64125 50.6993 8.09656 51.7648 7.50611 51.7648ZM9.19222 49.8808C9.19222 49.447 9.03228 49.2873 8.73253 49.2873C8.35809 49.2873 8.00377 49.6829 7.65221 50.1639L8.54518 47.8159L8.49665 47.7566L7.55942 47.863V47.9756L7.74199 48.1157C7.90921 48.2434 7.8559 48.3775 7.70552 48.7622L6.74214 51.2457C6.67719 51.3925 6.62527 51.5448 6.58698 51.7007C6.58698 51.9564 6.93376 52.1983 7.25036 52.1983C7.97787 52.1983 9.19222 50.8866 9.19222 49.8808ZM6.2812 49.5979C6.29614 49.5662 6.30324 49.5313 6.3019 49.4963C6.30055 49.4613 6.2908 49.4271 6.27346 49.3967C6.25613 49.3662 6.23172 49.3404 6.20229 49.3213C6.17287 49.3023 6.1393 49.2906 6.10441 49.2873C5.67691 49.2873 5.16869 49.6723 4.96475 50.2125H5.10482C5.24291 49.9957 5.45307 49.8346 5.69829 49.7575L4.87799 51.888C4.86222 51.9197 4.85452 51.9548 4.85557 51.9901C4.85661 52.0255 4.86638 52.0601 4.88399 52.0908C4.9016 52.1215 4.92652 52.1474 4.95653 52.1661C4.98654 52.1849 5.02072 52.1959 5.05603 52.1983C5.46241 52.1983 5.9402 51.8073 6.14263 51.2716H6.00408C5.86584 51.4889 5.65501 51.6501 5.4091 51.7266L6.2812 49.5979ZM6.43183 48.5263C6.47808 48.5263 6.52387 48.5171 6.56658 48.4993C6.60929 48.4816 6.64808 48.4556 6.68073 48.4228C6.71338 48.39 6.73925 48.3512 6.75686 48.3084C6.77448 48.2656 6.78349 48.2198 6.78338 48.1735C6.78338 48.1272 6.77427 48.0814 6.75656 48.0387C6.73884 47.9959 6.71288 47.957 6.68016 47.9243C6.64743 47.8916 6.60858 47.8656 6.56582 47.8479C6.52306 47.8302 6.47723 47.8211 6.43095 47.8211C6.38466 47.8211 6.33883 47.8302 6.29607 47.8479C6.25331 47.8656 6.21446 47.8916 6.18174 47.9243C6.14901 47.957 6.12305 47.9959 6.10534 48.0387C6.08763 48.0814 6.07851 48.1272 6.07851 48.1735C6.07807 48.22 6.08692 48.2661 6.10452 48.3092C6.12213 48.3522 6.14815 48.3913 6.18105 48.4242C6.21395 48.457 6.25308 48.483 6.29614 48.5005C6.3392 48.5181 6.38533 48.5268 6.43183 48.5263ZM4.27547 48.1841H2.32758L2.27427 48.3501C2.84661 48.4685 2.89992 48.5218 2.63211 49.2599L2.00067 51.0144C1.7326 51.7479 1.6217 51.8073 0.962847 51.9245L0.914062 52.0904H3.8784L4.5204 50.9445H4.29684C3.93146 51.3478 3.50396 51.85 2.84661 51.85C2.34744 51.85 2.28961 51.7648 2.55742 51.0144L3.18911 49.2599C3.45064 48.5263 3.56783 48.4685 4.22693 48.3501L4.27547 48.1841Z" fill="black"/>
<path d="M2.75561 14.5791H4.68978L7.44539 21.8582H5.87517L5.17847 19.9656H2.26692L1.57022 21.8582H0L2.75561 14.5791ZM4.72096 18.7075L3.72269 15.9725L2.72443 18.7075H4.72096Z" fill="black"/>
<path d="M8.56836 14.5791H10.409L12.1872 17.6363L13.9654 14.5791H15.8057V21.8582H14.3293V16.638L12.7071 19.3624H11.6673L10.045 16.638V21.8582H8.56836V14.5791Z" fill="black"/>
<path d="M17.832 14.5791H19.974C21.4924 14.5791 22.4177 15.3279 22.4177 16.5548C22.4222 16.8409 22.3528 17.1233 22.2162 17.3747C22.0795 17.6262 21.8803 17.8381 21.6377 17.9899C21.9884 18.1227 22.2905 18.3589 22.504 18.6671C22.7176 18.9753 22.8325 19.3411 22.8337 19.7161C22.8337 21.0471 21.8042 21.8582 20.1301 21.8582H17.832L17.832 14.5791ZM19.3084 15.8062V17.4492H20.0054C20.5668 17.4492 20.8995 17.1476 20.8995 16.6171C20.8995 16.1078 20.5668 15.8062 20.0054 15.8062H19.3084ZM19.3084 18.6763V20.6311H20.2131C20.8995 20.6311 21.3155 20.2671 21.3155 19.6537C21.3155 19.0297 20.8995 18.6763 20.2131 18.6763L19.3084 18.6763Z" fill="black"/>
<path d="M26.1934 14.5791H28.1273L30.8831 21.8582H29.3129L28.6162 19.9656H25.7044L25.0077 21.8582H23.4375L26.1934 14.5791ZM28.1585 18.7075L27.1602 15.9725L26.1619 18.7075H28.1585Z" fill="black"/>
<path d="M32.4225 19.862C32.6055 20.1238 32.8457 20.3404 33.125 20.4954C33.4043 20.6503 33.7153 20.7395 34.0343 20.7561C34.6165 20.7561 34.9701 20.4442 34.9701 19.9243C34.9701 18.5827 31.6635 18.9467 31.6635 16.4823C31.6635 15.3281 32.62 14.3714 34.0136 14.3714C34.5035 14.3693 34.9875 14.4788 35.4288 14.6914C35.8702 14.904 36.2574 15.2142 36.5612 15.5985L35.4797 16.5759C35.0534 16.0248 34.575 15.6609 34.0239 15.6609C33.9159 15.6504 33.8068 15.6624 33.7035 15.6962C33.6003 15.7299 33.5052 15.7846 33.4241 15.8569C33.3431 15.9291 33.2778 16.0173 33.2325 16.116C33.1872 16.2147 33.1627 16.3217 33.1607 16.4303C33.1607 17.751 36.4677 17.3767 36.4677 19.8723C36.4468 21.2448 35.3861 22.0665 34.0448 22.0665C33.5318 22.09 33.0205 21.9921 32.5525 21.7806C32.0844 21.5692 31.673 21.2502 31.3516 20.8497L32.4225 19.862Z" fill="black"/>
<path d="M38.4323 19.862C38.6152 20.1238 38.8555 20.3404 39.1348 20.4954C39.4141 20.6503 39.7251 20.7395 40.044 20.7561C40.6263 20.7561 40.9799 20.4442 40.9799 19.9243C40.9799 18.5827 37.6732 18.9467 37.6732 16.4823C37.6732 15.3281 38.6297 14.3714 40.0234 14.3714C40.5133 14.3693 40.9972 14.4788 41.4386 14.6914C41.88 14.904 42.2672 15.2142 42.571 15.5985L41.4895 16.5759C41.0632 16.0248 40.5848 15.6609 40.0337 15.6609C39.9256 15.6504 39.8165 15.6624 39.7133 15.6962C39.6101 15.7299 39.515 15.7846 39.4339 15.8569C39.3528 15.9291 39.2876 16.0173 39.2423 16.116C39.1969 16.2147 39.1725 16.3217 39.1705 16.4303C39.1705 17.751 42.4774 17.3767 42.4774 19.8723C42.4566 21.2448 41.3959 22.0665 40.0546 22.0665C39.5416 22.09 39.0302 21.9921 38.5622 21.7806C38.0942 21.5692 37.6828 21.2502 37.3613 20.8497L38.4323 19.862Z" fill="black"/>
<path d="M45.8672 14.5791H47.8011L50.557 21.8582H48.9868L48.29 19.9656H45.3782L44.6815 21.8582H43.1113L45.8672 14.5791ZM47.8323 18.7075L46.834 15.9725L45.8358 18.7075H47.8323Z" fill="black"/>
<path d="M51.6797 14.5791H54.5394C56.8478 14.5791 58.4077 16.2532 58.4077 18.2185C58.4077 20.1839 56.8478 21.8582 54.5394 21.8582H51.6797V14.5791ZM53.1563 15.9204V20.5167H54.5603C54.8647 20.5208 55.1669 20.4643 55.4493 20.3507C55.7317 20.237 55.9887 20.0684 56.2054 19.8546C56.4221 19.6408 56.5942 19.3861 56.7117 19.1052C56.8291 18.8244 56.8896 18.523 56.8896 18.2185C56.8896 17.9141 56.8291 17.6127 56.7117 17.3319C56.5942 17.051 56.4221 16.7963 56.2054 16.5825C55.9887 16.3687 55.7317 16.2001 55.4493 16.0864C55.1669 15.9728 54.8647 15.9163 54.5603 15.9204H53.1563Z" fill="black"/>
<path d="M59.832 14.5791H64.0749V15.8062H61.3087V17.5324H63.6589V18.7593H61.3087V20.6311H64.0749V21.8582H59.832V14.5791Z" fill="black"/>
<path d="M0.914062 25.1409H3.7738C6.08222 25.1409 7.64212 26.815 7.64212 28.7803C7.64212 30.7457 6.08222 32.42 3.7738 32.42H0.914062V25.1409ZM2.39071 26.4822V31.0784H3.79442C4.09882 31.0825 4.401 31.0261 4.68342 30.9125C4.96583 30.7988 5.22285 30.6302 5.43956 30.4164C5.65627 30.2026 5.82834 29.9479 5.94579 29.667C6.06323 29.3861 6.12371 29.0847 6.12371 28.7803C6.12371 28.4759 6.06323 28.1745 5.94579 27.8936C5.82834 27.6128 5.65627 27.3581 5.43956 27.1443C5.22285 26.9304 4.96583 26.7618 4.68342 26.6482C4.401 26.5345 4.09882 26.4781 3.79442 26.4822H2.39071Z" fill="black"/>
<path d="M9.06641 25.1409H13.309V26.368H10.5431V28.0942H12.8932V29.3211H10.5431V31.1929H13.309V32.42H9.06641V25.1409Z" fill="black"/>
<path d="M17.7285 25.1409H21.9711V26.368H19.2052V28.0942H21.5553V29.3211H19.2052V32.42H17.7285L17.7285 25.1409Z" fill="black"/>
<path d="M23.2715 25.1409H25.4969C27.0983 25.1409 28.086 25.9623 28.086 27.3142C28.1042 27.7101 28.0016 28.1022 27.7917 28.4384C27.5818 28.7745 27.2746 29.0389 26.9109 29.1963L29.1884 32.42H27.4517L25.5072 29.477H24.7481V32.42H23.2715V25.1409ZM24.7481 26.368V28.2501H25.5799C26.2039 28.2501 26.5679 27.8862 26.5679 27.2933C26.5679 26.7423 26.2039 26.368 25.5799 26.368H24.7481Z" fill="black"/>
<path d="M31.9646 25.1409H33.8988L36.6544 32.42H35.0842L34.3875 30.5273H31.4759L30.7792 32.42H29.209L31.9646 25.1409ZM33.9299 29.2693L32.9317 26.5343L31.9334 29.2693H33.9299Z" fill="black"/>
<path d="M37.7773 25.1409H39.6698L42.9246 30.4026V25.1409H44.4013V32.42H42.5086L39.2538 27.1583V32.42H37.7773V25.1409Z" fill="black"/>
<path d="M51.5868 30.2466L52.7513 31.1407C52.3954 31.615 51.9313 31.9974 51.3978 32.2561C50.8642 32.5148 50.2766 32.6423 49.6838 32.6279C49.0328 32.6217 48.3941 32.4504 47.8274 32.13C47.2607 31.8097 46.7845 31.3508 46.4434 30.7963C46.1024 30.2418 45.9075 29.6099 45.8772 28.9596C45.8469 28.3093 45.9821 27.662 46.2701 27.0782C46.558 26.4943 46.9894 25.9931 47.5239 25.6214C48.0583 25.2498 48.6783 25.0197 49.3259 24.9529C49.9734 24.8861 50.6274 24.9847 51.2264 25.2394C51.8255 25.4942 52.3502 25.8967 52.7513 26.4094L51.5868 27.3142C51.3763 27.0039 51.0925 26.7505 50.7605 26.5763C50.4285 26.4022 50.0587 26.3127 49.6838 26.3159C48.311 26.3159 47.3336 27.3868 47.3336 28.7802C47.3336 30.1736 48.311 31.2449 49.6838 31.2449C50.0587 31.248 50.4285 31.1585 50.7605 30.9844C51.0924 30.8102 51.3763 30.5568 51.5868 30.2466Z" fill="black"/>
<path d="M54.0293 25.1409H58.2721V26.368H55.5059V28.0942H57.8561V29.3211H55.5059V31.1929H58.2721V32.42H54.0293V25.1409Z" fill="black"/>
<path d="M0.914062 35.7026H5.15664V36.9295H2.39072V38.6557H4.74089V39.8828H2.39072V41.7544H5.15664V42.9815H0.914062V35.7026Z" fill="black"/>
<path d="M6.87305 35.7026H8.76546L12.0203 40.9641V35.7026H13.497V42.9815H11.6043L8.34946 37.7198V42.9815H6.87305V35.7026Z" fill="black"/>
<path d="M20.0798 35.7026H22.014L24.7696 42.9815H23.1994L22.5027 41.0889H19.5911L18.8944 42.9815H17.3242L20.0798 35.7026ZM22.0452 39.8308L21.0469 37.096L20.0486 39.8308H22.0452Z" fill="black"/>
<path d="M25.8926 35.7026H28.118C29.7194 35.7026 30.7071 36.5241 30.7071 37.8757C30.7253 38.2716 30.6227 38.6637 30.4128 38.9999C30.2029 39.3361 29.8957 39.6004 29.532 39.7578L31.8095 42.9815H30.0728L28.1283 40.0388H27.3692V42.9815H25.8926V35.7026ZM27.3692 36.9295V38.8116H28.201C28.825 38.8116 29.189 38.4477 29.189 37.8551C29.189 37.304 28.825 36.9295 28.201 36.9295H27.3692Z" fill="black"/>
<path d="M37.7883 41.1719V39.9033H35.9374V38.6452H39.2649V41.7024C38.8897 42.1814 38.4072 42.5655 37.8563 42.8238C37.3054 43.0821 36.7015 43.2073 36.0933 43.1893C33.7328 43.1893 32.1211 41.4214 32.1211 39.3419C32.1292 38.5379 32.3864 37.7563 32.8574 37.1046C33.3283 36.4529 33.9897 35.9634 34.7505 35.7033C35.5112 35.4433 36.334 35.4255 37.1052 35.6526C37.8765 35.8796 38.5584 36.3403 39.0569 36.9711L37.8921 37.8755C37.6817 37.5653 37.3979 37.3118 37.0659 37.1377C36.7339 36.9635 36.364 36.8741 35.9892 36.8773C34.6166 36.8773 33.6392 37.9485 33.6392 39.3419C33.63 39.6671 33.6871 39.9909 33.807 40.2934C33.9269 40.5959 34.1072 40.8708 34.3368 41.1013C34.5664 41.3319 34.8405 41.5133 35.1425 41.6345C35.4445 41.7557 35.768 41.8141 36.0933 41.8062C36.7189 41.8208 37.326 41.5936 37.7883 41.1719Z" fill="black"/>
<path d="M40.9062 35.7026H45.1488V36.9295H42.3827V38.6557H44.7328V39.8828H42.3827V41.7544H45.1488V42.9815H40.9062V35.7026Z" fill="black"/>
<path d="M46.8652 35.7026H48.7579L52.0128 40.9641V35.7026H53.4892V42.9815H51.5968L48.3419 37.7198V42.9815H46.8652V35.7026Z" fill="black"/>
<path d="M54.7793 35.7026H60.748V37.044H58.502V42.9815H57.0253V37.044H54.7793V35.7026Z" fill="black"/>
<path d="M62.0469 35.7026H63.5235V42.9815H62.0469V35.7026Z" fill="black"/>
<path d="M65.5625 35.7026H67.4552L70.71 40.9641V35.7026H72.1864V42.9815H70.294L67.0392 37.7198V42.9815H65.5625V35.7026Z" fill="black"/>
<path d="M74.2227 35.7026H78.4655V36.9295H75.6993V38.6557H78.0495V39.8828H75.6993V41.7544H78.4655V42.9815H74.2227V35.7026Z" fill="black"/>
</svg>
