<svg width="47" height="31" viewBox="0 0 47 31" fill="none" xmlns="http://www.w3.org/2000/svg">
<path d="M6.87305 8.3418H4.12207V13H1.43262V0.0449219H7.0752C8.37598 0.0449219 9.41309 0.378906 10.1865 1.04688C10.96 1.71484 11.3467 2.74902 11.3467 4.14941C11.3467 5.67871 10.96 6.75977 10.1865 7.39258C9.41309 8.02539 8.30859 8.3418 6.87305 8.3418ZM8.13867 5.64355C8.49023 5.33301 8.66602 4.84082 8.66602 4.16699C8.66602 3.49316 8.4873 3.0127 8.12988 2.72559C7.77832 2.43848 7.2832 2.29492 6.64453 2.29492H4.12207V6.10938H6.64453C7.2832 6.10938 7.78125 5.9541 8.13867 5.64355ZM18.5984 11.6465C18.5749 11.6758 18.5163 11.7637 18.4226 11.9102C18.3288 12.0566 18.2175 12.1855 18.0886 12.2969C17.696 12.6484 17.3152 12.8887 16.946 13.0176C16.5827 13.1465 16.155 13.2109 15.6628 13.2109C14.2448 13.2109 13.2898 12.7012 12.7976 11.6816C12.5222 11.1191 12.3845 10.29 12.3845 9.19434V3.41992H14.9509V9.19434C14.9509 9.73926 15.0154 10.1494 15.1443 10.4248C15.3728 10.9111 15.821 11.1543 16.489 11.1543C17.3445 11.1543 17.9304 10.8086 18.2468 10.1172C18.4109 9.74219 18.4929 9.24707 18.4929 8.63184V3.41992H21.0329V13H18.5984V11.6465ZM29.3393 3.85938C30.0893 4.33984 30.52 5.16602 30.6313 6.33789H28.1264C28.0912 6.01562 28.0004 5.76074 27.8539 5.57324C27.5786 5.2334 27.1098 5.06348 26.4477 5.06348C25.9028 5.06348 25.5131 5.14844 25.2787 5.31836C25.0502 5.48828 24.936 5.6875 24.936 5.91602C24.936 6.20312 25.059 6.41113 25.3051 6.54004C25.5512 6.6748 26.4213 6.90625 27.9155 7.23438C28.9116 7.46875 29.6586 7.82324 30.1567 8.29785C30.6489 8.77832 30.895 9.37891 30.895 10.0996C30.895 11.0488 30.5405 11.8252 29.8315 12.4287C29.1284 13.0264 28.0385 13.3252 26.562 13.3252C25.0561 13.3252 23.9428 13.0088 23.2221 12.376C22.5073 11.7373 22.1498 10.9258 22.1498 9.94141H24.6899C24.7426 10.3867 24.8569 10.7031 25.0327 10.8906C25.3432 11.2246 25.9174 11.3916 26.7553 11.3916C27.2475 11.3916 27.6371 11.3184 27.9243 11.1719C28.2172 11.0254 28.3637 10.8057 28.3637 10.5127C28.3637 10.2314 28.2465 10.0176 28.0121 9.87109C27.7778 9.72461 26.9077 9.47266 25.4018 9.11523C24.3178 8.8457 23.5532 8.50879 23.1079 8.10449C22.6625 7.70605 22.4399 7.13184 22.4399 6.38184C22.4399 5.49707 22.7856 4.73828 23.477 4.10547C24.1743 3.4668 25.1528 3.14746 26.4125 3.14746C27.6079 3.14746 28.5834 3.38477 29.3393 3.85938ZM40.6955 7.375V13H38.1379V7.17285C38.1379 6.65723 38.05 6.24121 37.8742 5.9248C37.6457 5.47949 37.2121 5.25684 36.5734 5.25684C35.9113 5.25684 35.4074 5.47949 35.0617 5.9248C34.7218 6.36426 34.5519 6.99414 34.5519 7.81445V13H32.0558V0.0888672H34.5519V4.66797C34.9152 4.11133 35.3341 3.72461 35.8088 3.50781C36.2892 3.28516 36.7931 3.17383 37.3205 3.17383C37.9123 3.17383 38.4484 3.27637 38.9289 3.48145C39.4152 3.68652 39.8136 4 40.1242 4.42188C40.3879 4.7793 40.549 5.14844 40.6076 5.5293C40.6662 5.9043 40.6955 6.51953 40.6955 7.375ZM5.15918 30.3164C3.84668 30.3164 2.82129 29.9297 2.08301 29.1562C1.34473 28.3828 0.975586 27.5244 0.975586 26.5811C0.975586 25.8018 1.16895 25.1338 1.55566 24.5771C1.94238 24.0205 2.5752 23.4697 3.4541 22.9248L3.72656 22.7578C3.35156 22.3359 3.06152 21.9053 2.85645 21.4658C2.65137 21.0264 2.54883 20.5693 2.54883 20.0947C2.54883 19.1514 2.86523 18.416 3.49805 17.8887C4.13086 17.3555 4.95117 17.0889 5.95898 17.0889C6.87891 17.0889 7.6377 17.3613 8.23535 17.9062C8.83887 18.4453 9.14062 19.1367 9.14062 19.9805C9.14062 20.7422 8.95898 21.3604 8.5957 21.835C8.23828 22.3096 7.71094 22.749 7.01367 23.1533L8.85059 25.4209C9.06152 25.1162 9.22266 24.7852 9.33398 24.4277C9.45117 24.0703 9.5127 23.6924 9.51855 23.2939H11.7422C11.707 24.0791 11.5195 24.873 11.1797 25.6758C10.9922 26.127 10.6875 26.625 10.2656 27.1699L12.6211 30H9.58008L8.68359 28.9014C8.25 29.3057 7.8457 29.6045 7.4707 29.7979C6.80273 30.1436 6.03223 30.3164 5.15918 30.3164ZM5.01855 24.3574C4.3916 24.7734 3.97559 25.1396 3.77051 25.4561C3.57129 25.7725 3.47168 26.1211 3.47168 26.502C3.47168 26.9297 3.64453 27.3223 3.99023 27.6797C4.3418 28.0371 4.79004 28.2158 5.33496 28.2158C5.74512 28.2158 6.13184 28.1221 6.49512 27.9346C6.86426 27.7412 7.16309 27.5273 7.3916 27.293L5.01855 24.3574ZM4.85156 20.0068C4.85156 20.2412 4.93359 20.4873 5.09766 20.7451C5.20312 20.915 5.43164 21.2168 5.7832 21.6504C6.13477 21.4043 6.38672 21.1963 6.53906 21.0264C6.83203 20.71 6.97852 20.3672 6.97852 19.998C6.97852 19.7285 6.89062 19.4883 6.71484 19.2773C6.53906 19.0664 6.27246 18.9609 5.91504 18.9609C5.69238 18.9609 5.48438 19.0225 5.29102 19.1455C4.99805 19.3271 4.85156 19.6143 4.85156 20.0068ZM23.4506 25.3418H20.6996V30H18.0102V17.0449H23.6528C24.9536 17.0449 25.9907 17.3789 26.7641 18.0469C27.5375 18.7148 27.9243 19.749 27.9243 21.1494C27.9243 22.6787 27.5375 23.7598 26.7641 24.3926C25.9907 25.0254 24.8862 25.3418 23.4506 25.3418ZM24.7162 22.6436C25.0678 22.333 25.2436 21.8408 25.2436 21.167C25.2436 20.4932 25.0649 20.0127 24.7075 19.7256C24.3559 19.4385 23.8608 19.2949 23.2221 19.2949H20.6996V23.1094H23.2221C23.8608 23.1094 24.3588 22.9541 24.7162 22.6436ZM35.1759 28.6465C35.1525 28.6758 35.0939 28.7637 35.0002 28.9102C34.9064 29.0566 34.7951 29.1855 34.6662 29.2969C34.2736 29.6484 33.8927 29.8887 33.5236 30.0176C33.1603 30.1465 32.7326 30.2109 32.2404 30.2109C30.8224 30.2109 29.8673 29.7012 29.3752 28.6816C29.0998 28.1191 28.9621 27.29 28.9621 26.1943V20.4199H31.5285V26.1943C31.5285 26.7393 31.5929 27.1494 31.7218 27.4248C31.9504 27.9111 32.3986 28.1543 33.0666 28.1543C33.922 28.1543 34.508 27.8086 34.8244 27.1172C34.9884 26.7422 35.0705 26.2471 35.0705 25.6318V20.4199H37.6105V30H35.1759V28.6465ZM39.369 17.0449H41.8739V30H39.369V17.0449ZM43.6588 17.0449H46.1637V30H43.6588V17.0449Z" fill="black"/>
</svg>
