<svg width="59" height="35" viewBox="0 0 59 35" fill="none" xmlns="http://www.w3.org/2000/svg">
<path d="M42.2312 5.63379H39.7324V10.5383C39.7324 12.1369 41.4397 13.5027 43.5505 13.5027C45.6613 13.5027 47.5082 12.1214 47.5082 10.5383V5.63379H45.0094V10.0571C45.0094 10.7866 44.3886 11.3764 43.6281 11.3764C42.852 11.3764 42.2312 10.7866 42.2312 10.0416V5.63379Z" fill="black"/>
<path d="M2.59192 2.93413V13.1156H0V0.838867H4.67167C6.70485 0.838867 8.36555 2.48404 8.36555 4.48618C8.36555 6.19344 7.17047 7.62132 5.55634 7.99381L9.15709 13.1156H6.06851L3.47659 9.09577V6.1624H4.08189C5.04416 6.1624 5.82019 5.44845 5.82019 4.56379C5.82019 3.67912 5.09072 2.93413 4.12845 2.93413H2.59192Z" fill="black"/>
<path d="M26.4474 13.115V0.248535H23.9952V6.31705C23.3433 5.68071 22.5207 5.32374 21.574 5.32374C19.5563 5.32374 17.9111 7.10859 17.9111 9.32802C17.9111 11.5319 19.5563 13.3323 21.574 13.3323C22.5362 13.3323 23.4364 12.9598 23.9952 12.2769V13.115H26.4474ZM22.2724 11.237C21.2791 11.237 20.472 10.3524 20.472 9.26594C20.472 8.17951 21.2791 7.29484 22.2724 7.29484C23.2657 7.29484 24.0728 8.17951 24.0728 9.26594C24.0572 10.3524 23.2502 11.237 22.2724 11.237Z" fill="black"/>
<path d="M36.7518 6.44177C37.4192 5.82095 37.8382 4.98284 37.8382 4.06713C37.8382 3.22902 37.5123 2.46852 36.9536 1.86322C36.3638 1.22688 35.3394 0.838867 33.9426 0.838867H29.7676V13.1156H35.1687C37.2329 13.0845 38.9091 11.517 38.9091 9.59243C38.8936 8.19558 38.397 7.20227 36.7518 6.44177ZM34.6721 10.9893H32.3285V3.04278H33.9736C34.6876 3.04278 35.2929 3.58599 35.2929 4.31546C35.2929 5.04492 34.6876 5.6347 33.9736 5.6347H33.1045V7.85413H34.7031C35.5722 7.85413 36.2241 8.56807 36.2241 9.43722C36.1931 10.3064 35.6188 10.9427 34.6721 10.9893Z" fill="black"/>
<path d="M11.3304 8.41196C11.3304 7.58937 11.9978 6.92199 12.8204 6.92199C13.643 6.92199 14.3103 7.58937 14.3103 8.41196H11.3304ZM16.7315 9.80881C16.7471 9.63808 16.7626 9.46735 16.7626 9.29663C16.7936 6.64262 15.0553 5.19922 12.8204 5.19922C10.5854 5.19922 8.76953 7.03064 8.76953 9.29663C8.76953 11.5626 10.5854 13.394 12.8204 13.394C14.5276 13.394 15.8624 12.618 16.5453 11.4074L14.5587 10.4917C14.3103 11.0349 13.7206 11.4229 13.0221 11.4229C12.1064 11.4229 11.3459 10.7245 11.3459 9.80881C11.408 9.80881 16.7315 9.80881 16.7315 9.80881Z" fill="black"/>
<path d="M51.1085 0.248535H48.6562V13.115H51.1085V0.248535Z" fill="black"/>
<path d="M55.2833 0.248535H52.8311V13.115H55.2833V0.248535Z" fill="black"/>
<path d="M28.0146 16.1138C31.0597 16.114 33.5205 18.5755 33.5205 21.6206C33.5203 24.6655 31.0596 27.1262 28.0146 27.1265C24.9704 27.1265 22.508 24.651 22.5078 21.6206C22.5078 18.5754 24.9694 16.1138 28.0146 16.1138Z" stroke="black"/>
<path fill-rule="evenodd" clip-rule="evenodd" d="M23.0328 20.0068C23.1259 20.2396 23.1259 20.55 23.0639 20.7983C23.0483 20.8138 23.0328 20.8138 23.0173 20.7983C22.9707 20.581 22.9242 20.3638 22.8466 20.1465C22.8 20.0223 22.6448 19.9137 22.7069 19.774C22.7379 19.7429 22.8 19.7429 22.8466 19.7585C22.9242 19.8361 22.9707 19.9137 23.0328 20.0068ZM25.5161 22.1797C25.6868 22.3814 25.811 22.5987 25.7489 22.8626C25.7179 22.9091 25.7334 23.0022 25.6558 23.0178C25.6247 23.0333 25.5937 23.0022 25.5937 22.9712C25.5782 22.8315 25.5782 22.6763 25.5006 22.5677C25.4075 22.4745 25.2988 22.2883 25.1436 22.2883C25.035 22.3193 24.9574 22.4435 24.8953 22.5211C24.8953 22.5366 24.8798 22.5366 24.8642 22.5211C24.8022 22.3659 24.9263 22.2417 24.9729 22.1176C25.066 22.0244 25.0505 21.7606 25.2523 21.8382C25.3919 21.9313 25.423 22.0865 25.5161 22.1797ZM25.1902 24.0266C25.2057 24.1197 25.2057 24.2594 25.1126 24.3215C25.0194 24.3525 24.8953 24.368 24.7866 24.3525C24.7556 24.337 24.7246 24.3215 24.7401 24.2904C24.7866 24.1508 24.9263 23.9956 25.0815 23.9645C25.1126 23.9645 25.1747 23.9645 25.1902 24.0266ZM13.8602 18.3616C14.2327 18.4547 14.6362 18.4547 14.9156 18.7496C15.0708 18.9359 15.0863 19.2618 14.9622 19.448C14.7449 19.8205 14.3103 20.0068 14.0465 20.3327C13.7826 20.55 13.6895 20.8915 13.7671 21.2329C13.8602 21.5278 14.1551 21.7296 14.45 21.7451C14.9156 21.7606 15.2571 21.5278 15.6295 21.3105C16.002 21.0467 16.3435 20.7052 16.7625 20.5966C17.0419 20.5034 17.3523 20.55 17.6317 20.4414C17.9266 20.3793 18.1594 20.1309 18.3922 19.9137C18.656 19.6964 18.9665 19.5722 19.3079 19.5877C19.6183 19.6343 19.789 19.3549 20.0063 19.1687C20.3633 18.8427 20.8289 18.8117 21.248 18.6255C21.5429 18.5323 21.7757 18.315 22.055 18.1754C22.3189 18.0667 22.6758 18.0357 22.9397 18.1443C23.1104 18.2219 23.2967 18.2995 23.4519 18.4237L24.709 19.4791C24.7246 19.5256 24.7711 19.5567 24.8022 19.5722C25.1591 20.0068 25.5316 20.4258 25.8265 20.907C25.9196 21.0777 25.9662 21.2484 26.0128 21.4347C26.0748 22.1486 26.2611 22.7694 26.4939 23.3903C26.556 23.4834 26.6801 23.561 26.7422 23.6541C26.944 23.9335 27.0681 24.2904 27.3941 24.4767L27.5803 24.5698C27.5958 24.5853 27.5958 24.6164 27.5803 24.6319L27.5493 24.6629C27.1613 24.725 26.8664 24.4922 26.6646 24.2128C26.5405 23.9645 26.3697 23.7007 26.0904 23.592C26.0748 23.592 26.0593 23.6075 26.0593 23.6075C26.0904 23.7007 26.1835 23.7627 26.2145 23.8403C26.3232 24.0111 26.4163 24.1973 26.4629 24.3836C26.5249 24.5853 26.7422 24.725 26.9129 24.8337L27.1613 24.9578C27.1923 24.9733 27.2078 25.0199 27.1768 25.0509L27.1458 25.0665C26.7267 25.082 26.3542 24.9423 26.0593 24.6319C25.9972 24.5543 25.9041 24.4922 25.7955 24.4922C25.6092 24.6629 25.423 24.8181 25.1746 24.8337C24.9108 24.7871 24.6314 24.7871 24.3986 24.8802C24.1813 24.9578 23.964 25.0509 23.7312 25.0509C23.6226 25.0509 23.4984 25.0044 23.4519 24.8957C23.4519 24.7561 23.3588 24.6008 23.4364 24.4612L23.5916 24.2284C23.5916 24.1973 23.576 24.1663 23.545 24.1663C23.4829 24.1508 23.3743 24.2594 23.3432 24.1508C23.3588 23.9179 23.5916 23.7627 23.7468 23.6075C23.7778 23.4213 23.8554 23.2506 23.9951 23.0954C23.9951 23.0798 23.9796 23.0488 23.9485 23.0488C23.7468 23.0798 23.545 23.1264 23.3277 23.1264C23.157 23.2195 22.9397 23.2816 22.7379 23.2195C22.6914 23.1885 22.7069 23.1419 22.7224 23.1109C22.9397 22.816 23.0173 22.4435 22.9552 22.0865C22.9397 22.071 22.9397 22.04 22.9087 22.04C22.8776 22.04 22.8776 22.071 22.8621 22.0865C22.8155 22.428 22.7069 22.6918 22.5206 22.9867C22.381 23.1264 22.1637 23.1264 21.9774 23.173C21.9309 23.1885 21.8843 23.235 21.8843 23.2816C21.8843 23.4058 21.9619 23.4834 22.0085 23.592L22.412 24.337C22.4275 24.5388 22.3344 24.7405 22.2878 24.9268C22.3034 24.9578 22.3344 24.9423 22.3654 24.9268C22.5051 24.8026 22.5982 24.6319 22.6603 24.4456C22.6758 24.368 22.6448 24.2749 22.6138 24.2128L22.1947 23.3747C22.2258 23.3282 22.2878 23.3282 22.3344 23.3126C22.4275 23.3126 22.5206 23.3592 22.6138 23.3903C22.7069 23.6386 22.8155 23.9024 22.9863 24.1197C23.0173 24.2594 23.0639 24.4456 22.9707 24.5543C22.8776 24.7405 22.7845 24.8957 22.6603 25.0665C22.5517 25.1751 22.3965 25.1596 22.2413 25.1751H22.1947C21.8222 25.3769 21.4342 25.501 21.0307 25.6252C20.86 25.7028 20.6582 25.6407 20.5185 25.5321C20.3788 25.4234 20.3167 25.2682 20.2236 25.1285C20.115 24.9889 19.9442 25.113 19.8201 25.0354C19.7114 24.8647 19.6028 24.694 19.5097 24.5077C19.5097 24.4612 19.5097 24.4146 19.5562 24.3836C19.6959 24.337 19.8511 24.337 20.0063 24.3215C20.146 24.306 20.3012 24.337 20.3943 24.4301C20.5806 24.6474 20.6582 24.9423 20.9376 25.082C21.1548 25.0975 21.3411 25.0354 21.5273 24.9423C21.636 24.8802 21.7601 24.7871 21.7601 24.6474C21.7446 24.368 21.5584 24.1508 21.3256 23.9956C21.0928 23.8714 20.8444 23.7007 20.6737 23.4834C20.5806 23.3592 20.5651 23.2195 20.5185 23.0954C20.503 23.0643 20.4409 23.0643 20.4254 23.0798C20.3323 23.1574 20.4099 23.2971 20.4099 23.3903C20.4254 23.4523 20.4564 23.5299 20.4254 23.5765C20.2857 23.6851 20.0994 23.6231 19.9287 23.6386C19.5873 23.6231 19.2613 23.4834 18.9044 23.5144C18.5629 23.5299 18.0973 23.7627 17.849 23.4213C17.7248 23.0954 17.7559 22.7074 17.8179 22.3814C17.8179 22.3504 17.7869 22.3193 17.7559 22.3193C17.7248 22.3038 17.6938 22.3193 17.6783 22.3504C17.5851 22.6763 17.5696 23.0333 17.492 23.3747C17.3678 23.6696 17.1506 23.98 16.8557 24.1352C16.5918 24.2749 16.2814 24.3215 15.9555 24.3525C15.3657 24.368 14.8225 24.4767 14.45 24.9889C14.4189 25.0354 14.3724 25.082 14.3879 25.1441C14.4034 25.1596 14.45 25.1751 14.4655 25.1596C14.869 24.7095 15.3812 24.5232 15.971 24.5543C16.5297 24.5543 17.0885 24.4612 17.4454 23.98C17.5386 23.8714 17.6006 23.7627 17.6783 23.6386C17.7403 23.6386 17.7869 23.7162 17.8335 23.7472C17.849 23.9179 17.7093 24.0266 17.6472 24.1663C17.5696 24.3215 17.492 24.5077 17.3368 24.6008C17.1506 24.6474 16.9953 24.7716 16.8246 24.8647C16.6539 24.9423 16.4366 24.9733 16.2348 24.9268C15.9865 24.8802 15.6451 24.8181 15.3967 24.9268C15.2726 25.0044 15.1639 25.1441 15.0398 25.2217C14.869 25.2993 14.7138 25.439 14.5121 25.4234C14.3724 25.3924 14.2017 25.2993 14.0775 25.4234C13.9223 25.5631 13.8912 25.8114 13.6895 25.9046C13.4567 26.0287 13.2083 25.9046 12.9755 25.8891C13.0066 25.6562 13.0376 25.439 13.1928 25.2682C13.286 25.2527 13.3636 25.2372 13.4412 25.1751C13.5343 25.0975 13.5964 24.9889 13.6584 24.8802C13.8602 24.7561 14.093 24.6629 14.2172 24.4456C14.3103 24.2439 14.3103 24.0576 14.4655 23.8714L14.5431 23.8403L14.9622 23.8093C15.1329 23.7317 15.2881 23.6541 15.4433 23.5299C15.4899 23.4834 15.5054 23.4058 15.4899 23.3282C15.4123 23.1264 15.3502 22.9867 15.3036 22.7694C15.2571 22.5521 15.2881 22.3349 15.2571 22.0865C15.2415 22.071 15.226 22.0244 15.195 22.0244C14.9156 22.0865 14.6518 22.1641 14.3413 22.1176C13.9223 22.071 13.4877 21.7916 13.3325 21.3726C13.1928 21.0156 13.2239 20.5034 13.4877 20.2086C13.736 19.8981 14.0465 19.6653 14.3569 19.4015C14.4034 19.3704 14.4034 19.3084 14.4189 19.2618C14.4189 19.1997 14.3569 19.1532 14.3103 19.1221C14.1241 19.0756 13.9068 19.1376 13.7205 19.06C13.3946 18.9514 13.1463 18.641 13.0997 18.2995C13.0842 18.1443 13.1152 18.0202 13.1928 17.896C13.4412 18.1133 13.6274 18.2995 13.8602 18.3616ZM12.929 25.2993V25.3458C12.8514 25.5321 12.8048 25.7494 12.7427 25.9667C12.603 25.9511 12.4789 25.9046 12.3702 25.858C12.3392 25.827 12.3702 25.7959 12.3702 25.7649C12.5099 25.6407 12.4634 25.4855 12.4944 25.3148C12.5099 25.2217 12.603 25.1441 12.6962 25.0975C12.8048 25.113 12.8669 25.2217 12.929 25.2993ZM13.6119 24.6474C13.5343 24.8026 13.4256 24.9889 13.2549 25.082C13.1928 25.0975 13.1152 25.0975 13.0531 25.0665C13.0221 25.0354 12.96 25.0044 12.96 24.9423C12.9755 24.8802 12.9445 24.8026 13.0066 24.7716C13.1307 24.694 13.2549 24.6164 13.3791 24.5077C13.4101 24.4922 13.4722 24.4767 13.4877 24.5077C13.5498 24.5543 13.5964 24.5853 13.6119 24.6474ZM21.3876 24.5853C21.4032 24.6474 21.4963 24.725 21.4342 24.7871C21.31 24.8802 21.1704 24.9423 20.9996 24.9268C20.8755 24.8337 20.891 24.6629 20.7823 24.5388C20.7513 24.4456 20.6116 24.4456 20.6427 24.3525L20.6892 24.3215C20.86 24.3215 21.0307 24.3215 21.2014 24.2904C21.3721 24.2749 21.3256 24.4767 21.3876 24.5853Z" fill="black"/>
<path fill-rule="evenodd" clip-rule="evenodd" d="M31.1956 22.0544C31.2887 22.1786 31.3663 22.3027 31.4284 22.4579C31.4439 22.489 31.4284 22.52 31.4129 22.5511C31.3974 22.5821 31.3663 22.6131 31.3198 22.5821C31.2111 22.5511 31.2266 22.3803 31.0869 22.3959C30.9938 22.3959 30.9317 22.4735 30.8541 22.52C30.7145 22.6442 30.5282 22.7684 30.4972 22.9546C30.4661 23.0167 30.4816 23.1253 30.4196 23.1564C30.3885 23.1719 30.342 23.1408 30.342 23.1098C30.3264 22.8615 30.404 22.6287 30.5748 22.4579C30.7455 22.3183 30.8697 22.1165 31.0093 21.9458C31.1025 21.9302 31.1645 21.9923 31.1956 22.0544ZM31.2577 24.1186C31.2887 24.1807 31.3508 24.2583 31.3042 24.3359C31.2422 24.3825 31.1335 24.3514 31.0559 24.3514C30.9628 24.3049 30.9317 24.1807 30.9317 24.0721C30.9317 24.041 30.9317 24.0255 30.9628 23.9945C31.0714 23.9945 31.1801 24.0255 31.2577 24.1186ZM33.5857 19.3694C33.6323 19.4314 33.5857 19.4935 33.5547 19.5401C33.3374 19.7419 33.0736 19.9591 32.9184 20.2075C32.8563 20.2851 32.8097 20.3782 32.7787 20.4713C32.7787 20.4868 32.7632 20.4868 32.7476 20.4868C32.7011 20.3627 32.7632 20.223 32.7942 20.0988C32.9028 19.8039 33.1512 19.5246 33.415 19.3228C33.4461 19.3073 33.5547 19.2918 33.5857 19.3694ZM34.4704 18.3761C34.6411 18.4847 34.7032 18.7175 34.905 18.7641C35.2464 18.8417 35.5879 18.9193 35.8983 19.0745C36.1156 19.1831 36.3174 19.3383 36.5191 19.509C36.7054 19.6022 36.9382 19.6022 37.1399 19.6643C37.4348 19.7419 37.6676 19.9591 37.9315 20.1299C38.2729 20.3937 38.7541 20.3627 39.1421 20.5334C39.7629 20.7352 40.2596 21.2163 40.8338 21.4957C41.1287 21.6509 41.5788 21.713 41.8737 21.5422C42.0755 21.4025 42.1996 21.2163 42.1531 20.9525C42.0444 20.3161 41.346 19.9902 41.0201 19.4625C40.958 19.3383 40.9114 19.1676 40.9425 19.0279C41.0666 18.7175 41.3926 18.5468 41.6719 18.4381C41.8892 18.3295 42.1686 18.3605 42.3703 18.2364C42.4479 18.1898 42.51 18.1277 42.5566 18.0812C42.6032 18.0812 42.6032 18.1277 42.6187 18.1588C42.6808 18.5313 42.6187 18.9193 42.2927 19.1366C42.1686 19.2297 42.0134 19.2607 41.8737 19.2918C41.7495 19.3383 41.5012 19.2452 41.5167 19.4625C41.5478 19.5711 41.6409 19.6332 41.7185 19.7108C42.1531 20.0678 42.5566 20.5334 42.6032 21.0921C42.6187 21.5267 42.3238 21.8992 41.9513 22.0855C41.6719 22.1941 41.3305 22.2407 41.0356 22.1631C40.958 22.1475 40.8338 22.0699 40.7717 22.1786C40.7562 22.3027 40.8338 22.3959 40.8338 22.5045C40.8649 22.7063 40.8649 22.9701 40.8028 23.1719C40.7717 23.3271 40.6165 23.5133 40.7562 23.6685C40.8959 23.8858 41.1753 23.8237 41.4081 23.8548C41.5322 23.8703 41.5788 24.01 41.6098 24.1031C41.6564 24.2273 41.6564 24.367 41.703 24.4601C41.703 24.6929 41.9668 24.786 42.091 24.9412C42.2462 25.1119 42.3859 25.4068 42.6497 25.3913C42.7428 25.5776 42.7894 25.7483 42.8204 25.9656L42.7894 25.9966C42.5721 25.9966 42.2772 26.0587 42.122 25.9035C41.9358 25.7793 41.8737 25.4379 41.5943 25.531C41.4702 25.6241 41.2994 25.6552 41.1597 25.5931C41.0201 25.5465 40.9269 25.4224 40.8028 25.3448C40.4303 25.0654 39.9336 24.9257 39.4525 25.0343C39.1731 25.1119 38.9558 24.9102 38.7386 24.786C38.4437 24.6619 38.3661 24.3514 38.304 24.0876L38.2574 23.7617C38.2574 23.7306 38.2885 23.6996 38.3195 23.6841H38.3661C38.5368 24.0721 38.8627 24.5066 39.2818 24.6463C39.6698 24.8015 40.0268 24.5998 40.4458 24.6774C40.8338 24.7239 41.1442 24.9723 41.4391 25.2051C41.4702 25.2051 41.4857 25.1896 41.5012 25.1585V25.1275C41.1442 24.6774 40.6476 24.4446 40.0733 24.4911C39.5922 24.5843 39.1266 24.429 38.8472 24.0255C38.692 23.7927 38.5833 23.5444 38.5368 23.2805C38.4902 22.9701 38.4281 22.6287 38.3195 22.3493C38.2885 22.3338 38.2574 22.3027 38.2264 22.3183L38.1953 22.3648C38.2419 22.6597 38.335 23.0167 38.2264 23.3271C38.1488 23.5754 37.9004 23.6685 37.6676 23.6841C37.4348 23.6996 37.2175 23.653 36.9692 23.653C36.4105 23.6375 35.9138 23.8548 35.3396 23.8082C35.3861 23.6685 35.4792 23.5289 35.4327 23.3737C35.4172 23.3426 35.3706 23.3426 35.3396 23.3426C35.2309 23.4047 35.2464 23.5444 35.1844 23.6375C35.0602 23.8393 34.8274 24.0255 34.5946 24.0721C34.4239 24.1962 34.2686 24.367 34.129 24.5222C34.0824 24.5687 34.0824 24.6619 34.0979 24.7239C34.2066 25.0033 34.5325 25.0343 34.7808 25.1119C34.905 25.1275 35.0136 25.0809 35.0757 24.9723C35.1844 24.8015 35.1999 24.5222 35.4482 24.4911H35.9914C36.038 24.5066 36.069 24.5377 36.1001 24.5843L36.0845 24.6619C35.9604 24.8015 35.9138 25.0033 35.7586 25.0964C35.6655 25.1275 35.5568 25.0964 35.4948 25.174C35.4637 25.3603 35.4172 25.562 35.2309 25.6552C35.0912 25.7793 34.8895 25.7172 34.7343 25.6707C34.4394 25.562 34.1445 25.5 33.8496 25.4068C33.7254 25.3758 33.6789 25.2206 33.5392 25.1895C33.415 25.1585 33.2753 25.2516 33.1667 25.143C33.1046 25.0033 33.0736 24.9102 33.0425 24.755C32.996 24.6619 32.9649 24.5532 32.9494 24.4446C32.9339 24.3514 32.9494 24.2894 32.9804 24.2118L33.384 23.4823C33.415 23.4357 33.4461 23.3892 33.4926 23.3737C33.5857 23.3892 33.6944 23.4357 33.7875 23.4823L33.772 23.5289L33.3529 24.1652C33.2598 24.367 33.3529 24.5998 33.4461 24.7705C33.4616 24.786 33.4771 24.8171 33.4926 24.8015C33.4771 24.6774 33.4616 24.5532 33.4926 24.4135C33.5237 24.2894 33.6013 24.1807 33.6633 24.0721L33.9893 23.5909C34.0203 23.5133 34.0203 23.3892 33.9582 23.3116C33.8186 23.1719 33.6168 23.1253 33.4926 22.9391C33.2288 22.5821 33.1977 22.1631 33.1667 21.713C33.1667 21.6819 33.1357 21.6354 33.0891 21.6198C33.058 21.6043 33.027 21.6509 33.0115 21.6664C32.9339 21.9613 32.9804 22.3183 33.058 22.5821C33.1046 22.7839 33.1977 22.9856 33.2909 23.1719C33.3064 23.2029 33.2753 23.2495 33.2443 23.265C33.027 23.2805 32.8097 23.265 32.608 23.234C32.3286 23.1874 32.1268 22.9701 31.894 22.7994C31.863 22.7839 31.8475 22.8149 31.8319 22.8304C31.894 23.1408 32.2355 23.3271 32.3441 23.6065C32.4062 23.8393 32.639 24.01 32.6856 24.2583C32.6856 24.2894 32.6545 24.3359 32.6235 24.3514C32.5459 24.367 32.4683 24.3204 32.3907 24.367C32.3751 24.5066 32.4683 24.6463 32.4062 24.7705C32.3286 24.8947 32.2199 25.0343 32.0803 25.0343C31.8009 24.9412 31.5215 24.8171 31.2422 24.7395C31.0404 24.7239 30.8386 24.755 30.6524 24.7705C30.4661 24.7395 30.342 24.5687 30.2023 24.4756C30.1557 24.4601 30.1092 24.4601 30.0781 24.4911C29.7677 24.8015 29.4263 25.143 28.9606 25.1275C28.9296 25.1275 28.9141 25.0964 28.9141 25.0654V25.0343C29.1158 24.8481 29.3642 24.6619 29.4573 24.398C29.5194 24.1807 29.7056 24.0255 29.7832 23.8237C29.7987 23.7927 29.7677 23.7772 29.7367 23.7617L29.6901 23.7927C29.4573 24.0255 29.2866 24.2894 29.1158 24.5377C28.9451 24.7084 28.6968 24.8171 28.4329 24.755C28.4019 24.7395 28.4019 24.6929 28.4174 24.6619C29.3797 24.0721 29.4883 23.0167 29.7522 22.0544C29.9384 21.4181 30.0781 20.7662 30.5748 20.254C31.3198 19.4314 32.251 18.9503 33.0736 18.2364C33.1977 18.1277 33.3219 18.0191 33.4771 18.0191C33.8806 17.988 34.191 18.1432 34.4704 18.3761ZM43.3326 25.2361C43.4102 25.3448 43.3792 25.5155 43.4102 25.6396C43.4257 25.7328 43.5499 25.8104 43.4878 25.9035L43.1464 26.0121C43.0843 26.0121 43.1153 25.9345 43.0843 25.9035C43.0532 25.7017 43.0067 25.562 42.9446 25.3758C42.9291 25.2672 43.0377 25.1896 43.1153 25.1275C43.1929 25.0964 43.255 25.1896 43.3326 25.2361ZM42.5411 24.5377C42.6652 24.6463 42.836 24.7239 42.9291 24.8636C42.9446 24.9257 42.898 24.9878 42.867 25.0343C42.8204 25.0809 42.7584 25.1119 42.6808 25.1119C42.6032 25.1119 42.5411 25.0654 42.4945 25.0033C42.4169 24.8791 42.3083 24.7705 42.2772 24.6463C42.3238 24.5687 42.4324 24.4446 42.5411 24.5377ZM35.0602 24.4135C35.0447 24.5687 34.9981 24.7084 34.936 24.8481C34.8895 24.9412 34.7498 24.9102 34.6567 24.8947C34.5635 24.8636 34.4083 24.8481 34.3928 24.7084C34.3773 24.5843 34.4394 24.4601 34.5015 24.367C34.6411 24.3514 34.8119 24.3825 34.9515 24.3514C35.0136 24.3514 35.0602 24.367 35.0602 24.4135Z" fill="black"/>
<path d="M3.10449 34.0835H5.26184V33.6334H3.60115V32.1124H5.19976V31.6623H3.60115V30.5448H5.26184V30.0947H3.10449V34.0835Z" fill="black"/>
<path d="M7.37207 34.0826H7.86873V31.1027L10.8797 34.2533V30.0939H10.383V33.0428L7.37207 29.8921V34.0826Z" fill="black"/>
<path d="M13.0225 34.0835H15.1643V33.6334H13.5191V32.1124H15.1177V31.6623H13.5191V30.5448H15.1643V30.0947H13.0225V34.0835Z" fill="black"/>
<path d="M18.4224 32.3456C18.9967 32.2835 19.3847 31.8024 19.3847 31.2281C19.3847 30.8401 19.1984 30.4676 18.857 30.2658C18.5466 30.0796 18.1586 30.0796 17.8016 30.0796H17.1963V34.0839H17.6929V32.3921H17.8947L19.0743 34.0839H19.6796L18.4224 32.3456ZM17.6929 30.5297H17.8326C18.3293 30.5297 18.9191 30.6228 18.9191 31.2436C18.9191 31.88 18.3603 31.9731 17.8637 31.9731H17.7085V30.5297H17.6929Z" fill="black"/>
<path d="M23.2657 32.066V32.5161H24.3056C24.29 33.1679 23.6226 33.6956 23.0018 33.6956C22.1327 33.6956 21.4498 32.9041 21.4498 32.066C21.4498 31.1658 22.1482 30.4363 23.0484 30.4363C23.545 30.4363 24.0262 30.7002 24.3056 31.0882L24.6625 30.7467C24.2745 30.2501 23.6537 29.9707 23.0329 29.9707C21.8844 29.9707 20.9531 30.9175 20.9531 32.066C20.9531 33.1679 21.8533 34.1457 22.9708 34.1457C24.0883 34.1457 24.8643 33.3076 24.8643 32.2057V32.0504H23.2657V32.066Z" fill="black"/>
<path d="M27.5956 32.3452V34.0835H28.0923V32.3452L29.396 30.0947H28.8217L27.8439 31.802L26.8506 30.0947H26.2764L27.5956 32.3452Z" fill="black"/>
<path d="M32.8252 34.0839H33.6323C34.8894 34.0839 35.8983 33.432 35.8983 32.0662C35.8983 30.7315 34.8739 30.0796 33.6478 30.0796H32.8252V34.0839ZM33.3219 30.5452H33.4926C34.5169 30.5452 35.3861 30.9177 35.3861 32.0973C35.3861 33.2613 34.5014 33.6338 33.4926 33.6338H33.3219V30.5452Z" fill="black"/>
<path d="M39.0181 32.3456C39.5924 32.2835 39.9804 31.8024 39.9804 31.2281C39.9804 30.8401 39.7941 30.4676 39.4527 30.2658C39.1423 30.0796 38.7543 30.0796 38.3973 30.0796H37.792V34.0839H38.2886V32.3921H38.4904L39.67 34.0839H40.2753L39.0181 32.3456ZM38.2886 30.5297H38.4283C38.925 30.5297 39.5148 30.6228 39.5148 31.2436C39.5148 31.88 38.956 31.9731 38.4594 31.9731H38.3042V30.5297H38.2886Z" fill="black"/>
<path d="M42.3404 30.0947H41.8438V34.099H42.3404V30.0947Z" fill="black"/>
<path d="M44.3418 34.0826H44.8384V31.1027L47.8339 34.2533V30.0939H47.3373V33.0428L44.3418 29.8921V34.0826Z" fill="black"/>
<path d="M50.3492 31.8175V30.0947H49.8525V34.0835H50.3492V32.4228L50.551 32.221L52.0564 34.0835H52.7238L50.8924 31.8796L52.6928 30.0947H52.0409L50.3492 31.8175Z" fill="black"/>
<path d="M57.8447 0.170725C58.1241 0.170725 58.3569 0.263848 58.5431 0.465615C58.7294 0.651861 58.838 0.900189 58.838 1.16404C58.838 1.44341 58.7449 1.67621 58.5431 1.86246C58.3569 2.06423 58.1085 2.15735 57.8447 2.15735C57.5653 2.15735 57.3325 2.06423 57.1308 1.86246C56.9445 1.67621 56.8359 1.42789 56.8359 1.16404C56.8359 0.884668 56.929 0.651861 57.1308 0.465615C57.3325 0.279369 57.5653 0.170725 57.8447 0.170725ZM59.0087 1.16404C59.0087 0.853627 58.9001 0.574258 58.6673 0.341451C58.4345 0.124164 58.1706 0 57.8447 0C57.5188 0 57.2549 0.108643 57.0221 0.341451C56.7893 0.574258 56.6807 0.838107 56.6807 1.16404C56.6807 1.48997 56.7893 1.75382 57.0221 1.98662C57.2549 2.21943 57.5188 2.32807 57.8447 2.32807C58.1706 2.32807 58.4345 2.21943 58.6673 1.98662C58.8846 1.76934 59.0087 1.48997 59.0087 1.16404ZM58.1551 0.915709C58.1551 1.00883 58.1085 1.08643 58.0154 1.11748C57.9689 1.133 57.8913 1.14852 57.7981 1.14852H57.5964V0.682902H57.7826C57.9068 0.682902 57.9999 0.698422 58.062 0.729463C58.1241 0.776025 58.1551 0.822586 58.1551 0.915709ZM57.3791 0.527697V1.80038H57.5964V1.30372H57.7671C57.8913 1.30372 57.9689 1.31924 58.0154 1.35028C58.093 1.39684 58.1396 1.48997 58.1396 1.64517V1.7383V1.76934V1.78486V1.80038H58.3569L58.3414 1.78486C58.3414 1.76934 58.3258 1.75382 58.3258 1.72277C58.3258 1.69173 58.3258 1.66069 58.3258 1.62965V1.53653C58.3258 1.47445 58.2948 1.41236 58.2638 1.33476C58.2172 1.27268 58.1396 1.22612 58.0465 1.2106C58.1241 1.19508 58.1862 1.17956 58.2327 1.14852C58.3103 1.10196 58.3569 1.00883 58.3569 0.900189C58.3569 0.744984 58.2948 0.63634 58.1551 0.574258C58.0775 0.543217 57.9689 0.527697 57.7981 0.527697H57.3791Z" fill="black"/>
</svg>
