<svg width="53" height="7" viewBox="0 0 53 7" fill="none" xmlns="http://www.w3.org/2000/svg">
<g clip-path="url(#clip0_3510_172)">
<path d="M29.0232 0H23.3618C23.3049 0 23.2562 0.0241379 23.2155 0.0563218L21.4123 1.84253C21.3717 1.88276 21.3555 1.93103 21.3555 1.98736V6.79885C21.3555 6.91149 21.4448 7 21.5585 7H29.0232C29.1369 7 29.2263 6.91149 29.2263 6.79885V5.13333C29.2263 5.02069 29.1369 4.93218 29.0232 4.93218H25.0594C24.9457 4.93218 24.8563 4.84368 24.8563 4.73103V2.22874C24.8563 2.11609 24.9457 2.02759 25.0594 2.02759L29.0232 2.03563C29.1369 2.03563 29.2263 1.94713 29.2263 1.83448V0.201149C29.2263 0.0885058 29.1369 0 29.0232 0Z" fill="black"/>
<path d="M8.4892 0H11.5839C11.6976 0 11.787 0.0885057 11.787 0.201149V6.8069C11.787 6.91954 11.6976 7.00805 11.5839 7.00805H8.4892C8.37548 7.00805 8.28613 6.91954 8.28613 6.8069V0.201149C8.29426 0.0885057 8.3836 0 8.4892 0Z" fill="black"/>
<path d="M20.4941 0H12.9726C12.8589 0 12.7695 0.0885058 12.7695 0.201149V1.82644C12.7695 1.93908 12.8589 2.02759 12.9726 2.02759H14.7839C14.8977 2.02759 14.987 2.11609 14.987 2.22874V6.79885C14.987 6.91149 15.0764 7 15.1901 7H18.2848C18.3985 7 18.4878 6.91149 18.4878 6.79885V2.22874C18.4878 2.11609 18.5772 2.02759 18.6909 2.02759H20.5023C20.616 2.02759 20.7053 1.93908 20.7053 1.82644V0.201149C20.6972 0.0885058 20.6078 0 20.4941 0Z" fill="black"/>
<path d="M38.6727 0H35.578C35.4643 0 35.375 0.0885057 35.375 0.201149V2.10805C35.375 2.22069 35.2856 2.3092 35.1719 2.3092H33.9129C33.7992 2.3092 33.7098 2.22069 33.7098 2.10805V0.201149C33.7098 0.0885057 33.6205 0 33.5068 0H30.412C30.2983 0 30.209 0.0885057 30.209 0.201149V6.8069C30.209 6.91954 30.2983 7.00805 30.412 7.00805H33.5068C33.6205 7.00805 33.7098 6.91954 33.7098 6.8069V4.82759C33.7098 4.71494 33.7992 4.62644 33.9129 4.62644H35.1719C35.2856 4.62644 35.375 4.71494 35.375 4.82759V6.8069C35.375 6.91954 35.4643 7.00805 35.578 7.00805H38.6727C38.7865 7.00805 38.8758 6.91954 38.8758 6.8069V0.201149C38.8677 0.0885057 38.7783 0 38.6727 0Z" fill="black"/>
<path d="M40.0615 0H43.1562C43.2699 0 43.3592 0.0885057 43.3592 0.201149V6.8069C43.3592 6.91954 43.2699 7.00805 43.1562 7.00805H40.0615C39.9477 7.00805 39.8584 6.91954 39.8584 6.8069V0.201149C39.8584 0.0885057 39.9477 0 40.0615 0Z" fill="black"/>
<path d="M6.99423 0H2.01507C1.95821 0 1.90948 0.0241379 1.86887 0.0563218L0.0656473 1.84253C0.0331569 1.88276 0.00878906 1.93103 0.00878906 1.98736V6.79885C0.00878906 6.91149 0.0981377 7 0.211854 7H3.30657C3.42028 7 3.50963 6.91149 3.50963 6.79885V5.13333C3.50963 5.02069 3.59898 4.93218 3.7127 4.93218H6.99423C7.10795 4.93218 7.19729 4.84368 7.19729 4.73103V3.0977C7.19729 2.98506 7.10795 2.89655 6.99423 2.89655H3.70457C3.59086 2.89655 3.50151 2.80805 3.50151 2.6954V2.22874C3.50151 2.11609 3.59086 2.02759 3.70457 2.02759H6.99423C7.10795 2.02759 7.19729 1.93908 7.19729 1.82644V0.201149C7.18917 0.0885058 7.09982 0 6.99423 0Z" fill="black"/>
<path d="M52.9436 1.84253L51.1404 0.0563218C51.0998 0.0241379 51.0511 0 50.9942 0H44.5449C44.4311 0 44.3418 0.0885057 44.3418 0.201149V6.8069C44.3418 6.91954 44.4311 7.00805 44.5449 7.00805H47.6396C47.7533 7.00805 47.8426 6.91954 47.8426 6.8069V2.22874C47.8426 2.11609 47.932 2.02759 48.0457 2.02759H49.3047C49.4184 2.02759 49.5078 2.11609 49.5078 2.22874V6.79885C49.5078 6.91149 49.5971 7 49.7108 7H52.8056C52.9193 7 53.0086 6.91149 53.0086 6.79885V1.98736C53.0005 1.93103 52.9843 1.88276 52.9436 1.84253Z" fill="black"/>
</g>
<defs>
<clipPath id="clip0_3510_172">
<rect width="53" height="7" fill="white" transform="translate(0.00878906)"/>
</clipPath>
</defs>
</svg>
