<svg width="101" height="97" viewBox="0 0 101 97" fill="none" xmlns="http://www.w3.org/2000/svg">
<path d="M82.5307 34.4634C83.2636 34.4634 83.7648 33.9587 83.8806 33.299C85.616 24.1011 85.539 24.6444 94.2163 22.9368C94.8719 22.8203 95.3734 22.3546 95.3734 21.5396C95.3734 20.8022 94.8334 20.3365 94.2163 20.1813C85.5005 18.3961 85.616 18.8618 83.8806 9.81907C83.7648 9.1593 83.2636 8.65479 82.5307 8.65479C81.7208 8.65479 81.258 9.12049 81.1422 9.81907C79.3684 18.9394 79.0985 18.5125 70.8839 20.1813C70.228 20.3365 69.7267 20.8022 69.7267 21.5396C69.7267 22.3546 70.1895 22.8203 70.8839 22.9368C79.0985 24.5668 79.3684 24.1399 81.1422 33.299C81.258 33.9974 81.7208 34.4634 82.5307 34.4634ZM42.6531 96.4037C43.2702 96.4037 43.6559 95.9768 43.7717 95.3946C45.2757 88.2147 45.2757 88.2147 52.3332 86.7787C52.9118 86.6625 53.336 86.2743 53.336 85.6146C53.336 84.9937 52.9118 84.5668 52.3332 84.489C45.2757 83.0142 45.2757 83.0142 43.7717 75.8734C43.6559 75.2912 43.2702 74.8643 42.6531 74.8643C41.9976 74.8643 41.6118 75.2912 41.4963 75.8734C40.0309 83.0142 40.0309 83.0142 32.973 84.489C32.356 84.5668 31.9318 84.9937 31.9318 85.6146C31.9318 86.2743 32.356 86.6625 32.973 86.7787C40.0309 88.2147 40.0309 88.2538 41.4963 95.3946C41.6118 95.9768 41.9976 96.4037 42.6531 96.4037ZM22.5988 83.7905C23.1387 83.7905 23.4472 83.4802 23.5244 82.9755C24.7199 77.1153 24.7199 77.1153 30.5049 75.9509C31.0062 75.8346 31.3533 75.5627 31.3533 74.9805C31.3533 74.4374 31.0062 74.088 30.5049 74.0105C24.7199 72.8461 24.7199 72.8461 23.5244 66.9859C23.4472 66.4812 23.1387 66.1709 22.5988 66.1709C22.0203 66.1709 21.7118 66.4812 21.6346 66.9859C20.4391 72.8461 20.4391 72.8461 14.6541 74.0105C14.1528 74.088 13.8057 74.4374 13.8057 74.9805C13.8057 75.5627 14.1528 75.8346 14.6541 75.9509C20.4391 77.1153 20.4391 77.1153 21.6346 82.9755C21.7118 83.4802 22.0203 83.7905 22.5988 83.7905Z" fill="#FCD34D"/>
<path d="M79.0995 80.4917C80.3336 80.4917 81.3361 79.5214 81.3361 78.2795V72.303L84.4602 75.4075C85.3471 76.3004 86.6971 76.3391 87.5455 75.4075C88.5094 74.5537 88.5094 73.1956 87.5455 72.264L84.4987 69.1592H90.3995C91.6336 69.1592 92.636 68.1501 92.636 66.9082C92.636 65.6663 91.6336 64.6963 90.3995 64.6963H84.4602L87.584 61.5527C88.4709 60.6599 88.4709 59.3017 87.584 58.4089C86.6971 57.5163 85.3471 57.4776 84.4602 58.4089L81.3361 61.5136V55.576C81.3361 54.3341 80.3336 53.325 79.0995 53.325C77.8654 53.325 76.9011 54.3341 76.9011 55.576V61.5136L73.8158 58.4089C72.9289 57.5163 71.5405 57.5163 70.6535 58.4089C69.7278 59.3017 69.7278 60.6599 70.6147 61.5527L73.7385 64.6963H67.7996C66.604 64.6963 65.6397 65.6663 65.6397 66.9082C65.6397 68.1501 66.604 69.1592 67.7996 69.1592H73.7385L70.6535 72.264C69.7278 73.1956 69.7278 74.5537 70.6535 75.4075C71.5405 76.3391 72.8901 76.3391 73.8158 75.4075L76.9011 72.303V78.2795C76.9011 79.5214 77.8654 80.4917 79.0995 80.4917ZM79.138 50.8799C80.7579 50.8799 82.0305 49.5605 82.0305 47.8917C82.0305 46.2616 80.7579 44.9419 79.138 44.9419C77.4797 44.9419 76.2067 46.2616 76.2067 47.8917C76.2067 49.5605 77.4797 50.8799 79.138 50.8799ZM91.9419 56.7013C93.4459 56.7013 94.68 55.4982 94.68 53.9459C94.68 52.4325 93.4459 51.2293 91.9419 51.2293C90.438 51.2293 89.2423 52.4325 89.2423 53.9459C89.2423 55.4982 90.438 56.7013 91.9419 56.7013ZM98.0355 69.858C99.655 69.858 100.966 68.5382 100.966 66.9082C100.966 65.2785 99.655 63.9975 98.0355 63.9975C96.3772 63.9975 95.1043 65.2785 95.1043 66.9082C95.1043 68.5382 96.3772 69.858 98.0355 69.858ZM91.9419 82.6262C93.4459 82.6262 94.68 81.3842 94.68 79.9095C94.68 78.3573 93.4459 77.1541 91.9419 77.1541C90.438 77.1541 89.2423 78.3573 89.2423 79.9095C89.2423 81.3842 90.438 82.6262 91.9419 82.6262ZM79.138 88.8748C80.7579 88.8748 82.0305 87.5938 82.0305 85.9641C82.0305 84.295 80.7579 82.9756 79.138 82.9756C77.4797 82.9756 76.2067 84.295 76.2067 85.9641C76.2067 87.5938 77.4797 88.8748 79.138 88.8748ZM66.2953 82.5874C67.7996 82.5874 68.9949 81.3842 68.9949 79.9095C68.9949 78.3573 67.7996 77.1541 66.2953 77.1541C64.7913 77.1541 63.5572 78.3573 63.5572 79.9095C63.5572 81.3842 64.7913 82.5874 66.2953 82.5874ZM60.202 69.858C61.8603 69.858 63.1715 68.5382 63.133 66.9082C63.1715 65.2785 61.8603 63.9975 60.202 63.9975C58.5822 63.9975 57.3096 65.2785 57.3096 66.9082C57.3096 68.5382 58.5822 69.858 60.202 69.858ZM66.2953 56.7013C67.7996 56.7013 68.9949 55.4982 68.9949 53.9459C68.9949 52.4325 67.7996 51.2293 66.2953 51.2293C64.7913 51.2293 63.5572 52.4325 63.5572 53.9459C63.5572 55.4982 64.7913 56.7013 66.2953 56.7013Z" fill="#FCD34D"/>
<path d="M30.4288 42.5356C31.7015 42.5356 32.7428 41.5653 32.7428 40.2459L32.7042 35.8992L35.7895 39.0039C36.6379 39.9352 38.1419 39.9352 39.0676 39.0039C39.9161 38.1111 39.9546 36.5976 39.0676 35.7051L35.9438 32.6778H40.2633C41.5359 32.6778 42.5772 31.63 42.5772 30.3492C42.5772 29.0685 41.5359 28.0595 40.2633 28.0595H35.9438L39.0291 25.0323C39.9546 24.1009 39.9161 22.6261 39.0291 21.6947C38.1034 20.8409 36.6379 20.7632 35.7125 21.6947L32.7428 24.7606L32.7042 20.4916C32.7042 19.1332 31.74 18.163 30.3902 18.163C29.1561 18.163 28.1148 19.1332 28.1148 20.4916L28.1534 24.7606L25.1066 21.6947C24.1811 20.802 22.7541 20.802 21.7899 21.6947C20.9415 22.5873 20.9029 24.1397 21.7899 25.0323L24.9138 28.0595H20.5944C19.3217 28.0595 18.2804 29.0685 18.2804 30.3492C18.2804 31.63 19.3217 32.6778 20.5944 32.6778H24.9138L21.8285 35.7051C20.9029 36.6364 20.9415 38.0723 21.8285 39.0039C22.7155 39.8965 24.1811 39.974 25.1066 39.0039L28.1148 35.8992L28.1534 40.2459C28.1534 41.5653 29.1175 42.5356 30.4288 42.5356ZM30.4673 13.5834C31.8557 13.5834 32.974 12.4191 32.974 11.022V2.52264C32.974 1.12548 31.8557 0 30.4673 0C29.079 0 27.922 1.12548 27.922 2.52264V11.022C27.922 12.4191 29.079 13.5834 30.4673 13.5834ZM38.9133 15.8344C40.1474 16.5718 41.6514 16.1449 42.3843 14.903L46.6267 7.6067C47.3208 6.36479 46.8581 4.8124 45.701 4.11385C44.4668 3.37645 42.9629 3.80337 42.2299 5.04528L37.9879 12.3803C37.2935 13.5834 37.7565 15.1746 38.9133 15.8344ZM45.1224 22.0828C45.8553 23.3247 47.3978 23.674 48.5934 23.0142L55.8826 18.7839C57.0782 18.1242 57.5024 16.533 56.808 15.3298C56.114 14.0879 54.5712 13.6999 53.3759 14.3984L46.0482 18.6287C44.891 19.2885 44.4283 20.9184 45.1224 22.0828ZM47.3978 30.6209C47.3978 32.0569 48.5549 33.1434 49.9049 33.1434L58.3509 33.1822C59.739 33.1822 60.9346 32.0181 60.9346 30.6597C60.9346 29.2238 59.739 28.0983 58.3894 28.0983L49.9049 28.0595C48.5549 28.0595 47.3978 29.2626 47.3978 30.6209ZM45.1224 39.1202C44.4283 40.4008 44.9295 41.9147 46.0482 42.6131L53.337 46.8823C54.5712 47.5808 56.114 47.1151 56.808 45.9895C57.5024 44.7088 57.0394 43.1953 55.8826 42.4969L48.5934 38.1889C47.4366 37.5292 45.7783 37.9561 45.1224 39.1202ZM38.9133 45.3685C37.7177 46.1448 37.3323 47.6973 37.9879 48.8614L42.1914 56.1966C42.8855 57.3998 44.5053 57.8654 45.701 57.1667C46.8966 56.4682 47.2438 54.916 46.5879 53.7128L42.3843 46.3001C41.6902 45.1744 40.1089 44.67 38.9133 45.3685ZM30.4673 47.6973C29.079 47.6973 27.922 48.8227 27.922 50.2199V58.7192C27.922 60.1165 29.079 61.2418 30.4673 61.2418C31.8557 61.2418 32.974 60.1165 32.974 58.7192V50.2199C32.974 48.8227 31.8557 47.6973 30.4673 47.6973ZM21.9828 45.4076C20.7487 44.67 19.2446 45.1357 18.5504 46.3388L14.3081 53.6741C13.5753 54.916 14.0381 56.4682 15.2337 57.1279C16.4678 57.8654 17.9719 57.4386 18.6661 56.1966L22.9084 48.9002C23.6411 47.6583 23.1783 46.0673 21.9828 45.4076ZM15.7736 39.1589C15.0794 37.9561 13.4982 37.568 12.3412 38.2277L5.01362 42.4578C3.81807 43.1566 3.4324 44.7475 4.08803 45.9507C4.82077 47.1539 6.36342 47.542 7.559 46.8823L14.848 42.6519C16.0436 41.9534 16.4678 40.3621 15.7736 39.1589ZM13.5368 30.6597C13.5368 29.185 12.3412 28.0983 10.9914 28.0983L2.58394 28.0595C1.15699 28.0595 0 29.2626 0 30.6209C0 32.0569 1.15699 33.1434 2.54537 33.1434L10.9914 33.1822C12.3412 33.1822 13.5368 32.0181 13.5368 30.6597ZM15.7736 22.1216C16.4678 20.8409 16.005 19.3273 14.848 18.6675L7.59754 14.3984C6.36342 13.661 4.82077 14.1267 4.08803 15.2911C3.4324 16.5718 3.85664 18.0854 5.01362 18.7451L12.3412 23.053C13.4596 23.7128 15.118 23.3247 15.7736 22.1216ZM21.9828 15.8732C23.2169 15.1358 23.6026 13.5446 22.9084 12.4191L18.7046 5.04528C18.049 3.84218 16.4292 3.37645 15.2337 4.07503C13.9996 4.8124 13.6525 6.36479 14.3467 7.56792L18.5504 14.9418C19.206 16.1061 20.8258 16.5718 21.9828 15.8732Z" fill="#FCD34D"/>
</svg>
