<svg width="117" height="118" viewBox="0 0 117 118" fill="none" xmlns="http://www.w3.org/2000/svg">
<path d="M3.4858 55.3345C1.52197 55.3345 0 56.9155 0 58.8422C0 60.7693 1.52197 62.3006 3.4858 62.3006H113.51C115.473 62.3006 116.946 60.7693 116.946 58.8422C116.946 56.9155 115.473 55.3345 113.51 55.3345H3.4858ZM61.9096 3.45841C61.9096 1.48217 60.388 0 58.473 0C56.5584 0 54.9873 1.48217 54.9873 3.45841V114.177C54.9873 116.104 56.5584 117.685 58.473 117.685C60.388 117.685 61.9096 116.104 61.9096 114.177V3.45841ZM80.7624 13.9325C81.4499 12.1044 80.5664 10.0788 78.8969 9.3871C77.0313 8.69543 75.0182 9.53533 74.2821 11.2151L36.1836 103.752C35.4963 105.58 36.38 107.606 38.0493 108.298C39.9149 108.989 41.8787 108.149 42.6643 106.42L80.7624 13.9325ZM106.783 15.217C108.011 13.883 108.011 11.7092 106.685 10.3258C105.31 8.99185 103.15 9.04126 101.825 10.3258L10.1628 102.418C8.88633 103.802 8.93543 105.975 10.261 107.359C11.6357 108.693 13.7959 108.643 15.1215 107.359L106.783 15.217ZM105.801 42.8844C107.471 42.1431 108.306 40.1669 107.569 38.3883C106.931 36.6097 104.918 35.7698 103.101 36.4615L11.1448 74.7511C9.4755 75.4919 8.64086 77.4683 9.3773 79.2964C10.0155 81.0751 12.0285 81.8656 13.845 81.1737L105.801 42.8844ZM103.101 81.2724C104.918 81.9642 106.882 81.0751 107.618 79.2964C108.306 77.4683 107.52 75.5416 105.703 74.8005L13.845 36.4121C12.0285 35.7204 10.0646 36.6097 9.3282 38.3883C8.64086 40.1669 9.4264 42.0938 11.2429 42.835L103.101 81.2724ZM101.825 107.408C103.15 108.693 105.31 108.693 106.685 107.359C108.011 105.975 108.011 103.9 106.685 102.517L15.1215 10.227C13.7959 8.94244 11.6357 8.99185 10.261 10.3258C8.93543 11.7092 8.93543 13.7842 10.261 15.1676L101.825 107.408ZM74.2821 106.47C75.0182 108.199 77.0803 108.989 78.7988 108.248C80.5664 107.606 81.3519 105.531 80.6644 103.802L42.6643 11.2151C41.8787 9.48592 39.8658 8.69543 38.1475 9.43651C36.38 10.0788 35.5454 12.055 36.2818 13.883L74.2821 106.47Z" fill="#86EFAC"/>
</svg>
