<svg width="82" height="92" viewBox="0 0 82 92" fill="none" xmlns="http://www.w3.org/2000/svg">
<path d="M0 13.7739C0 31.0121 8.21245 41.7808 24.5959 46.831C27.1675 50.0034 30.0709 52.5493 32.8913 54.3441V72.5007H26.3794C20.5312 72.5007 17.5033 75.8815 17.5033 81.4328V88.3198C17.5033 90.1979 18.955 91.4918 20.6971 91.4918H60.432C62.1741 91.4918 63.626 90.1979 63.626 88.3198V81.4328C63.626 75.8815 60.5566 72.5007 54.7082 72.5007H48.2378V54.3441C51.0583 52.5493 53.9617 50.0034 56.4916 46.831C72.9168 41.7808 81.1293 31.0121 81.1293 13.7739C81.1293 9.47476 78.4747 6.84521 74.0367 6.84521H65.9899C65.3263 2.58781 62.3401 0 57.3213 0H23.8078C18.8306 0 15.8028 2.54608 15.1391 6.84521H7.09259C2.65453 6.84521 0 9.47476 0 13.7739ZM5.93122 14.3582C5.93122 13.6904 6.42896 13.1478 7.13404 13.1478H14.9317V21.3286C14.9317 27.7147 16.5908 33.6416 19.1624 38.7754C10.4937 34.3512 5.93122 26.2538 5.93122 14.3582ZM61.9253 38.7754C64.5384 33.6416 66.1973 27.7147 66.1973 21.3286V13.1478H73.9949C74.7003 13.1478 75.198 13.6904 75.198 14.3582C75.198 26.2538 70.6354 34.3512 61.9253 38.7754Z" fill="#FCA5A5"/>
</svg>
