<?xml version="1.0" encoding="UTF-8"?>
<svg id="Layer_1" data-name="Layer 1" xmlns="http://www.w3.org/2000/svg" viewBox="0 0 312.55 312.39">
  <defs>
    <style>
      .cls-1 {
        fill: none;
      }
    </style>
  </defs>
  <path d="M147.38.31c111.84-6.94,194.4,105.61,155.32,210.74-43.64,117.39-202.65,137.8-274.42,34.84C-41.78,145.37,25.98,7.84,147.38.31ZM225.84,66.26c-.07,1.31-.66,2.36-1.56,3.28-19.68,20.2-38.48,41.23-57.66,61.89l-48.89-65.17h-57.04l73.61,99.43-73.61,80.93h15.75l66.8-70.63,51.09,70.63h57.59l-77.18-104.85,68.49-75.52h-17.38Z"/>
  <polygon points="228.01 234.68 202.48 234.68 121.11 126.99 85.68 78.22 111.21 78.22 228.01 234.68"/>
  <circle class="cls-1" cx="156.35" cy="156.5" r="155.08"/>
</svg>