<svg width="21" height="20" viewBox="0 0 21 20" fill="none" xmlns="http://www.w3.org/2000/svg">
<path d="M17.5498 2.90999C16.6329 1.9841 15.5408 1.24996 14.3373 0.750355C13.1338 0.250751 11.8429 -0.0043242 10.5398 -7.14002e-06C5.0798 -7.14002e-06 0.629805 4.44999 0.629805 9.90999C0.629805 11.66 1.0898 13.36 1.9498 14.86L0.549805 20L5.7998 18.62C7.2498 19.41 8.8798 19.83 10.5398 19.83C15.9998 19.83 20.4498 15.38 20.4498 9.91999C20.4498 7.26999 19.4198 4.77999 17.5498 2.90999ZM10.5398 18.15C9.0598 18.15 7.6098 17.75 6.3398 17L6.0398 16.82L2.9198 17.64L3.7498 14.6L3.5498 14.29C2.72735 12.9771 2.29073 11.4593 2.2898 9.90999C2.2898 5.36999 5.9898 1.66999 10.5298 1.66999C12.7298 1.66999 14.7998 2.52999 16.3498 4.08999C17.1174 4.85386 17.7257 5.76254 18.1394 6.76332C18.5531 7.76411 18.764 8.83708 18.7598 9.91999C18.7798 14.46 15.0798 18.15 10.5398 18.15ZM15.0598 11.99C14.8098 11.87 13.5898 11.27 13.3698 11.18C13.1398 11.1 12.9798 11.06 12.8098 11.3C12.6398 11.55 12.1698 12.11 12.0298 12.27C11.8898 12.44 11.7398 12.46 11.4898 12.33C11.2398 12.21 10.4398 11.94 9.4998 11.1C8.7598 10.44 8.2698 9.62999 8.1198 9.37999C7.9798 9.12999 8.0998 8.99999 8.2298 8.86999C8.3398 8.75999 8.4798 8.57999 8.5998 8.43999C8.7198 8.29999 8.7698 8.18999 8.8498 8.02999C8.9298 7.85999 8.8898 7.71999 8.8298 7.59999C8.7698 7.47999 8.2698 6.25999 8.0698 5.75999C7.8698 5.27999 7.6598 5.33999 7.5098 5.32999H7.0298C6.8598 5.32999 6.5998 5.38999 6.3698 5.63999C6.1498 5.88999 5.5098 6.48999 5.5098 7.70999C5.5098 8.92999 6.39981 10.11 6.5198 10.27C6.6398 10.44 8.2698 12.94 10.7498 14.01C11.3398 14.27 11.7998 14.42 12.1598 14.53C12.7498 14.72 13.2898 14.69 13.7198 14.63C14.1998 14.56 15.1898 14.03 15.3898 13.45C15.5998 12.87 15.5998 12.38 15.5298 12.27C15.4598 12.16 15.3098 12.11 15.0598 11.99Z" fill="white"/>
</svg>
