<svg width="27" height="27" viewBox="0 0 27 27" fill="none" xmlns="http://www.w3.org/2000/svg">
<rect width="27" height="27" rx="4" fill="#FCD34D"/>
<path d="M8.85428 4.64198L15.6912 4.87245C17.0512 4.92205 17.7905 5.58939 17.8162 6.83534L17.8572 9.10487C17.0498 9.92531 16.182 10.8698 15.3553 11.8168C15.3895 11.5799 15.1586 11.45 14.8699 11.5375C14.2265 11.7507 13.4836 11.8363 12.4021 11.807C11.3245 11.7645 10.5707 11.6338 9.92557 11.3695C9.60133 11.2584 9.35423 11.4108 9.47147 11.6996C9.88943 12.8975 11.0846 13.5995 12.4353 13.6537C13.0354 13.6718 13.5994 13.5581 14.075 13.3256C14.048 13.3584 14.0207 13.3915 13.9939 13.4242C13.4957 14.0778 13.1943 14.816 13.1414 15.6664C12.6152 15.7956 12.1178 16.0512 11.7097 16.4242C8.83295 16.0115 6.94554 13.8719 6.88846 10.9613L6.81033 6.46131C6.78294 5.22185 7.49234 4.59897 8.85428 4.64198ZM14.5252 7.99549C13.8599 7.97486 13.3542 8.43282 13.367 9.01307C13.3762 9.26457 13.4808 9.42832 13.6365 9.43592C13.8563 9.43972 14.0195 9.16557 14.5525 9.17811C15.0838 9.19734 15.2565 9.4865 15.4744 9.49745C15.6301 9.50505 15.7291 9.34755 15.7273 9.09803C15.7164 8.51111 15.1961 8.02488 14.5252 7.99549ZM10.1355 7.85291C9.46287 7.83014 8.9583 8.28138 8.9783 8.86366C8.97828 9.12001 9.0924 9.2802 9.23905 9.29237C9.46066 9.28962 9.62389 9.01442 10.1551 9.03358C10.6867 9.05278 10.8594 9.34297 11.0867 9.34901C11.2332 9.36097 11.3414 9.19818 11.3396 8.94862C11.3285 8.36188 10.808 7.8758 10.1355 7.85291Z" fill="black"/>
<path d="M19.6746 7.57684C19.2591 7.91431 16.6611 10.2415 14.6522 12.7374C16.427 12.9554 17.9677 13.9537 18.7985 15.4512C20.611 12.7234 21.6457 9.60872 21.8496 9.10251C22.4161 7.612 20.8527 6.64878 19.6746 7.57684ZM15.3017 15.9856C15.9437 16.4004 16.4723 17.0051 16.6762 17.5394C17.2653 17.3425 17.7109 16.991 18.0961 16.4778C18.164 16.3863 18.2396 16.2879 18.3 16.1895C17.6581 14.5724 15.8984 13.4475 14.0783 13.4335C13.9952 13.5248 13.9121 13.6303 13.8366 13.7358C13.4589 14.249 13.2626 14.7763 13.2702 15.3247C13.8668 15.3177 14.6673 15.5708 15.3017 15.9856ZM9.139 20.879C10.6948 22.3343 13.5496 22.4539 15.0978 21.0266C16.4195 19.8033 16.4648 18.2284 15.2111 17.0543C14.0858 15.9997 12.3865 15.9293 11.45 16.8152C10.3776 17.8347 11.0951 18.8752 10.4229 19.5009C9.86403 20.0283 9.37313 19.8384 9.06348 20.1127C8.84446 20.3025 8.82936 20.5908 9.139 20.879Z" fill="black"/>
</svg>
