<svg width="49" height="49" viewBox="0 0 49 49" fill="none" xmlns="http://www.w3.org/2000/svg">
<rect x="12.2305" y="12.2309" width="24" height="24" rx="4" fill="#F9A8D4"/>
<g clip-path="url(#clip0_4358_1934)">
<path d="M23.6652 20.9807C24.5945 20.9807 25.3472 20.2393 25.3472 19.3237C25.3472 18.4082 24.5945 17.6743 23.6652 17.6743C22.7358 17.6743 21.9908 18.4082 21.9908 19.3237C21.9908 20.2393 22.7358 20.9807 23.6652 20.9807ZM30.4547 33.2304C30.8849 33.2304 31.2305 32.8824 31.2305 32.4662V28.6302C31.2305 28.3578 31.0846 28.1535 30.8849 27.987L27.8664 25.5356L27.2673 22.3426C27.2136 22.0173 27.252 21.6995 27.4133 21.3818L29.9555 16.3805C30.1475 16.0022 29.9863 15.5406 29.6022 15.3515C29.2182 15.1623 28.7497 15.3137 28.5577 15.6844L26.0615 20.6176C25.8849 20.9656 25.6314 21.1926 25.255 21.3439L20.8541 23.1447L19.0799 21.7449C18.9494 21.6466 18.7958 21.6087 18.6652 21.6087V19.528H17.8126V22.3124C17.8126 22.5697 17.8895 22.7891 18.0892 22.9479L20.255 24.6428C20.5239 24.8471 20.8157 24.832 21.1537 24.6958L23.5577 23.7046C23.8956 23.5608 24.0646 23.75 24.103 23.977L25.2934 30.4461L21.9908 31.7474C21.5991 31.8988 21.3994 32.3452 21.5531 32.7462C21.7374 33.1926 22.1829 33.3137 22.5669 33.1623L26.4609 31.6339C26.7988 31.4978 26.9755 31.1724 26.9525 30.8244L26.7297 27.8433C26.7067 27.5104 27.0753 27.3213 27.3365 27.4953L29.679 29.0387V32.4662C29.679 32.8824 30.017 33.2304 30.4547 33.2304ZM18.2428 15.5028C17.1137 15.5028 16.2305 16.3805 16.2305 17.5003C16.2305 18.5142 17.106 19.634 18.2428 20.0123C19.3795 19.634 20.2474 18.5142 20.2474 17.5003C20.2474 16.3805 19.3641 15.5028 18.2428 15.5028ZM18.2428 16.3427C18.8879 16.3427 19.3948 16.8572 19.3948 17.523C19.3948 18.1737 18.911 18.8773 18.2428 19.1043C17.5746 18.8773 17.083 18.1737 17.083 17.523C17.083 16.8572 17.5899 16.3427 18.2428 16.3427Z" fill="black"/>
</g>
<defs>
<clipPath id="clip0_4358_1934">
<rect width="15" height="18" fill="white" transform="translate(16.2305 15.2309)"/>
</clipPath>
</defs>
</svg>
