<svg width="24" height="24" viewBox="0 0 24 24" fill="none" xmlns="http://www.w3.org/2000/svg">
<rect width="24" height="24" rx="4" fill="#A5B4FC"/>
<g clip-path="url(#clip0_4358_1840)">
<path d="M10.6663 11.3333H10.673M13.333 8.00001H13.3397M15.9997 8.00001H16.0063M8.33301 12.7334H8.33967M15.5997 10.5999C15.0664 11.1333 14.2664 11.1333 13.7331 10.5999M10.7331 8.73341C9.9998 8.80008 9.13314 9.13341 7.9998 9.73341C5.66647 11.0667 4.86647 12.3334 5.53314 13.4667C8.53314 18.6667 11.8665 19.0667 12.9998 18.4001C13.5998 18.0667 14.2665 17.0001 14.2665 15.2667M10.0664 15C10.2664 14.2666 10.9997 13.8666 11.6664 14.0666M18.6663 7.33334C18.6663 13.3333 15.9997 15.3333 14.6663 15.3333C13.333 15.3333 10.6663 13.3333 10.6663 7.33334C10.6663 6.00001 11.9997 5.33334 14.6663 5.33334C17.333 5.33334 18.6663 6.00001 18.6663 7.33334Z" stroke="black" stroke-linecap="round" stroke-linejoin="round"/>
</g>
<defs>
<clipPath id="clip0_4358_1840">
<rect width="16" height="16" fill="white" transform="translate(4 4)"/>
</clipPath>
</defs>
</svg>
